M48
; DRILL file {KiCad (5.1.10)-1} date 11/19/22 00:44:41
; FORMAT={-:-/ absolute / inch / decimal}
; #@! TF.CreationDate,2022-11-19T00:44:41-05:00
; #@! TF.GenerationSoftware,Kicad,Pcbnew,(5.1.10)-1
; #@! TF.FileFunction,Plated,1,2,PTH
FMAT,2
INCH
T1C0.0138
T2C0.0157
T3C0.0394
%
G90
G05
T1
X4.7275Y-4.5375
X4.76Y-4.6106
X4.96Y-4.61
X5.06Y-4.6106
X5.1425Y-4.705
X5.18Y-4.4175
X5.205Y-4.7275
X5.26Y-4.75
X5.2775Y-4.6775
X5.3325Y-4.5075
X5.355Y-4.5625
X5.45Y-4.4125
X5.485Y-4.5175
X5.55Y-4.4125
X5.666Y-4.914
X5.71Y-4.72
X5.7385Y-4.5655
X5.79Y-4.845
X5.805Y-4.73
X5.865Y-4.575
X5.88Y-4.71
X5.965Y-4.71
X6.125Y-4.85
T2
X4.81Y-4.55
X4.91Y-4.55
X5.01Y-4.55
X5.227Y-4.5045
X5.262Y-4.9695
X5.58Y-4.545
T3
X4.65Y-4.975
X4.75Y-4.975
X4.76Y-4.35
X4.76Y-4.45
X4.85Y-4.975
X4.86Y-4.35
X4.86Y-4.45
X4.95Y-4.975
X4.96Y-4.35
X4.96Y-4.45
X5.05Y-4.975
X5.06Y-4.35
X5.06Y-4.45
X5.15Y-4.975
X5.4Y-4.45
X5.4Y-4.975
X5.45Y-4.6448
X5.45Y-4.785
X5.5Y-4.45
X5.5Y-4.975
X5.55Y-4.6448
X5.55Y-4.785
X5.6Y-4.45
X5.6Y-4.975
X5.65Y-4.6448
X5.65Y-4.785
X5.7Y-4.45
X5.7Y-4.975
X5.75Y-4.6448
X5.75Y-4.785
X5.8Y-4.45
X5.8Y-4.975
X5.85Y-4.6448
X5.85Y-4.785
X5.9Y-4.45
X5.9Y-4.975
X5.95Y-4.6448
X5.95Y-4.785
X6.0Y-4.45
X6.0Y-4.975
X6.05Y-4.6448
X6.05Y-4.785
X6.1Y-4.45
X6.1Y-4.975
X6.15Y-4.6448
X6.15Y-4.785
X6.2Y-4.45
X6.2Y-4.975
X6.25Y-4.6448
X6.25Y-4.785
X6.3Y-4.45
X6.3Y-4.975
X6.35Y-4.6448
X6.35Y-4.785
X6.4Y-4.45
X6.4Y-4.975
X6.45Y-4.6448
X6.45Y-4.785
X6.5Y-4.45
X6.5Y-4.975
X6.55Y-4.6448
X6.55Y-4.785
X6.6Y-4.45
X6.6Y-4.975
X6.65Y-4.6448
X6.65Y-4.785
X6.7Y-4.45
X6.7Y-4.975
X6.75Y-4.6448
X6.75Y-4.785
X6.8Y-4.45
X6.8Y-4.975
X6.85Y-4.6448
X6.85Y-4.785
X6.9Y-4.45
X6.9Y-4.975
T0
M30
