%TF.GenerationSoftware,KiCad,Pcbnew,(5.1.10)-1*%
%TF.CreationDate,2022-11-19T00:44:39-05:00*%
%TF.ProjectId,ColecoProgrammingAdapter,436f6c65-636f-4507-926f-6772616d6d69,1*%
%TF.SameCoordinates,Original*%
%TF.FileFunction,Legend,Bot*%
%TF.FilePolarity,Positive*%
%FSLAX46Y46*%
G04 Gerber Fmt 4.6, Leading zero omitted, Abs format (unit mm)*
G04 Created by KiCad (PCBNEW (5.1.10)-1) date 2022-11-19 00:44:39*
%MOMM*%
%LPD*%
G01*
G04 APERTURE LIST*
%ADD10C,0.120000*%
%ADD11C,0.300000*%
G04 APERTURE END LIST*
D10*
X176403000Y-111887000D02*
X176403000Y-127508000D01*
X136017000Y-111887000D02*
X176403000Y-111887000D01*
X136017000Y-127508000D02*
X176403000Y-127508000D01*
X136017000Y-120523000D02*
X136017000Y-127508000D01*
X136017000Y-118999000D02*
X136017000Y-111887000D01*
X136017000Y-120523000D02*
G75*
G03*
X136017000Y-118999000I0J762000D01*
G01*
D11*
X180783571Y-112447357D02*
X181855000Y-112447357D01*
X182069285Y-112375928D01*
X182212142Y-112233071D01*
X182283571Y-112018785D01*
X182283571Y-111875928D01*
X182283571Y-113804500D02*
X181497857Y-113804500D01*
X181355000Y-113733071D01*
X181283571Y-113590214D01*
X181283571Y-113304500D01*
X181355000Y-113161642D01*
X182212142Y-113804500D02*
X182283571Y-113661642D01*
X182283571Y-113304500D01*
X182212142Y-113161642D01*
X182069285Y-113090214D01*
X181926428Y-113090214D01*
X181783571Y-113161642D01*
X181712142Y-113304500D01*
X181712142Y-113661642D01*
X181640714Y-113804500D01*
X181283571Y-114375928D02*
X182283571Y-114733071D01*
X181283571Y-115090214D02*
X182283571Y-114733071D01*
X182640714Y-114590214D01*
X182712142Y-114518785D01*
X182783571Y-114375928D01*
X182212142Y-115590214D02*
X182283571Y-115733071D01*
X182283571Y-116018785D01*
X182212142Y-116161642D01*
X182069285Y-116233071D01*
X181997857Y-116233071D01*
X181855000Y-116161642D01*
X181783571Y-116018785D01*
X181783571Y-115804500D01*
X181712142Y-115661642D01*
X181569285Y-115590214D01*
X181497857Y-115590214D01*
X181355000Y-115661642D01*
X181283571Y-115804500D01*
X181283571Y-116018785D01*
X181355000Y-116161642D01*
X181283571Y-116661642D02*
X181283571Y-117233071D01*
X180783571Y-116875928D02*
X182069285Y-116875928D01*
X182212142Y-116947357D01*
X182283571Y-117090214D01*
X182283571Y-117233071D01*
X182283571Y-117947357D02*
X182212142Y-117804500D01*
X182140714Y-117733071D01*
X181997857Y-117661642D01*
X181569285Y-117661642D01*
X181426428Y-117733071D01*
X181355000Y-117804500D01*
X181283571Y-117947357D01*
X181283571Y-118161642D01*
X181355000Y-118304500D01*
X181426428Y-118375928D01*
X181569285Y-118447357D01*
X181997857Y-118447357D01*
X182140714Y-118375928D01*
X182212142Y-118304500D01*
X182283571Y-118161642D01*
X182283571Y-117947357D01*
X181283571Y-119090214D02*
X182283571Y-119090214D01*
X181426428Y-119090214D02*
X181355000Y-119161642D01*
X181283571Y-119304500D01*
X181283571Y-119518785D01*
X181355000Y-119661642D01*
X181497857Y-119733071D01*
X182283571Y-119733071D01*
X182283571Y-120447357D02*
X181283571Y-120447357D01*
X180783571Y-120447357D02*
X180855000Y-120375928D01*
X180926428Y-120447357D01*
X180855000Y-120518785D01*
X180783571Y-120447357D01*
X180926428Y-120447357D01*
X182283571Y-121804500D02*
X181497857Y-121804500D01*
X181355000Y-121733071D01*
X181283571Y-121590214D01*
X181283571Y-121304500D01*
X181355000Y-121161642D01*
X182212142Y-121804500D02*
X182283571Y-121661642D01*
X182283571Y-121304500D01*
X182212142Y-121161642D01*
X182069285Y-121090214D01*
X181926428Y-121090214D01*
X181783571Y-121161642D01*
X181712142Y-121304500D01*
X181712142Y-121661642D01*
X181640714Y-121804500D01*
X181283571Y-122518785D02*
X182283571Y-122518785D01*
X181426428Y-122518785D02*
X181355000Y-122590214D01*
X181283571Y-122733071D01*
X181283571Y-122947357D01*
X181355000Y-123090214D01*
X181497857Y-123161642D01*
X182283571Y-123161642D01*
X180783571Y-123947357D02*
X181069285Y-123804500D01*
X182212142Y-124518785D02*
X182283571Y-124661642D01*
X182283571Y-124947357D01*
X182212142Y-125090214D01*
X182069285Y-125161642D01*
X181997857Y-125161642D01*
X181855000Y-125090214D01*
X181783571Y-124947357D01*
X181783571Y-124733071D01*
X181712142Y-124590214D01*
X181569285Y-124518785D01*
X181497857Y-124518785D01*
X181355000Y-124590214D01*
X181283571Y-124733071D01*
X181283571Y-124947357D01*
X181355000Y-125090214D01*
X184833571Y-112983071D02*
X184119285Y-112483071D01*
X184833571Y-112125928D02*
X183333571Y-112125928D01*
X183333571Y-112697357D01*
X183405000Y-112840214D01*
X183476428Y-112911642D01*
X183619285Y-112983071D01*
X183833571Y-112983071D01*
X183976428Y-112911642D01*
X184047857Y-112840214D01*
X184119285Y-112697357D01*
X184119285Y-112125928D01*
X184762142Y-114197357D02*
X184833571Y-114054500D01*
X184833571Y-113768785D01*
X184762142Y-113625928D01*
X184619285Y-113554500D01*
X184047857Y-113554500D01*
X183905000Y-113625928D01*
X183833571Y-113768785D01*
X183833571Y-114054500D01*
X183905000Y-114197357D01*
X184047857Y-114268785D01*
X184190714Y-114268785D01*
X184333571Y-113554500D01*
X183833571Y-114697357D02*
X183833571Y-115268785D01*
X183333571Y-114911642D02*
X184619285Y-114911642D01*
X184762142Y-114983071D01*
X184833571Y-115125928D01*
X184833571Y-115268785D01*
X184833571Y-115768785D02*
X183833571Y-115768785D01*
X184119285Y-115768785D02*
X183976428Y-115840214D01*
X183905000Y-115911642D01*
X183833571Y-116054500D01*
X183833571Y-116197357D01*
X184833571Y-116911642D02*
X184762142Y-116768785D01*
X184690714Y-116697357D01*
X184547857Y-116625928D01*
X184119285Y-116625928D01*
X183976428Y-116697357D01*
X183905000Y-116768785D01*
X183833571Y-116911642D01*
X183833571Y-117125928D01*
X183905000Y-117268785D01*
X183976428Y-117340214D01*
X184119285Y-117411642D01*
X184547857Y-117411642D01*
X184690714Y-117340214D01*
X184762142Y-117268785D01*
X184833571Y-117125928D01*
X184833571Y-116911642D01*
X183333571Y-119054500D02*
X184833571Y-119411642D01*
X183762142Y-119697357D01*
X184833571Y-119983071D01*
X183333571Y-120340214D01*
X184833571Y-121554500D02*
X184047857Y-121554500D01*
X183905000Y-121483071D01*
X183833571Y-121340214D01*
X183833571Y-121054500D01*
X183905000Y-120911642D01*
X184762142Y-121554500D02*
X184833571Y-121411642D01*
X184833571Y-121054500D01*
X184762142Y-120911642D01*
X184619285Y-120840214D01*
X184476428Y-120840214D01*
X184333571Y-120911642D01*
X184262142Y-121054500D01*
X184262142Y-121411642D01*
X184190714Y-121554500D01*
X184833571Y-122268785D02*
X183833571Y-122268785D01*
X184119285Y-122268785D02*
X183976428Y-122340214D01*
X183905000Y-122411642D01*
X183833571Y-122554500D01*
X183833571Y-122697357D01*
X184762142Y-123768785D02*
X184833571Y-123625928D01*
X184833571Y-123340214D01*
X184762142Y-123197357D01*
X184619285Y-123125928D01*
X184047857Y-123125928D01*
X183905000Y-123197357D01*
X183833571Y-123340214D01*
X183833571Y-123625928D01*
X183905000Y-123768785D01*
X184047857Y-123840214D01*
X184190714Y-123840214D01*
X184333571Y-123125928D01*
X184762142Y-124411642D02*
X184833571Y-124554500D01*
X184833571Y-124840214D01*
X184762142Y-124983071D01*
X184619285Y-125054500D01*
X184547857Y-125054500D01*
X184405000Y-124983071D01*
X184333571Y-124840214D01*
X184333571Y-124625928D01*
X184262142Y-124483071D01*
X184119285Y-124411642D01*
X184047857Y-124411642D01*
X183905000Y-124483071D01*
X183833571Y-124625928D01*
X183833571Y-124840214D01*
X183905000Y-124983071D01*
D10*
%TO.C,R1*%
X120169000Y-118337064D02*
X120169000Y-117882936D01*
X121639000Y-118337064D02*
X121639000Y-117882936D01*
%TO.C,R2*%
X124179000Y-118337064D02*
X124179000Y-117882936D01*
X122709000Y-118337064D02*
X122709000Y-117882936D01*
%TO.C,R3*%
X125249000Y-118337064D02*
X125249000Y-117882936D01*
X126719000Y-118337064D02*
X126719000Y-117882936D01*
%TO.C,R4*%
X129259000Y-118337064D02*
X129259000Y-117882936D01*
X127789000Y-118337064D02*
X127789000Y-117882936D01*
%TD*%
M02*
