%TF.GenerationSoftware,KiCad,Pcbnew,(5.1.10)-1*%
%TF.CreationDate,2022-11-19T00:44:39-05:00*%
%TF.ProjectId,ColecoProgrammingAdapter,436f6c65-636f-4507-926f-6772616d6d69,1*%
%TF.SameCoordinates,Original*%
%TF.FileFunction,Soldermask,Bot*%
%TF.FilePolarity,Negative*%
%FSLAX46Y46*%
G04 Gerber Fmt 4.6, Leading zero omitted, Abs format (unit mm)*
G04 Created by KiCad (PCBNEW (5.1.10)-1) date 2022-11-19 00:44:39*
%MOMM*%
%LPD*%
G01*
G04 APERTURE LIST*
%ADD10C,1.800000*%
%ADD11R,1.800000X1.800000*%
%ADD12R,1.700000X1.700000*%
%ADD13O,1.700000X1.700000*%
%ADD14C,1.700000*%
G04 APERTURE END LIST*
D10*
%TO.C,X1*%
X138430000Y-121539000D03*
X138430000Y-117979000D03*
X140970000Y-121539000D03*
X140970000Y-117979000D03*
X143510000Y-121539000D03*
X143510000Y-117979000D03*
X146050000Y-121539000D03*
X146050000Y-117979000D03*
X148590000Y-121539000D03*
X148590000Y-117979000D03*
X151130000Y-121539000D03*
X151130000Y-117979000D03*
X153670000Y-121539000D03*
X153670000Y-117979000D03*
X156210000Y-121539000D03*
X156210000Y-117979000D03*
X158750000Y-121539000D03*
X158750000Y-117979000D03*
X161290000Y-121539000D03*
X161290000Y-117979000D03*
X163830000Y-121539000D03*
X163830000Y-117979000D03*
X166370000Y-121539000D03*
X166370000Y-117979000D03*
X168910000Y-121539000D03*
X168910000Y-117979000D03*
X171450000Y-121539000D03*
X171450000Y-117979000D03*
X173990000Y-117979000D03*
D11*
X173990000Y-121539000D03*
%TD*%
D12*
%TO.C,J2*%
X137160000Y-126365000D03*
D13*
X139700000Y-126365000D03*
X142240000Y-126365000D03*
X144780000Y-126365000D03*
X147320000Y-126365000D03*
X149860000Y-126365000D03*
X152400000Y-126365000D03*
X154940000Y-126365000D03*
X157480000Y-126365000D03*
X160020000Y-126365000D03*
X162560000Y-126365000D03*
X165100000Y-126365000D03*
X167640000Y-126365000D03*
X170180000Y-126365000D03*
X172720000Y-126365000D03*
X175260000Y-126365000D03*
%TD*%
%TO.C,J3*%
X137160000Y-113030000D03*
X139700000Y-113030000D03*
X142240000Y-113030000D03*
X144780000Y-113030000D03*
X147320000Y-113030000D03*
X149860000Y-113030000D03*
X152400000Y-113030000D03*
X154940000Y-113030000D03*
X157480000Y-113030000D03*
X160020000Y-113030000D03*
X162560000Y-113030000D03*
X165100000Y-113030000D03*
X167640000Y-113030000D03*
X170180000Y-113030000D03*
X172720000Y-113030000D03*
D14*
X175260000Y-113030000D03*
%TD*%
D12*
%TO.C,J1*%
X130810000Y-126365000D03*
D13*
X128270000Y-126365000D03*
X125730000Y-126365000D03*
X123190000Y-126365000D03*
X120650000Y-126365000D03*
X118110000Y-126365000D03*
%TD*%
D12*
%TO.C,J4*%
X120904000Y-110490000D03*
D13*
X120904000Y-113030000D03*
%TD*%
%TO.C,J5*%
X123444000Y-113030000D03*
D12*
X123444000Y-110490000D03*
%TD*%
%TO.C,J6*%
X125984000Y-110490000D03*
D13*
X125984000Y-113030000D03*
%TD*%
%TO.C,J7*%
X128524000Y-113030000D03*
D12*
X128524000Y-110490000D03*
%TD*%
%TO.C,R1*%
G36*
G01*
X121354001Y-119710000D02*
X120453999Y-119710000D01*
G75*
G02*
X120204000Y-119460001I0J249999D01*
G01*
X120204000Y-118759999D01*
G75*
G02*
X120453999Y-118510000I249999J0D01*
G01*
X121354001Y-118510000D01*
G75*
G02*
X121604000Y-118759999I0J-249999D01*
G01*
X121604000Y-119460001D01*
G75*
G02*
X121354001Y-119710000I-249999J0D01*
G01*
G37*
G36*
G01*
X121354001Y-117710000D02*
X120453999Y-117710000D01*
G75*
G02*
X120204000Y-117460001I0J249999D01*
G01*
X120204000Y-116759999D01*
G75*
G02*
X120453999Y-116510000I249999J0D01*
G01*
X121354001Y-116510000D01*
G75*
G02*
X121604000Y-116759999I0J-249999D01*
G01*
X121604000Y-117460001D01*
G75*
G02*
X121354001Y-117710000I-249999J0D01*
G01*
G37*
%TD*%
%TO.C,R2*%
G36*
G01*
X123894001Y-117710000D02*
X122993999Y-117710000D01*
G75*
G02*
X122744000Y-117460001I0J249999D01*
G01*
X122744000Y-116759999D01*
G75*
G02*
X122993999Y-116510000I249999J0D01*
G01*
X123894001Y-116510000D01*
G75*
G02*
X124144000Y-116759999I0J-249999D01*
G01*
X124144000Y-117460001D01*
G75*
G02*
X123894001Y-117710000I-249999J0D01*
G01*
G37*
G36*
G01*
X123894001Y-119710000D02*
X122993999Y-119710000D01*
G75*
G02*
X122744000Y-119460001I0J249999D01*
G01*
X122744000Y-118759999D01*
G75*
G02*
X122993999Y-118510000I249999J0D01*
G01*
X123894001Y-118510000D01*
G75*
G02*
X124144000Y-118759999I0J-249999D01*
G01*
X124144000Y-119460001D01*
G75*
G02*
X123894001Y-119710000I-249999J0D01*
G01*
G37*
%TD*%
%TO.C,R3*%
G36*
G01*
X126434001Y-119710000D02*
X125533999Y-119710000D01*
G75*
G02*
X125284000Y-119460001I0J249999D01*
G01*
X125284000Y-118759999D01*
G75*
G02*
X125533999Y-118510000I249999J0D01*
G01*
X126434001Y-118510000D01*
G75*
G02*
X126684000Y-118759999I0J-249999D01*
G01*
X126684000Y-119460001D01*
G75*
G02*
X126434001Y-119710000I-249999J0D01*
G01*
G37*
G36*
G01*
X126434001Y-117710000D02*
X125533999Y-117710000D01*
G75*
G02*
X125284000Y-117460001I0J249999D01*
G01*
X125284000Y-116759999D01*
G75*
G02*
X125533999Y-116510000I249999J0D01*
G01*
X126434001Y-116510000D01*
G75*
G02*
X126684000Y-116759999I0J-249999D01*
G01*
X126684000Y-117460001D01*
G75*
G02*
X126434001Y-117710000I-249999J0D01*
G01*
G37*
%TD*%
%TO.C,R4*%
G36*
G01*
X128974001Y-117710000D02*
X128073999Y-117710000D01*
G75*
G02*
X127824000Y-117460001I0J249999D01*
G01*
X127824000Y-116759999D01*
G75*
G02*
X128073999Y-116510000I249999J0D01*
G01*
X128974001Y-116510000D01*
G75*
G02*
X129224000Y-116759999I0J-249999D01*
G01*
X129224000Y-117460001D01*
G75*
G02*
X128974001Y-117710000I-249999J0D01*
G01*
G37*
G36*
G01*
X128974001Y-119710000D02*
X128073999Y-119710000D01*
G75*
G02*
X127824000Y-119460001I0J249999D01*
G01*
X127824000Y-118759999D01*
G75*
G02*
X128073999Y-118510000I249999J0D01*
G01*
X128974001Y-118510000D01*
G75*
G02*
X129224000Y-118759999I0J-249999D01*
G01*
X129224000Y-119460001D01*
G75*
G02*
X128974001Y-119710000I-249999J0D01*
G01*
G37*
%TD*%
M02*
