%TF.GenerationSoftware,KiCad,Pcbnew,(5.1.10)-1*%
%TF.CreationDate,2022-11-19T00:44:39-05:00*%
%TF.ProjectId,ColecoProgrammingAdapter,436f6c65-636f-4507-926f-6772616d6d69,1*%
%TF.SameCoordinates,Original*%
%TF.FileFunction,Copper,L1,Top*%
%TF.FilePolarity,Positive*%
%FSLAX46Y46*%
G04 Gerber Fmt 4.6, Leading zero omitted, Abs format (unit mm)*
G04 Created by KiCad (PCBNEW (5.1.10)-1) date 2022-11-19 00:44:39*
%MOMM*%
%LPD*%
G01*
G04 APERTURE LIST*
%TA.AperFunction,ComponentPad*%
%ADD10C,1.800000*%
%TD*%
%TA.AperFunction,ComponentPad*%
%ADD11R,1.800000X1.800000*%
%TD*%
%TA.AperFunction,ComponentPad*%
%ADD12R,1.700000X1.700000*%
%TD*%
%TA.AperFunction,ComponentPad*%
%ADD13O,1.700000X1.700000*%
%TD*%
%TA.AperFunction,ComponentPad*%
%ADD14C,1.700000*%
%TD*%
%TA.AperFunction,ViaPad*%
%ADD15C,0.800000*%
%TD*%
%TA.AperFunction,ViaPad*%
%ADD16C,0.400000*%
%TD*%
%TA.AperFunction,Conductor*%
%ADD17C,0.300000*%
%TD*%
%TA.AperFunction,Conductor*%
%ADD18C,1.000000*%
%TD*%
%TA.AperFunction,Conductor*%
%ADD19C,0.254000*%
%TD*%
%TA.AperFunction,Conductor*%
%ADD20C,0.100000*%
%TD*%
G04 APERTURE END LIST*
D10*
%TO.P,X1,29*%
%TO.N,GND*%
X138430000Y-121539000D03*
%TO.P,X1,30*%
%TO.N,+5V*%
X138430000Y-117979000D03*
%TO.P,X1,27*%
%TO.N,/~EE0*%
X140970000Y-121539000D03*
%TO.P,X1,28*%
%TO.N,/A8*%
X140970000Y-117979000D03*
%TO.P,X1,25*%
%TO.N,/A7*%
X143510000Y-121539000D03*
%TO.P,X1,26*%
%TO.N,/A9*%
X143510000Y-117979000D03*
%TO.P,X1,23*%
%TO.N,/A6*%
X146050000Y-121539000D03*
%TO.P,X1,24*%
%TO.N,/A12*%
X146050000Y-117979000D03*
%TO.P,X1,21*%
%TO.N,/A5*%
X148590000Y-121539000D03*
%TO.P,X1,22*%
%TO.N,/~EA0*%
X148590000Y-117979000D03*
%TO.P,X1,19*%
%TO.N,/A13*%
X151130000Y-121539000D03*
%TO.P,X1,20*%
%TO.N,/A14*%
X151130000Y-117979000D03*
%TO.P,X1,17*%
%TO.N,/A4*%
X153670000Y-121539000D03*
%TO.P,X1,18*%
%TO.N,/~E80*%
X153670000Y-117979000D03*
%TO.P,X1,15*%
%TO.N,/A3*%
X156210000Y-121539000D03*
%TO.P,X1,16*%
%TO.N,/A10*%
X156210000Y-117979000D03*
%TO.P,X1,13*%
%TO.N,N/C*%
X158750000Y-121539000D03*
%TO.P,X1,14*%
%TO.N,/A11*%
X158750000Y-117979000D03*
%TO.P,X1,11*%
%TO.N,/A2*%
X161290000Y-121539000D03*
%TO.P,X1,12*%
%TO.N,/D7*%
X161290000Y-117979000D03*
%TO.P,X1,9*%
%TO.N,/A1*%
X163830000Y-121539000D03*
%TO.P,X1,10*%
%TO.N,/D6*%
X163830000Y-117979000D03*
%TO.P,X1,7*%
%TO.N,/A0*%
X166370000Y-121539000D03*
%TO.P,X1,8*%
%TO.N,/D5*%
X166370000Y-117979000D03*
%TO.P,X1,5*%
%TO.N,/D0*%
X168910000Y-121539000D03*
%TO.P,X1,6*%
%TO.N,/D4*%
X168910000Y-117979000D03*
%TO.P,X1,3*%
%TO.N,/D1*%
X171450000Y-121539000D03*
%TO.P,X1,4*%
%TO.N,/D3*%
X171450000Y-117979000D03*
%TO.P,X1,2*%
%TO.N,/~EC0*%
X173990000Y-117979000D03*
D11*
%TO.P,X1,1*%
%TO.N,/D2*%
X173990000Y-121539000D03*
%TD*%
D12*
%TO.P,J2,1*%
%TO.N,/SA18*%
X137160000Y-126365000D03*
D13*
%TO.P,J2,2*%
%TO.N,/SA16*%
X139700000Y-126365000D03*
%TO.P,J2,3*%
%TO.N,/SA15*%
X142240000Y-126365000D03*
%TO.P,J2,4*%
%TO.N,/A12*%
X144780000Y-126365000D03*
%TO.P,J2,5*%
%TO.N,/A7*%
X147320000Y-126365000D03*
%TO.P,J2,6*%
%TO.N,/A6*%
X149860000Y-126365000D03*
%TO.P,J2,7*%
%TO.N,/A5*%
X152400000Y-126365000D03*
%TO.P,J2,8*%
%TO.N,/A4*%
X154940000Y-126365000D03*
%TO.P,J2,9*%
%TO.N,/A3*%
X157480000Y-126365000D03*
%TO.P,J2,10*%
%TO.N,/A2*%
X160020000Y-126365000D03*
%TO.P,J2,11*%
%TO.N,/A1*%
X162560000Y-126365000D03*
%TO.P,J2,12*%
%TO.N,/A0*%
X165100000Y-126365000D03*
%TO.P,J2,13*%
%TO.N,/D0*%
X167640000Y-126365000D03*
%TO.P,J2,14*%
%TO.N,/D1*%
X170180000Y-126365000D03*
%TO.P,J2,15*%
%TO.N,/D2*%
X172720000Y-126365000D03*
%TO.P,J2,16*%
%TO.N,GND*%
X175260000Y-126365000D03*
%TD*%
%TO.P,J3,16*%
%TO.N,+5V*%
X137160000Y-113030000D03*
%TO.P,J3,15*%
%TO.N,/~RWE*%
X139700000Y-113030000D03*
%TO.P,J3,14*%
%TO.N,/SA17*%
X142240000Y-113030000D03*
%TO.P,J3,13*%
%TO.N,/A14*%
X144780000Y-113030000D03*
%TO.P,J3,12*%
%TO.N,/A13*%
X147320000Y-113030000D03*
%TO.P,J3,11*%
%TO.N,/A8*%
X149860000Y-113030000D03*
%TO.P,J3,10*%
%TO.N,/A9*%
X152400000Y-113030000D03*
%TO.P,J3,9*%
%TO.N,/A11*%
X154940000Y-113030000D03*
%TO.P,J3,8*%
%TO.N,/~POE*%
X157480000Y-113030000D03*
%TO.P,J3,7*%
%TO.N,/A10*%
X160020000Y-113030000D03*
%TO.P,J3,6*%
%TO.N,/~CE*%
X162560000Y-113030000D03*
%TO.P,J3,5*%
%TO.N,/D7*%
X165100000Y-113030000D03*
%TO.P,J3,4*%
%TO.N,/D6*%
X167640000Y-113030000D03*
%TO.P,J3,3*%
%TO.N,/D5*%
X170180000Y-113030000D03*
%TO.P,J3,2*%
%TO.N,/D4*%
X172720000Y-113030000D03*
D14*
%TO.P,J3,1*%
%TO.N,/D3*%
X175260000Y-113030000D03*
%TD*%
D12*
%TO.P,J1,1*%
%TO.N,/SA15*%
X130810000Y-126365000D03*
D13*
%TO.P,J1,2*%
%TO.N,/SA16*%
X128270000Y-126365000D03*
%TO.P,J1,3*%
%TO.N,/SA17*%
X125730000Y-126365000D03*
%TO.P,J1,4*%
%TO.N,/SA18*%
X123190000Y-126365000D03*
%TO.P,J1,5*%
%TO.N,/~POE*%
X120650000Y-126365000D03*
%TO.P,J1,6*%
%TO.N,/~RWE*%
X118110000Y-126365000D03*
%TD*%
D12*
%TO.P,J4,1*%
%TO.N,/~CE*%
X120904000Y-110490000D03*
D13*
%TO.P,J4,2*%
%TO.N,/~E80*%
X120904000Y-113030000D03*
%TD*%
%TO.P,J5,2*%
%TO.N,/~EA0*%
X123444000Y-113030000D03*
D12*
%TO.P,J5,1*%
%TO.N,/~CE*%
X123444000Y-110490000D03*
%TD*%
%TO.P,J6,1*%
%TO.N,/~CE*%
X125984000Y-110490000D03*
D13*
%TO.P,J6,2*%
%TO.N,/~EC0*%
X125984000Y-113030000D03*
%TD*%
%TO.P,J7,2*%
%TO.N,/~EE0*%
X128524000Y-113030000D03*
D12*
%TO.P,J7,1*%
%TO.N,/~CE*%
X128524000Y-110490000D03*
%TD*%
D15*
%TO.N,GND*%
X133654800Y-126225300D03*
X132765800Y-114414300D03*
X127254000Y-115570000D03*
X124714000Y-115570000D03*
X122174000Y-115570000D03*
X141732000Y-115443000D03*
D16*
X148971000Y-116205000D03*
X151511000Y-119634000D03*
X147447000Y-120142000D03*
X149352000Y-119634000D03*
X145034000Y-119888000D03*
X134048500Y-118808500D03*
X143917001Y-124814999D03*
X147066000Y-123063000D03*
X155575000Y-123190000D03*
X139319000Y-114744500D03*
X138430000Y-112077500D03*
X140970000Y-112077500D03*
X120078500Y-115252500D03*
X145757900Y-115963700D03*
%TO.N,/SA17*%
X136017000Y-115887500D03*
%TO.N,/~RWE*%
X135445500Y-114490500D03*
%TO.N,/~E80*%
X120904000Y-117110000D03*
X130619500Y-119507000D03*
%TO.N,/~EA0*%
X131572000Y-112204500D03*
%TO.N,/~EC0*%
X125984000Y-117094000D03*
X132207000Y-120078500D03*
%TO.N,/~EE0*%
X128524000Y-117110000D03*
X133604000Y-120650000D03*
%TD*%
D17*
%TO.N,/D3*%
X175260000Y-114169000D02*
X175260000Y-113030000D01*
X171450000Y-117979000D02*
X175260000Y-114169000D01*
%TO.N,/D4*%
X168910000Y-117979000D02*
X172589000Y-114300000D01*
X172589000Y-113161000D02*
X172720000Y-113030000D01*
X172589000Y-114300000D02*
X172589000Y-113161000D01*
%TO.N,/D5*%
X170180000Y-114169000D02*
X170180000Y-113030000D01*
X166370000Y-117979000D02*
X170180000Y-114169000D01*
%TO.N,/A12*%
X144331500Y-119697500D02*
X146050000Y-117979000D01*
X143065500Y-119697500D02*
X144331500Y-119697500D01*
X142240000Y-124269500D02*
X142240000Y-120523000D01*
X142240000Y-120523000D02*
X143065500Y-119697500D01*
X144335500Y-126365000D02*
X142240000Y-124269500D01*
X144780000Y-126365000D02*
X144335500Y-126365000D01*
%TO.N,/D6*%
X167640000Y-114169000D02*
X167640000Y-113030000D01*
X163830000Y-117979000D02*
X167640000Y-114169000D01*
%TO.N,/A7*%
X143510000Y-123190000D02*
X143510000Y-121539000D01*
X146685000Y-126365000D02*
X143510000Y-123190000D01*
X147320000Y-126365000D02*
X146685000Y-126365000D01*
%TO.N,/D7*%
X165100000Y-114169000D02*
X165100000Y-113030000D01*
X161290000Y-117979000D02*
X165100000Y-114169000D01*
%TO.N,/A6*%
X146050000Y-123253500D02*
X146050000Y-121539000D01*
X149161500Y-126365000D02*
X146050000Y-123253500D01*
X149860000Y-126365000D02*
X149161500Y-126365000D01*
%TO.N,/A5*%
X148590000Y-122999500D02*
X148590000Y-121539000D01*
X151955500Y-126365000D02*
X148590000Y-122999500D01*
X152400000Y-126365000D02*
X151955500Y-126365000D01*
%TO.N,/A10*%
X160020000Y-114169000D02*
X160020000Y-113030000D01*
X156210000Y-117979000D02*
X160020000Y-114169000D01*
%TO.N,/A4*%
X154940000Y-122809000D02*
X153670000Y-121539000D01*
X154940000Y-126365000D02*
X154940000Y-122809000D01*
%TO.N,/A3*%
X157480000Y-122809000D02*
X156210000Y-121539000D01*
X157480000Y-126365000D02*
X157480000Y-122809000D01*
%TO.N,/A2*%
X160020000Y-126365000D02*
X160020000Y-124460000D01*
X161290000Y-123190000D02*
X161290000Y-121539000D01*
X160020000Y-124460000D02*
X161290000Y-123190000D01*
%TO.N,/A9*%
X150050500Y-115379500D02*
X152400000Y-113030000D01*
X143510000Y-117979000D02*
X143510000Y-116205000D01*
X143510000Y-116205000D02*
X144335500Y-115379500D01*
X144335500Y-115379500D02*
X150050500Y-115379500D01*
%TO.N,/A1*%
X162560000Y-126365000D02*
X162560000Y-124460000D01*
X163830000Y-123190000D02*
X163830000Y-121539000D01*
X162560000Y-124460000D02*
X163830000Y-123190000D01*
%TO.N,/A8*%
X148010511Y-114879489D02*
X149860000Y-113030000D01*
X140970000Y-117979000D02*
X144069511Y-114879489D01*
X144069511Y-114879489D02*
X148010511Y-114879489D01*
%TO.N,/A0*%
X165100000Y-126365000D02*
X165100000Y-124460000D01*
X166370000Y-123190000D02*
X166370000Y-121539000D01*
X165100000Y-124460000D02*
X166370000Y-123190000D01*
%TO.N,/D0*%
X167640000Y-126365000D02*
X167640000Y-124460000D01*
X168910000Y-123190000D02*
X168910000Y-121539000D01*
X167640000Y-124460000D02*
X168910000Y-123190000D01*
%TO.N,/D1*%
X170180000Y-126365000D02*
X170180000Y-124460000D01*
X171450000Y-123190000D02*
X171450000Y-121539000D01*
X170180000Y-124460000D02*
X171450000Y-123190000D01*
%TO.N,/D2*%
X172720000Y-126365000D02*
X172720000Y-124460000D01*
X173990000Y-123190000D02*
X173990000Y-121539000D01*
X172720000Y-124460000D02*
X173990000Y-123190000D01*
D18*
%TO.N,+5V*%
X138430000Y-117979000D02*
X138430000Y-116205000D01*
X137160000Y-114935000D02*
X137160000Y-113030000D01*
X138430000Y-116205000D02*
X137160000Y-114935000D01*
D17*
%TO.N,/SA17*%
X125730000Y-126365000D02*
X127508000Y-124587000D01*
X127508000Y-124587000D02*
X133286500Y-124587000D01*
X133286500Y-124587000D02*
X136017000Y-121856500D01*
X136017000Y-121856500D02*
X136017000Y-115887500D01*
%TO.N,/SA18*%
X135959999Y-127565001D02*
X137160000Y-126365000D01*
X124390001Y-127565001D02*
X135959999Y-127565001D01*
X123190000Y-126365000D02*
X124390001Y-127565001D01*
%TO.N,/~RWE*%
X118110000Y-126365000D02*
X120396000Y-124079000D01*
X120396000Y-124079000D02*
X133032500Y-124079000D01*
X133032500Y-124079000D02*
X134239000Y-122872500D01*
X134239000Y-122872500D02*
X135445500Y-121666000D01*
X135445500Y-121666000D02*
X135445500Y-114490500D01*
X135445500Y-114490500D02*
X135445500Y-114490500D01*
%TO.N,/~E80*%
X129794000Y-118681500D02*
X130619500Y-119507000D01*
X125185998Y-117110000D02*
X126757498Y-118681500D01*
X126757498Y-118681500D02*
X129794000Y-118681500D01*
X120904000Y-117110000D02*
X125185998Y-117110000D01*
%TO.N,/~EA0*%
X124644001Y-114230001D02*
X129546499Y-114230001D01*
X123444000Y-113030000D02*
X124644001Y-114230001D01*
X129546499Y-114230001D02*
X131572000Y-112204500D01*
X131572000Y-112204500D02*
X131572000Y-112204500D01*
%TO.N,/~EC0*%
X125984000Y-117094000D02*
X127000000Y-118110000D01*
X127000000Y-118110000D02*
X130238500Y-118110000D01*
X130238500Y-118110000D02*
X131381500Y-119253000D01*
X131381500Y-119253000D02*
X131889500Y-119761000D01*
X131889500Y-119761000D02*
X132207000Y-120078500D01*
X132207000Y-120078500D02*
X132207000Y-120078500D01*
%TO.N,/~EE0*%
X128524000Y-117110000D02*
X130064000Y-117110000D01*
X130064000Y-117110000D02*
X133223000Y-120269000D01*
X133540500Y-120586500D02*
X133540500Y-120586500D01*
X133604000Y-120650000D02*
X133350000Y-120396000D01*
X133350000Y-120396000D02*
X133540500Y-120586500D01*
X133223000Y-120269000D02*
X133350000Y-120396000D01*
%TD*%
D19*
%TO.N,GND*%
X186304001Y-111106045D02*
X186304000Y-127884000D01*
X136363662Y-127884000D01*
X136669916Y-127577746D01*
X138010000Y-127577746D01*
X138080768Y-127570776D01*
X138148817Y-127550134D01*
X138211531Y-127516612D01*
X138266500Y-127471500D01*
X138311612Y-127416531D01*
X138345134Y-127353817D01*
X138365776Y-127285768D01*
X138372746Y-127215000D01*
X138372746Y-126245727D01*
X138489000Y-126245727D01*
X138489000Y-126484273D01*
X138535538Y-126718236D01*
X138626825Y-126938624D01*
X138759354Y-127136968D01*
X138928032Y-127305646D01*
X139126376Y-127438175D01*
X139346764Y-127529462D01*
X139580727Y-127576000D01*
X139819273Y-127576000D01*
X140053236Y-127529462D01*
X140273624Y-127438175D01*
X140471968Y-127305646D01*
X140640646Y-127136968D01*
X140773175Y-126938624D01*
X140864462Y-126718236D01*
X140911000Y-126484273D01*
X140911000Y-126245727D01*
X140864462Y-126011764D01*
X140773175Y-125791376D01*
X140640646Y-125593032D01*
X140471968Y-125424354D01*
X140273624Y-125291825D01*
X140053236Y-125200538D01*
X139819273Y-125154000D01*
X139580727Y-125154000D01*
X139346764Y-125200538D01*
X139126376Y-125291825D01*
X138928032Y-125424354D01*
X138759354Y-125593032D01*
X138626825Y-125791376D01*
X138535538Y-126011764D01*
X138489000Y-126245727D01*
X138372746Y-126245727D01*
X138372746Y-125515000D01*
X138365776Y-125444232D01*
X138345134Y-125376183D01*
X138311612Y-125313469D01*
X138266500Y-125258500D01*
X138211531Y-125213388D01*
X138148817Y-125179866D01*
X138080768Y-125159224D01*
X138010000Y-125152254D01*
X136310000Y-125152254D01*
X136239232Y-125159224D01*
X136171183Y-125179866D01*
X136108469Y-125213388D01*
X136053500Y-125258500D01*
X136008388Y-125313469D01*
X135974866Y-125376183D01*
X135954224Y-125444232D01*
X135947254Y-125515000D01*
X135947254Y-126855084D01*
X135748337Y-127054001D01*
X132022746Y-127054001D01*
X132022746Y-125515000D01*
X132015776Y-125444232D01*
X131995134Y-125376183D01*
X131961612Y-125313469D01*
X131916500Y-125258500D01*
X131861531Y-125213388D01*
X131798817Y-125179866D01*
X131730768Y-125159224D01*
X131660000Y-125152254D01*
X129960000Y-125152254D01*
X129889232Y-125159224D01*
X129821183Y-125179866D01*
X129758469Y-125213388D01*
X129703500Y-125258500D01*
X129658388Y-125313469D01*
X129624866Y-125376183D01*
X129604224Y-125444232D01*
X129597254Y-125515000D01*
X129597254Y-127054001D01*
X129266083Y-127054001D01*
X129343175Y-126938624D01*
X129434462Y-126718236D01*
X129481000Y-126484273D01*
X129481000Y-126245727D01*
X129434462Y-126011764D01*
X129343175Y-125791376D01*
X129210646Y-125593032D01*
X129041968Y-125424354D01*
X128843624Y-125291825D01*
X128623236Y-125200538D01*
X128389273Y-125154000D01*
X128150727Y-125154000D01*
X127916764Y-125200538D01*
X127696376Y-125291825D01*
X127498032Y-125424354D01*
X127329354Y-125593032D01*
X127196825Y-125791376D01*
X127105538Y-126011764D01*
X127059000Y-126245727D01*
X127059000Y-126484273D01*
X127105538Y-126718236D01*
X127196825Y-126938624D01*
X127273917Y-127054001D01*
X126726083Y-127054001D01*
X126803175Y-126938624D01*
X126894462Y-126718236D01*
X126941000Y-126484273D01*
X126941000Y-126245727D01*
X126894462Y-126011764D01*
X126868522Y-125949140D01*
X127719663Y-125098000D01*
X133261404Y-125098000D01*
X133286500Y-125100472D01*
X133311596Y-125098000D01*
X133311599Y-125098000D01*
X133386673Y-125090606D01*
X133482997Y-125061386D01*
X133571770Y-125013936D01*
X133649580Y-124950080D01*
X133665587Y-124930575D01*
X135993082Y-122603080D01*
X137545525Y-122603080D01*
X137629208Y-122857261D01*
X137901775Y-122988158D01*
X138194642Y-123063365D01*
X138496553Y-123079991D01*
X138795907Y-123037397D01*
X139081199Y-122937222D01*
X139230792Y-122857261D01*
X139314475Y-122603080D01*
X138430000Y-121718605D01*
X137545525Y-122603080D01*
X135993082Y-122603080D01*
X136360580Y-122235583D01*
X136380080Y-122219580D01*
X136421092Y-122169606D01*
X136443936Y-122141771D01*
X136491385Y-122052998D01*
X136491386Y-122052997D01*
X136520606Y-121956673D01*
X136528000Y-121881599D01*
X136528000Y-121881598D01*
X136530472Y-121856501D01*
X136528000Y-121831404D01*
X136528000Y-121605553D01*
X136889009Y-121605553D01*
X136931603Y-121904907D01*
X137031778Y-122190199D01*
X137111739Y-122339792D01*
X137365920Y-122423475D01*
X138250395Y-121539000D01*
X138609605Y-121539000D01*
X139494080Y-122423475D01*
X139748261Y-122339792D01*
X139849491Y-122129001D01*
X139852517Y-122136307D01*
X139990518Y-122342840D01*
X140166160Y-122518482D01*
X140372693Y-122656483D01*
X140602180Y-122751540D01*
X140845802Y-122800000D01*
X141094198Y-122800000D01*
X141337820Y-122751540D01*
X141567307Y-122656483D01*
X141729000Y-122548443D01*
X141729000Y-124244404D01*
X141726528Y-124269500D01*
X141729000Y-124294596D01*
X141729000Y-124294598D01*
X141736394Y-124369672D01*
X141765614Y-124465996D01*
X141813064Y-124554770D01*
X141876920Y-124632580D01*
X141896425Y-124648587D01*
X142412407Y-125164569D01*
X142359273Y-125154000D01*
X142120727Y-125154000D01*
X141886764Y-125200538D01*
X141666376Y-125291825D01*
X141468032Y-125424354D01*
X141299354Y-125593032D01*
X141166825Y-125791376D01*
X141075538Y-126011764D01*
X141029000Y-126245727D01*
X141029000Y-126484273D01*
X141075538Y-126718236D01*
X141166825Y-126938624D01*
X141299354Y-127136968D01*
X141468032Y-127305646D01*
X141666376Y-127438175D01*
X141886764Y-127529462D01*
X142120727Y-127576000D01*
X142359273Y-127576000D01*
X142593236Y-127529462D01*
X142813624Y-127438175D01*
X143011968Y-127305646D01*
X143180646Y-127136968D01*
X143313175Y-126938624D01*
X143404462Y-126718236D01*
X143451000Y-126484273D01*
X143451000Y-126245727D01*
X143440431Y-126192594D01*
X143569000Y-126321163D01*
X143569000Y-126484273D01*
X143615538Y-126718236D01*
X143706825Y-126938624D01*
X143839354Y-127136968D01*
X144008032Y-127305646D01*
X144206376Y-127438175D01*
X144426764Y-127529462D01*
X144660727Y-127576000D01*
X144899273Y-127576000D01*
X145133236Y-127529462D01*
X145353624Y-127438175D01*
X145551968Y-127305646D01*
X145720646Y-127136968D01*
X145853175Y-126938624D01*
X145944462Y-126718236D01*
X145991000Y-126484273D01*
X145991000Y-126393663D01*
X146115801Y-126518464D01*
X146155538Y-126718236D01*
X146246825Y-126938624D01*
X146379354Y-127136968D01*
X146548032Y-127305646D01*
X146746376Y-127438175D01*
X146966764Y-127529462D01*
X147200727Y-127576000D01*
X147439273Y-127576000D01*
X147673236Y-127529462D01*
X147893624Y-127438175D01*
X148091968Y-127305646D01*
X148260646Y-127136968D01*
X148393175Y-126938624D01*
X148484462Y-126718236D01*
X148531000Y-126484273D01*
X148531000Y-126457163D01*
X148671568Y-126597731D01*
X148695538Y-126718236D01*
X148786825Y-126938624D01*
X148919354Y-127136968D01*
X149088032Y-127305646D01*
X149286376Y-127438175D01*
X149506764Y-127529462D01*
X149740727Y-127576000D01*
X149979273Y-127576000D01*
X150213236Y-127529462D01*
X150433624Y-127438175D01*
X150631968Y-127305646D01*
X150800646Y-127136968D01*
X150933175Y-126938624D01*
X151024462Y-126718236D01*
X151071000Y-126484273D01*
X151071000Y-126245727D01*
X151060431Y-126192594D01*
X151189000Y-126321163D01*
X151189000Y-126484273D01*
X151235538Y-126718236D01*
X151326825Y-126938624D01*
X151459354Y-127136968D01*
X151628032Y-127305646D01*
X151826376Y-127438175D01*
X152046764Y-127529462D01*
X152280727Y-127576000D01*
X152519273Y-127576000D01*
X152753236Y-127529462D01*
X152973624Y-127438175D01*
X153171968Y-127305646D01*
X153340646Y-127136968D01*
X153473175Y-126938624D01*
X153564462Y-126718236D01*
X153611000Y-126484273D01*
X153611000Y-126245727D01*
X153564462Y-126011764D01*
X153473175Y-125791376D01*
X153340646Y-125593032D01*
X153171968Y-125424354D01*
X152973624Y-125291825D01*
X152753236Y-125200538D01*
X152519273Y-125154000D01*
X152280727Y-125154000D01*
X152046764Y-125200538D01*
X151826376Y-125291825D01*
X151693663Y-125380501D01*
X149101000Y-122787838D01*
X149101000Y-122692233D01*
X149187307Y-122656483D01*
X149393840Y-122518482D01*
X149569482Y-122342840D01*
X149707483Y-122136307D01*
X149802540Y-121906820D01*
X149851000Y-121663198D01*
X149851000Y-121414802D01*
X149869000Y-121414802D01*
X149869000Y-121663198D01*
X149917460Y-121906820D01*
X150012517Y-122136307D01*
X150150518Y-122342840D01*
X150326160Y-122518482D01*
X150532693Y-122656483D01*
X150762180Y-122751540D01*
X151005802Y-122800000D01*
X151254198Y-122800000D01*
X151497820Y-122751540D01*
X151727307Y-122656483D01*
X151933840Y-122518482D01*
X152109482Y-122342840D01*
X152247483Y-122136307D01*
X152342540Y-121906820D01*
X152391000Y-121663198D01*
X152391000Y-121414802D01*
X152409000Y-121414802D01*
X152409000Y-121663198D01*
X152457460Y-121906820D01*
X152552517Y-122136307D01*
X152690518Y-122342840D01*
X152866160Y-122518482D01*
X153072693Y-122656483D01*
X153302180Y-122751540D01*
X153545802Y-122800000D01*
X153794198Y-122800000D01*
X154037820Y-122751540D01*
X154124127Y-122715790D01*
X154429001Y-123020665D01*
X154429000Y-125265885D01*
X154366376Y-125291825D01*
X154168032Y-125424354D01*
X153999354Y-125593032D01*
X153866825Y-125791376D01*
X153775538Y-126011764D01*
X153729000Y-126245727D01*
X153729000Y-126484273D01*
X153775538Y-126718236D01*
X153866825Y-126938624D01*
X153999354Y-127136968D01*
X154168032Y-127305646D01*
X154366376Y-127438175D01*
X154586764Y-127529462D01*
X154820727Y-127576000D01*
X155059273Y-127576000D01*
X155293236Y-127529462D01*
X155513624Y-127438175D01*
X155711968Y-127305646D01*
X155880646Y-127136968D01*
X156013175Y-126938624D01*
X156104462Y-126718236D01*
X156151000Y-126484273D01*
X156151000Y-126245727D01*
X156104462Y-126011764D01*
X156013175Y-125791376D01*
X155880646Y-125593032D01*
X155711968Y-125424354D01*
X155513624Y-125291825D01*
X155451000Y-125265885D01*
X155451000Y-122834096D01*
X155453472Y-122808999D01*
X155451000Y-122783901D01*
X155443606Y-122708827D01*
X155414386Y-122612503D01*
X155369709Y-122528917D01*
X155366936Y-122523729D01*
X155319079Y-122465415D01*
X155319078Y-122465414D01*
X155303080Y-122445920D01*
X155283585Y-122429921D01*
X154846790Y-121993127D01*
X154882540Y-121906820D01*
X154931000Y-121663198D01*
X154931000Y-121414802D01*
X154949000Y-121414802D01*
X154949000Y-121663198D01*
X154997460Y-121906820D01*
X155092517Y-122136307D01*
X155230518Y-122342840D01*
X155406160Y-122518482D01*
X155612693Y-122656483D01*
X155842180Y-122751540D01*
X156085802Y-122800000D01*
X156334198Y-122800000D01*
X156577820Y-122751540D01*
X156664127Y-122715790D01*
X156969001Y-123020665D01*
X156969000Y-125265885D01*
X156906376Y-125291825D01*
X156708032Y-125424354D01*
X156539354Y-125593032D01*
X156406825Y-125791376D01*
X156315538Y-126011764D01*
X156269000Y-126245727D01*
X156269000Y-126484273D01*
X156315538Y-126718236D01*
X156406825Y-126938624D01*
X156539354Y-127136968D01*
X156708032Y-127305646D01*
X156906376Y-127438175D01*
X157126764Y-127529462D01*
X157360727Y-127576000D01*
X157599273Y-127576000D01*
X157833236Y-127529462D01*
X158053624Y-127438175D01*
X158251968Y-127305646D01*
X158420646Y-127136968D01*
X158553175Y-126938624D01*
X158644462Y-126718236D01*
X158691000Y-126484273D01*
X158691000Y-126245727D01*
X158809000Y-126245727D01*
X158809000Y-126484273D01*
X158855538Y-126718236D01*
X158946825Y-126938624D01*
X159079354Y-127136968D01*
X159248032Y-127305646D01*
X159446376Y-127438175D01*
X159666764Y-127529462D01*
X159900727Y-127576000D01*
X160139273Y-127576000D01*
X160373236Y-127529462D01*
X160593624Y-127438175D01*
X160791968Y-127305646D01*
X160960646Y-127136968D01*
X161093175Y-126938624D01*
X161184462Y-126718236D01*
X161231000Y-126484273D01*
X161231000Y-126245727D01*
X161349000Y-126245727D01*
X161349000Y-126484273D01*
X161395538Y-126718236D01*
X161486825Y-126938624D01*
X161619354Y-127136968D01*
X161788032Y-127305646D01*
X161986376Y-127438175D01*
X162206764Y-127529462D01*
X162440727Y-127576000D01*
X162679273Y-127576000D01*
X162913236Y-127529462D01*
X163133624Y-127438175D01*
X163331968Y-127305646D01*
X163500646Y-127136968D01*
X163633175Y-126938624D01*
X163724462Y-126718236D01*
X163771000Y-126484273D01*
X163771000Y-126245727D01*
X163889000Y-126245727D01*
X163889000Y-126484273D01*
X163935538Y-126718236D01*
X164026825Y-126938624D01*
X164159354Y-127136968D01*
X164328032Y-127305646D01*
X164526376Y-127438175D01*
X164746764Y-127529462D01*
X164980727Y-127576000D01*
X165219273Y-127576000D01*
X165453236Y-127529462D01*
X165673624Y-127438175D01*
X165871968Y-127305646D01*
X166040646Y-127136968D01*
X166173175Y-126938624D01*
X166264462Y-126718236D01*
X166311000Y-126484273D01*
X166311000Y-126245727D01*
X166429000Y-126245727D01*
X166429000Y-126484273D01*
X166475538Y-126718236D01*
X166566825Y-126938624D01*
X166699354Y-127136968D01*
X166868032Y-127305646D01*
X167066376Y-127438175D01*
X167286764Y-127529462D01*
X167520727Y-127576000D01*
X167759273Y-127576000D01*
X167993236Y-127529462D01*
X168213624Y-127438175D01*
X168411968Y-127305646D01*
X168580646Y-127136968D01*
X168713175Y-126938624D01*
X168804462Y-126718236D01*
X168851000Y-126484273D01*
X168851000Y-126245727D01*
X168969000Y-126245727D01*
X168969000Y-126484273D01*
X169015538Y-126718236D01*
X169106825Y-126938624D01*
X169239354Y-127136968D01*
X169408032Y-127305646D01*
X169606376Y-127438175D01*
X169826764Y-127529462D01*
X170060727Y-127576000D01*
X170299273Y-127576000D01*
X170533236Y-127529462D01*
X170753624Y-127438175D01*
X170951968Y-127305646D01*
X171120646Y-127136968D01*
X171253175Y-126938624D01*
X171344462Y-126718236D01*
X171391000Y-126484273D01*
X171391000Y-126245727D01*
X171509000Y-126245727D01*
X171509000Y-126484273D01*
X171555538Y-126718236D01*
X171646825Y-126938624D01*
X171779354Y-127136968D01*
X171948032Y-127305646D01*
X172146376Y-127438175D01*
X172366764Y-127529462D01*
X172600727Y-127576000D01*
X172839273Y-127576000D01*
X173073236Y-127529462D01*
X173293624Y-127438175D01*
X173491968Y-127305646D01*
X173660646Y-127136968D01*
X173793175Y-126938624D01*
X173848242Y-126805680D01*
X173915843Y-126996252D01*
X174064822Y-127246355D01*
X174259731Y-127462588D01*
X174493080Y-127636641D01*
X174755901Y-127761825D01*
X174903110Y-127806476D01*
X175133000Y-127685155D01*
X175133000Y-126492000D01*
X175387000Y-126492000D01*
X175387000Y-127685155D01*
X175616890Y-127806476D01*
X175764099Y-127761825D01*
X176026920Y-127636641D01*
X176260269Y-127462588D01*
X176455178Y-127246355D01*
X176604157Y-126996252D01*
X176701481Y-126721891D01*
X176580814Y-126492000D01*
X175387000Y-126492000D01*
X175133000Y-126492000D01*
X175113000Y-126492000D01*
X175113000Y-126238000D01*
X175133000Y-126238000D01*
X175133000Y-125044845D01*
X175387000Y-125044845D01*
X175387000Y-126238000D01*
X176580814Y-126238000D01*
X176701481Y-126008109D01*
X176604157Y-125733748D01*
X176455178Y-125483645D01*
X176260269Y-125267412D01*
X176026920Y-125093359D01*
X175764099Y-124968175D01*
X175616890Y-124923524D01*
X175387000Y-125044845D01*
X175133000Y-125044845D01*
X174903110Y-124923524D01*
X174755901Y-124968175D01*
X174493080Y-125093359D01*
X174259731Y-125267412D01*
X174064822Y-125483645D01*
X173915843Y-125733748D01*
X173848242Y-125924320D01*
X173793175Y-125791376D01*
X173660646Y-125593032D01*
X173491968Y-125424354D01*
X173293624Y-125291825D01*
X173231000Y-125265885D01*
X173231000Y-124671662D01*
X174333585Y-123569079D01*
X174353080Y-123553080D01*
X174369081Y-123533583D01*
X174416936Y-123475271D01*
X174464385Y-123386498D01*
X174464386Y-123386497D01*
X174493606Y-123290173D01*
X174501000Y-123215099D01*
X174501000Y-123215098D01*
X174503472Y-123190001D01*
X174501000Y-123164904D01*
X174501000Y-122801746D01*
X174890000Y-122801746D01*
X174960768Y-122794776D01*
X175028817Y-122774134D01*
X175091531Y-122740612D01*
X175146500Y-122695500D01*
X175191612Y-122640531D01*
X175225134Y-122577817D01*
X175245776Y-122509768D01*
X175252746Y-122439000D01*
X175252746Y-120639000D01*
X175245776Y-120568232D01*
X175225134Y-120500183D01*
X175191612Y-120437469D01*
X175146500Y-120382500D01*
X175091531Y-120337388D01*
X175028817Y-120303866D01*
X174960768Y-120283224D01*
X174890000Y-120276254D01*
X173090000Y-120276254D01*
X173019232Y-120283224D01*
X172951183Y-120303866D01*
X172888469Y-120337388D01*
X172833500Y-120382500D01*
X172788388Y-120437469D01*
X172754866Y-120500183D01*
X172734224Y-120568232D01*
X172727254Y-120639000D01*
X172727254Y-122439000D01*
X172734224Y-122509768D01*
X172754866Y-122577817D01*
X172788388Y-122640531D01*
X172833500Y-122695500D01*
X172888469Y-122740612D01*
X172951183Y-122774134D01*
X173019232Y-122794776D01*
X173090000Y-122801746D01*
X173479000Y-122801746D01*
X173479000Y-122978336D01*
X172376421Y-124080917D01*
X172356921Y-124096920D01*
X172324557Y-124136357D01*
X172293064Y-124174730D01*
X172245615Y-124263503D01*
X172216395Y-124359828D01*
X172206528Y-124460000D01*
X172209001Y-124485106D01*
X172209001Y-125265885D01*
X172146376Y-125291825D01*
X171948032Y-125424354D01*
X171779354Y-125593032D01*
X171646825Y-125791376D01*
X171555538Y-126011764D01*
X171509000Y-126245727D01*
X171391000Y-126245727D01*
X171344462Y-126011764D01*
X171253175Y-125791376D01*
X171120646Y-125593032D01*
X170951968Y-125424354D01*
X170753624Y-125291825D01*
X170691000Y-125265885D01*
X170691000Y-124671662D01*
X171793585Y-123569079D01*
X171813080Y-123553080D01*
X171829081Y-123533583D01*
X171876936Y-123475271D01*
X171924385Y-123386498D01*
X171924386Y-123386497D01*
X171953606Y-123290173D01*
X171961000Y-123215099D01*
X171961000Y-123215098D01*
X171963472Y-123190001D01*
X171961000Y-123164904D01*
X171961000Y-122692233D01*
X172047307Y-122656483D01*
X172253840Y-122518482D01*
X172429482Y-122342840D01*
X172567483Y-122136307D01*
X172662540Y-121906820D01*
X172711000Y-121663198D01*
X172711000Y-121414802D01*
X172662540Y-121171180D01*
X172567483Y-120941693D01*
X172429482Y-120735160D01*
X172253840Y-120559518D01*
X172047307Y-120421517D01*
X171817820Y-120326460D01*
X171574198Y-120278000D01*
X171325802Y-120278000D01*
X171082180Y-120326460D01*
X170852693Y-120421517D01*
X170646160Y-120559518D01*
X170470518Y-120735160D01*
X170332517Y-120941693D01*
X170237460Y-121171180D01*
X170189000Y-121414802D01*
X170189000Y-121663198D01*
X170237460Y-121906820D01*
X170332517Y-122136307D01*
X170470518Y-122342840D01*
X170646160Y-122518482D01*
X170852693Y-122656483D01*
X170939000Y-122692233D01*
X170939000Y-122978336D01*
X169836421Y-124080917D01*
X169816921Y-124096920D01*
X169784557Y-124136357D01*
X169753064Y-124174730D01*
X169705615Y-124263503D01*
X169676395Y-124359828D01*
X169666528Y-124460000D01*
X169669001Y-124485106D01*
X169669001Y-125265885D01*
X169606376Y-125291825D01*
X169408032Y-125424354D01*
X169239354Y-125593032D01*
X169106825Y-125791376D01*
X169015538Y-126011764D01*
X168969000Y-126245727D01*
X168851000Y-126245727D01*
X168804462Y-126011764D01*
X168713175Y-125791376D01*
X168580646Y-125593032D01*
X168411968Y-125424354D01*
X168213624Y-125291825D01*
X168151000Y-125265885D01*
X168151000Y-124671662D01*
X169253585Y-123569079D01*
X169273080Y-123553080D01*
X169289081Y-123533583D01*
X169336936Y-123475271D01*
X169384385Y-123386498D01*
X169384386Y-123386497D01*
X169413606Y-123290173D01*
X169421000Y-123215099D01*
X169421000Y-123215098D01*
X169423472Y-123190001D01*
X169421000Y-123164904D01*
X169421000Y-122692233D01*
X169507307Y-122656483D01*
X169713840Y-122518482D01*
X169889482Y-122342840D01*
X170027483Y-122136307D01*
X170122540Y-121906820D01*
X170171000Y-121663198D01*
X170171000Y-121414802D01*
X170122540Y-121171180D01*
X170027483Y-120941693D01*
X169889482Y-120735160D01*
X169713840Y-120559518D01*
X169507307Y-120421517D01*
X169277820Y-120326460D01*
X169034198Y-120278000D01*
X168785802Y-120278000D01*
X168542180Y-120326460D01*
X168312693Y-120421517D01*
X168106160Y-120559518D01*
X167930518Y-120735160D01*
X167792517Y-120941693D01*
X167697460Y-121171180D01*
X167649000Y-121414802D01*
X167649000Y-121663198D01*
X167697460Y-121906820D01*
X167792517Y-122136307D01*
X167930518Y-122342840D01*
X168106160Y-122518482D01*
X168312693Y-122656483D01*
X168399000Y-122692233D01*
X168399000Y-122978336D01*
X167296421Y-124080917D01*
X167276921Y-124096920D01*
X167244557Y-124136357D01*
X167213064Y-124174730D01*
X167165615Y-124263503D01*
X167136395Y-124359828D01*
X167126528Y-124460000D01*
X167129001Y-124485106D01*
X167129001Y-125265885D01*
X167066376Y-125291825D01*
X166868032Y-125424354D01*
X166699354Y-125593032D01*
X166566825Y-125791376D01*
X166475538Y-126011764D01*
X166429000Y-126245727D01*
X166311000Y-126245727D01*
X166264462Y-126011764D01*
X166173175Y-125791376D01*
X166040646Y-125593032D01*
X165871968Y-125424354D01*
X165673624Y-125291825D01*
X165611000Y-125265885D01*
X165611000Y-124671662D01*
X166713585Y-123569079D01*
X166733080Y-123553080D01*
X166749081Y-123533583D01*
X166796936Y-123475271D01*
X166844385Y-123386498D01*
X166844386Y-123386497D01*
X166873606Y-123290173D01*
X166881000Y-123215099D01*
X166881000Y-123215098D01*
X166883472Y-123190001D01*
X166881000Y-123164904D01*
X166881000Y-122692233D01*
X166967307Y-122656483D01*
X167173840Y-122518482D01*
X167349482Y-122342840D01*
X167487483Y-122136307D01*
X167582540Y-121906820D01*
X167631000Y-121663198D01*
X167631000Y-121414802D01*
X167582540Y-121171180D01*
X167487483Y-120941693D01*
X167349482Y-120735160D01*
X167173840Y-120559518D01*
X166967307Y-120421517D01*
X166737820Y-120326460D01*
X166494198Y-120278000D01*
X166245802Y-120278000D01*
X166002180Y-120326460D01*
X165772693Y-120421517D01*
X165566160Y-120559518D01*
X165390518Y-120735160D01*
X165252517Y-120941693D01*
X165157460Y-121171180D01*
X165109000Y-121414802D01*
X165109000Y-121663198D01*
X165157460Y-121906820D01*
X165252517Y-122136307D01*
X165390518Y-122342840D01*
X165566160Y-122518482D01*
X165772693Y-122656483D01*
X165859000Y-122692233D01*
X165859000Y-122978336D01*
X164756421Y-124080917D01*
X164736921Y-124096920D01*
X164704557Y-124136357D01*
X164673064Y-124174730D01*
X164625615Y-124263503D01*
X164596395Y-124359828D01*
X164586528Y-124460000D01*
X164589001Y-124485106D01*
X164589001Y-125265885D01*
X164526376Y-125291825D01*
X164328032Y-125424354D01*
X164159354Y-125593032D01*
X164026825Y-125791376D01*
X163935538Y-126011764D01*
X163889000Y-126245727D01*
X163771000Y-126245727D01*
X163724462Y-126011764D01*
X163633175Y-125791376D01*
X163500646Y-125593032D01*
X163331968Y-125424354D01*
X163133624Y-125291825D01*
X163071000Y-125265885D01*
X163071000Y-124671662D01*
X164173585Y-123569079D01*
X164193080Y-123553080D01*
X164209081Y-123533583D01*
X164256936Y-123475271D01*
X164304385Y-123386498D01*
X164304386Y-123386497D01*
X164333606Y-123290173D01*
X164341000Y-123215099D01*
X164341000Y-123215098D01*
X164343472Y-123190001D01*
X164341000Y-123164904D01*
X164341000Y-122692233D01*
X164427307Y-122656483D01*
X164633840Y-122518482D01*
X164809482Y-122342840D01*
X164947483Y-122136307D01*
X165042540Y-121906820D01*
X165091000Y-121663198D01*
X165091000Y-121414802D01*
X165042540Y-121171180D01*
X164947483Y-120941693D01*
X164809482Y-120735160D01*
X164633840Y-120559518D01*
X164427307Y-120421517D01*
X164197820Y-120326460D01*
X163954198Y-120278000D01*
X163705802Y-120278000D01*
X163462180Y-120326460D01*
X163232693Y-120421517D01*
X163026160Y-120559518D01*
X162850518Y-120735160D01*
X162712517Y-120941693D01*
X162617460Y-121171180D01*
X162569000Y-121414802D01*
X162569000Y-121663198D01*
X162617460Y-121906820D01*
X162712517Y-122136307D01*
X162850518Y-122342840D01*
X163026160Y-122518482D01*
X163232693Y-122656483D01*
X163319000Y-122692233D01*
X163319000Y-122978336D01*
X162216421Y-124080917D01*
X162196921Y-124096920D01*
X162164557Y-124136357D01*
X162133064Y-124174730D01*
X162085615Y-124263503D01*
X162056395Y-124359828D01*
X162046528Y-124460000D01*
X162049001Y-124485106D01*
X162049001Y-125265885D01*
X161986376Y-125291825D01*
X161788032Y-125424354D01*
X161619354Y-125593032D01*
X161486825Y-125791376D01*
X161395538Y-126011764D01*
X161349000Y-126245727D01*
X161231000Y-126245727D01*
X161184462Y-126011764D01*
X161093175Y-125791376D01*
X160960646Y-125593032D01*
X160791968Y-125424354D01*
X160593624Y-125291825D01*
X160531000Y-125265885D01*
X160531000Y-124671662D01*
X161633585Y-123569079D01*
X161653080Y-123553080D01*
X161669081Y-123533583D01*
X161716936Y-123475271D01*
X161764385Y-123386498D01*
X161764386Y-123386497D01*
X161793606Y-123290173D01*
X161801000Y-123215099D01*
X161801000Y-123215098D01*
X161803472Y-123190001D01*
X161801000Y-123164904D01*
X161801000Y-122692233D01*
X161887307Y-122656483D01*
X162093840Y-122518482D01*
X162269482Y-122342840D01*
X162407483Y-122136307D01*
X162502540Y-121906820D01*
X162551000Y-121663198D01*
X162551000Y-121414802D01*
X162502540Y-121171180D01*
X162407483Y-120941693D01*
X162269482Y-120735160D01*
X162093840Y-120559518D01*
X161887307Y-120421517D01*
X161657820Y-120326460D01*
X161414198Y-120278000D01*
X161165802Y-120278000D01*
X160922180Y-120326460D01*
X160692693Y-120421517D01*
X160486160Y-120559518D01*
X160310518Y-120735160D01*
X160172517Y-120941693D01*
X160077460Y-121171180D01*
X160029000Y-121414802D01*
X160029000Y-121663198D01*
X160077460Y-121906820D01*
X160172517Y-122136307D01*
X160310518Y-122342840D01*
X160486160Y-122518482D01*
X160692693Y-122656483D01*
X160779000Y-122692233D01*
X160779000Y-122978336D01*
X159676421Y-124080917D01*
X159656921Y-124096920D01*
X159624557Y-124136357D01*
X159593064Y-124174730D01*
X159545615Y-124263503D01*
X159516395Y-124359828D01*
X159506528Y-124460000D01*
X159509001Y-124485106D01*
X159509001Y-125265885D01*
X159446376Y-125291825D01*
X159248032Y-125424354D01*
X159079354Y-125593032D01*
X158946825Y-125791376D01*
X158855538Y-126011764D01*
X158809000Y-126245727D01*
X158691000Y-126245727D01*
X158644462Y-126011764D01*
X158553175Y-125791376D01*
X158420646Y-125593032D01*
X158251968Y-125424354D01*
X158053624Y-125291825D01*
X157991000Y-125265885D01*
X157991000Y-122834096D01*
X157993472Y-122808999D01*
X157991000Y-122783901D01*
X157983606Y-122708827D01*
X157954386Y-122612503D01*
X157909709Y-122528917D01*
X157906936Y-122523729D01*
X157859079Y-122465415D01*
X157859078Y-122465414D01*
X157843080Y-122445920D01*
X157823585Y-122429921D01*
X157386790Y-121993127D01*
X157422540Y-121906820D01*
X157471000Y-121663198D01*
X157471000Y-121414802D01*
X157489000Y-121414802D01*
X157489000Y-121663198D01*
X157537460Y-121906820D01*
X157632517Y-122136307D01*
X157770518Y-122342840D01*
X157946160Y-122518482D01*
X158152693Y-122656483D01*
X158382180Y-122751540D01*
X158625802Y-122800000D01*
X158874198Y-122800000D01*
X159117820Y-122751540D01*
X159347307Y-122656483D01*
X159553840Y-122518482D01*
X159729482Y-122342840D01*
X159867483Y-122136307D01*
X159962540Y-121906820D01*
X160011000Y-121663198D01*
X160011000Y-121414802D01*
X159962540Y-121171180D01*
X159867483Y-120941693D01*
X159729482Y-120735160D01*
X159553840Y-120559518D01*
X159347307Y-120421517D01*
X159117820Y-120326460D01*
X158874198Y-120278000D01*
X158625802Y-120278000D01*
X158382180Y-120326460D01*
X158152693Y-120421517D01*
X157946160Y-120559518D01*
X157770518Y-120735160D01*
X157632517Y-120941693D01*
X157537460Y-121171180D01*
X157489000Y-121414802D01*
X157471000Y-121414802D01*
X157422540Y-121171180D01*
X157327483Y-120941693D01*
X157189482Y-120735160D01*
X157013840Y-120559518D01*
X156807307Y-120421517D01*
X156577820Y-120326460D01*
X156334198Y-120278000D01*
X156085802Y-120278000D01*
X155842180Y-120326460D01*
X155612693Y-120421517D01*
X155406160Y-120559518D01*
X155230518Y-120735160D01*
X155092517Y-120941693D01*
X154997460Y-121171180D01*
X154949000Y-121414802D01*
X154931000Y-121414802D01*
X154882540Y-121171180D01*
X154787483Y-120941693D01*
X154649482Y-120735160D01*
X154473840Y-120559518D01*
X154267307Y-120421517D01*
X154037820Y-120326460D01*
X153794198Y-120278000D01*
X153545802Y-120278000D01*
X153302180Y-120326460D01*
X153072693Y-120421517D01*
X152866160Y-120559518D01*
X152690518Y-120735160D01*
X152552517Y-120941693D01*
X152457460Y-121171180D01*
X152409000Y-121414802D01*
X152391000Y-121414802D01*
X152342540Y-121171180D01*
X152247483Y-120941693D01*
X152109482Y-120735160D01*
X151933840Y-120559518D01*
X151727307Y-120421517D01*
X151497820Y-120326460D01*
X151254198Y-120278000D01*
X151005802Y-120278000D01*
X150762180Y-120326460D01*
X150532693Y-120421517D01*
X150326160Y-120559518D01*
X150150518Y-120735160D01*
X150012517Y-120941693D01*
X149917460Y-121171180D01*
X149869000Y-121414802D01*
X149851000Y-121414802D01*
X149802540Y-121171180D01*
X149707483Y-120941693D01*
X149569482Y-120735160D01*
X149393840Y-120559518D01*
X149187307Y-120421517D01*
X148957820Y-120326460D01*
X148714198Y-120278000D01*
X148465802Y-120278000D01*
X148222180Y-120326460D01*
X147992693Y-120421517D01*
X147786160Y-120559518D01*
X147610518Y-120735160D01*
X147472517Y-120941693D01*
X147377460Y-121171180D01*
X147329000Y-121414802D01*
X147329000Y-121663198D01*
X147377460Y-121906820D01*
X147472517Y-122136307D01*
X147610518Y-122342840D01*
X147786160Y-122518482D01*
X147992693Y-122656483D01*
X148079000Y-122692233D01*
X148079000Y-122974403D01*
X148076528Y-122999500D01*
X148079000Y-123024596D01*
X148079000Y-123024598D01*
X148086394Y-123099672D01*
X148115614Y-123195996D01*
X148163064Y-123284770D01*
X148226920Y-123362580D01*
X148246425Y-123378587D01*
X150032406Y-125164569D01*
X149979273Y-125154000D01*
X149740727Y-125154000D01*
X149506764Y-125200538D01*
X149286376Y-125291825D01*
X149088032Y-125424354D01*
X149015774Y-125496612D01*
X146561000Y-123041838D01*
X146561000Y-122692233D01*
X146647307Y-122656483D01*
X146853840Y-122518482D01*
X147029482Y-122342840D01*
X147167483Y-122136307D01*
X147262540Y-121906820D01*
X147311000Y-121663198D01*
X147311000Y-121414802D01*
X147262540Y-121171180D01*
X147167483Y-120941693D01*
X147029482Y-120735160D01*
X146853840Y-120559518D01*
X146647307Y-120421517D01*
X146417820Y-120326460D01*
X146174198Y-120278000D01*
X145925802Y-120278000D01*
X145682180Y-120326460D01*
X145452693Y-120421517D01*
X145246160Y-120559518D01*
X145070518Y-120735160D01*
X144932517Y-120941693D01*
X144837460Y-121171180D01*
X144789000Y-121414802D01*
X144789000Y-121663198D01*
X144837460Y-121906820D01*
X144932517Y-122136307D01*
X145070518Y-122342840D01*
X145246160Y-122518482D01*
X145452693Y-122656483D01*
X145539000Y-122692233D01*
X145539000Y-123228403D01*
X145536528Y-123253500D01*
X145539000Y-123278596D01*
X145539000Y-123278598D01*
X145546394Y-123353672D01*
X145575614Y-123449996D01*
X145623064Y-123538770D01*
X145686920Y-123616580D01*
X145706425Y-123632587D01*
X147227838Y-125154000D01*
X147200727Y-125154000D01*
X146966764Y-125200538D01*
X146746376Y-125291825D01*
X146548032Y-125424354D01*
X146507524Y-125464862D01*
X144021000Y-122978338D01*
X144021000Y-122692233D01*
X144107307Y-122656483D01*
X144313840Y-122518482D01*
X144489482Y-122342840D01*
X144627483Y-122136307D01*
X144722540Y-121906820D01*
X144771000Y-121663198D01*
X144771000Y-121414802D01*
X144722540Y-121171180D01*
X144627483Y-120941693D01*
X144489482Y-120735160D01*
X144313840Y-120559518D01*
X144107307Y-120421517D01*
X143877820Y-120326460D01*
X143634198Y-120278000D01*
X143385802Y-120278000D01*
X143163430Y-120322233D01*
X143277164Y-120208500D01*
X144306404Y-120208500D01*
X144331500Y-120210972D01*
X144356596Y-120208500D01*
X144356599Y-120208500D01*
X144431673Y-120201106D01*
X144527997Y-120171886D01*
X144616770Y-120124436D01*
X144694580Y-120060580D01*
X144710587Y-120041075D01*
X145595872Y-119155790D01*
X145682180Y-119191540D01*
X145925802Y-119240000D01*
X146174198Y-119240000D01*
X146417820Y-119191540D01*
X146647307Y-119096483D01*
X146853840Y-118958482D01*
X147029482Y-118782840D01*
X147167483Y-118576307D01*
X147262540Y-118346820D01*
X147311000Y-118103198D01*
X147311000Y-117854802D01*
X147329000Y-117854802D01*
X147329000Y-118103198D01*
X147377460Y-118346820D01*
X147472517Y-118576307D01*
X147610518Y-118782840D01*
X147786160Y-118958482D01*
X147992693Y-119096483D01*
X148222180Y-119191540D01*
X148465802Y-119240000D01*
X148714198Y-119240000D01*
X148957820Y-119191540D01*
X149187307Y-119096483D01*
X149393840Y-118958482D01*
X149569482Y-118782840D01*
X149707483Y-118576307D01*
X149802540Y-118346820D01*
X149851000Y-118103198D01*
X149851000Y-117854802D01*
X149869000Y-117854802D01*
X149869000Y-118103198D01*
X149917460Y-118346820D01*
X150012517Y-118576307D01*
X150150518Y-118782840D01*
X150326160Y-118958482D01*
X150532693Y-119096483D01*
X150762180Y-119191540D01*
X151005802Y-119240000D01*
X151254198Y-119240000D01*
X151497820Y-119191540D01*
X151727307Y-119096483D01*
X151933840Y-118958482D01*
X152109482Y-118782840D01*
X152247483Y-118576307D01*
X152342540Y-118346820D01*
X152391000Y-118103198D01*
X152391000Y-117854802D01*
X152409000Y-117854802D01*
X152409000Y-118103198D01*
X152457460Y-118346820D01*
X152552517Y-118576307D01*
X152690518Y-118782840D01*
X152866160Y-118958482D01*
X153072693Y-119096483D01*
X153302180Y-119191540D01*
X153545802Y-119240000D01*
X153794198Y-119240000D01*
X154037820Y-119191540D01*
X154267307Y-119096483D01*
X154473840Y-118958482D01*
X154649482Y-118782840D01*
X154787483Y-118576307D01*
X154882540Y-118346820D01*
X154931000Y-118103198D01*
X154931000Y-117854802D01*
X154949000Y-117854802D01*
X154949000Y-118103198D01*
X154997460Y-118346820D01*
X155092517Y-118576307D01*
X155230518Y-118782840D01*
X155406160Y-118958482D01*
X155612693Y-119096483D01*
X155842180Y-119191540D01*
X156085802Y-119240000D01*
X156334198Y-119240000D01*
X156577820Y-119191540D01*
X156807307Y-119096483D01*
X157013840Y-118958482D01*
X157189482Y-118782840D01*
X157327483Y-118576307D01*
X157422540Y-118346820D01*
X157471000Y-118103198D01*
X157471000Y-117854802D01*
X157489000Y-117854802D01*
X157489000Y-118103198D01*
X157537460Y-118346820D01*
X157632517Y-118576307D01*
X157770518Y-118782840D01*
X157946160Y-118958482D01*
X158152693Y-119096483D01*
X158382180Y-119191540D01*
X158625802Y-119240000D01*
X158874198Y-119240000D01*
X159117820Y-119191540D01*
X159347307Y-119096483D01*
X159553840Y-118958482D01*
X159729482Y-118782840D01*
X159867483Y-118576307D01*
X159962540Y-118346820D01*
X160011000Y-118103198D01*
X160011000Y-117854802D01*
X160029000Y-117854802D01*
X160029000Y-118103198D01*
X160077460Y-118346820D01*
X160172517Y-118576307D01*
X160310518Y-118782840D01*
X160486160Y-118958482D01*
X160692693Y-119096483D01*
X160922180Y-119191540D01*
X161165802Y-119240000D01*
X161414198Y-119240000D01*
X161657820Y-119191540D01*
X161887307Y-119096483D01*
X162093840Y-118958482D01*
X162269482Y-118782840D01*
X162407483Y-118576307D01*
X162502540Y-118346820D01*
X162551000Y-118103198D01*
X162551000Y-117854802D01*
X162569000Y-117854802D01*
X162569000Y-118103198D01*
X162617460Y-118346820D01*
X162712517Y-118576307D01*
X162850518Y-118782840D01*
X163026160Y-118958482D01*
X163232693Y-119096483D01*
X163462180Y-119191540D01*
X163705802Y-119240000D01*
X163954198Y-119240000D01*
X164197820Y-119191540D01*
X164427307Y-119096483D01*
X164633840Y-118958482D01*
X164809482Y-118782840D01*
X164947483Y-118576307D01*
X165042540Y-118346820D01*
X165091000Y-118103198D01*
X165091000Y-117854802D01*
X165109000Y-117854802D01*
X165109000Y-118103198D01*
X165157460Y-118346820D01*
X165252517Y-118576307D01*
X165390518Y-118782840D01*
X165566160Y-118958482D01*
X165772693Y-119096483D01*
X166002180Y-119191540D01*
X166245802Y-119240000D01*
X166494198Y-119240000D01*
X166737820Y-119191540D01*
X166967307Y-119096483D01*
X167173840Y-118958482D01*
X167349482Y-118782840D01*
X167487483Y-118576307D01*
X167582540Y-118346820D01*
X167631000Y-118103198D01*
X167631000Y-117854802D01*
X167649000Y-117854802D01*
X167649000Y-118103198D01*
X167697460Y-118346820D01*
X167792517Y-118576307D01*
X167930518Y-118782840D01*
X168106160Y-118958482D01*
X168312693Y-119096483D01*
X168542180Y-119191540D01*
X168785802Y-119240000D01*
X169034198Y-119240000D01*
X169277820Y-119191540D01*
X169507307Y-119096483D01*
X169713840Y-118958482D01*
X169889482Y-118782840D01*
X170027483Y-118576307D01*
X170122540Y-118346820D01*
X170171000Y-118103198D01*
X170171000Y-117854802D01*
X170189000Y-117854802D01*
X170189000Y-118103198D01*
X170237460Y-118346820D01*
X170332517Y-118576307D01*
X170470518Y-118782840D01*
X170646160Y-118958482D01*
X170852693Y-119096483D01*
X171082180Y-119191540D01*
X171325802Y-119240000D01*
X171574198Y-119240000D01*
X171817820Y-119191540D01*
X172047307Y-119096483D01*
X172253840Y-118958482D01*
X172429482Y-118782840D01*
X172567483Y-118576307D01*
X172662540Y-118346820D01*
X172711000Y-118103198D01*
X172711000Y-117854802D01*
X172729000Y-117854802D01*
X172729000Y-118103198D01*
X172777460Y-118346820D01*
X172872517Y-118576307D01*
X173010518Y-118782840D01*
X173186160Y-118958482D01*
X173392693Y-119096483D01*
X173622180Y-119191540D01*
X173865802Y-119240000D01*
X174114198Y-119240000D01*
X174357820Y-119191540D01*
X174587307Y-119096483D01*
X174793840Y-118958482D01*
X174969482Y-118782840D01*
X175107483Y-118576307D01*
X175202540Y-118346820D01*
X175251000Y-118103198D01*
X175251000Y-117854802D01*
X175202540Y-117611180D01*
X175107483Y-117381693D01*
X174969482Y-117175160D01*
X174793840Y-116999518D01*
X174587307Y-116861517D01*
X174357820Y-116766460D01*
X174114198Y-116718000D01*
X173865802Y-116718000D01*
X173622180Y-116766460D01*
X173392693Y-116861517D01*
X173186160Y-116999518D01*
X173010518Y-117175160D01*
X172872517Y-117381693D01*
X172777460Y-117611180D01*
X172729000Y-117854802D01*
X172711000Y-117854802D01*
X172662540Y-117611180D01*
X172626790Y-117524872D01*
X175603580Y-114548083D01*
X175623080Y-114532080D01*
X175686936Y-114454270D01*
X175734386Y-114365497D01*
X175763606Y-114269173D01*
X175771000Y-114194099D01*
X175771000Y-114194097D01*
X175773472Y-114169000D01*
X175771000Y-114143903D01*
X175771000Y-114129115D01*
X175833624Y-114103175D01*
X176031968Y-113970646D01*
X176200646Y-113801968D01*
X176333175Y-113603624D01*
X176424462Y-113383236D01*
X176471000Y-113149273D01*
X176471000Y-112910727D01*
X176424462Y-112676764D01*
X176333175Y-112456376D01*
X176200646Y-112258032D01*
X176031968Y-112089354D01*
X175833624Y-111956825D01*
X175613236Y-111865538D01*
X175379273Y-111819000D01*
X175140727Y-111819000D01*
X174906764Y-111865538D01*
X174686376Y-111956825D01*
X174488032Y-112089354D01*
X174319354Y-112258032D01*
X174186825Y-112456376D01*
X174095538Y-112676764D01*
X174049000Y-112910727D01*
X174049000Y-113149273D01*
X174095538Y-113383236D01*
X174186825Y-113603624D01*
X174319354Y-113801968D01*
X174488032Y-113970646D01*
X174636493Y-114069844D01*
X171904128Y-116802210D01*
X171817820Y-116766460D01*
X171574198Y-116718000D01*
X171325802Y-116718000D01*
X171082180Y-116766460D01*
X170852693Y-116861517D01*
X170646160Y-116999518D01*
X170470518Y-117175160D01*
X170332517Y-117381693D01*
X170237460Y-117611180D01*
X170189000Y-117854802D01*
X170171000Y-117854802D01*
X170122540Y-117611180D01*
X170086790Y-117524872D01*
X172932580Y-114679083D01*
X172952080Y-114663080D01*
X173015936Y-114585270D01*
X173063386Y-114496497D01*
X173092606Y-114400173D01*
X173100000Y-114325099D01*
X173100000Y-114325097D01*
X173102472Y-114300000D01*
X173100000Y-114274903D01*
X173100000Y-114183376D01*
X173293624Y-114103175D01*
X173491968Y-113970646D01*
X173660646Y-113801968D01*
X173793175Y-113603624D01*
X173884462Y-113383236D01*
X173931000Y-113149273D01*
X173931000Y-112910727D01*
X173884462Y-112676764D01*
X173793175Y-112456376D01*
X173660646Y-112258032D01*
X173491968Y-112089354D01*
X173293624Y-111956825D01*
X173073236Y-111865538D01*
X172839273Y-111819000D01*
X172600727Y-111819000D01*
X172366764Y-111865538D01*
X172146376Y-111956825D01*
X171948032Y-112089354D01*
X171779354Y-112258032D01*
X171646825Y-112456376D01*
X171555538Y-112676764D01*
X171509000Y-112910727D01*
X171509000Y-113149273D01*
X171555538Y-113383236D01*
X171646825Y-113603624D01*
X171779354Y-113801968D01*
X171948032Y-113970646D01*
X172078000Y-114057488D01*
X172078000Y-114088337D01*
X169364128Y-116802210D01*
X169277820Y-116766460D01*
X169034198Y-116718000D01*
X168785802Y-116718000D01*
X168542180Y-116766460D01*
X168312693Y-116861517D01*
X168106160Y-116999518D01*
X167930518Y-117175160D01*
X167792517Y-117381693D01*
X167697460Y-117611180D01*
X167649000Y-117854802D01*
X167631000Y-117854802D01*
X167582540Y-117611180D01*
X167546790Y-117524872D01*
X170523580Y-114548083D01*
X170543080Y-114532080D01*
X170606936Y-114454270D01*
X170654386Y-114365497D01*
X170683606Y-114269173D01*
X170691000Y-114194099D01*
X170691000Y-114194097D01*
X170693472Y-114169000D01*
X170691000Y-114143903D01*
X170691000Y-114129115D01*
X170753624Y-114103175D01*
X170951968Y-113970646D01*
X171120646Y-113801968D01*
X171253175Y-113603624D01*
X171344462Y-113383236D01*
X171391000Y-113149273D01*
X171391000Y-112910727D01*
X171344462Y-112676764D01*
X171253175Y-112456376D01*
X171120646Y-112258032D01*
X170951968Y-112089354D01*
X170753624Y-111956825D01*
X170533236Y-111865538D01*
X170299273Y-111819000D01*
X170060727Y-111819000D01*
X169826764Y-111865538D01*
X169606376Y-111956825D01*
X169408032Y-112089354D01*
X169239354Y-112258032D01*
X169106825Y-112456376D01*
X169015538Y-112676764D01*
X168969000Y-112910727D01*
X168969000Y-113149273D01*
X169015538Y-113383236D01*
X169106825Y-113603624D01*
X169239354Y-113801968D01*
X169408032Y-113970646D01*
X169556493Y-114069844D01*
X166824128Y-116802210D01*
X166737820Y-116766460D01*
X166494198Y-116718000D01*
X166245802Y-116718000D01*
X166002180Y-116766460D01*
X165772693Y-116861517D01*
X165566160Y-116999518D01*
X165390518Y-117175160D01*
X165252517Y-117381693D01*
X165157460Y-117611180D01*
X165109000Y-117854802D01*
X165091000Y-117854802D01*
X165042540Y-117611180D01*
X165006790Y-117524872D01*
X167983580Y-114548083D01*
X168003080Y-114532080D01*
X168066936Y-114454270D01*
X168114386Y-114365497D01*
X168143606Y-114269173D01*
X168151000Y-114194099D01*
X168151000Y-114194097D01*
X168153472Y-114169000D01*
X168151000Y-114143903D01*
X168151000Y-114129115D01*
X168213624Y-114103175D01*
X168411968Y-113970646D01*
X168580646Y-113801968D01*
X168713175Y-113603624D01*
X168804462Y-113383236D01*
X168851000Y-113149273D01*
X168851000Y-112910727D01*
X168804462Y-112676764D01*
X168713175Y-112456376D01*
X168580646Y-112258032D01*
X168411968Y-112089354D01*
X168213624Y-111956825D01*
X167993236Y-111865538D01*
X167759273Y-111819000D01*
X167520727Y-111819000D01*
X167286764Y-111865538D01*
X167066376Y-111956825D01*
X166868032Y-112089354D01*
X166699354Y-112258032D01*
X166566825Y-112456376D01*
X166475538Y-112676764D01*
X166429000Y-112910727D01*
X166429000Y-113149273D01*
X166475538Y-113383236D01*
X166566825Y-113603624D01*
X166699354Y-113801968D01*
X166868032Y-113970646D01*
X167016493Y-114069844D01*
X164284128Y-116802210D01*
X164197820Y-116766460D01*
X163954198Y-116718000D01*
X163705802Y-116718000D01*
X163462180Y-116766460D01*
X163232693Y-116861517D01*
X163026160Y-116999518D01*
X162850518Y-117175160D01*
X162712517Y-117381693D01*
X162617460Y-117611180D01*
X162569000Y-117854802D01*
X162551000Y-117854802D01*
X162502540Y-117611180D01*
X162466790Y-117524872D01*
X165443580Y-114548083D01*
X165463080Y-114532080D01*
X165526936Y-114454270D01*
X165574386Y-114365497D01*
X165603606Y-114269173D01*
X165611000Y-114194099D01*
X165611000Y-114194097D01*
X165613472Y-114169000D01*
X165611000Y-114143903D01*
X165611000Y-114129115D01*
X165673624Y-114103175D01*
X165871968Y-113970646D01*
X166040646Y-113801968D01*
X166173175Y-113603624D01*
X166264462Y-113383236D01*
X166311000Y-113149273D01*
X166311000Y-112910727D01*
X166264462Y-112676764D01*
X166173175Y-112456376D01*
X166040646Y-112258032D01*
X165871968Y-112089354D01*
X165673624Y-111956825D01*
X165453236Y-111865538D01*
X165219273Y-111819000D01*
X164980727Y-111819000D01*
X164746764Y-111865538D01*
X164526376Y-111956825D01*
X164328032Y-112089354D01*
X164159354Y-112258032D01*
X164026825Y-112456376D01*
X163935538Y-112676764D01*
X163889000Y-112910727D01*
X163889000Y-113149273D01*
X163935538Y-113383236D01*
X164026825Y-113603624D01*
X164159354Y-113801968D01*
X164328032Y-113970646D01*
X164476493Y-114069844D01*
X161744128Y-116802210D01*
X161657820Y-116766460D01*
X161414198Y-116718000D01*
X161165802Y-116718000D01*
X160922180Y-116766460D01*
X160692693Y-116861517D01*
X160486160Y-116999518D01*
X160310518Y-117175160D01*
X160172517Y-117381693D01*
X160077460Y-117611180D01*
X160029000Y-117854802D01*
X160011000Y-117854802D01*
X159962540Y-117611180D01*
X159867483Y-117381693D01*
X159729482Y-117175160D01*
X159553840Y-116999518D01*
X159347307Y-116861517D01*
X159117820Y-116766460D01*
X158874198Y-116718000D01*
X158625802Y-116718000D01*
X158382180Y-116766460D01*
X158152693Y-116861517D01*
X157946160Y-116999518D01*
X157770518Y-117175160D01*
X157632517Y-117381693D01*
X157537460Y-117611180D01*
X157489000Y-117854802D01*
X157471000Y-117854802D01*
X157422540Y-117611180D01*
X157386790Y-117524872D01*
X160363580Y-114548083D01*
X160383080Y-114532080D01*
X160446936Y-114454270D01*
X160494386Y-114365497D01*
X160523606Y-114269173D01*
X160531000Y-114194099D01*
X160531000Y-114194097D01*
X160533472Y-114169000D01*
X160531000Y-114143903D01*
X160531000Y-114129115D01*
X160593624Y-114103175D01*
X160791968Y-113970646D01*
X160960646Y-113801968D01*
X161093175Y-113603624D01*
X161184462Y-113383236D01*
X161231000Y-113149273D01*
X161231000Y-112910727D01*
X161349000Y-112910727D01*
X161349000Y-113149273D01*
X161395538Y-113383236D01*
X161486825Y-113603624D01*
X161619354Y-113801968D01*
X161788032Y-113970646D01*
X161986376Y-114103175D01*
X162206764Y-114194462D01*
X162440727Y-114241000D01*
X162679273Y-114241000D01*
X162913236Y-114194462D01*
X163133624Y-114103175D01*
X163331968Y-113970646D01*
X163500646Y-113801968D01*
X163633175Y-113603624D01*
X163724462Y-113383236D01*
X163771000Y-113149273D01*
X163771000Y-112910727D01*
X163724462Y-112676764D01*
X163633175Y-112456376D01*
X163500646Y-112258032D01*
X163331968Y-112089354D01*
X163133624Y-111956825D01*
X162913236Y-111865538D01*
X162679273Y-111819000D01*
X162440727Y-111819000D01*
X162206764Y-111865538D01*
X161986376Y-111956825D01*
X161788032Y-112089354D01*
X161619354Y-112258032D01*
X161486825Y-112456376D01*
X161395538Y-112676764D01*
X161349000Y-112910727D01*
X161231000Y-112910727D01*
X161184462Y-112676764D01*
X161093175Y-112456376D01*
X160960646Y-112258032D01*
X160791968Y-112089354D01*
X160593624Y-111956825D01*
X160373236Y-111865538D01*
X160139273Y-111819000D01*
X159900727Y-111819000D01*
X159666764Y-111865538D01*
X159446376Y-111956825D01*
X159248032Y-112089354D01*
X159079354Y-112258032D01*
X158946825Y-112456376D01*
X158855538Y-112676764D01*
X158809000Y-112910727D01*
X158809000Y-113149273D01*
X158855538Y-113383236D01*
X158946825Y-113603624D01*
X159079354Y-113801968D01*
X159248032Y-113970646D01*
X159396493Y-114069844D01*
X156664128Y-116802210D01*
X156577820Y-116766460D01*
X156334198Y-116718000D01*
X156085802Y-116718000D01*
X155842180Y-116766460D01*
X155612693Y-116861517D01*
X155406160Y-116999518D01*
X155230518Y-117175160D01*
X155092517Y-117381693D01*
X154997460Y-117611180D01*
X154949000Y-117854802D01*
X154931000Y-117854802D01*
X154882540Y-117611180D01*
X154787483Y-117381693D01*
X154649482Y-117175160D01*
X154473840Y-116999518D01*
X154267307Y-116861517D01*
X154037820Y-116766460D01*
X153794198Y-116718000D01*
X153545802Y-116718000D01*
X153302180Y-116766460D01*
X153072693Y-116861517D01*
X152866160Y-116999518D01*
X152690518Y-117175160D01*
X152552517Y-117381693D01*
X152457460Y-117611180D01*
X152409000Y-117854802D01*
X152391000Y-117854802D01*
X152342540Y-117611180D01*
X152247483Y-117381693D01*
X152109482Y-117175160D01*
X151933840Y-116999518D01*
X151727307Y-116861517D01*
X151497820Y-116766460D01*
X151254198Y-116718000D01*
X151005802Y-116718000D01*
X150762180Y-116766460D01*
X150532693Y-116861517D01*
X150326160Y-116999518D01*
X150150518Y-117175160D01*
X150012517Y-117381693D01*
X149917460Y-117611180D01*
X149869000Y-117854802D01*
X149851000Y-117854802D01*
X149802540Y-117611180D01*
X149707483Y-117381693D01*
X149569482Y-117175160D01*
X149393840Y-116999518D01*
X149187307Y-116861517D01*
X148957820Y-116766460D01*
X148714198Y-116718000D01*
X148465802Y-116718000D01*
X148222180Y-116766460D01*
X147992693Y-116861517D01*
X147786160Y-116999518D01*
X147610518Y-117175160D01*
X147472517Y-117381693D01*
X147377460Y-117611180D01*
X147329000Y-117854802D01*
X147311000Y-117854802D01*
X147262540Y-117611180D01*
X147167483Y-117381693D01*
X147029482Y-117175160D01*
X146853840Y-116999518D01*
X146647307Y-116861517D01*
X146417820Y-116766460D01*
X146174198Y-116718000D01*
X145925802Y-116718000D01*
X145682180Y-116766460D01*
X145452693Y-116861517D01*
X145246160Y-116999518D01*
X145070518Y-117175160D01*
X144932517Y-117381693D01*
X144837460Y-117611180D01*
X144789000Y-117854802D01*
X144789000Y-118103198D01*
X144837460Y-118346820D01*
X144873210Y-118433128D01*
X144119838Y-119186500D01*
X143889988Y-119186500D01*
X144107307Y-119096483D01*
X144313840Y-118958482D01*
X144489482Y-118782840D01*
X144627483Y-118576307D01*
X144722540Y-118346820D01*
X144771000Y-118103198D01*
X144771000Y-117854802D01*
X144722540Y-117611180D01*
X144627483Y-117381693D01*
X144489482Y-117175160D01*
X144313840Y-116999518D01*
X144107307Y-116861517D01*
X144021000Y-116825767D01*
X144021000Y-116416662D01*
X144547164Y-115890500D01*
X150025404Y-115890500D01*
X150050500Y-115892972D01*
X150075596Y-115890500D01*
X150075599Y-115890500D01*
X150150673Y-115883106D01*
X150246997Y-115853886D01*
X150335770Y-115806436D01*
X150413580Y-115742580D01*
X150429587Y-115723075D01*
X151984140Y-114168523D01*
X152046764Y-114194462D01*
X152280727Y-114241000D01*
X152519273Y-114241000D01*
X152753236Y-114194462D01*
X152973624Y-114103175D01*
X153171968Y-113970646D01*
X153340646Y-113801968D01*
X153473175Y-113603624D01*
X153564462Y-113383236D01*
X153611000Y-113149273D01*
X153611000Y-112910727D01*
X153729000Y-112910727D01*
X153729000Y-113149273D01*
X153775538Y-113383236D01*
X153866825Y-113603624D01*
X153999354Y-113801968D01*
X154168032Y-113970646D01*
X154366376Y-114103175D01*
X154586764Y-114194462D01*
X154820727Y-114241000D01*
X155059273Y-114241000D01*
X155293236Y-114194462D01*
X155513624Y-114103175D01*
X155711968Y-113970646D01*
X155880646Y-113801968D01*
X156013175Y-113603624D01*
X156104462Y-113383236D01*
X156151000Y-113149273D01*
X156151000Y-112910727D01*
X156269000Y-112910727D01*
X156269000Y-113149273D01*
X156315538Y-113383236D01*
X156406825Y-113603624D01*
X156539354Y-113801968D01*
X156708032Y-113970646D01*
X156906376Y-114103175D01*
X157126764Y-114194462D01*
X157360727Y-114241000D01*
X157599273Y-114241000D01*
X157833236Y-114194462D01*
X158053624Y-114103175D01*
X158251968Y-113970646D01*
X158420646Y-113801968D01*
X158553175Y-113603624D01*
X158644462Y-113383236D01*
X158691000Y-113149273D01*
X158691000Y-112910727D01*
X158644462Y-112676764D01*
X158553175Y-112456376D01*
X158420646Y-112258032D01*
X158251968Y-112089354D01*
X158053624Y-111956825D01*
X157833236Y-111865538D01*
X157599273Y-111819000D01*
X157360727Y-111819000D01*
X157126764Y-111865538D01*
X156906376Y-111956825D01*
X156708032Y-112089354D01*
X156539354Y-112258032D01*
X156406825Y-112456376D01*
X156315538Y-112676764D01*
X156269000Y-112910727D01*
X156151000Y-112910727D01*
X156104462Y-112676764D01*
X156013175Y-112456376D01*
X155880646Y-112258032D01*
X155711968Y-112089354D01*
X155513624Y-111956825D01*
X155293236Y-111865538D01*
X155059273Y-111819000D01*
X154820727Y-111819000D01*
X154586764Y-111865538D01*
X154366376Y-111956825D01*
X154168032Y-112089354D01*
X153999354Y-112258032D01*
X153866825Y-112456376D01*
X153775538Y-112676764D01*
X153729000Y-112910727D01*
X153611000Y-112910727D01*
X153564462Y-112676764D01*
X153473175Y-112456376D01*
X153340646Y-112258032D01*
X153171968Y-112089354D01*
X152973624Y-111956825D01*
X152753236Y-111865538D01*
X152519273Y-111819000D01*
X152280727Y-111819000D01*
X152046764Y-111865538D01*
X151826376Y-111956825D01*
X151628032Y-112089354D01*
X151459354Y-112258032D01*
X151326825Y-112456376D01*
X151235538Y-112676764D01*
X151189000Y-112910727D01*
X151189000Y-113149273D01*
X151235538Y-113383236D01*
X151261477Y-113445860D01*
X149838838Y-114868500D01*
X148744162Y-114868500D01*
X149444140Y-114168523D01*
X149506764Y-114194462D01*
X149740727Y-114241000D01*
X149979273Y-114241000D01*
X150213236Y-114194462D01*
X150433624Y-114103175D01*
X150631968Y-113970646D01*
X150800646Y-113801968D01*
X150933175Y-113603624D01*
X151024462Y-113383236D01*
X151071000Y-113149273D01*
X151071000Y-112910727D01*
X151024462Y-112676764D01*
X150933175Y-112456376D01*
X150800646Y-112258032D01*
X150631968Y-112089354D01*
X150433624Y-111956825D01*
X150213236Y-111865538D01*
X149979273Y-111819000D01*
X149740727Y-111819000D01*
X149506764Y-111865538D01*
X149286376Y-111956825D01*
X149088032Y-112089354D01*
X148919354Y-112258032D01*
X148786825Y-112456376D01*
X148695538Y-112676764D01*
X148649000Y-112910727D01*
X148649000Y-113149273D01*
X148695538Y-113383236D01*
X148721477Y-113445860D01*
X147798849Y-114368489D01*
X144094607Y-114368489D01*
X144069510Y-114366017D01*
X144044413Y-114368489D01*
X144044412Y-114368489D01*
X143969338Y-114375883D01*
X143873014Y-114405103D01*
X143784241Y-114452553D01*
X143706431Y-114516409D01*
X143690428Y-114535909D01*
X141424128Y-116802210D01*
X141337820Y-116766460D01*
X141094198Y-116718000D01*
X140845802Y-116718000D01*
X140602180Y-116766460D01*
X140372693Y-116861517D01*
X140166160Y-116999518D01*
X139990518Y-117175160D01*
X139852517Y-117381693D01*
X139757460Y-117611180D01*
X139709000Y-117854802D01*
X139709000Y-118103198D01*
X139757460Y-118346820D01*
X139852517Y-118576307D01*
X139990518Y-118782840D01*
X140166160Y-118958482D01*
X140372693Y-119096483D01*
X140602180Y-119191540D01*
X140845802Y-119240000D01*
X141094198Y-119240000D01*
X141337820Y-119191540D01*
X141567307Y-119096483D01*
X141773840Y-118958482D01*
X141949482Y-118782840D01*
X142087483Y-118576307D01*
X142182540Y-118346820D01*
X142231000Y-118103198D01*
X142231000Y-117854802D01*
X142182540Y-117611180D01*
X142146790Y-117524872D01*
X142999001Y-116672662D01*
X142999001Y-116825767D01*
X142912693Y-116861517D01*
X142706160Y-116999518D01*
X142530518Y-117175160D01*
X142392517Y-117381693D01*
X142297460Y-117611180D01*
X142249000Y-117854802D01*
X142249000Y-118103198D01*
X142297460Y-118346820D01*
X142392517Y-118576307D01*
X142530518Y-118782840D01*
X142706160Y-118958482D01*
X142912693Y-119096483D01*
X143130012Y-119186500D01*
X143090596Y-119186500D01*
X143065499Y-119184028D01*
X143040402Y-119186500D01*
X143040401Y-119186500D01*
X142965327Y-119193894D01*
X142869003Y-119223114D01*
X142835041Y-119241267D01*
X142780229Y-119270564D01*
X142721915Y-119318421D01*
X142702420Y-119334420D01*
X142686421Y-119353915D01*
X141896420Y-120143917D01*
X141876921Y-120159920D01*
X141853930Y-120187935D01*
X141813064Y-120237730D01*
X141765638Y-120326460D01*
X141765615Y-120326503D01*
X141736793Y-120421517D01*
X141736395Y-120422828D01*
X141726528Y-120523000D01*
X141727045Y-120528251D01*
X141567307Y-120421517D01*
X141337820Y-120326460D01*
X141094198Y-120278000D01*
X140845802Y-120278000D01*
X140602180Y-120326460D01*
X140372693Y-120421517D01*
X140166160Y-120559518D01*
X139990518Y-120735160D01*
X139852517Y-120941693D01*
X139849610Y-120948712D01*
X139828222Y-120887801D01*
X139748261Y-120738208D01*
X139494080Y-120654525D01*
X138609605Y-121539000D01*
X138250395Y-121539000D01*
X137365920Y-120654525D01*
X137111739Y-120738208D01*
X136980842Y-121010775D01*
X136905635Y-121303642D01*
X136889009Y-121605553D01*
X136528000Y-121605553D01*
X136528000Y-120474920D01*
X137545525Y-120474920D01*
X138430000Y-121359395D01*
X139314475Y-120474920D01*
X139230792Y-120220739D01*
X138958225Y-120089842D01*
X138665358Y-120014635D01*
X138363447Y-119998009D01*
X138064093Y-120040603D01*
X137778801Y-120140778D01*
X137629208Y-120220739D01*
X137545525Y-120474920D01*
X136528000Y-120474920D01*
X136528000Y-116119799D01*
X136556441Y-116051138D01*
X136578000Y-115942754D01*
X136578000Y-115832246D01*
X136556441Y-115723862D01*
X136514151Y-115621767D01*
X136452757Y-115529884D01*
X136374616Y-115451743D01*
X136282733Y-115390349D01*
X136180638Y-115348059D01*
X136072254Y-115326500D01*
X135961746Y-115326500D01*
X135956500Y-115327543D01*
X135956500Y-114722799D01*
X135984941Y-114654138D01*
X136006500Y-114545754D01*
X136006500Y-114435246D01*
X135984941Y-114326862D01*
X135942651Y-114224767D01*
X135881257Y-114132884D01*
X135803116Y-114054743D01*
X135711233Y-113993349D01*
X135609138Y-113951059D01*
X135500754Y-113929500D01*
X135390246Y-113929500D01*
X135281862Y-113951059D01*
X135179767Y-113993349D01*
X135087884Y-114054743D01*
X135009743Y-114132884D01*
X134948349Y-114224767D01*
X134906059Y-114326862D01*
X134884500Y-114435246D01*
X134884500Y-114545754D01*
X134906059Y-114654138D01*
X134934501Y-114722802D01*
X134934500Y-121454337D01*
X133895421Y-122493417D01*
X133895416Y-122493421D01*
X132820838Y-123568000D01*
X120421096Y-123568000D01*
X120395999Y-123565528D01*
X120370902Y-123568000D01*
X120370901Y-123568000D01*
X120295827Y-123575394D01*
X120199503Y-123604614D01*
X120176450Y-123616936D01*
X120110729Y-123652064D01*
X120095715Y-123664386D01*
X120032920Y-123715920D01*
X120016922Y-123735414D01*
X118525860Y-125226477D01*
X118463236Y-125200538D01*
X118229273Y-125154000D01*
X117990727Y-125154000D01*
X117756764Y-125200538D01*
X117536376Y-125291825D01*
X117338032Y-125424354D01*
X117169354Y-125593032D01*
X117036825Y-125791376D01*
X116945538Y-126011764D01*
X116899000Y-126245727D01*
X116899000Y-126484273D01*
X116945538Y-126718236D01*
X117036825Y-126938624D01*
X117169354Y-127136968D01*
X117338032Y-127305646D01*
X117536376Y-127438175D01*
X117756764Y-127529462D01*
X117990727Y-127576000D01*
X118229273Y-127576000D01*
X118463236Y-127529462D01*
X118683624Y-127438175D01*
X118881968Y-127305646D01*
X119050646Y-127136968D01*
X119183175Y-126938624D01*
X119274462Y-126718236D01*
X119321000Y-126484273D01*
X119321000Y-126245727D01*
X119439000Y-126245727D01*
X119439000Y-126484273D01*
X119485538Y-126718236D01*
X119576825Y-126938624D01*
X119709354Y-127136968D01*
X119878032Y-127305646D01*
X120076376Y-127438175D01*
X120296764Y-127529462D01*
X120530727Y-127576000D01*
X120769273Y-127576000D01*
X121003236Y-127529462D01*
X121223624Y-127438175D01*
X121421968Y-127305646D01*
X121590646Y-127136968D01*
X121723175Y-126938624D01*
X121814462Y-126718236D01*
X121861000Y-126484273D01*
X121861000Y-126245727D01*
X121814462Y-126011764D01*
X121723175Y-125791376D01*
X121590646Y-125593032D01*
X121421968Y-125424354D01*
X121223624Y-125291825D01*
X121003236Y-125200538D01*
X120769273Y-125154000D01*
X120530727Y-125154000D01*
X120296764Y-125200538D01*
X120076376Y-125291825D01*
X119878032Y-125424354D01*
X119709354Y-125593032D01*
X119576825Y-125791376D01*
X119485538Y-126011764D01*
X119439000Y-126245727D01*
X119321000Y-126245727D01*
X119274462Y-126011764D01*
X119248523Y-125949140D01*
X120607664Y-124590000D01*
X126782337Y-124590000D01*
X126145860Y-125226478D01*
X126083236Y-125200538D01*
X125849273Y-125154000D01*
X125610727Y-125154000D01*
X125376764Y-125200538D01*
X125156376Y-125291825D01*
X124958032Y-125424354D01*
X124789354Y-125593032D01*
X124656825Y-125791376D01*
X124565538Y-126011764D01*
X124519000Y-126245727D01*
X124519000Y-126484273D01*
X124565538Y-126718236D01*
X124656825Y-126938624D01*
X124733917Y-127054001D01*
X124601664Y-127054001D01*
X124328523Y-126780860D01*
X124354462Y-126718236D01*
X124401000Y-126484273D01*
X124401000Y-126245727D01*
X124354462Y-126011764D01*
X124263175Y-125791376D01*
X124130646Y-125593032D01*
X123961968Y-125424354D01*
X123763624Y-125291825D01*
X123543236Y-125200538D01*
X123309273Y-125154000D01*
X123070727Y-125154000D01*
X122836764Y-125200538D01*
X122616376Y-125291825D01*
X122418032Y-125424354D01*
X122249354Y-125593032D01*
X122116825Y-125791376D01*
X122025538Y-126011764D01*
X121979000Y-126245727D01*
X121979000Y-126484273D01*
X122025538Y-126718236D01*
X122116825Y-126938624D01*
X122249354Y-127136968D01*
X122418032Y-127305646D01*
X122616376Y-127438175D01*
X122836764Y-127529462D01*
X123070727Y-127576000D01*
X123309273Y-127576000D01*
X123543236Y-127529462D01*
X123605860Y-127503523D01*
X123986337Y-127884000D01*
X116591000Y-127884000D01*
X116591000Y-117054746D01*
X120343000Y-117054746D01*
X120343000Y-117165254D01*
X120364559Y-117273638D01*
X120406849Y-117375733D01*
X120468243Y-117467616D01*
X120546384Y-117545757D01*
X120638267Y-117607151D01*
X120740362Y-117649441D01*
X120848746Y-117671000D01*
X120959254Y-117671000D01*
X121067638Y-117649441D01*
X121136299Y-117621000D01*
X124974336Y-117621000D01*
X126378415Y-119025080D01*
X126394418Y-119044580D01*
X126472228Y-119108436D01*
X126561001Y-119155886D01*
X126657325Y-119185106D01*
X126732399Y-119192500D01*
X126732401Y-119192500D01*
X126757498Y-119194972D01*
X126782595Y-119192500D01*
X129582338Y-119192500D01*
X130093908Y-119704071D01*
X130122349Y-119772733D01*
X130183743Y-119864616D01*
X130261884Y-119942757D01*
X130353767Y-120004151D01*
X130455862Y-120046441D01*
X130564246Y-120068000D01*
X130674754Y-120068000D01*
X130783138Y-120046441D01*
X130885233Y-120004151D01*
X130977116Y-119942757D01*
X131055257Y-119864616D01*
X131116651Y-119772733D01*
X131134787Y-119728949D01*
X131545915Y-120140078D01*
X131545921Y-120140083D01*
X131681407Y-120275569D01*
X131709849Y-120344233D01*
X131771243Y-120436116D01*
X131849384Y-120514257D01*
X131941267Y-120575651D01*
X132043362Y-120617941D01*
X132151746Y-120639500D01*
X132262254Y-120639500D01*
X132370638Y-120617941D01*
X132472733Y-120575651D01*
X132564616Y-120514257D01*
X132642757Y-120436116D01*
X132652649Y-120421312D01*
X132879416Y-120648079D01*
X132879422Y-120648084D01*
X133078407Y-120847069D01*
X133106849Y-120915733D01*
X133168243Y-121007616D01*
X133246384Y-121085757D01*
X133338267Y-121147151D01*
X133440362Y-121189441D01*
X133548746Y-121211000D01*
X133659254Y-121211000D01*
X133767638Y-121189441D01*
X133869733Y-121147151D01*
X133961616Y-121085757D01*
X134039757Y-121007616D01*
X134101151Y-120915733D01*
X134143441Y-120813638D01*
X134165000Y-120705254D01*
X134165000Y-120594746D01*
X134143441Y-120486362D01*
X134101151Y-120384267D01*
X134039757Y-120292384D01*
X133961616Y-120214243D01*
X133869733Y-120152849D01*
X133801069Y-120124407D01*
X133602084Y-119925422D01*
X133602079Y-119925416D01*
X130443087Y-116766425D01*
X130427080Y-116746920D01*
X130349270Y-116683064D01*
X130260497Y-116635614D01*
X130164173Y-116606394D01*
X130089099Y-116599000D01*
X130089096Y-116599000D01*
X130064000Y-116596528D01*
X130038904Y-116599000D01*
X128756299Y-116599000D01*
X128687638Y-116570559D01*
X128579254Y-116549000D01*
X128468746Y-116549000D01*
X128360362Y-116570559D01*
X128258267Y-116612849D01*
X128166384Y-116674243D01*
X128088243Y-116752384D01*
X128026849Y-116844267D01*
X127984559Y-116946362D01*
X127963000Y-117054746D01*
X127963000Y-117165254D01*
X127984559Y-117273638D01*
X128026849Y-117375733D01*
X128088243Y-117467616D01*
X128166384Y-117545757D01*
X128246068Y-117599000D01*
X127211663Y-117599000D01*
X126509593Y-116896931D01*
X126481151Y-116828267D01*
X126419757Y-116736384D01*
X126341616Y-116658243D01*
X126249733Y-116596849D01*
X126147638Y-116554559D01*
X126039254Y-116533000D01*
X125928746Y-116533000D01*
X125820362Y-116554559D01*
X125718267Y-116596849D01*
X125626384Y-116658243D01*
X125548243Y-116736384D01*
X125543992Y-116742746D01*
X125471268Y-116683064D01*
X125382495Y-116635614D01*
X125286171Y-116606394D01*
X125211097Y-116599000D01*
X125211094Y-116599000D01*
X125185998Y-116596528D01*
X125160902Y-116599000D01*
X121136299Y-116599000D01*
X121067638Y-116570559D01*
X120959254Y-116549000D01*
X120848746Y-116549000D01*
X120740362Y-116570559D01*
X120638267Y-116612849D01*
X120546384Y-116674243D01*
X120468243Y-116752384D01*
X120406849Y-116844267D01*
X120364559Y-116946362D01*
X120343000Y-117054746D01*
X116591000Y-117054746D01*
X116591000Y-112910727D01*
X119693000Y-112910727D01*
X119693000Y-113149273D01*
X119739538Y-113383236D01*
X119830825Y-113603624D01*
X119963354Y-113801968D01*
X120132032Y-113970646D01*
X120330376Y-114103175D01*
X120550764Y-114194462D01*
X120784727Y-114241000D01*
X121023273Y-114241000D01*
X121257236Y-114194462D01*
X121477624Y-114103175D01*
X121675968Y-113970646D01*
X121844646Y-113801968D01*
X121977175Y-113603624D01*
X122068462Y-113383236D01*
X122115000Y-113149273D01*
X122115000Y-112910727D01*
X122233000Y-112910727D01*
X122233000Y-113149273D01*
X122279538Y-113383236D01*
X122370825Y-113603624D01*
X122503354Y-113801968D01*
X122672032Y-113970646D01*
X122870376Y-114103175D01*
X123090764Y-114194462D01*
X123324727Y-114241000D01*
X123563273Y-114241000D01*
X123797236Y-114194462D01*
X123859860Y-114168523D01*
X124264918Y-114573581D01*
X124280921Y-114593081D01*
X124358731Y-114656937D01*
X124447504Y-114704387D01*
X124543828Y-114733607D01*
X124618902Y-114741001D01*
X124618904Y-114741001D01*
X124644001Y-114743473D01*
X124669098Y-114741001D01*
X129521403Y-114741001D01*
X129546499Y-114743473D01*
X129571595Y-114741001D01*
X129571598Y-114741001D01*
X129646672Y-114733607D01*
X129742996Y-114704387D01*
X129831769Y-114656937D01*
X129909579Y-114593081D01*
X129925586Y-114573576D01*
X131588435Y-112910727D01*
X135949000Y-112910727D01*
X135949000Y-113149273D01*
X135995538Y-113383236D01*
X136086825Y-113603624D01*
X136219354Y-113801968D01*
X136299001Y-113881615D01*
X136299000Y-114892704D01*
X136294834Y-114935000D01*
X136299000Y-114977295D01*
X136299000Y-114977297D01*
X136311458Y-115103785D01*
X136353558Y-115242569D01*
X136360691Y-115266084D01*
X136440641Y-115415660D01*
X136470254Y-115451743D01*
X136548235Y-115546765D01*
X136581096Y-115573733D01*
X137569001Y-116561638D01*
X137569001Y-117056677D01*
X137450518Y-117175160D01*
X137312517Y-117381693D01*
X137217460Y-117611180D01*
X137169000Y-117854802D01*
X137169000Y-118103198D01*
X137217460Y-118346820D01*
X137312517Y-118576307D01*
X137450518Y-118782840D01*
X137626160Y-118958482D01*
X137832693Y-119096483D01*
X138062180Y-119191540D01*
X138305802Y-119240000D01*
X138554198Y-119240000D01*
X138797820Y-119191540D01*
X139027307Y-119096483D01*
X139233840Y-118958482D01*
X139409482Y-118782840D01*
X139547483Y-118576307D01*
X139642540Y-118346820D01*
X139691000Y-118103198D01*
X139691000Y-117854802D01*
X139642540Y-117611180D01*
X139547483Y-117381693D01*
X139409482Y-117175160D01*
X139291000Y-117056678D01*
X139291000Y-116247294D01*
X139295166Y-116204999D01*
X139290067Y-116153233D01*
X139278542Y-116036214D01*
X139229309Y-115873915D01*
X139207036Y-115832246D01*
X139149359Y-115724339D01*
X139100472Y-115664771D01*
X139041765Y-115593235D01*
X139008904Y-115566267D01*
X138021000Y-114578363D01*
X138021000Y-113881614D01*
X138100646Y-113801968D01*
X138233175Y-113603624D01*
X138324462Y-113383236D01*
X138371000Y-113149273D01*
X138371000Y-112910727D01*
X138489000Y-112910727D01*
X138489000Y-113149273D01*
X138535538Y-113383236D01*
X138626825Y-113603624D01*
X138759354Y-113801968D01*
X138928032Y-113970646D01*
X139126376Y-114103175D01*
X139346764Y-114194462D01*
X139580727Y-114241000D01*
X139819273Y-114241000D01*
X140053236Y-114194462D01*
X140273624Y-114103175D01*
X140471968Y-113970646D01*
X140640646Y-113801968D01*
X140773175Y-113603624D01*
X140864462Y-113383236D01*
X140911000Y-113149273D01*
X140911000Y-112910727D01*
X141029000Y-112910727D01*
X141029000Y-113149273D01*
X141075538Y-113383236D01*
X141166825Y-113603624D01*
X141299354Y-113801968D01*
X141468032Y-113970646D01*
X141666376Y-114103175D01*
X141886764Y-114194462D01*
X142120727Y-114241000D01*
X142359273Y-114241000D01*
X142593236Y-114194462D01*
X142813624Y-114103175D01*
X143011968Y-113970646D01*
X143180646Y-113801968D01*
X143313175Y-113603624D01*
X143404462Y-113383236D01*
X143451000Y-113149273D01*
X143451000Y-112910727D01*
X143569000Y-112910727D01*
X143569000Y-113149273D01*
X143615538Y-113383236D01*
X143706825Y-113603624D01*
X143839354Y-113801968D01*
X144008032Y-113970646D01*
X144206376Y-114103175D01*
X144426764Y-114194462D01*
X144660727Y-114241000D01*
X144899273Y-114241000D01*
X145133236Y-114194462D01*
X145353624Y-114103175D01*
X145551968Y-113970646D01*
X145720646Y-113801968D01*
X145853175Y-113603624D01*
X145944462Y-113383236D01*
X145991000Y-113149273D01*
X145991000Y-112910727D01*
X146109000Y-112910727D01*
X146109000Y-113149273D01*
X146155538Y-113383236D01*
X146246825Y-113603624D01*
X146379354Y-113801968D01*
X146548032Y-113970646D01*
X146746376Y-114103175D01*
X146966764Y-114194462D01*
X147200727Y-114241000D01*
X147439273Y-114241000D01*
X147673236Y-114194462D01*
X147893624Y-114103175D01*
X148091968Y-113970646D01*
X148260646Y-113801968D01*
X148393175Y-113603624D01*
X148484462Y-113383236D01*
X148531000Y-113149273D01*
X148531000Y-112910727D01*
X148484462Y-112676764D01*
X148393175Y-112456376D01*
X148260646Y-112258032D01*
X148091968Y-112089354D01*
X147893624Y-111956825D01*
X147673236Y-111865538D01*
X147439273Y-111819000D01*
X147200727Y-111819000D01*
X146966764Y-111865538D01*
X146746376Y-111956825D01*
X146548032Y-112089354D01*
X146379354Y-112258032D01*
X146246825Y-112456376D01*
X146155538Y-112676764D01*
X146109000Y-112910727D01*
X145991000Y-112910727D01*
X145944462Y-112676764D01*
X145853175Y-112456376D01*
X145720646Y-112258032D01*
X145551968Y-112089354D01*
X145353624Y-111956825D01*
X145133236Y-111865538D01*
X144899273Y-111819000D01*
X144660727Y-111819000D01*
X144426764Y-111865538D01*
X144206376Y-111956825D01*
X144008032Y-112089354D01*
X143839354Y-112258032D01*
X143706825Y-112456376D01*
X143615538Y-112676764D01*
X143569000Y-112910727D01*
X143451000Y-112910727D01*
X143404462Y-112676764D01*
X143313175Y-112456376D01*
X143180646Y-112258032D01*
X143011968Y-112089354D01*
X142813624Y-111956825D01*
X142593236Y-111865538D01*
X142359273Y-111819000D01*
X142120727Y-111819000D01*
X141886764Y-111865538D01*
X141666376Y-111956825D01*
X141468032Y-112089354D01*
X141299354Y-112258032D01*
X141166825Y-112456376D01*
X141075538Y-112676764D01*
X141029000Y-112910727D01*
X140911000Y-112910727D01*
X140864462Y-112676764D01*
X140773175Y-112456376D01*
X140640646Y-112258032D01*
X140471968Y-112089354D01*
X140273624Y-111956825D01*
X140053236Y-111865538D01*
X139819273Y-111819000D01*
X139580727Y-111819000D01*
X139346764Y-111865538D01*
X139126376Y-111956825D01*
X138928032Y-112089354D01*
X138759354Y-112258032D01*
X138626825Y-112456376D01*
X138535538Y-112676764D01*
X138489000Y-112910727D01*
X138371000Y-112910727D01*
X138324462Y-112676764D01*
X138233175Y-112456376D01*
X138100646Y-112258032D01*
X137931968Y-112089354D01*
X137733624Y-111956825D01*
X137513236Y-111865538D01*
X137279273Y-111819000D01*
X137040727Y-111819000D01*
X136806764Y-111865538D01*
X136586376Y-111956825D01*
X136388032Y-112089354D01*
X136219354Y-112258032D01*
X136086825Y-112456376D01*
X135995538Y-112676764D01*
X135949000Y-112910727D01*
X131588435Y-112910727D01*
X131769070Y-112730093D01*
X131837733Y-112701651D01*
X131929616Y-112640257D01*
X132007757Y-112562116D01*
X132069151Y-112470233D01*
X132111441Y-112368138D01*
X132133000Y-112259754D01*
X132133000Y-112149246D01*
X132111441Y-112040862D01*
X132069151Y-111938767D01*
X132007757Y-111846884D01*
X131929616Y-111768743D01*
X131837733Y-111707349D01*
X131735638Y-111665059D01*
X131627254Y-111643500D01*
X131516746Y-111643500D01*
X131408362Y-111665059D01*
X131306267Y-111707349D01*
X131214384Y-111768743D01*
X131136243Y-111846884D01*
X131074849Y-111938767D01*
X131046407Y-112007430D01*
X129692897Y-113360941D01*
X129735000Y-113149273D01*
X129735000Y-112910727D01*
X129688462Y-112676764D01*
X129597175Y-112456376D01*
X129464646Y-112258032D01*
X129295968Y-112089354D01*
X129097624Y-111956825D01*
X128877236Y-111865538D01*
X128643273Y-111819000D01*
X128404727Y-111819000D01*
X128170764Y-111865538D01*
X127950376Y-111956825D01*
X127752032Y-112089354D01*
X127583354Y-112258032D01*
X127450825Y-112456376D01*
X127359538Y-112676764D01*
X127313000Y-112910727D01*
X127313000Y-113149273D01*
X127359538Y-113383236D01*
X127450825Y-113603624D01*
X127527917Y-113719001D01*
X126980083Y-113719001D01*
X127057175Y-113603624D01*
X127148462Y-113383236D01*
X127195000Y-113149273D01*
X127195000Y-112910727D01*
X127148462Y-112676764D01*
X127057175Y-112456376D01*
X126924646Y-112258032D01*
X126755968Y-112089354D01*
X126557624Y-111956825D01*
X126337236Y-111865538D01*
X126103273Y-111819000D01*
X125864727Y-111819000D01*
X125630764Y-111865538D01*
X125410376Y-111956825D01*
X125212032Y-112089354D01*
X125043354Y-112258032D01*
X124910825Y-112456376D01*
X124819538Y-112676764D01*
X124773000Y-112910727D01*
X124773000Y-113149273D01*
X124819538Y-113383236D01*
X124910825Y-113603624D01*
X124987917Y-113719001D01*
X124855664Y-113719001D01*
X124582523Y-113445860D01*
X124608462Y-113383236D01*
X124655000Y-113149273D01*
X124655000Y-112910727D01*
X124608462Y-112676764D01*
X124517175Y-112456376D01*
X124384646Y-112258032D01*
X124215968Y-112089354D01*
X124017624Y-111956825D01*
X123797236Y-111865538D01*
X123563273Y-111819000D01*
X123324727Y-111819000D01*
X123090764Y-111865538D01*
X122870376Y-111956825D01*
X122672032Y-112089354D01*
X122503354Y-112258032D01*
X122370825Y-112456376D01*
X122279538Y-112676764D01*
X122233000Y-112910727D01*
X122115000Y-112910727D01*
X122068462Y-112676764D01*
X121977175Y-112456376D01*
X121844646Y-112258032D01*
X121675968Y-112089354D01*
X121477624Y-111956825D01*
X121257236Y-111865538D01*
X121023273Y-111819000D01*
X120784727Y-111819000D01*
X120550764Y-111865538D01*
X120330376Y-111956825D01*
X120132032Y-112089354D01*
X119963354Y-112258032D01*
X119830825Y-112456376D01*
X119739538Y-112676764D01*
X119693000Y-112910727D01*
X116591000Y-112910727D01*
X116591000Y-109640000D01*
X119691254Y-109640000D01*
X119691254Y-111340000D01*
X119698224Y-111410768D01*
X119718866Y-111478817D01*
X119752388Y-111541531D01*
X119797500Y-111596500D01*
X119852469Y-111641612D01*
X119915183Y-111675134D01*
X119983232Y-111695776D01*
X120054000Y-111702746D01*
X121754000Y-111702746D01*
X121824768Y-111695776D01*
X121892817Y-111675134D01*
X121955531Y-111641612D01*
X122010500Y-111596500D01*
X122055612Y-111541531D01*
X122089134Y-111478817D01*
X122109776Y-111410768D01*
X122116746Y-111340000D01*
X122116746Y-109640000D01*
X122231254Y-109640000D01*
X122231254Y-111340000D01*
X122238224Y-111410768D01*
X122258866Y-111478817D01*
X122292388Y-111541531D01*
X122337500Y-111596500D01*
X122392469Y-111641612D01*
X122455183Y-111675134D01*
X122523232Y-111695776D01*
X122594000Y-111702746D01*
X124294000Y-111702746D01*
X124364768Y-111695776D01*
X124432817Y-111675134D01*
X124495531Y-111641612D01*
X124550500Y-111596500D01*
X124595612Y-111541531D01*
X124629134Y-111478817D01*
X124649776Y-111410768D01*
X124656746Y-111340000D01*
X124656746Y-109640000D01*
X124771254Y-109640000D01*
X124771254Y-111340000D01*
X124778224Y-111410768D01*
X124798866Y-111478817D01*
X124832388Y-111541531D01*
X124877500Y-111596500D01*
X124932469Y-111641612D01*
X124995183Y-111675134D01*
X125063232Y-111695776D01*
X125134000Y-111702746D01*
X126834000Y-111702746D01*
X126904768Y-111695776D01*
X126972817Y-111675134D01*
X127035531Y-111641612D01*
X127090500Y-111596500D01*
X127135612Y-111541531D01*
X127169134Y-111478817D01*
X127189776Y-111410768D01*
X127196746Y-111340000D01*
X127196746Y-109640000D01*
X127311254Y-109640000D01*
X127311254Y-111340000D01*
X127318224Y-111410768D01*
X127338866Y-111478817D01*
X127372388Y-111541531D01*
X127417500Y-111596500D01*
X127472469Y-111641612D01*
X127535183Y-111675134D01*
X127603232Y-111695776D01*
X127674000Y-111702746D01*
X129374000Y-111702746D01*
X129444768Y-111695776D01*
X129512817Y-111675134D01*
X129575531Y-111641612D01*
X129630500Y-111596500D01*
X129675612Y-111541531D01*
X129709134Y-111478817D01*
X129729776Y-111410768D01*
X129736746Y-111340000D01*
X129736746Y-109640000D01*
X129729776Y-109569232D01*
X129709134Y-109501183D01*
X129675612Y-109438469D01*
X129630500Y-109383500D01*
X129575531Y-109338388D01*
X129512817Y-109304866D01*
X129444768Y-109284224D01*
X129374000Y-109277254D01*
X127674000Y-109277254D01*
X127603232Y-109284224D01*
X127535183Y-109304866D01*
X127472469Y-109338388D01*
X127417500Y-109383500D01*
X127372388Y-109438469D01*
X127338866Y-109501183D01*
X127318224Y-109569232D01*
X127311254Y-109640000D01*
X127196746Y-109640000D01*
X127189776Y-109569232D01*
X127169134Y-109501183D01*
X127135612Y-109438469D01*
X127090500Y-109383500D01*
X127035531Y-109338388D01*
X126972817Y-109304866D01*
X126904768Y-109284224D01*
X126834000Y-109277254D01*
X125134000Y-109277254D01*
X125063232Y-109284224D01*
X124995183Y-109304866D01*
X124932469Y-109338388D01*
X124877500Y-109383500D01*
X124832388Y-109438469D01*
X124798866Y-109501183D01*
X124778224Y-109569232D01*
X124771254Y-109640000D01*
X124656746Y-109640000D01*
X124649776Y-109569232D01*
X124629134Y-109501183D01*
X124595612Y-109438469D01*
X124550500Y-109383500D01*
X124495531Y-109338388D01*
X124432817Y-109304866D01*
X124364768Y-109284224D01*
X124294000Y-109277254D01*
X122594000Y-109277254D01*
X122523232Y-109284224D01*
X122455183Y-109304866D01*
X122392469Y-109338388D01*
X122337500Y-109383500D01*
X122292388Y-109438469D01*
X122258866Y-109501183D01*
X122238224Y-109569232D01*
X122231254Y-109640000D01*
X122116746Y-109640000D01*
X122109776Y-109569232D01*
X122089134Y-109501183D01*
X122055612Y-109438469D01*
X122010500Y-109383500D01*
X121955531Y-109338388D01*
X121892817Y-109304866D01*
X121824768Y-109284224D01*
X121754000Y-109277254D01*
X120054000Y-109277254D01*
X119983232Y-109284224D01*
X119915183Y-109304866D01*
X119852469Y-109338388D01*
X119797500Y-109383500D01*
X119752388Y-109438469D01*
X119718866Y-109501183D01*
X119698224Y-109569232D01*
X119691254Y-109640000D01*
X116591000Y-109640000D01*
X116591000Y-108971000D01*
X186304000Y-108971000D01*
X186304001Y-111106045D01*
%TA.AperFunction,Conductor*%
D20*
G36*
X186304001Y-111106045D02*
G01*
X186304000Y-127884000D01*
X136363662Y-127884000D01*
X136669916Y-127577746D01*
X138010000Y-127577746D01*
X138080768Y-127570776D01*
X138148817Y-127550134D01*
X138211531Y-127516612D01*
X138266500Y-127471500D01*
X138311612Y-127416531D01*
X138345134Y-127353817D01*
X138365776Y-127285768D01*
X138372746Y-127215000D01*
X138372746Y-126245727D01*
X138489000Y-126245727D01*
X138489000Y-126484273D01*
X138535538Y-126718236D01*
X138626825Y-126938624D01*
X138759354Y-127136968D01*
X138928032Y-127305646D01*
X139126376Y-127438175D01*
X139346764Y-127529462D01*
X139580727Y-127576000D01*
X139819273Y-127576000D01*
X140053236Y-127529462D01*
X140273624Y-127438175D01*
X140471968Y-127305646D01*
X140640646Y-127136968D01*
X140773175Y-126938624D01*
X140864462Y-126718236D01*
X140911000Y-126484273D01*
X140911000Y-126245727D01*
X140864462Y-126011764D01*
X140773175Y-125791376D01*
X140640646Y-125593032D01*
X140471968Y-125424354D01*
X140273624Y-125291825D01*
X140053236Y-125200538D01*
X139819273Y-125154000D01*
X139580727Y-125154000D01*
X139346764Y-125200538D01*
X139126376Y-125291825D01*
X138928032Y-125424354D01*
X138759354Y-125593032D01*
X138626825Y-125791376D01*
X138535538Y-126011764D01*
X138489000Y-126245727D01*
X138372746Y-126245727D01*
X138372746Y-125515000D01*
X138365776Y-125444232D01*
X138345134Y-125376183D01*
X138311612Y-125313469D01*
X138266500Y-125258500D01*
X138211531Y-125213388D01*
X138148817Y-125179866D01*
X138080768Y-125159224D01*
X138010000Y-125152254D01*
X136310000Y-125152254D01*
X136239232Y-125159224D01*
X136171183Y-125179866D01*
X136108469Y-125213388D01*
X136053500Y-125258500D01*
X136008388Y-125313469D01*
X135974866Y-125376183D01*
X135954224Y-125444232D01*
X135947254Y-125515000D01*
X135947254Y-126855084D01*
X135748337Y-127054001D01*
X132022746Y-127054001D01*
X132022746Y-125515000D01*
X132015776Y-125444232D01*
X131995134Y-125376183D01*
X131961612Y-125313469D01*
X131916500Y-125258500D01*
X131861531Y-125213388D01*
X131798817Y-125179866D01*
X131730768Y-125159224D01*
X131660000Y-125152254D01*
X129960000Y-125152254D01*
X129889232Y-125159224D01*
X129821183Y-125179866D01*
X129758469Y-125213388D01*
X129703500Y-125258500D01*
X129658388Y-125313469D01*
X129624866Y-125376183D01*
X129604224Y-125444232D01*
X129597254Y-125515000D01*
X129597254Y-127054001D01*
X129266083Y-127054001D01*
X129343175Y-126938624D01*
X129434462Y-126718236D01*
X129481000Y-126484273D01*
X129481000Y-126245727D01*
X129434462Y-126011764D01*
X129343175Y-125791376D01*
X129210646Y-125593032D01*
X129041968Y-125424354D01*
X128843624Y-125291825D01*
X128623236Y-125200538D01*
X128389273Y-125154000D01*
X128150727Y-125154000D01*
X127916764Y-125200538D01*
X127696376Y-125291825D01*
X127498032Y-125424354D01*
X127329354Y-125593032D01*
X127196825Y-125791376D01*
X127105538Y-126011764D01*
X127059000Y-126245727D01*
X127059000Y-126484273D01*
X127105538Y-126718236D01*
X127196825Y-126938624D01*
X127273917Y-127054001D01*
X126726083Y-127054001D01*
X126803175Y-126938624D01*
X126894462Y-126718236D01*
X126941000Y-126484273D01*
X126941000Y-126245727D01*
X126894462Y-126011764D01*
X126868522Y-125949140D01*
X127719663Y-125098000D01*
X133261404Y-125098000D01*
X133286500Y-125100472D01*
X133311596Y-125098000D01*
X133311599Y-125098000D01*
X133386673Y-125090606D01*
X133482997Y-125061386D01*
X133571770Y-125013936D01*
X133649580Y-124950080D01*
X133665587Y-124930575D01*
X135993082Y-122603080D01*
X137545525Y-122603080D01*
X137629208Y-122857261D01*
X137901775Y-122988158D01*
X138194642Y-123063365D01*
X138496553Y-123079991D01*
X138795907Y-123037397D01*
X139081199Y-122937222D01*
X139230792Y-122857261D01*
X139314475Y-122603080D01*
X138430000Y-121718605D01*
X137545525Y-122603080D01*
X135993082Y-122603080D01*
X136360580Y-122235583D01*
X136380080Y-122219580D01*
X136421092Y-122169606D01*
X136443936Y-122141771D01*
X136491385Y-122052998D01*
X136491386Y-122052997D01*
X136520606Y-121956673D01*
X136528000Y-121881599D01*
X136528000Y-121881598D01*
X136530472Y-121856501D01*
X136528000Y-121831404D01*
X136528000Y-121605553D01*
X136889009Y-121605553D01*
X136931603Y-121904907D01*
X137031778Y-122190199D01*
X137111739Y-122339792D01*
X137365920Y-122423475D01*
X138250395Y-121539000D01*
X138609605Y-121539000D01*
X139494080Y-122423475D01*
X139748261Y-122339792D01*
X139849491Y-122129001D01*
X139852517Y-122136307D01*
X139990518Y-122342840D01*
X140166160Y-122518482D01*
X140372693Y-122656483D01*
X140602180Y-122751540D01*
X140845802Y-122800000D01*
X141094198Y-122800000D01*
X141337820Y-122751540D01*
X141567307Y-122656483D01*
X141729000Y-122548443D01*
X141729000Y-124244404D01*
X141726528Y-124269500D01*
X141729000Y-124294596D01*
X141729000Y-124294598D01*
X141736394Y-124369672D01*
X141765614Y-124465996D01*
X141813064Y-124554770D01*
X141876920Y-124632580D01*
X141896425Y-124648587D01*
X142412407Y-125164569D01*
X142359273Y-125154000D01*
X142120727Y-125154000D01*
X141886764Y-125200538D01*
X141666376Y-125291825D01*
X141468032Y-125424354D01*
X141299354Y-125593032D01*
X141166825Y-125791376D01*
X141075538Y-126011764D01*
X141029000Y-126245727D01*
X141029000Y-126484273D01*
X141075538Y-126718236D01*
X141166825Y-126938624D01*
X141299354Y-127136968D01*
X141468032Y-127305646D01*
X141666376Y-127438175D01*
X141886764Y-127529462D01*
X142120727Y-127576000D01*
X142359273Y-127576000D01*
X142593236Y-127529462D01*
X142813624Y-127438175D01*
X143011968Y-127305646D01*
X143180646Y-127136968D01*
X143313175Y-126938624D01*
X143404462Y-126718236D01*
X143451000Y-126484273D01*
X143451000Y-126245727D01*
X143440431Y-126192594D01*
X143569000Y-126321163D01*
X143569000Y-126484273D01*
X143615538Y-126718236D01*
X143706825Y-126938624D01*
X143839354Y-127136968D01*
X144008032Y-127305646D01*
X144206376Y-127438175D01*
X144426764Y-127529462D01*
X144660727Y-127576000D01*
X144899273Y-127576000D01*
X145133236Y-127529462D01*
X145353624Y-127438175D01*
X145551968Y-127305646D01*
X145720646Y-127136968D01*
X145853175Y-126938624D01*
X145944462Y-126718236D01*
X145991000Y-126484273D01*
X145991000Y-126393663D01*
X146115801Y-126518464D01*
X146155538Y-126718236D01*
X146246825Y-126938624D01*
X146379354Y-127136968D01*
X146548032Y-127305646D01*
X146746376Y-127438175D01*
X146966764Y-127529462D01*
X147200727Y-127576000D01*
X147439273Y-127576000D01*
X147673236Y-127529462D01*
X147893624Y-127438175D01*
X148091968Y-127305646D01*
X148260646Y-127136968D01*
X148393175Y-126938624D01*
X148484462Y-126718236D01*
X148531000Y-126484273D01*
X148531000Y-126457163D01*
X148671568Y-126597731D01*
X148695538Y-126718236D01*
X148786825Y-126938624D01*
X148919354Y-127136968D01*
X149088032Y-127305646D01*
X149286376Y-127438175D01*
X149506764Y-127529462D01*
X149740727Y-127576000D01*
X149979273Y-127576000D01*
X150213236Y-127529462D01*
X150433624Y-127438175D01*
X150631968Y-127305646D01*
X150800646Y-127136968D01*
X150933175Y-126938624D01*
X151024462Y-126718236D01*
X151071000Y-126484273D01*
X151071000Y-126245727D01*
X151060431Y-126192594D01*
X151189000Y-126321163D01*
X151189000Y-126484273D01*
X151235538Y-126718236D01*
X151326825Y-126938624D01*
X151459354Y-127136968D01*
X151628032Y-127305646D01*
X151826376Y-127438175D01*
X152046764Y-127529462D01*
X152280727Y-127576000D01*
X152519273Y-127576000D01*
X152753236Y-127529462D01*
X152973624Y-127438175D01*
X153171968Y-127305646D01*
X153340646Y-127136968D01*
X153473175Y-126938624D01*
X153564462Y-126718236D01*
X153611000Y-126484273D01*
X153611000Y-126245727D01*
X153564462Y-126011764D01*
X153473175Y-125791376D01*
X153340646Y-125593032D01*
X153171968Y-125424354D01*
X152973624Y-125291825D01*
X152753236Y-125200538D01*
X152519273Y-125154000D01*
X152280727Y-125154000D01*
X152046764Y-125200538D01*
X151826376Y-125291825D01*
X151693663Y-125380501D01*
X149101000Y-122787838D01*
X149101000Y-122692233D01*
X149187307Y-122656483D01*
X149393840Y-122518482D01*
X149569482Y-122342840D01*
X149707483Y-122136307D01*
X149802540Y-121906820D01*
X149851000Y-121663198D01*
X149851000Y-121414802D01*
X149869000Y-121414802D01*
X149869000Y-121663198D01*
X149917460Y-121906820D01*
X150012517Y-122136307D01*
X150150518Y-122342840D01*
X150326160Y-122518482D01*
X150532693Y-122656483D01*
X150762180Y-122751540D01*
X151005802Y-122800000D01*
X151254198Y-122800000D01*
X151497820Y-122751540D01*
X151727307Y-122656483D01*
X151933840Y-122518482D01*
X152109482Y-122342840D01*
X152247483Y-122136307D01*
X152342540Y-121906820D01*
X152391000Y-121663198D01*
X152391000Y-121414802D01*
X152409000Y-121414802D01*
X152409000Y-121663198D01*
X152457460Y-121906820D01*
X152552517Y-122136307D01*
X152690518Y-122342840D01*
X152866160Y-122518482D01*
X153072693Y-122656483D01*
X153302180Y-122751540D01*
X153545802Y-122800000D01*
X153794198Y-122800000D01*
X154037820Y-122751540D01*
X154124127Y-122715790D01*
X154429001Y-123020665D01*
X154429000Y-125265885D01*
X154366376Y-125291825D01*
X154168032Y-125424354D01*
X153999354Y-125593032D01*
X153866825Y-125791376D01*
X153775538Y-126011764D01*
X153729000Y-126245727D01*
X153729000Y-126484273D01*
X153775538Y-126718236D01*
X153866825Y-126938624D01*
X153999354Y-127136968D01*
X154168032Y-127305646D01*
X154366376Y-127438175D01*
X154586764Y-127529462D01*
X154820727Y-127576000D01*
X155059273Y-127576000D01*
X155293236Y-127529462D01*
X155513624Y-127438175D01*
X155711968Y-127305646D01*
X155880646Y-127136968D01*
X156013175Y-126938624D01*
X156104462Y-126718236D01*
X156151000Y-126484273D01*
X156151000Y-126245727D01*
X156104462Y-126011764D01*
X156013175Y-125791376D01*
X155880646Y-125593032D01*
X155711968Y-125424354D01*
X155513624Y-125291825D01*
X155451000Y-125265885D01*
X155451000Y-122834096D01*
X155453472Y-122808999D01*
X155451000Y-122783901D01*
X155443606Y-122708827D01*
X155414386Y-122612503D01*
X155369709Y-122528917D01*
X155366936Y-122523729D01*
X155319079Y-122465415D01*
X155319078Y-122465414D01*
X155303080Y-122445920D01*
X155283585Y-122429921D01*
X154846790Y-121993127D01*
X154882540Y-121906820D01*
X154931000Y-121663198D01*
X154931000Y-121414802D01*
X154949000Y-121414802D01*
X154949000Y-121663198D01*
X154997460Y-121906820D01*
X155092517Y-122136307D01*
X155230518Y-122342840D01*
X155406160Y-122518482D01*
X155612693Y-122656483D01*
X155842180Y-122751540D01*
X156085802Y-122800000D01*
X156334198Y-122800000D01*
X156577820Y-122751540D01*
X156664127Y-122715790D01*
X156969001Y-123020665D01*
X156969000Y-125265885D01*
X156906376Y-125291825D01*
X156708032Y-125424354D01*
X156539354Y-125593032D01*
X156406825Y-125791376D01*
X156315538Y-126011764D01*
X156269000Y-126245727D01*
X156269000Y-126484273D01*
X156315538Y-126718236D01*
X156406825Y-126938624D01*
X156539354Y-127136968D01*
X156708032Y-127305646D01*
X156906376Y-127438175D01*
X157126764Y-127529462D01*
X157360727Y-127576000D01*
X157599273Y-127576000D01*
X157833236Y-127529462D01*
X158053624Y-127438175D01*
X158251968Y-127305646D01*
X158420646Y-127136968D01*
X158553175Y-126938624D01*
X158644462Y-126718236D01*
X158691000Y-126484273D01*
X158691000Y-126245727D01*
X158809000Y-126245727D01*
X158809000Y-126484273D01*
X158855538Y-126718236D01*
X158946825Y-126938624D01*
X159079354Y-127136968D01*
X159248032Y-127305646D01*
X159446376Y-127438175D01*
X159666764Y-127529462D01*
X159900727Y-127576000D01*
X160139273Y-127576000D01*
X160373236Y-127529462D01*
X160593624Y-127438175D01*
X160791968Y-127305646D01*
X160960646Y-127136968D01*
X161093175Y-126938624D01*
X161184462Y-126718236D01*
X161231000Y-126484273D01*
X161231000Y-126245727D01*
X161349000Y-126245727D01*
X161349000Y-126484273D01*
X161395538Y-126718236D01*
X161486825Y-126938624D01*
X161619354Y-127136968D01*
X161788032Y-127305646D01*
X161986376Y-127438175D01*
X162206764Y-127529462D01*
X162440727Y-127576000D01*
X162679273Y-127576000D01*
X162913236Y-127529462D01*
X163133624Y-127438175D01*
X163331968Y-127305646D01*
X163500646Y-127136968D01*
X163633175Y-126938624D01*
X163724462Y-126718236D01*
X163771000Y-126484273D01*
X163771000Y-126245727D01*
X163889000Y-126245727D01*
X163889000Y-126484273D01*
X163935538Y-126718236D01*
X164026825Y-126938624D01*
X164159354Y-127136968D01*
X164328032Y-127305646D01*
X164526376Y-127438175D01*
X164746764Y-127529462D01*
X164980727Y-127576000D01*
X165219273Y-127576000D01*
X165453236Y-127529462D01*
X165673624Y-127438175D01*
X165871968Y-127305646D01*
X166040646Y-127136968D01*
X166173175Y-126938624D01*
X166264462Y-126718236D01*
X166311000Y-126484273D01*
X166311000Y-126245727D01*
X166429000Y-126245727D01*
X166429000Y-126484273D01*
X166475538Y-126718236D01*
X166566825Y-126938624D01*
X166699354Y-127136968D01*
X166868032Y-127305646D01*
X167066376Y-127438175D01*
X167286764Y-127529462D01*
X167520727Y-127576000D01*
X167759273Y-127576000D01*
X167993236Y-127529462D01*
X168213624Y-127438175D01*
X168411968Y-127305646D01*
X168580646Y-127136968D01*
X168713175Y-126938624D01*
X168804462Y-126718236D01*
X168851000Y-126484273D01*
X168851000Y-126245727D01*
X168969000Y-126245727D01*
X168969000Y-126484273D01*
X169015538Y-126718236D01*
X169106825Y-126938624D01*
X169239354Y-127136968D01*
X169408032Y-127305646D01*
X169606376Y-127438175D01*
X169826764Y-127529462D01*
X170060727Y-127576000D01*
X170299273Y-127576000D01*
X170533236Y-127529462D01*
X170753624Y-127438175D01*
X170951968Y-127305646D01*
X171120646Y-127136968D01*
X171253175Y-126938624D01*
X171344462Y-126718236D01*
X171391000Y-126484273D01*
X171391000Y-126245727D01*
X171509000Y-126245727D01*
X171509000Y-126484273D01*
X171555538Y-126718236D01*
X171646825Y-126938624D01*
X171779354Y-127136968D01*
X171948032Y-127305646D01*
X172146376Y-127438175D01*
X172366764Y-127529462D01*
X172600727Y-127576000D01*
X172839273Y-127576000D01*
X173073236Y-127529462D01*
X173293624Y-127438175D01*
X173491968Y-127305646D01*
X173660646Y-127136968D01*
X173793175Y-126938624D01*
X173848242Y-126805680D01*
X173915843Y-126996252D01*
X174064822Y-127246355D01*
X174259731Y-127462588D01*
X174493080Y-127636641D01*
X174755901Y-127761825D01*
X174903110Y-127806476D01*
X175133000Y-127685155D01*
X175133000Y-126492000D01*
X175387000Y-126492000D01*
X175387000Y-127685155D01*
X175616890Y-127806476D01*
X175764099Y-127761825D01*
X176026920Y-127636641D01*
X176260269Y-127462588D01*
X176455178Y-127246355D01*
X176604157Y-126996252D01*
X176701481Y-126721891D01*
X176580814Y-126492000D01*
X175387000Y-126492000D01*
X175133000Y-126492000D01*
X175113000Y-126492000D01*
X175113000Y-126238000D01*
X175133000Y-126238000D01*
X175133000Y-125044845D01*
X175387000Y-125044845D01*
X175387000Y-126238000D01*
X176580814Y-126238000D01*
X176701481Y-126008109D01*
X176604157Y-125733748D01*
X176455178Y-125483645D01*
X176260269Y-125267412D01*
X176026920Y-125093359D01*
X175764099Y-124968175D01*
X175616890Y-124923524D01*
X175387000Y-125044845D01*
X175133000Y-125044845D01*
X174903110Y-124923524D01*
X174755901Y-124968175D01*
X174493080Y-125093359D01*
X174259731Y-125267412D01*
X174064822Y-125483645D01*
X173915843Y-125733748D01*
X173848242Y-125924320D01*
X173793175Y-125791376D01*
X173660646Y-125593032D01*
X173491968Y-125424354D01*
X173293624Y-125291825D01*
X173231000Y-125265885D01*
X173231000Y-124671662D01*
X174333585Y-123569079D01*
X174353080Y-123553080D01*
X174369081Y-123533583D01*
X174416936Y-123475271D01*
X174464385Y-123386498D01*
X174464386Y-123386497D01*
X174493606Y-123290173D01*
X174501000Y-123215099D01*
X174501000Y-123215098D01*
X174503472Y-123190001D01*
X174501000Y-123164904D01*
X174501000Y-122801746D01*
X174890000Y-122801746D01*
X174960768Y-122794776D01*
X175028817Y-122774134D01*
X175091531Y-122740612D01*
X175146500Y-122695500D01*
X175191612Y-122640531D01*
X175225134Y-122577817D01*
X175245776Y-122509768D01*
X175252746Y-122439000D01*
X175252746Y-120639000D01*
X175245776Y-120568232D01*
X175225134Y-120500183D01*
X175191612Y-120437469D01*
X175146500Y-120382500D01*
X175091531Y-120337388D01*
X175028817Y-120303866D01*
X174960768Y-120283224D01*
X174890000Y-120276254D01*
X173090000Y-120276254D01*
X173019232Y-120283224D01*
X172951183Y-120303866D01*
X172888469Y-120337388D01*
X172833500Y-120382500D01*
X172788388Y-120437469D01*
X172754866Y-120500183D01*
X172734224Y-120568232D01*
X172727254Y-120639000D01*
X172727254Y-122439000D01*
X172734224Y-122509768D01*
X172754866Y-122577817D01*
X172788388Y-122640531D01*
X172833500Y-122695500D01*
X172888469Y-122740612D01*
X172951183Y-122774134D01*
X173019232Y-122794776D01*
X173090000Y-122801746D01*
X173479000Y-122801746D01*
X173479000Y-122978336D01*
X172376421Y-124080917D01*
X172356921Y-124096920D01*
X172324557Y-124136357D01*
X172293064Y-124174730D01*
X172245615Y-124263503D01*
X172216395Y-124359828D01*
X172206528Y-124460000D01*
X172209001Y-124485106D01*
X172209001Y-125265885D01*
X172146376Y-125291825D01*
X171948032Y-125424354D01*
X171779354Y-125593032D01*
X171646825Y-125791376D01*
X171555538Y-126011764D01*
X171509000Y-126245727D01*
X171391000Y-126245727D01*
X171344462Y-126011764D01*
X171253175Y-125791376D01*
X171120646Y-125593032D01*
X170951968Y-125424354D01*
X170753624Y-125291825D01*
X170691000Y-125265885D01*
X170691000Y-124671662D01*
X171793585Y-123569079D01*
X171813080Y-123553080D01*
X171829081Y-123533583D01*
X171876936Y-123475271D01*
X171924385Y-123386498D01*
X171924386Y-123386497D01*
X171953606Y-123290173D01*
X171961000Y-123215099D01*
X171961000Y-123215098D01*
X171963472Y-123190001D01*
X171961000Y-123164904D01*
X171961000Y-122692233D01*
X172047307Y-122656483D01*
X172253840Y-122518482D01*
X172429482Y-122342840D01*
X172567483Y-122136307D01*
X172662540Y-121906820D01*
X172711000Y-121663198D01*
X172711000Y-121414802D01*
X172662540Y-121171180D01*
X172567483Y-120941693D01*
X172429482Y-120735160D01*
X172253840Y-120559518D01*
X172047307Y-120421517D01*
X171817820Y-120326460D01*
X171574198Y-120278000D01*
X171325802Y-120278000D01*
X171082180Y-120326460D01*
X170852693Y-120421517D01*
X170646160Y-120559518D01*
X170470518Y-120735160D01*
X170332517Y-120941693D01*
X170237460Y-121171180D01*
X170189000Y-121414802D01*
X170189000Y-121663198D01*
X170237460Y-121906820D01*
X170332517Y-122136307D01*
X170470518Y-122342840D01*
X170646160Y-122518482D01*
X170852693Y-122656483D01*
X170939000Y-122692233D01*
X170939000Y-122978336D01*
X169836421Y-124080917D01*
X169816921Y-124096920D01*
X169784557Y-124136357D01*
X169753064Y-124174730D01*
X169705615Y-124263503D01*
X169676395Y-124359828D01*
X169666528Y-124460000D01*
X169669001Y-124485106D01*
X169669001Y-125265885D01*
X169606376Y-125291825D01*
X169408032Y-125424354D01*
X169239354Y-125593032D01*
X169106825Y-125791376D01*
X169015538Y-126011764D01*
X168969000Y-126245727D01*
X168851000Y-126245727D01*
X168804462Y-126011764D01*
X168713175Y-125791376D01*
X168580646Y-125593032D01*
X168411968Y-125424354D01*
X168213624Y-125291825D01*
X168151000Y-125265885D01*
X168151000Y-124671662D01*
X169253585Y-123569079D01*
X169273080Y-123553080D01*
X169289081Y-123533583D01*
X169336936Y-123475271D01*
X169384385Y-123386498D01*
X169384386Y-123386497D01*
X169413606Y-123290173D01*
X169421000Y-123215099D01*
X169421000Y-123215098D01*
X169423472Y-123190001D01*
X169421000Y-123164904D01*
X169421000Y-122692233D01*
X169507307Y-122656483D01*
X169713840Y-122518482D01*
X169889482Y-122342840D01*
X170027483Y-122136307D01*
X170122540Y-121906820D01*
X170171000Y-121663198D01*
X170171000Y-121414802D01*
X170122540Y-121171180D01*
X170027483Y-120941693D01*
X169889482Y-120735160D01*
X169713840Y-120559518D01*
X169507307Y-120421517D01*
X169277820Y-120326460D01*
X169034198Y-120278000D01*
X168785802Y-120278000D01*
X168542180Y-120326460D01*
X168312693Y-120421517D01*
X168106160Y-120559518D01*
X167930518Y-120735160D01*
X167792517Y-120941693D01*
X167697460Y-121171180D01*
X167649000Y-121414802D01*
X167649000Y-121663198D01*
X167697460Y-121906820D01*
X167792517Y-122136307D01*
X167930518Y-122342840D01*
X168106160Y-122518482D01*
X168312693Y-122656483D01*
X168399000Y-122692233D01*
X168399000Y-122978336D01*
X167296421Y-124080917D01*
X167276921Y-124096920D01*
X167244557Y-124136357D01*
X167213064Y-124174730D01*
X167165615Y-124263503D01*
X167136395Y-124359828D01*
X167126528Y-124460000D01*
X167129001Y-124485106D01*
X167129001Y-125265885D01*
X167066376Y-125291825D01*
X166868032Y-125424354D01*
X166699354Y-125593032D01*
X166566825Y-125791376D01*
X166475538Y-126011764D01*
X166429000Y-126245727D01*
X166311000Y-126245727D01*
X166264462Y-126011764D01*
X166173175Y-125791376D01*
X166040646Y-125593032D01*
X165871968Y-125424354D01*
X165673624Y-125291825D01*
X165611000Y-125265885D01*
X165611000Y-124671662D01*
X166713585Y-123569079D01*
X166733080Y-123553080D01*
X166749081Y-123533583D01*
X166796936Y-123475271D01*
X166844385Y-123386498D01*
X166844386Y-123386497D01*
X166873606Y-123290173D01*
X166881000Y-123215099D01*
X166881000Y-123215098D01*
X166883472Y-123190001D01*
X166881000Y-123164904D01*
X166881000Y-122692233D01*
X166967307Y-122656483D01*
X167173840Y-122518482D01*
X167349482Y-122342840D01*
X167487483Y-122136307D01*
X167582540Y-121906820D01*
X167631000Y-121663198D01*
X167631000Y-121414802D01*
X167582540Y-121171180D01*
X167487483Y-120941693D01*
X167349482Y-120735160D01*
X167173840Y-120559518D01*
X166967307Y-120421517D01*
X166737820Y-120326460D01*
X166494198Y-120278000D01*
X166245802Y-120278000D01*
X166002180Y-120326460D01*
X165772693Y-120421517D01*
X165566160Y-120559518D01*
X165390518Y-120735160D01*
X165252517Y-120941693D01*
X165157460Y-121171180D01*
X165109000Y-121414802D01*
X165109000Y-121663198D01*
X165157460Y-121906820D01*
X165252517Y-122136307D01*
X165390518Y-122342840D01*
X165566160Y-122518482D01*
X165772693Y-122656483D01*
X165859000Y-122692233D01*
X165859000Y-122978336D01*
X164756421Y-124080917D01*
X164736921Y-124096920D01*
X164704557Y-124136357D01*
X164673064Y-124174730D01*
X164625615Y-124263503D01*
X164596395Y-124359828D01*
X164586528Y-124460000D01*
X164589001Y-124485106D01*
X164589001Y-125265885D01*
X164526376Y-125291825D01*
X164328032Y-125424354D01*
X164159354Y-125593032D01*
X164026825Y-125791376D01*
X163935538Y-126011764D01*
X163889000Y-126245727D01*
X163771000Y-126245727D01*
X163724462Y-126011764D01*
X163633175Y-125791376D01*
X163500646Y-125593032D01*
X163331968Y-125424354D01*
X163133624Y-125291825D01*
X163071000Y-125265885D01*
X163071000Y-124671662D01*
X164173585Y-123569079D01*
X164193080Y-123553080D01*
X164209081Y-123533583D01*
X164256936Y-123475271D01*
X164304385Y-123386498D01*
X164304386Y-123386497D01*
X164333606Y-123290173D01*
X164341000Y-123215099D01*
X164341000Y-123215098D01*
X164343472Y-123190001D01*
X164341000Y-123164904D01*
X164341000Y-122692233D01*
X164427307Y-122656483D01*
X164633840Y-122518482D01*
X164809482Y-122342840D01*
X164947483Y-122136307D01*
X165042540Y-121906820D01*
X165091000Y-121663198D01*
X165091000Y-121414802D01*
X165042540Y-121171180D01*
X164947483Y-120941693D01*
X164809482Y-120735160D01*
X164633840Y-120559518D01*
X164427307Y-120421517D01*
X164197820Y-120326460D01*
X163954198Y-120278000D01*
X163705802Y-120278000D01*
X163462180Y-120326460D01*
X163232693Y-120421517D01*
X163026160Y-120559518D01*
X162850518Y-120735160D01*
X162712517Y-120941693D01*
X162617460Y-121171180D01*
X162569000Y-121414802D01*
X162569000Y-121663198D01*
X162617460Y-121906820D01*
X162712517Y-122136307D01*
X162850518Y-122342840D01*
X163026160Y-122518482D01*
X163232693Y-122656483D01*
X163319000Y-122692233D01*
X163319000Y-122978336D01*
X162216421Y-124080917D01*
X162196921Y-124096920D01*
X162164557Y-124136357D01*
X162133064Y-124174730D01*
X162085615Y-124263503D01*
X162056395Y-124359828D01*
X162046528Y-124460000D01*
X162049001Y-124485106D01*
X162049001Y-125265885D01*
X161986376Y-125291825D01*
X161788032Y-125424354D01*
X161619354Y-125593032D01*
X161486825Y-125791376D01*
X161395538Y-126011764D01*
X161349000Y-126245727D01*
X161231000Y-126245727D01*
X161184462Y-126011764D01*
X161093175Y-125791376D01*
X160960646Y-125593032D01*
X160791968Y-125424354D01*
X160593624Y-125291825D01*
X160531000Y-125265885D01*
X160531000Y-124671662D01*
X161633585Y-123569079D01*
X161653080Y-123553080D01*
X161669081Y-123533583D01*
X161716936Y-123475271D01*
X161764385Y-123386498D01*
X161764386Y-123386497D01*
X161793606Y-123290173D01*
X161801000Y-123215099D01*
X161801000Y-123215098D01*
X161803472Y-123190001D01*
X161801000Y-123164904D01*
X161801000Y-122692233D01*
X161887307Y-122656483D01*
X162093840Y-122518482D01*
X162269482Y-122342840D01*
X162407483Y-122136307D01*
X162502540Y-121906820D01*
X162551000Y-121663198D01*
X162551000Y-121414802D01*
X162502540Y-121171180D01*
X162407483Y-120941693D01*
X162269482Y-120735160D01*
X162093840Y-120559518D01*
X161887307Y-120421517D01*
X161657820Y-120326460D01*
X161414198Y-120278000D01*
X161165802Y-120278000D01*
X160922180Y-120326460D01*
X160692693Y-120421517D01*
X160486160Y-120559518D01*
X160310518Y-120735160D01*
X160172517Y-120941693D01*
X160077460Y-121171180D01*
X160029000Y-121414802D01*
X160029000Y-121663198D01*
X160077460Y-121906820D01*
X160172517Y-122136307D01*
X160310518Y-122342840D01*
X160486160Y-122518482D01*
X160692693Y-122656483D01*
X160779000Y-122692233D01*
X160779000Y-122978336D01*
X159676421Y-124080917D01*
X159656921Y-124096920D01*
X159624557Y-124136357D01*
X159593064Y-124174730D01*
X159545615Y-124263503D01*
X159516395Y-124359828D01*
X159506528Y-124460000D01*
X159509001Y-124485106D01*
X159509001Y-125265885D01*
X159446376Y-125291825D01*
X159248032Y-125424354D01*
X159079354Y-125593032D01*
X158946825Y-125791376D01*
X158855538Y-126011764D01*
X158809000Y-126245727D01*
X158691000Y-126245727D01*
X158644462Y-126011764D01*
X158553175Y-125791376D01*
X158420646Y-125593032D01*
X158251968Y-125424354D01*
X158053624Y-125291825D01*
X157991000Y-125265885D01*
X157991000Y-122834096D01*
X157993472Y-122808999D01*
X157991000Y-122783901D01*
X157983606Y-122708827D01*
X157954386Y-122612503D01*
X157909709Y-122528917D01*
X157906936Y-122523729D01*
X157859079Y-122465415D01*
X157859078Y-122465414D01*
X157843080Y-122445920D01*
X157823585Y-122429921D01*
X157386790Y-121993127D01*
X157422540Y-121906820D01*
X157471000Y-121663198D01*
X157471000Y-121414802D01*
X157489000Y-121414802D01*
X157489000Y-121663198D01*
X157537460Y-121906820D01*
X157632517Y-122136307D01*
X157770518Y-122342840D01*
X157946160Y-122518482D01*
X158152693Y-122656483D01*
X158382180Y-122751540D01*
X158625802Y-122800000D01*
X158874198Y-122800000D01*
X159117820Y-122751540D01*
X159347307Y-122656483D01*
X159553840Y-122518482D01*
X159729482Y-122342840D01*
X159867483Y-122136307D01*
X159962540Y-121906820D01*
X160011000Y-121663198D01*
X160011000Y-121414802D01*
X159962540Y-121171180D01*
X159867483Y-120941693D01*
X159729482Y-120735160D01*
X159553840Y-120559518D01*
X159347307Y-120421517D01*
X159117820Y-120326460D01*
X158874198Y-120278000D01*
X158625802Y-120278000D01*
X158382180Y-120326460D01*
X158152693Y-120421517D01*
X157946160Y-120559518D01*
X157770518Y-120735160D01*
X157632517Y-120941693D01*
X157537460Y-121171180D01*
X157489000Y-121414802D01*
X157471000Y-121414802D01*
X157422540Y-121171180D01*
X157327483Y-120941693D01*
X157189482Y-120735160D01*
X157013840Y-120559518D01*
X156807307Y-120421517D01*
X156577820Y-120326460D01*
X156334198Y-120278000D01*
X156085802Y-120278000D01*
X155842180Y-120326460D01*
X155612693Y-120421517D01*
X155406160Y-120559518D01*
X155230518Y-120735160D01*
X155092517Y-120941693D01*
X154997460Y-121171180D01*
X154949000Y-121414802D01*
X154931000Y-121414802D01*
X154882540Y-121171180D01*
X154787483Y-120941693D01*
X154649482Y-120735160D01*
X154473840Y-120559518D01*
X154267307Y-120421517D01*
X154037820Y-120326460D01*
X153794198Y-120278000D01*
X153545802Y-120278000D01*
X153302180Y-120326460D01*
X153072693Y-120421517D01*
X152866160Y-120559518D01*
X152690518Y-120735160D01*
X152552517Y-120941693D01*
X152457460Y-121171180D01*
X152409000Y-121414802D01*
X152391000Y-121414802D01*
X152342540Y-121171180D01*
X152247483Y-120941693D01*
X152109482Y-120735160D01*
X151933840Y-120559518D01*
X151727307Y-120421517D01*
X151497820Y-120326460D01*
X151254198Y-120278000D01*
X151005802Y-120278000D01*
X150762180Y-120326460D01*
X150532693Y-120421517D01*
X150326160Y-120559518D01*
X150150518Y-120735160D01*
X150012517Y-120941693D01*
X149917460Y-121171180D01*
X149869000Y-121414802D01*
X149851000Y-121414802D01*
X149802540Y-121171180D01*
X149707483Y-120941693D01*
X149569482Y-120735160D01*
X149393840Y-120559518D01*
X149187307Y-120421517D01*
X148957820Y-120326460D01*
X148714198Y-120278000D01*
X148465802Y-120278000D01*
X148222180Y-120326460D01*
X147992693Y-120421517D01*
X147786160Y-120559518D01*
X147610518Y-120735160D01*
X147472517Y-120941693D01*
X147377460Y-121171180D01*
X147329000Y-121414802D01*
X147329000Y-121663198D01*
X147377460Y-121906820D01*
X147472517Y-122136307D01*
X147610518Y-122342840D01*
X147786160Y-122518482D01*
X147992693Y-122656483D01*
X148079000Y-122692233D01*
X148079000Y-122974403D01*
X148076528Y-122999500D01*
X148079000Y-123024596D01*
X148079000Y-123024598D01*
X148086394Y-123099672D01*
X148115614Y-123195996D01*
X148163064Y-123284770D01*
X148226920Y-123362580D01*
X148246425Y-123378587D01*
X150032406Y-125164569D01*
X149979273Y-125154000D01*
X149740727Y-125154000D01*
X149506764Y-125200538D01*
X149286376Y-125291825D01*
X149088032Y-125424354D01*
X149015774Y-125496612D01*
X146561000Y-123041838D01*
X146561000Y-122692233D01*
X146647307Y-122656483D01*
X146853840Y-122518482D01*
X147029482Y-122342840D01*
X147167483Y-122136307D01*
X147262540Y-121906820D01*
X147311000Y-121663198D01*
X147311000Y-121414802D01*
X147262540Y-121171180D01*
X147167483Y-120941693D01*
X147029482Y-120735160D01*
X146853840Y-120559518D01*
X146647307Y-120421517D01*
X146417820Y-120326460D01*
X146174198Y-120278000D01*
X145925802Y-120278000D01*
X145682180Y-120326460D01*
X145452693Y-120421517D01*
X145246160Y-120559518D01*
X145070518Y-120735160D01*
X144932517Y-120941693D01*
X144837460Y-121171180D01*
X144789000Y-121414802D01*
X144789000Y-121663198D01*
X144837460Y-121906820D01*
X144932517Y-122136307D01*
X145070518Y-122342840D01*
X145246160Y-122518482D01*
X145452693Y-122656483D01*
X145539000Y-122692233D01*
X145539000Y-123228403D01*
X145536528Y-123253500D01*
X145539000Y-123278596D01*
X145539000Y-123278598D01*
X145546394Y-123353672D01*
X145575614Y-123449996D01*
X145623064Y-123538770D01*
X145686920Y-123616580D01*
X145706425Y-123632587D01*
X147227838Y-125154000D01*
X147200727Y-125154000D01*
X146966764Y-125200538D01*
X146746376Y-125291825D01*
X146548032Y-125424354D01*
X146507524Y-125464862D01*
X144021000Y-122978338D01*
X144021000Y-122692233D01*
X144107307Y-122656483D01*
X144313840Y-122518482D01*
X144489482Y-122342840D01*
X144627483Y-122136307D01*
X144722540Y-121906820D01*
X144771000Y-121663198D01*
X144771000Y-121414802D01*
X144722540Y-121171180D01*
X144627483Y-120941693D01*
X144489482Y-120735160D01*
X144313840Y-120559518D01*
X144107307Y-120421517D01*
X143877820Y-120326460D01*
X143634198Y-120278000D01*
X143385802Y-120278000D01*
X143163430Y-120322233D01*
X143277164Y-120208500D01*
X144306404Y-120208500D01*
X144331500Y-120210972D01*
X144356596Y-120208500D01*
X144356599Y-120208500D01*
X144431673Y-120201106D01*
X144527997Y-120171886D01*
X144616770Y-120124436D01*
X144694580Y-120060580D01*
X144710587Y-120041075D01*
X145595872Y-119155790D01*
X145682180Y-119191540D01*
X145925802Y-119240000D01*
X146174198Y-119240000D01*
X146417820Y-119191540D01*
X146647307Y-119096483D01*
X146853840Y-118958482D01*
X147029482Y-118782840D01*
X147167483Y-118576307D01*
X147262540Y-118346820D01*
X147311000Y-118103198D01*
X147311000Y-117854802D01*
X147329000Y-117854802D01*
X147329000Y-118103198D01*
X147377460Y-118346820D01*
X147472517Y-118576307D01*
X147610518Y-118782840D01*
X147786160Y-118958482D01*
X147992693Y-119096483D01*
X148222180Y-119191540D01*
X148465802Y-119240000D01*
X148714198Y-119240000D01*
X148957820Y-119191540D01*
X149187307Y-119096483D01*
X149393840Y-118958482D01*
X149569482Y-118782840D01*
X149707483Y-118576307D01*
X149802540Y-118346820D01*
X149851000Y-118103198D01*
X149851000Y-117854802D01*
X149869000Y-117854802D01*
X149869000Y-118103198D01*
X149917460Y-118346820D01*
X150012517Y-118576307D01*
X150150518Y-118782840D01*
X150326160Y-118958482D01*
X150532693Y-119096483D01*
X150762180Y-119191540D01*
X151005802Y-119240000D01*
X151254198Y-119240000D01*
X151497820Y-119191540D01*
X151727307Y-119096483D01*
X151933840Y-118958482D01*
X152109482Y-118782840D01*
X152247483Y-118576307D01*
X152342540Y-118346820D01*
X152391000Y-118103198D01*
X152391000Y-117854802D01*
X152409000Y-117854802D01*
X152409000Y-118103198D01*
X152457460Y-118346820D01*
X152552517Y-118576307D01*
X152690518Y-118782840D01*
X152866160Y-118958482D01*
X153072693Y-119096483D01*
X153302180Y-119191540D01*
X153545802Y-119240000D01*
X153794198Y-119240000D01*
X154037820Y-119191540D01*
X154267307Y-119096483D01*
X154473840Y-118958482D01*
X154649482Y-118782840D01*
X154787483Y-118576307D01*
X154882540Y-118346820D01*
X154931000Y-118103198D01*
X154931000Y-117854802D01*
X154949000Y-117854802D01*
X154949000Y-118103198D01*
X154997460Y-118346820D01*
X155092517Y-118576307D01*
X155230518Y-118782840D01*
X155406160Y-118958482D01*
X155612693Y-119096483D01*
X155842180Y-119191540D01*
X156085802Y-119240000D01*
X156334198Y-119240000D01*
X156577820Y-119191540D01*
X156807307Y-119096483D01*
X157013840Y-118958482D01*
X157189482Y-118782840D01*
X157327483Y-118576307D01*
X157422540Y-118346820D01*
X157471000Y-118103198D01*
X157471000Y-117854802D01*
X157489000Y-117854802D01*
X157489000Y-118103198D01*
X157537460Y-118346820D01*
X157632517Y-118576307D01*
X157770518Y-118782840D01*
X157946160Y-118958482D01*
X158152693Y-119096483D01*
X158382180Y-119191540D01*
X158625802Y-119240000D01*
X158874198Y-119240000D01*
X159117820Y-119191540D01*
X159347307Y-119096483D01*
X159553840Y-118958482D01*
X159729482Y-118782840D01*
X159867483Y-118576307D01*
X159962540Y-118346820D01*
X160011000Y-118103198D01*
X160011000Y-117854802D01*
X160029000Y-117854802D01*
X160029000Y-118103198D01*
X160077460Y-118346820D01*
X160172517Y-118576307D01*
X160310518Y-118782840D01*
X160486160Y-118958482D01*
X160692693Y-119096483D01*
X160922180Y-119191540D01*
X161165802Y-119240000D01*
X161414198Y-119240000D01*
X161657820Y-119191540D01*
X161887307Y-119096483D01*
X162093840Y-118958482D01*
X162269482Y-118782840D01*
X162407483Y-118576307D01*
X162502540Y-118346820D01*
X162551000Y-118103198D01*
X162551000Y-117854802D01*
X162569000Y-117854802D01*
X162569000Y-118103198D01*
X162617460Y-118346820D01*
X162712517Y-118576307D01*
X162850518Y-118782840D01*
X163026160Y-118958482D01*
X163232693Y-119096483D01*
X163462180Y-119191540D01*
X163705802Y-119240000D01*
X163954198Y-119240000D01*
X164197820Y-119191540D01*
X164427307Y-119096483D01*
X164633840Y-118958482D01*
X164809482Y-118782840D01*
X164947483Y-118576307D01*
X165042540Y-118346820D01*
X165091000Y-118103198D01*
X165091000Y-117854802D01*
X165109000Y-117854802D01*
X165109000Y-118103198D01*
X165157460Y-118346820D01*
X165252517Y-118576307D01*
X165390518Y-118782840D01*
X165566160Y-118958482D01*
X165772693Y-119096483D01*
X166002180Y-119191540D01*
X166245802Y-119240000D01*
X166494198Y-119240000D01*
X166737820Y-119191540D01*
X166967307Y-119096483D01*
X167173840Y-118958482D01*
X167349482Y-118782840D01*
X167487483Y-118576307D01*
X167582540Y-118346820D01*
X167631000Y-118103198D01*
X167631000Y-117854802D01*
X167649000Y-117854802D01*
X167649000Y-118103198D01*
X167697460Y-118346820D01*
X167792517Y-118576307D01*
X167930518Y-118782840D01*
X168106160Y-118958482D01*
X168312693Y-119096483D01*
X168542180Y-119191540D01*
X168785802Y-119240000D01*
X169034198Y-119240000D01*
X169277820Y-119191540D01*
X169507307Y-119096483D01*
X169713840Y-118958482D01*
X169889482Y-118782840D01*
X170027483Y-118576307D01*
X170122540Y-118346820D01*
X170171000Y-118103198D01*
X170171000Y-117854802D01*
X170189000Y-117854802D01*
X170189000Y-118103198D01*
X170237460Y-118346820D01*
X170332517Y-118576307D01*
X170470518Y-118782840D01*
X170646160Y-118958482D01*
X170852693Y-119096483D01*
X171082180Y-119191540D01*
X171325802Y-119240000D01*
X171574198Y-119240000D01*
X171817820Y-119191540D01*
X172047307Y-119096483D01*
X172253840Y-118958482D01*
X172429482Y-118782840D01*
X172567483Y-118576307D01*
X172662540Y-118346820D01*
X172711000Y-118103198D01*
X172711000Y-117854802D01*
X172729000Y-117854802D01*
X172729000Y-118103198D01*
X172777460Y-118346820D01*
X172872517Y-118576307D01*
X173010518Y-118782840D01*
X173186160Y-118958482D01*
X173392693Y-119096483D01*
X173622180Y-119191540D01*
X173865802Y-119240000D01*
X174114198Y-119240000D01*
X174357820Y-119191540D01*
X174587307Y-119096483D01*
X174793840Y-118958482D01*
X174969482Y-118782840D01*
X175107483Y-118576307D01*
X175202540Y-118346820D01*
X175251000Y-118103198D01*
X175251000Y-117854802D01*
X175202540Y-117611180D01*
X175107483Y-117381693D01*
X174969482Y-117175160D01*
X174793840Y-116999518D01*
X174587307Y-116861517D01*
X174357820Y-116766460D01*
X174114198Y-116718000D01*
X173865802Y-116718000D01*
X173622180Y-116766460D01*
X173392693Y-116861517D01*
X173186160Y-116999518D01*
X173010518Y-117175160D01*
X172872517Y-117381693D01*
X172777460Y-117611180D01*
X172729000Y-117854802D01*
X172711000Y-117854802D01*
X172662540Y-117611180D01*
X172626790Y-117524872D01*
X175603580Y-114548083D01*
X175623080Y-114532080D01*
X175686936Y-114454270D01*
X175734386Y-114365497D01*
X175763606Y-114269173D01*
X175771000Y-114194099D01*
X175771000Y-114194097D01*
X175773472Y-114169000D01*
X175771000Y-114143903D01*
X175771000Y-114129115D01*
X175833624Y-114103175D01*
X176031968Y-113970646D01*
X176200646Y-113801968D01*
X176333175Y-113603624D01*
X176424462Y-113383236D01*
X176471000Y-113149273D01*
X176471000Y-112910727D01*
X176424462Y-112676764D01*
X176333175Y-112456376D01*
X176200646Y-112258032D01*
X176031968Y-112089354D01*
X175833624Y-111956825D01*
X175613236Y-111865538D01*
X175379273Y-111819000D01*
X175140727Y-111819000D01*
X174906764Y-111865538D01*
X174686376Y-111956825D01*
X174488032Y-112089354D01*
X174319354Y-112258032D01*
X174186825Y-112456376D01*
X174095538Y-112676764D01*
X174049000Y-112910727D01*
X174049000Y-113149273D01*
X174095538Y-113383236D01*
X174186825Y-113603624D01*
X174319354Y-113801968D01*
X174488032Y-113970646D01*
X174636493Y-114069844D01*
X171904128Y-116802210D01*
X171817820Y-116766460D01*
X171574198Y-116718000D01*
X171325802Y-116718000D01*
X171082180Y-116766460D01*
X170852693Y-116861517D01*
X170646160Y-116999518D01*
X170470518Y-117175160D01*
X170332517Y-117381693D01*
X170237460Y-117611180D01*
X170189000Y-117854802D01*
X170171000Y-117854802D01*
X170122540Y-117611180D01*
X170086790Y-117524872D01*
X172932580Y-114679083D01*
X172952080Y-114663080D01*
X173015936Y-114585270D01*
X173063386Y-114496497D01*
X173092606Y-114400173D01*
X173100000Y-114325099D01*
X173100000Y-114325097D01*
X173102472Y-114300000D01*
X173100000Y-114274903D01*
X173100000Y-114183376D01*
X173293624Y-114103175D01*
X173491968Y-113970646D01*
X173660646Y-113801968D01*
X173793175Y-113603624D01*
X173884462Y-113383236D01*
X173931000Y-113149273D01*
X173931000Y-112910727D01*
X173884462Y-112676764D01*
X173793175Y-112456376D01*
X173660646Y-112258032D01*
X173491968Y-112089354D01*
X173293624Y-111956825D01*
X173073236Y-111865538D01*
X172839273Y-111819000D01*
X172600727Y-111819000D01*
X172366764Y-111865538D01*
X172146376Y-111956825D01*
X171948032Y-112089354D01*
X171779354Y-112258032D01*
X171646825Y-112456376D01*
X171555538Y-112676764D01*
X171509000Y-112910727D01*
X171509000Y-113149273D01*
X171555538Y-113383236D01*
X171646825Y-113603624D01*
X171779354Y-113801968D01*
X171948032Y-113970646D01*
X172078000Y-114057488D01*
X172078000Y-114088337D01*
X169364128Y-116802210D01*
X169277820Y-116766460D01*
X169034198Y-116718000D01*
X168785802Y-116718000D01*
X168542180Y-116766460D01*
X168312693Y-116861517D01*
X168106160Y-116999518D01*
X167930518Y-117175160D01*
X167792517Y-117381693D01*
X167697460Y-117611180D01*
X167649000Y-117854802D01*
X167631000Y-117854802D01*
X167582540Y-117611180D01*
X167546790Y-117524872D01*
X170523580Y-114548083D01*
X170543080Y-114532080D01*
X170606936Y-114454270D01*
X170654386Y-114365497D01*
X170683606Y-114269173D01*
X170691000Y-114194099D01*
X170691000Y-114194097D01*
X170693472Y-114169000D01*
X170691000Y-114143903D01*
X170691000Y-114129115D01*
X170753624Y-114103175D01*
X170951968Y-113970646D01*
X171120646Y-113801968D01*
X171253175Y-113603624D01*
X171344462Y-113383236D01*
X171391000Y-113149273D01*
X171391000Y-112910727D01*
X171344462Y-112676764D01*
X171253175Y-112456376D01*
X171120646Y-112258032D01*
X170951968Y-112089354D01*
X170753624Y-111956825D01*
X170533236Y-111865538D01*
X170299273Y-111819000D01*
X170060727Y-111819000D01*
X169826764Y-111865538D01*
X169606376Y-111956825D01*
X169408032Y-112089354D01*
X169239354Y-112258032D01*
X169106825Y-112456376D01*
X169015538Y-112676764D01*
X168969000Y-112910727D01*
X168969000Y-113149273D01*
X169015538Y-113383236D01*
X169106825Y-113603624D01*
X169239354Y-113801968D01*
X169408032Y-113970646D01*
X169556493Y-114069844D01*
X166824128Y-116802210D01*
X166737820Y-116766460D01*
X166494198Y-116718000D01*
X166245802Y-116718000D01*
X166002180Y-116766460D01*
X165772693Y-116861517D01*
X165566160Y-116999518D01*
X165390518Y-117175160D01*
X165252517Y-117381693D01*
X165157460Y-117611180D01*
X165109000Y-117854802D01*
X165091000Y-117854802D01*
X165042540Y-117611180D01*
X165006790Y-117524872D01*
X167983580Y-114548083D01*
X168003080Y-114532080D01*
X168066936Y-114454270D01*
X168114386Y-114365497D01*
X168143606Y-114269173D01*
X168151000Y-114194099D01*
X168151000Y-114194097D01*
X168153472Y-114169000D01*
X168151000Y-114143903D01*
X168151000Y-114129115D01*
X168213624Y-114103175D01*
X168411968Y-113970646D01*
X168580646Y-113801968D01*
X168713175Y-113603624D01*
X168804462Y-113383236D01*
X168851000Y-113149273D01*
X168851000Y-112910727D01*
X168804462Y-112676764D01*
X168713175Y-112456376D01*
X168580646Y-112258032D01*
X168411968Y-112089354D01*
X168213624Y-111956825D01*
X167993236Y-111865538D01*
X167759273Y-111819000D01*
X167520727Y-111819000D01*
X167286764Y-111865538D01*
X167066376Y-111956825D01*
X166868032Y-112089354D01*
X166699354Y-112258032D01*
X166566825Y-112456376D01*
X166475538Y-112676764D01*
X166429000Y-112910727D01*
X166429000Y-113149273D01*
X166475538Y-113383236D01*
X166566825Y-113603624D01*
X166699354Y-113801968D01*
X166868032Y-113970646D01*
X167016493Y-114069844D01*
X164284128Y-116802210D01*
X164197820Y-116766460D01*
X163954198Y-116718000D01*
X163705802Y-116718000D01*
X163462180Y-116766460D01*
X163232693Y-116861517D01*
X163026160Y-116999518D01*
X162850518Y-117175160D01*
X162712517Y-117381693D01*
X162617460Y-117611180D01*
X162569000Y-117854802D01*
X162551000Y-117854802D01*
X162502540Y-117611180D01*
X162466790Y-117524872D01*
X165443580Y-114548083D01*
X165463080Y-114532080D01*
X165526936Y-114454270D01*
X165574386Y-114365497D01*
X165603606Y-114269173D01*
X165611000Y-114194099D01*
X165611000Y-114194097D01*
X165613472Y-114169000D01*
X165611000Y-114143903D01*
X165611000Y-114129115D01*
X165673624Y-114103175D01*
X165871968Y-113970646D01*
X166040646Y-113801968D01*
X166173175Y-113603624D01*
X166264462Y-113383236D01*
X166311000Y-113149273D01*
X166311000Y-112910727D01*
X166264462Y-112676764D01*
X166173175Y-112456376D01*
X166040646Y-112258032D01*
X165871968Y-112089354D01*
X165673624Y-111956825D01*
X165453236Y-111865538D01*
X165219273Y-111819000D01*
X164980727Y-111819000D01*
X164746764Y-111865538D01*
X164526376Y-111956825D01*
X164328032Y-112089354D01*
X164159354Y-112258032D01*
X164026825Y-112456376D01*
X163935538Y-112676764D01*
X163889000Y-112910727D01*
X163889000Y-113149273D01*
X163935538Y-113383236D01*
X164026825Y-113603624D01*
X164159354Y-113801968D01*
X164328032Y-113970646D01*
X164476493Y-114069844D01*
X161744128Y-116802210D01*
X161657820Y-116766460D01*
X161414198Y-116718000D01*
X161165802Y-116718000D01*
X160922180Y-116766460D01*
X160692693Y-116861517D01*
X160486160Y-116999518D01*
X160310518Y-117175160D01*
X160172517Y-117381693D01*
X160077460Y-117611180D01*
X160029000Y-117854802D01*
X160011000Y-117854802D01*
X159962540Y-117611180D01*
X159867483Y-117381693D01*
X159729482Y-117175160D01*
X159553840Y-116999518D01*
X159347307Y-116861517D01*
X159117820Y-116766460D01*
X158874198Y-116718000D01*
X158625802Y-116718000D01*
X158382180Y-116766460D01*
X158152693Y-116861517D01*
X157946160Y-116999518D01*
X157770518Y-117175160D01*
X157632517Y-117381693D01*
X157537460Y-117611180D01*
X157489000Y-117854802D01*
X157471000Y-117854802D01*
X157422540Y-117611180D01*
X157386790Y-117524872D01*
X160363580Y-114548083D01*
X160383080Y-114532080D01*
X160446936Y-114454270D01*
X160494386Y-114365497D01*
X160523606Y-114269173D01*
X160531000Y-114194099D01*
X160531000Y-114194097D01*
X160533472Y-114169000D01*
X160531000Y-114143903D01*
X160531000Y-114129115D01*
X160593624Y-114103175D01*
X160791968Y-113970646D01*
X160960646Y-113801968D01*
X161093175Y-113603624D01*
X161184462Y-113383236D01*
X161231000Y-113149273D01*
X161231000Y-112910727D01*
X161349000Y-112910727D01*
X161349000Y-113149273D01*
X161395538Y-113383236D01*
X161486825Y-113603624D01*
X161619354Y-113801968D01*
X161788032Y-113970646D01*
X161986376Y-114103175D01*
X162206764Y-114194462D01*
X162440727Y-114241000D01*
X162679273Y-114241000D01*
X162913236Y-114194462D01*
X163133624Y-114103175D01*
X163331968Y-113970646D01*
X163500646Y-113801968D01*
X163633175Y-113603624D01*
X163724462Y-113383236D01*
X163771000Y-113149273D01*
X163771000Y-112910727D01*
X163724462Y-112676764D01*
X163633175Y-112456376D01*
X163500646Y-112258032D01*
X163331968Y-112089354D01*
X163133624Y-111956825D01*
X162913236Y-111865538D01*
X162679273Y-111819000D01*
X162440727Y-111819000D01*
X162206764Y-111865538D01*
X161986376Y-111956825D01*
X161788032Y-112089354D01*
X161619354Y-112258032D01*
X161486825Y-112456376D01*
X161395538Y-112676764D01*
X161349000Y-112910727D01*
X161231000Y-112910727D01*
X161184462Y-112676764D01*
X161093175Y-112456376D01*
X160960646Y-112258032D01*
X160791968Y-112089354D01*
X160593624Y-111956825D01*
X160373236Y-111865538D01*
X160139273Y-111819000D01*
X159900727Y-111819000D01*
X159666764Y-111865538D01*
X159446376Y-111956825D01*
X159248032Y-112089354D01*
X159079354Y-112258032D01*
X158946825Y-112456376D01*
X158855538Y-112676764D01*
X158809000Y-112910727D01*
X158809000Y-113149273D01*
X158855538Y-113383236D01*
X158946825Y-113603624D01*
X159079354Y-113801968D01*
X159248032Y-113970646D01*
X159396493Y-114069844D01*
X156664128Y-116802210D01*
X156577820Y-116766460D01*
X156334198Y-116718000D01*
X156085802Y-116718000D01*
X155842180Y-116766460D01*
X155612693Y-116861517D01*
X155406160Y-116999518D01*
X155230518Y-117175160D01*
X155092517Y-117381693D01*
X154997460Y-117611180D01*
X154949000Y-117854802D01*
X154931000Y-117854802D01*
X154882540Y-117611180D01*
X154787483Y-117381693D01*
X154649482Y-117175160D01*
X154473840Y-116999518D01*
X154267307Y-116861517D01*
X154037820Y-116766460D01*
X153794198Y-116718000D01*
X153545802Y-116718000D01*
X153302180Y-116766460D01*
X153072693Y-116861517D01*
X152866160Y-116999518D01*
X152690518Y-117175160D01*
X152552517Y-117381693D01*
X152457460Y-117611180D01*
X152409000Y-117854802D01*
X152391000Y-117854802D01*
X152342540Y-117611180D01*
X152247483Y-117381693D01*
X152109482Y-117175160D01*
X151933840Y-116999518D01*
X151727307Y-116861517D01*
X151497820Y-116766460D01*
X151254198Y-116718000D01*
X151005802Y-116718000D01*
X150762180Y-116766460D01*
X150532693Y-116861517D01*
X150326160Y-116999518D01*
X150150518Y-117175160D01*
X150012517Y-117381693D01*
X149917460Y-117611180D01*
X149869000Y-117854802D01*
X149851000Y-117854802D01*
X149802540Y-117611180D01*
X149707483Y-117381693D01*
X149569482Y-117175160D01*
X149393840Y-116999518D01*
X149187307Y-116861517D01*
X148957820Y-116766460D01*
X148714198Y-116718000D01*
X148465802Y-116718000D01*
X148222180Y-116766460D01*
X147992693Y-116861517D01*
X147786160Y-116999518D01*
X147610518Y-117175160D01*
X147472517Y-117381693D01*
X147377460Y-117611180D01*
X147329000Y-117854802D01*
X147311000Y-117854802D01*
X147262540Y-117611180D01*
X147167483Y-117381693D01*
X147029482Y-117175160D01*
X146853840Y-116999518D01*
X146647307Y-116861517D01*
X146417820Y-116766460D01*
X146174198Y-116718000D01*
X145925802Y-116718000D01*
X145682180Y-116766460D01*
X145452693Y-116861517D01*
X145246160Y-116999518D01*
X145070518Y-117175160D01*
X144932517Y-117381693D01*
X144837460Y-117611180D01*
X144789000Y-117854802D01*
X144789000Y-118103198D01*
X144837460Y-118346820D01*
X144873210Y-118433128D01*
X144119838Y-119186500D01*
X143889988Y-119186500D01*
X144107307Y-119096483D01*
X144313840Y-118958482D01*
X144489482Y-118782840D01*
X144627483Y-118576307D01*
X144722540Y-118346820D01*
X144771000Y-118103198D01*
X144771000Y-117854802D01*
X144722540Y-117611180D01*
X144627483Y-117381693D01*
X144489482Y-117175160D01*
X144313840Y-116999518D01*
X144107307Y-116861517D01*
X144021000Y-116825767D01*
X144021000Y-116416662D01*
X144547164Y-115890500D01*
X150025404Y-115890500D01*
X150050500Y-115892972D01*
X150075596Y-115890500D01*
X150075599Y-115890500D01*
X150150673Y-115883106D01*
X150246997Y-115853886D01*
X150335770Y-115806436D01*
X150413580Y-115742580D01*
X150429587Y-115723075D01*
X151984140Y-114168523D01*
X152046764Y-114194462D01*
X152280727Y-114241000D01*
X152519273Y-114241000D01*
X152753236Y-114194462D01*
X152973624Y-114103175D01*
X153171968Y-113970646D01*
X153340646Y-113801968D01*
X153473175Y-113603624D01*
X153564462Y-113383236D01*
X153611000Y-113149273D01*
X153611000Y-112910727D01*
X153729000Y-112910727D01*
X153729000Y-113149273D01*
X153775538Y-113383236D01*
X153866825Y-113603624D01*
X153999354Y-113801968D01*
X154168032Y-113970646D01*
X154366376Y-114103175D01*
X154586764Y-114194462D01*
X154820727Y-114241000D01*
X155059273Y-114241000D01*
X155293236Y-114194462D01*
X155513624Y-114103175D01*
X155711968Y-113970646D01*
X155880646Y-113801968D01*
X156013175Y-113603624D01*
X156104462Y-113383236D01*
X156151000Y-113149273D01*
X156151000Y-112910727D01*
X156269000Y-112910727D01*
X156269000Y-113149273D01*
X156315538Y-113383236D01*
X156406825Y-113603624D01*
X156539354Y-113801968D01*
X156708032Y-113970646D01*
X156906376Y-114103175D01*
X157126764Y-114194462D01*
X157360727Y-114241000D01*
X157599273Y-114241000D01*
X157833236Y-114194462D01*
X158053624Y-114103175D01*
X158251968Y-113970646D01*
X158420646Y-113801968D01*
X158553175Y-113603624D01*
X158644462Y-113383236D01*
X158691000Y-113149273D01*
X158691000Y-112910727D01*
X158644462Y-112676764D01*
X158553175Y-112456376D01*
X158420646Y-112258032D01*
X158251968Y-112089354D01*
X158053624Y-111956825D01*
X157833236Y-111865538D01*
X157599273Y-111819000D01*
X157360727Y-111819000D01*
X157126764Y-111865538D01*
X156906376Y-111956825D01*
X156708032Y-112089354D01*
X156539354Y-112258032D01*
X156406825Y-112456376D01*
X156315538Y-112676764D01*
X156269000Y-112910727D01*
X156151000Y-112910727D01*
X156104462Y-112676764D01*
X156013175Y-112456376D01*
X155880646Y-112258032D01*
X155711968Y-112089354D01*
X155513624Y-111956825D01*
X155293236Y-111865538D01*
X155059273Y-111819000D01*
X154820727Y-111819000D01*
X154586764Y-111865538D01*
X154366376Y-111956825D01*
X154168032Y-112089354D01*
X153999354Y-112258032D01*
X153866825Y-112456376D01*
X153775538Y-112676764D01*
X153729000Y-112910727D01*
X153611000Y-112910727D01*
X153564462Y-112676764D01*
X153473175Y-112456376D01*
X153340646Y-112258032D01*
X153171968Y-112089354D01*
X152973624Y-111956825D01*
X152753236Y-111865538D01*
X152519273Y-111819000D01*
X152280727Y-111819000D01*
X152046764Y-111865538D01*
X151826376Y-111956825D01*
X151628032Y-112089354D01*
X151459354Y-112258032D01*
X151326825Y-112456376D01*
X151235538Y-112676764D01*
X151189000Y-112910727D01*
X151189000Y-113149273D01*
X151235538Y-113383236D01*
X151261477Y-113445860D01*
X149838838Y-114868500D01*
X148744162Y-114868500D01*
X149444140Y-114168523D01*
X149506764Y-114194462D01*
X149740727Y-114241000D01*
X149979273Y-114241000D01*
X150213236Y-114194462D01*
X150433624Y-114103175D01*
X150631968Y-113970646D01*
X150800646Y-113801968D01*
X150933175Y-113603624D01*
X151024462Y-113383236D01*
X151071000Y-113149273D01*
X151071000Y-112910727D01*
X151024462Y-112676764D01*
X150933175Y-112456376D01*
X150800646Y-112258032D01*
X150631968Y-112089354D01*
X150433624Y-111956825D01*
X150213236Y-111865538D01*
X149979273Y-111819000D01*
X149740727Y-111819000D01*
X149506764Y-111865538D01*
X149286376Y-111956825D01*
X149088032Y-112089354D01*
X148919354Y-112258032D01*
X148786825Y-112456376D01*
X148695538Y-112676764D01*
X148649000Y-112910727D01*
X148649000Y-113149273D01*
X148695538Y-113383236D01*
X148721477Y-113445860D01*
X147798849Y-114368489D01*
X144094607Y-114368489D01*
X144069510Y-114366017D01*
X144044413Y-114368489D01*
X144044412Y-114368489D01*
X143969338Y-114375883D01*
X143873014Y-114405103D01*
X143784241Y-114452553D01*
X143706431Y-114516409D01*
X143690428Y-114535909D01*
X141424128Y-116802210D01*
X141337820Y-116766460D01*
X141094198Y-116718000D01*
X140845802Y-116718000D01*
X140602180Y-116766460D01*
X140372693Y-116861517D01*
X140166160Y-116999518D01*
X139990518Y-117175160D01*
X139852517Y-117381693D01*
X139757460Y-117611180D01*
X139709000Y-117854802D01*
X139709000Y-118103198D01*
X139757460Y-118346820D01*
X139852517Y-118576307D01*
X139990518Y-118782840D01*
X140166160Y-118958482D01*
X140372693Y-119096483D01*
X140602180Y-119191540D01*
X140845802Y-119240000D01*
X141094198Y-119240000D01*
X141337820Y-119191540D01*
X141567307Y-119096483D01*
X141773840Y-118958482D01*
X141949482Y-118782840D01*
X142087483Y-118576307D01*
X142182540Y-118346820D01*
X142231000Y-118103198D01*
X142231000Y-117854802D01*
X142182540Y-117611180D01*
X142146790Y-117524872D01*
X142999001Y-116672662D01*
X142999001Y-116825767D01*
X142912693Y-116861517D01*
X142706160Y-116999518D01*
X142530518Y-117175160D01*
X142392517Y-117381693D01*
X142297460Y-117611180D01*
X142249000Y-117854802D01*
X142249000Y-118103198D01*
X142297460Y-118346820D01*
X142392517Y-118576307D01*
X142530518Y-118782840D01*
X142706160Y-118958482D01*
X142912693Y-119096483D01*
X143130012Y-119186500D01*
X143090596Y-119186500D01*
X143065499Y-119184028D01*
X143040402Y-119186500D01*
X143040401Y-119186500D01*
X142965327Y-119193894D01*
X142869003Y-119223114D01*
X142835041Y-119241267D01*
X142780229Y-119270564D01*
X142721915Y-119318421D01*
X142702420Y-119334420D01*
X142686421Y-119353915D01*
X141896420Y-120143917D01*
X141876921Y-120159920D01*
X141853930Y-120187935D01*
X141813064Y-120237730D01*
X141765638Y-120326460D01*
X141765615Y-120326503D01*
X141736793Y-120421517D01*
X141736395Y-120422828D01*
X141726528Y-120523000D01*
X141727045Y-120528251D01*
X141567307Y-120421517D01*
X141337820Y-120326460D01*
X141094198Y-120278000D01*
X140845802Y-120278000D01*
X140602180Y-120326460D01*
X140372693Y-120421517D01*
X140166160Y-120559518D01*
X139990518Y-120735160D01*
X139852517Y-120941693D01*
X139849610Y-120948712D01*
X139828222Y-120887801D01*
X139748261Y-120738208D01*
X139494080Y-120654525D01*
X138609605Y-121539000D01*
X138250395Y-121539000D01*
X137365920Y-120654525D01*
X137111739Y-120738208D01*
X136980842Y-121010775D01*
X136905635Y-121303642D01*
X136889009Y-121605553D01*
X136528000Y-121605553D01*
X136528000Y-120474920D01*
X137545525Y-120474920D01*
X138430000Y-121359395D01*
X139314475Y-120474920D01*
X139230792Y-120220739D01*
X138958225Y-120089842D01*
X138665358Y-120014635D01*
X138363447Y-119998009D01*
X138064093Y-120040603D01*
X137778801Y-120140778D01*
X137629208Y-120220739D01*
X137545525Y-120474920D01*
X136528000Y-120474920D01*
X136528000Y-116119799D01*
X136556441Y-116051138D01*
X136578000Y-115942754D01*
X136578000Y-115832246D01*
X136556441Y-115723862D01*
X136514151Y-115621767D01*
X136452757Y-115529884D01*
X136374616Y-115451743D01*
X136282733Y-115390349D01*
X136180638Y-115348059D01*
X136072254Y-115326500D01*
X135961746Y-115326500D01*
X135956500Y-115327543D01*
X135956500Y-114722799D01*
X135984941Y-114654138D01*
X136006500Y-114545754D01*
X136006500Y-114435246D01*
X135984941Y-114326862D01*
X135942651Y-114224767D01*
X135881257Y-114132884D01*
X135803116Y-114054743D01*
X135711233Y-113993349D01*
X135609138Y-113951059D01*
X135500754Y-113929500D01*
X135390246Y-113929500D01*
X135281862Y-113951059D01*
X135179767Y-113993349D01*
X135087884Y-114054743D01*
X135009743Y-114132884D01*
X134948349Y-114224767D01*
X134906059Y-114326862D01*
X134884500Y-114435246D01*
X134884500Y-114545754D01*
X134906059Y-114654138D01*
X134934501Y-114722802D01*
X134934500Y-121454337D01*
X133895421Y-122493417D01*
X133895416Y-122493421D01*
X132820838Y-123568000D01*
X120421096Y-123568000D01*
X120395999Y-123565528D01*
X120370902Y-123568000D01*
X120370901Y-123568000D01*
X120295827Y-123575394D01*
X120199503Y-123604614D01*
X120176450Y-123616936D01*
X120110729Y-123652064D01*
X120095715Y-123664386D01*
X120032920Y-123715920D01*
X120016922Y-123735414D01*
X118525860Y-125226477D01*
X118463236Y-125200538D01*
X118229273Y-125154000D01*
X117990727Y-125154000D01*
X117756764Y-125200538D01*
X117536376Y-125291825D01*
X117338032Y-125424354D01*
X117169354Y-125593032D01*
X117036825Y-125791376D01*
X116945538Y-126011764D01*
X116899000Y-126245727D01*
X116899000Y-126484273D01*
X116945538Y-126718236D01*
X117036825Y-126938624D01*
X117169354Y-127136968D01*
X117338032Y-127305646D01*
X117536376Y-127438175D01*
X117756764Y-127529462D01*
X117990727Y-127576000D01*
X118229273Y-127576000D01*
X118463236Y-127529462D01*
X118683624Y-127438175D01*
X118881968Y-127305646D01*
X119050646Y-127136968D01*
X119183175Y-126938624D01*
X119274462Y-126718236D01*
X119321000Y-126484273D01*
X119321000Y-126245727D01*
X119439000Y-126245727D01*
X119439000Y-126484273D01*
X119485538Y-126718236D01*
X119576825Y-126938624D01*
X119709354Y-127136968D01*
X119878032Y-127305646D01*
X120076376Y-127438175D01*
X120296764Y-127529462D01*
X120530727Y-127576000D01*
X120769273Y-127576000D01*
X121003236Y-127529462D01*
X121223624Y-127438175D01*
X121421968Y-127305646D01*
X121590646Y-127136968D01*
X121723175Y-126938624D01*
X121814462Y-126718236D01*
X121861000Y-126484273D01*
X121861000Y-126245727D01*
X121814462Y-126011764D01*
X121723175Y-125791376D01*
X121590646Y-125593032D01*
X121421968Y-125424354D01*
X121223624Y-125291825D01*
X121003236Y-125200538D01*
X120769273Y-125154000D01*
X120530727Y-125154000D01*
X120296764Y-125200538D01*
X120076376Y-125291825D01*
X119878032Y-125424354D01*
X119709354Y-125593032D01*
X119576825Y-125791376D01*
X119485538Y-126011764D01*
X119439000Y-126245727D01*
X119321000Y-126245727D01*
X119274462Y-126011764D01*
X119248523Y-125949140D01*
X120607664Y-124590000D01*
X126782337Y-124590000D01*
X126145860Y-125226478D01*
X126083236Y-125200538D01*
X125849273Y-125154000D01*
X125610727Y-125154000D01*
X125376764Y-125200538D01*
X125156376Y-125291825D01*
X124958032Y-125424354D01*
X124789354Y-125593032D01*
X124656825Y-125791376D01*
X124565538Y-126011764D01*
X124519000Y-126245727D01*
X124519000Y-126484273D01*
X124565538Y-126718236D01*
X124656825Y-126938624D01*
X124733917Y-127054001D01*
X124601664Y-127054001D01*
X124328523Y-126780860D01*
X124354462Y-126718236D01*
X124401000Y-126484273D01*
X124401000Y-126245727D01*
X124354462Y-126011764D01*
X124263175Y-125791376D01*
X124130646Y-125593032D01*
X123961968Y-125424354D01*
X123763624Y-125291825D01*
X123543236Y-125200538D01*
X123309273Y-125154000D01*
X123070727Y-125154000D01*
X122836764Y-125200538D01*
X122616376Y-125291825D01*
X122418032Y-125424354D01*
X122249354Y-125593032D01*
X122116825Y-125791376D01*
X122025538Y-126011764D01*
X121979000Y-126245727D01*
X121979000Y-126484273D01*
X122025538Y-126718236D01*
X122116825Y-126938624D01*
X122249354Y-127136968D01*
X122418032Y-127305646D01*
X122616376Y-127438175D01*
X122836764Y-127529462D01*
X123070727Y-127576000D01*
X123309273Y-127576000D01*
X123543236Y-127529462D01*
X123605860Y-127503523D01*
X123986337Y-127884000D01*
X116591000Y-127884000D01*
X116591000Y-117054746D01*
X120343000Y-117054746D01*
X120343000Y-117165254D01*
X120364559Y-117273638D01*
X120406849Y-117375733D01*
X120468243Y-117467616D01*
X120546384Y-117545757D01*
X120638267Y-117607151D01*
X120740362Y-117649441D01*
X120848746Y-117671000D01*
X120959254Y-117671000D01*
X121067638Y-117649441D01*
X121136299Y-117621000D01*
X124974336Y-117621000D01*
X126378415Y-119025080D01*
X126394418Y-119044580D01*
X126472228Y-119108436D01*
X126561001Y-119155886D01*
X126657325Y-119185106D01*
X126732399Y-119192500D01*
X126732401Y-119192500D01*
X126757498Y-119194972D01*
X126782595Y-119192500D01*
X129582338Y-119192500D01*
X130093908Y-119704071D01*
X130122349Y-119772733D01*
X130183743Y-119864616D01*
X130261884Y-119942757D01*
X130353767Y-120004151D01*
X130455862Y-120046441D01*
X130564246Y-120068000D01*
X130674754Y-120068000D01*
X130783138Y-120046441D01*
X130885233Y-120004151D01*
X130977116Y-119942757D01*
X131055257Y-119864616D01*
X131116651Y-119772733D01*
X131134787Y-119728949D01*
X131545915Y-120140078D01*
X131545921Y-120140083D01*
X131681407Y-120275569D01*
X131709849Y-120344233D01*
X131771243Y-120436116D01*
X131849384Y-120514257D01*
X131941267Y-120575651D01*
X132043362Y-120617941D01*
X132151746Y-120639500D01*
X132262254Y-120639500D01*
X132370638Y-120617941D01*
X132472733Y-120575651D01*
X132564616Y-120514257D01*
X132642757Y-120436116D01*
X132652649Y-120421312D01*
X132879416Y-120648079D01*
X132879422Y-120648084D01*
X133078407Y-120847069D01*
X133106849Y-120915733D01*
X133168243Y-121007616D01*
X133246384Y-121085757D01*
X133338267Y-121147151D01*
X133440362Y-121189441D01*
X133548746Y-121211000D01*
X133659254Y-121211000D01*
X133767638Y-121189441D01*
X133869733Y-121147151D01*
X133961616Y-121085757D01*
X134039757Y-121007616D01*
X134101151Y-120915733D01*
X134143441Y-120813638D01*
X134165000Y-120705254D01*
X134165000Y-120594746D01*
X134143441Y-120486362D01*
X134101151Y-120384267D01*
X134039757Y-120292384D01*
X133961616Y-120214243D01*
X133869733Y-120152849D01*
X133801069Y-120124407D01*
X133602084Y-119925422D01*
X133602079Y-119925416D01*
X130443087Y-116766425D01*
X130427080Y-116746920D01*
X130349270Y-116683064D01*
X130260497Y-116635614D01*
X130164173Y-116606394D01*
X130089099Y-116599000D01*
X130089096Y-116599000D01*
X130064000Y-116596528D01*
X130038904Y-116599000D01*
X128756299Y-116599000D01*
X128687638Y-116570559D01*
X128579254Y-116549000D01*
X128468746Y-116549000D01*
X128360362Y-116570559D01*
X128258267Y-116612849D01*
X128166384Y-116674243D01*
X128088243Y-116752384D01*
X128026849Y-116844267D01*
X127984559Y-116946362D01*
X127963000Y-117054746D01*
X127963000Y-117165254D01*
X127984559Y-117273638D01*
X128026849Y-117375733D01*
X128088243Y-117467616D01*
X128166384Y-117545757D01*
X128246068Y-117599000D01*
X127211663Y-117599000D01*
X126509593Y-116896931D01*
X126481151Y-116828267D01*
X126419757Y-116736384D01*
X126341616Y-116658243D01*
X126249733Y-116596849D01*
X126147638Y-116554559D01*
X126039254Y-116533000D01*
X125928746Y-116533000D01*
X125820362Y-116554559D01*
X125718267Y-116596849D01*
X125626384Y-116658243D01*
X125548243Y-116736384D01*
X125543992Y-116742746D01*
X125471268Y-116683064D01*
X125382495Y-116635614D01*
X125286171Y-116606394D01*
X125211097Y-116599000D01*
X125211094Y-116599000D01*
X125185998Y-116596528D01*
X125160902Y-116599000D01*
X121136299Y-116599000D01*
X121067638Y-116570559D01*
X120959254Y-116549000D01*
X120848746Y-116549000D01*
X120740362Y-116570559D01*
X120638267Y-116612849D01*
X120546384Y-116674243D01*
X120468243Y-116752384D01*
X120406849Y-116844267D01*
X120364559Y-116946362D01*
X120343000Y-117054746D01*
X116591000Y-117054746D01*
X116591000Y-112910727D01*
X119693000Y-112910727D01*
X119693000Y-113149273D01*
X119739538Y-113383236D01*
X119830825Y-113603624D01*
X119963354Y-113801968D01*
X120132032Y-113970646D01*
X120330376Y-114103175D01*
X120550764Y-114194462D01*
X120784727Y-114241000D01*
X121023273Y-114241000D01*
X121257236Y-114194462D01*
X121477624Y-114103175D01*
X121675968Y-113970646D01*
X121844646Y-113801968D01*
X121977175Y-113603624D01*
X122068462Y-113383236D01*
X122115000Y-113149273D01*
X122115000Y-112910727D01*
X122233000Y-112910727D01*
X122233000Y-113149273D01*
X122279538Y-113383236D01*
X122370825Y-113603624D01*
X122503354Y-113801968D01*
X122672032Y-113970646D01*
X122870376Y-114103175D01*
X123090764Y-114194462D01*
X123324727Y-114241000D01*
X123563273Y-114241000D01*
X123797236Y-114194462D01*
X123859860Y-114168523D01*
X124264918Y-114573581D01*
X124280921Y-114593081D01*
X124358731Y-114656937D01*
X124447504Y-114704387D01*
X124543828Y-114733607D01*
X124618902Y-114741001D01*
X124618904Y-114741001D01*
X124644001Y-114743473D01*
X124669098Y-114741001D01*
X129521403Y-114741001D01*
X129546499Y-114743473D01*
X129571595Y-114741001D01*
X129571598Y-114741001D01*
X129646672Y-114733607D01*
X129742996Y-114704387D01*
X129831769Y-114656937D01*
X129909579Y-114593081D01*
X129925586Y-114573576D01*
X131588435Y-112910727D01*
X135949000Y-112910727D01*
X135949000Y-113149273D01*
X135995538Y-113383236D01*
X136086825Y-113603624D01*
X136219354Y-113801968D01*
X136299001Y-113881615D01*
X136299000Y-114892704D01*
X136294834Y-114935000D01*
X136299000Y-114977295D01*
X136299000Y-114977297D01*
X136311458Y-115103785D01*
X136353558Y-115242569D01*
X136360691Y-115266084D01*
X136440641Y-115415660D01*
X136470254Y-115451743D01*
X136548235Y-115546765D01*
X136581096Y-115573733D01*
X137569001Y-116561638D01*
X137569001Y-117056677D01*
X137450518Y-117175160D01*
X137312517Y-117381693D01*
X137217460Y-117611180D01*
X137169000Y-117854802D01*
X137169000Y-118103198D01*
X137217460Y-118346820D01*
X137312517Y-118576307D01*
X137450518Y-118782840D01*
X137626160Y-118958482D01*
X137832693Y-119096483D01*
X138062180Y-119191540D01*
X138305802Y-119240000D01*
X138554198Y-119240000D01*
X138797820Y-119191540D01*
X139027307Y-119096483D01*
X139233840Y-118958482D01*
X139409482Y-118782840D01*
X139547483Y-118576307D01*
X139642540Y-118346820D01*
X139691000Y-118103198D01*
X139691000Y-117854802D01*
X139642540Y-117611180D01*
X139547483Y-117381693D01*
X139409482Y-117175160D01*
X139291000Y-117056678D01*
X139291000Y-116247294D01*
X139295166Y-116204999D01*
X139290067Y-116153233D01*
X139278542Y-116036214D01*
X139229309Y-115873915D01*
X139207036Y-115832246D01*
X139149359Y-115724339D01*
X139100472Y-115664771D01*
X139041765Y-115593235D01*
X139008904Y-115566267D01*
X138021000Y-114578363D01*
X138021000Y-113881614D01*
X138100646Y-113801968D01*
X138233175Y-113603624D01*
X138324462Y-113383236D01*
X138371000Y-113149273D01*
X138371000Y-112910727D01*
X138489000Y-112910727D01*
X138489000Y-113149273D01*
X138535538Y-113383236D01*
X138626825Y-113603624D01*
X138759354Y-113801968D01*
X138928032Y-113970646D01*
X139126376Y-114103175D01*
X139346764Y-114194462D01*
X139580727Y-114241000D01*
X139819273Y-114241000D01*
X140053236Y-114194462D01*
X140273624Y-114103175D01*
X140471968Y-113970646D01*
X140640646Y-113801968D01*
X140773175Y-113603624D01*
X140864462Y-113383236D01*
X140911000Y-113149273D01*
X140911000Y-112910727D01*
X141029000Y-112910727D01*
X141029000Y-113149273D01*
X141075538Y-113383236D01*
X141166825Y-113603624D01*
X141299354Y-113801968D01*
X141468032Y-113970646D01*
X141666376Y-114103175D01*
X141886764Y-114194462D01*
X142120727Y-114241000D01*
X142359273Y-114241000D01*
X142593236Y-114194462D01*
X142813624Y-114103175D01*
X143011968Y-113970646D01*
X143180646Y-113801968D01*
X143313175Y-113603624D01*
X143404462Y-113383236D01*
X143451000Y-113149273D01*
X143451000Y-112910727D01*
X143569000Y-112910727D01*
X143569000Y-113149273D01*
X143615538Y-113383236D01*
X143706825Y-113603624D01*
X143839354Y-113801968D01*
X144008032Y-113970646D01*
X144206376Y-114103175D01*
X144426764Y-114194462D01*
X144660727Y-114241000D01*
X144899273Y-114241000D01*
X145133236Y-114194462D01*
X145353624Y-114103175D01*
X145551968Y-113970646D01*
X145720646Y-113801968D01*
X145853175Y-113603624D01*
X145944462Y-113383236D01*
X145991000Y-113149273D01*
X145991000Y-112910727D01*
X146109000Y-112910727D01*
X146109000Y-113149273D01*
X146155538Y-113383236D01*
X146246825Y-113603624D01*
X146379354Y-113801968D01*
X146548032Y-113970646D01*
X146746376Y-114103175D01*
X146966764Y-114194462D01*
X147200727Y-114241000D01*
X147439273Y-114241000D01*
X147673236Y-114194462D01*
X147893624Y-114103175D01*
X148091968Y-113970646D01*
X148260646Y-113801968D01*
X148393175Y-113603624D01*
X148484462Y-113383236D01*
X148531000Y-113149273D01*
X148531000Y-112910727D01*
X148484462Y-112676764D01*
X148393175Y-112456376D01*
X148260646Y-112258032D01*
X148091968Y-112089354D01*
X147893624Y-111956825D01*
X147673236Y-111865538D01*
X147439273Y-111819000D01*
X147200727Y-111819000D01*
X146966764Y-111865538D01*
X146746376Y-111956825D01*
X146548032Y-112089354D01*
X146379354Y-112258032D01*
X146246825Y-112456376D01*
X146155538Y-112676764D01*
X146109000Y-112910727D01*
X145991000Y-112910727D01*
X145944462Y-112676764D01*
X145853175Y-112456376D01*
X145720646Y-112258032D01*
X145551968Y-112089354D01*
X145353624Y-111956825D01*
X145133236Y-111865538D01*
X144899273Y-111819000D01*
X144660727Y-111819000D01*
X144426764Y-111865538D01*
X144206376Y-111956825D01*
X144008032Y-112089354D01*
X143839354Y-112258032D01*
X143706825Y-112456376D01*
X143615538Y-112676764D01*
X143569000Y-112910727D01*
X143451000Y-112910727D01*
X143404462Y-112676764D01*
X143313175Y-112456376D01*
X143180646Y-112258032D01*
X143011968Y-112089354D01*
X142813624Y-111956825D01*
X142593236Y-111865538D01*
X142359273Y-111819000D01*
X142120727Y-111819000D01*
X141886764Y-111865538D01*
X141666376Y-111956825D01*
X141468032Y-112089354D01*
X141299354Y-112258032D01*
X141166825Y-112456376D01*
X141075538Y-112676764D01*
X141029000Y-112910727D01*
X140911000Y-112910727D01*
X140864462Y-112676764D01*
X140773175Y-112456376D01*
X140640646Y-112258032D01*
X140471968Y-112089354D01*
X140273624Y-111956825D01*
X140053236Y-111865538D01*
X139819273Y-111819000D01*
X139580727Y-111819000D01*
X139346764Y-111865538D01*
X139126376Y-111956825D01*
X138928032Y-112089354D01*
X138759354Y-112258032D01*
X138626825Y-112456376D01*
X138535538Y-112676764D01*
X138489000Y-112910727D01*
X138371000Y-112910727D01*
X138324462Y-112676764D01*
X138233175Y-112456376D01*
X138100646Y-112258032D01*
X137931968Y-112089354D01*
X137733624Y-111956825D01*
X137513236Y-111865538D01*
X137279273Y-111819000D01*
X137040727Y-111819000D01*
X136806764Y-111865538D01*
X136586376Y-111956825D01*
X136388032Y-112089354D01*
X136219354Y-112258032D01*
X136086825Y-112456376D01*
X135995538Y-112676764D01*
X135949000Y-112910727D01*
X131588435Y-112910727D01*
X131769070Y-112730093D01*
X131837733Y-112701651D01*
X131929616Y-112640257D01*
X132007757Y-112562116D01*
X132069151Y-112470233D01*
X132111441Y-112368138D01*
X132133000Y-112259754D01*
X132133000Y-112149246D01*
X132111441Y-112040862D01*
X132069151Y-111938767D01*
X132007757Y-111846884D01*
X131929616Y-111768743D01*
X131837733Y-111707349D01*
X131735638Y-111665059D01*
X131627254Y-111643500D01*
X131516746Y-111643500D01*
X131408362Y-111665059D01*
X131306267Y-111707349D01*
X131214384Y-111768743D01*
X131136243Y-111846884D01*
X131074849Y-111938767D01*
X131046407Y-112007430D01*
X129692897Y-113360941D01*
X129735000Y-113149273D01*
X129735000Y-112910727D01*
X129688462Y-112676764D01*
X129597175Y-112456376D01*
X129464646Y-112258032D01*
X129295968Y-112089354D01*
X129097624Y-111956825D01*
X128877236Y-111865538D01*
X128643273Y-111819000D01*
X128404727Y-111819000D01*
X128170764Y-111865538D01*
X127950376Y-111956825D01*
X127752032Y-112089354D01*
X127583354Y-112258032D01*
X127450825Y-112456376D01*
X127359538Y-112676764D01*
X127313000Y-112910727D01*
X127313000Y-113149273D01*
X127359538Y-113383236D01*
X127450825Y-113603624D01*
X127527917Y-113719001D01*
X126980083Y-113719001D01*
X127057175Y-113603624D01*
X127148462Y-113383236D01*
X127195000Y-113149273D01*
X127195000Y-112910727D01*
X127148462Y-112676764D01*
X127057175Y-112456376D01*
X126924646Y-112258032D01*
X126755968Y-112089354D01*
X126557624Y-111956825D01*
X126337236Y-111865538D01*
X126103273Y-111819000D01*
X125864727Y-111819000D01*
X125630764Y-111865538D01*
X125410376Y-111956825D01*
X125212032Y-112089354D01*
X125043354Y-112258032D01*
X124910825Y-112456376D01*
X124819538Y-112676764D01*
X124773000Y-112910727D01*
X124773000Y-113149273D01*
X124819538Y-113383236D01*
X124910825Y-113603624D01*
X124987917Y-113719001D01*
X124855664Y-113719001D01*
X124582523Y-113445860D01*
X124608462Y-113383236D01*
X124655000Y-113149273D01*
X124655000Y-112910727D01*
X124608462Y-112676764D01*
X124517175Y-112456376D01*
X124384646Y-112258032D01*
X124215968Y-112089354D01*
X124017624Y-111956825D01*
X123797236Y-111865538D01*
X123563273Y-111819000D01*
X123324727Y-111819000D01*
X123090764Y-111865538D01*
X122870376Y-111956825D01*
X122672032Y-112089354D01*
X122503354Y-112258032D01*
X122370825Y-112456376D01*
X122279538Y-112676764D01*
X122233000Y-112910727D01*
X122115000Y-112910727D01*
X122068462Y-112676764D01*
X121977175Y-112456376D01*
X121844646Y-112258032D01*
X121675968Y-112089354D01*
X121477624Y-111956825D01*
X121257236Y-111865538D01*
X121023273Y-111819000D01*
X120784727Y-111819000D01*
X120550764Y-111865538D01*
X120330376Y-111956825D01*
X120132032Y-112089354D01*
X119963354Y-112258032D01*
X119830825Y-112456376D01*
X119739538Y-112676764D01*
X119693000Y-112910727D01*
X116591000Y-112910727D01*
X116591000Y-109640000D01*
X119691254Y-109640000D01*
X119691254Y-111340000D01*
X119698224Y-111410768D01*
X119718866Y-111478817D01*
X119752388Y-111541531D01*
X119797500Y-111596500D01*
X119852469Y-111641612D01*
X119915183Y-111675134D01*
X119983232Y-111695776D01*
X120054000Y-111702746D01*
X121754000Y-111702746D01*
X121824768Y-111695776D01*
X121892817Y-111675134D01*
X121955531Y-111641612D01*
X122010500Y-111596500D01*
X122055612Y-111541531D01*
X122089134Y-111478817D01*
X122109776Y-111410768D01*
X122116746Y-111340000D01*
X122116746Y-109640000D01*
X122231254Y-109640000D01*
X122231254Y-111340000D01*
X122238224Y-111410768D01*
X122258866Y-111478817D01*
X122292388Y-111541531D01*
X122337500Y-111596500D01*
X122392469Y-111641612D01*
X122455183Y-111675134D01*
X122523232Y-111695776D01*
X122594000Y-111702746D01*
X124294000Y-111702746D01*
X124364768Y-111695776D01*
X124432817Y-111675134D01*
X124495531Y-111641612D01*
X124550500Y-111596500D01*
X124595612Y-111541531D01*
X124629134Y-111478817D01*
X124649776Y-111410768D01*
X124656746Y-111340000D01*
X124656746Y-109640000D01*
X124771254Y-109640000D01*
X124771254Y-111340000D01*
X124778224Y-111410768D01*
X124798866Y-111478817D01*
X124832388Y-111541531D01*
X124877500Y-111596500D01*
X124932469Y-111641612D01*
X124995183Y-111675134D01*
X125063232Y-111695776D01*
X125134000Y-111702746D01*
X126834000Y-111702746D01*
X126904768Y-111695776D01*
X126972817Y-111675134D01*
X127035531Y-111641612D01*
X127090500Y-111596500D01*
X127135612Y-111541531D01*
X127169134Y-111478817D01*
X127189776Y-111410768D01*
X127196746Y-111340000D01*
X127196746Y-109640000D01*
X127311254Y-109640000D01*
X127311254Y-111340000D01*
X127318224Y-111410768D01*
X127338866Y-111478817D01*
X127372388Y-111541531D01*
X127417500Y-111596500D01*
X127472469Y-111641612D01*
X127535183Y-111675134D01*
X127603232Y-111695776D01*
X127674000Y-111702746D01*
X129374000Y-111702746D01*
X129444768Y-111695776D01*
X129512817Y-111675134D01*
X129575531Y-111641612D01*
X129630500Y-111596500D01*
X129675612Y-111541531D01*
X129709134Y-111478817D01*
X129729776Y-111410768D01*
X129736746Y-111340000D01*
X129736746Y-109640000D01*
X129729776Y-109569232D01*
X129709134Y-109501183D01*
X129675612Y-109438469D01*
X129630500Y-109383500D01*
X129575531Y-109338388D01*
X129512817Y-109304866D01*
X129444768Y-109284224D01*
X129374000Y-109277254D01*
X127674000Y-109277254D01*
X127603232Y-109284224D01*
X127535183Y-109304866D01*
X127472469Y-109338388D01*
X127417500Y-109383500D01*
X127372388Y-109438469D01*
X127338866Y-109501183D01*
X127318224Y-109569232D01*
X127311254Y-109640000D01*
X127196746Y-109640000D01*
X127189776Y-109569232D01*
X127169134Y-109501183D01*
X127135612Y-109438469D01*
X127090500Y-109383500D01*
X127035531Y-109338388D01*
X126972817Y-109304866D01*
X126904768Y-109284224D01*
X126834000Y-109277254D01*
X125134000Y-109277254D01*
X125063232Y-109284224D01*
X124995183Y-109304866D01*
X124932469Y-109338388D01*
X124877500Y-109383500D01*
X124832388Y-109438469D01*
X124798866Y-109501183D01*
X124778224Y-109569232D01*
X124771254Y-109640000D01*
X124656746Y-109640000D01*
X124649776Y-109569232D01*
X124629134Y-109501183D01*
X124595612Y-109438469D01*
X124550500Y-109383500D01*
X124495531Y-109338388D01*
X124432817Y-109304866D01*
X124364768Y-109284224D01*
X124294000Y-109277254D01*
X122594000Y-109277254D01*
X122523232Y-109284224D01*
X122455183Y-109304866D01*
X122392469Y-109338388D01*
X122337500Y-109383500D01*
X122292388Y-109438469D01*
X122258866Y-109501183D01*
X122238224Y-109569232D01*
X122231254Y-109640000D01*
X122116746Y-109640000D01*
X122109776Y-109569232D01*
X122089134Y-109501183D01*
X122055612Y-109438469D01*
X122010500Y-109383500D01*
X121955531Y-109338388D01*
X121892817Y-109304866D01*
X121824768Y-109284224D01*
X121754000Y-109277254D01*
X120054000Y-109277254D01*
X119983232Y-109284224D01*
X119915183Y-109304866D01*
X119852469Y-109338388D01*
X119797500Y-109383500D01*
X119752388Y-109438469D01*
X119718866Y-109501183D01*
X119698224Y-109569232D01*
X119691254Y-109640000D01*
X116591000Y-109640000D01*
X116591000Y-108971000D01*
X186304000Y-108971000D01*
X186304001Y-111106045D01*
G37*
%TD.AperFunction*%
D19*
X142912693Y-122656483D02*
X142999000Y-122692233D01*
X142999000Y-123164903D01*
X142996528Y-123190000D01*
X142999000Y-123215096D01*
X142999000Y-123215098D01*
X143006394Y-123290172D01*
X143035614Y-123386496D01*
X143083064Y-123475270D01*
X143146920Y-123553080D01*
X143166425Y-123569087D01*
X144751337Y-125154000D01*
X144660727Y-125154000D01*
X144426764Y-125200538D01*
X144206376Y-125291825D01*
X144073663Y-125380501D01*
X142751000Y-124057838D01*
X142751000Y-122548443D01*
X142912693Y-122656483D01*
%TA.AperFunction,Conductor*%
D20*
G36*
X142912693Y-122656483D02*
G01*
X142999000Y-122692233D01*
X142999000Y-123164903D01*
X142996528Y-123190000D01*
X142999000Y-123215096D01*
X142999000Y-123215098D01*
X143006394Y-123290172D01*
X143035614Y-123386496D01*
X143083064Y-123475270D01*
X143146920Y-123553080D01*
X143166425Y-123569087D01*
X144751337Y-125154000D01*
X144660727Y-125154000D01*
X144426764Y-125200538D01*
X144206376Y-125291825D01*
X144073663Y-125380501D01*
X142751000Y-124057838D01*
X142751000Y-122548443D01*
X142912693Y-122656483D01*
G37*
%TD.AperFunction*%
%TD*%
M02*
