%TF.GenerationSoftware,KiCad,Pcbnew,(5.1.10)-1*%
%TF.CreationDate,2022-11-19T00:44:39-05:00*%
%TF.ProjectId,ColecoProgrammingAdapter,436f6c65-636f-4507-926f-6772616d6d69,1*%
%TF.SameCoordinates,Original*%
%TF.FileFunction,Legend,Top*%
%TF.FilePolarity,Positive*%
%FSLAX46Y46*%
G04 Gerber Fmt 4.6, Leading zero omitted, Abs format (unit mm)*
G04 Created by KiCad (PCBNEW (5.1.10)-1) date 2022-11-19 00:44:39*
%MOMM*%
%LPD*%
G01*
G04 APERTURE LIST*
%ADD10C,0.150000*%
%ADD11C,0.400000*%
%ADD12C,0.120000*%
G04 APERTURE END LIST*
D10*
X131849761Y-113926666D02*
X131897380Y-113783809D01*
X131897380Y-113545714D01*
X131849761Y-113450476D01*
X131802142Y-113402857D01*
X131706904Y-113355238D01*
X131611666Y-113355238D01*
X131516428Y-113402857D01*
X131468809Y-113450476D01*
X131421190Y-113545714D01*
X131373571Y-113736190D01*
X131325952Y-113831428D01*
X131278333Y-113879047D01*
X131183095Y-113926666D01*
X131087857Y-113926666D01*
X130992619Y-113879047D01*
X130945000Y-113831428D01*
X130897380Y-113736190D01*
X130897380Y-113498095D01*
X130945000Y-113355238D01*
X130754523Y-113640952D02*
X132040238Y-113640952D01*
X131373571Y-112926666D02*
X131373571Y-112593333D01*
X131897380Y-112450476D02*
X131897380Y-112926666D01*
X130897380Y-112926666D01*
X130897380Y-112450476D01*
X130897380Y-111831428D02*
X130897380Y-111736190D01*
X130945000Y-111640952D01*
X130992619Y-111593333D01*
X131087857Y-111545714D01*
X131278333Y-111498095D01*
X131516428Y-111498095D01*
X131706904Y-111545714D01*
X131802142Y-111593333D01*
X131849761Y-111640952D01*
X131897380Y-111736190D01*
X131897380Y-111831428D01*
X131849761Y-111926666D01*
X131802142Y-111974285D01*
X131706904Y-112021904D01*
X131516428Y-112069523D01*
X131278333Y-112069523D01*
X131087857Y-112021904D01*
X130992619Y-111974285D01*
X130945000Y-111926666D01*
X130897380Y-111831428D01*
X130897380Y-110879047D02*
X130897380Y-110783809D01*
X130945000Y-110688571D01*
X130992619Y-110640952D01*
X131087857Y-110593333D01*
X131278333Y-110545714D01*
X131516428Y-110545714D01*
X131706904Y-110593333D01*
X131802142Y-110640952D01*
X131849761Y-110688571D01*
X131897380Y-110783809D01*
X131897380Y-110879047D01*
X131849761Y-110974285D01*
X131802142Y-111021904D01*
X131706904Y-111069523D01*
X131516428Y-111117142D01*
X131278333Y-111117142D01*
X131087857Y-111069523D01*
X130992619Y-111021904D01*
X130945000Y-110974285D01*
X130897380Y-110879047D01*
X130897380Y-109926666D02*
X130897380Y-109831428D01*
X130945000Y-109736190D01*
X130992619Y-109688571D01*
X131087857Y-109640952D01*
X131278333Y-109593333D01*
X131516428Y-109593333D01*
X131706904Y-109640952D01*
X131802142Y-109688571D01*
X131849761Y-109736190D01*
X131897380Y-109831428D01*
X131897380Y-109926666D01*
X131849761Y-110021904D01*
X131802142Y-110069523D01*
X131706904Y-110117142D01*
X131516428Y-110164761D01*
X131278333Y-110164761D01*
X131087857Y-110117142D01*
X130992619Y-110069523D01*
X130945000Y-110021904D01*
X130897380Y-109926666D01*
X118514761Y-113950476D02*
X118562380Y-113807619D01*
X118562380Y-113569523D01*
X118514761Y-113474285D01*
X118467142Y-113426666D01*
X118371904Y-113379047D01*
X118276666Y-113379047D01*
X118181428Y-113426666D01*
X118133809Y-113474285D01*
X118086190Y-113569523D01*
X118038571Y-113760000D01*
X117990952Y-113855238D01*
X117943333Y-113902857D01*
X117848095Y-113950476D01*
X117752857Y-113950476D01*
X117657619Y-113902857D01*
X117610000Y-113855238D01*
X117562380Y-113760000D01*
X117562380Y-113521904D01*
X117610000Y-113379047D01*
X117419523Y-113664761D02*
X118705238Y-113664761D01*
X117990952Y-112807619D02*
X117943333Y-112902857D01*
X117895714Y-112950476D01*
X117800476Y-112998095D01*
X117752857Y-112998095D01*
X117657619Y-112950476D01*
X117610000Y-112902857D01*
X117562380Y-112807619D01*
X117562380Y-112617142D01*
X117610000Y-112521904D01*
X117657619Y-112474285D01*
X117752857Y-112426666D01*
X117800476Y-112426666D01*
X117895714Y-112474285D01*
X117943333Y-112521904D01*
X117990952Y-112617142D01*
X117990952Y-112807619D01*
X118038571Y-112902857D01*
X118086190Y-112950476D01*
X118181428Y-112998095D01*
X118371904Y-112998095D01*
X118467142Y-112950476D01*
X118514761Y-112902857D01*
X118562380Y-112807619D01*
X118562380Y-112617142D01*
X118514761Y-112521904D01*
X118467142Y-112474285D01*
X118371904Y-112426666D01*
X118181428Y-112426666D01*
X118086190Y-112474285D01*
X118038571Y-112521904D01*
X117990952Y-112617142D01*
X117562380Y-111807619D02*
X117562380Y-111712380D01*
X117610000Y-111617142D01*
X117657619Y-111569523D01*
X117752857Y-111521904D01*
X117943333Y-111474285D01*
X118181428Y-111474285D01*
X118371904Y-111521904D01*
X118467142Y-111569523D01*
X118514761Y-111617142D01*
X118562380Y-111712380D01*
X118562380Y-111807619D01*
X118514761Y-111902857D01*
X118467142Y-111950476D01*
X118371904Y-111998095D01*
X118181428Y-112045714D01*
X117943333Y-112045714D01*
X117752857Y-111998095D01*
X117657619Y-111950476D01*
X117610000Y-111902857D01*
X117562380Y-111807619D01*
X117562380Y-110855238D02*
X117562380Y-110760000D01*
X117610000Y-110664761D01*
X117657619Y-110617142D01*
X117752857Y-110569523D01*
X117943333Y-110521904D01*
X118181428Y-110521904D01*
X118371904Y-110569523D01*
X118467142Y-110617142D01*
X118514761Y-110664761D01*
X118562380Y-110760000D01*
X118562380Y-110855238D01*
X118514761Y-110950476D01*
X118467142Y-110998095D01*
X118371904Y-111045714D01*
X118181428Y-111093333D01*
X117943333Y-111093333D01*
X117752857Y-111045714D01*
X117657619Y-110998095D01*
X117610000Y-110950476D01*
X117562380Y-110855238D01*
X117562380Y-109902857D02*
X117562380Y-109807619D01*
X117610000Y-109712380D01*
X117657619Y-109664761D01*
X117752857Y-109617142D01*
X117943333Y-109569523D01*
X118181428Y-109569523D01*
X118371904Y-109617142D01*
X118467142Y-109664761D01*
X118514761Y-109712380D01*
X118562380Y-109807619D01*
X118562380Y-109902857D01*
X118514761Y-109998095D01*
X118467142Y-110045714D01*
X118371904Y-110093333D01*
X118181428Y-110140952D01*
X117943333Y-110140952D01*
X117752857Y-110093333D01*
X117657619Y-110045714D01*
X117610000Y-109998095D01*
X117562380Y-109902857D01*
X120785428Y-122087142D02*
X120737809Y-122134761D01*
X120594952Y-122182380D01*
X120499714Y-122182380D01*
X120356857Y-122134761D01*
X120261619Y-122039523D01*
X120214000Y-121944285D01*
X120166380Y-121753809D01*
X120166380Y-121610952D01*
X120214000Y-121420476D01*
X120261619Y-121325238D01*
X120356857Y-121230000D01*
X120499714Y-121182380D01*
X120594952Y-121182380D01*
X120737809Y-121230000D01*
X120785428Y-121277619D01*
X121356857Y-122182380D02*
X121261619Y-122134761D01*
X121214000Y-122087142D01*
X121166380Y-121991904D01*
X121166380Y-121706190D01*
X121214000Y-121610952D01*
X121261619Y-121563333D01*
X121356857Y-121515714D01*
X121499714Y-121515714D01*
X121594952Y-121563333D01*
X121642571Y-121610952D01*
X121690190Y-121706190D01*
X121690190Y-121991904D01*
X121642571Y-122087142D01*
X121594952Y-122134761D01*
X121499714Y-122182380D01*
X121356857Y-122182380D01*
X122261619Y-122182380D02*
X122166380Y-122134761D01*
X122118761Y-122039523D01*
X122118761Y-121182380D01*
X123023523Y-122134761D02*
X122928285Y-122182380D01*
X122737809Y-122182380D01*
X122642571Y-122134761D01*
X122594952Y-122039523D01*
X122594952Y-121658571D01*
X122642571Y-121563333D01*
X122737809Y-121515714D01*
X122928285Y-121515714D01*
X123023523Y-121563333D01*
X123071142Y-121658571D01*
X123071142Y-121753809D01*
X122594952Y-121849047D01*
X123928285Y-122134761D02*
X123833047Y-122182380D01*
X123642571Y-122182380D01*
X123547333Y-122134761D01*
X123499714Y-122087142D01*
X123452095Y-121991904D01*
X123452095Y-121706190D01*
X123499714Y-121610952D01*
X123547333Y-121563333D01*
X123642571Y-121515714D01*
X123833047Y-121515714D01*
X123928285Y-121563333D01*
X124499714Y-122182380D02*
X124404476Y-122134761D01*
X124356857Y-122087142D01*
X124309238Y-121991904D01*
X124309238Y-121706190D01*
X124356857Y-121610952D01*
X124404476Y-121563333D01*
X124499714Y-121515714D01*
X124642571Y-121515714D01*
X124737809Y-121563333D01*
X124785428Y-121610952D01*
X124833047Y-121706190D01*
X124833047Y-121991904D01*
X124785428Y-122087142D01*
X124737809Y-122134761D01*
X124642571Y-122182380D01*
X124499714Y-122182380D01*
X125118761Y-121182380D02*
X125452095Y-122182380D01*
X125785428Y-121182380D01*
X126118761Y-122182380D02*
X126118761Y-121515714D01*
X126118761Y-121182380D02*
X126071142Y-121230000D01*
X126118761Y-121277619D01*
X126166380Y-121230000D01*
X126118761Y-121182380D01*
X126118761Y-121277619D01*
X126547333Y-122134761D02*
X126642571Y-122182380D01*
X126833047Y-122182380D01*
X126928285Y-122134761D01*
X126975904Y-122039523D01*
X126975904Y-121991904D01*
X126928285Y-121896666D01*
X126833047Y-121849047D01*
X126690190Y-121849047D01*
X126594952Y-121801428D01*
X126547333Y-121706190D01*
X126547333Y-121658571D01*
X126594952Y-121563333D01*
X126690190Y-121515714D01*
X126833047Y-121515714D01*
X126928285Y-121563333D01*
X127404476Y-122182380D02*
X127404476Y-121515714D01*
X127404476Y-121182380D02*
X127356857Y-121230000D01*
X127404476Y-121277619D01*
X127452095Y-121230000D01*
X127404476Y-121182380D01*
X127404476Y-121277619D01*
X128023523Y-122182380D02*
X127928285Y-122134761D01*
X127880666Y-122087142D01*
X127833047Y-121991904D01*
X127833047Y-121706190D01*
X127880666Y-121610952D01*
X127928285Y-121563333D01*
X128023523Y-121515714D01*
X128166380Y-121515714D01*
X128261619Y-121563333D01*
X128309238Y-121610952D01*
X128356857Y-121706190D01*
X128356857Y-121991904D01*
X128309238Y-122087142D01*
X128261619Y-122134761D01*
X128166380Y-122182380D01*
X128023523Y-122182380D01*
X128785428Y-121515714D02*
X128785428Y-122182380D01*
X128785428Y-121610952D02*
X128833047Y-121563333D01*
X128928285Y-121515714D01*
X129071142Y-121515714D01*
X129166380Y-121563333D01*
X129214000Y-121658571D01*
X129214000Y-122182380D01*
X118523523Y-123784761D02*
X118666380Y-123832380D01*
X118904476Y-123832380D01*
X118999714Y-123784761D01*
X119047333Y-123737142D01*
X119094952Y-123641904D01*
X119094952Y-123546666D01*
X119047333Y-123451428D01*
X118999714Y-123403809D01*
X118904476Y-123356190D01*
X118714000Y-123308571D01*
X118618761Y-123260952D01*
X118571142Y-123213333D01*
X118523523Y-123118095D01*
X118523523Y-123022857D01*
X118571142Y-122927619D01*
X118618761Y-122880000D01*
X118714000Y-122832380D01*
X118952095Y-122832380D01*
X119094952Y-122880000D01*
X119475904Y-123784761D02*
X119618761Y-123832380D01*
X119856857Y-123832380D01*
X119952095Y-123784761D01*
X119999714Y-123737142D01*
X120047333Y-123641904D01*
X120047333Y-123546666D01*
X119999714Y-123451428D01*
X119952095Y-123403809D01*
X119856857Y-123356190D01*
X119666380Y-123308571D01*
X119571142Y-123260952D01*
X119523523Y-123213333D01*
X119475904Y-123118095D01*
X119475904Y-123022857D01*
X119523523Y-122927619D01*
X119571142Y-122880000D01*
X119666380Y-122832380D01*
X119904476Y-122832380D01*
X120047333Y-122880000D01*
X120333047Y-122832380D02*
X120904476Y-122832380D01*
X120618761Y-123832380D02*
X120618761Y-122832380D01*
X121142571Y-122832380D02*
X121761619Y-122832380D01*
X121428285Y-123213333D01*
X121571142Y-123213333D01*
X121666380Y-123260952D01*
X121714000Y-123308571D01*
X121761619Y-123403809D01*
X121761619Y-123641904D01*
X121714000Y-123737142D01*
X121666380Y-123784761D01*
X121571142Y-123832380D01*
X121285428Y-123832380D01*
X121190190Y-123784761D01*
X121142571Y-123737142D01*
X122237809Y-123832380D02*
X122428285Y-123832380D01*
X122523523Y-123784761D01*
X122571142Y-123737142D01*
X122666380Y-123594285D01*
X122714000Y-123403809D01*
X122714000Y-123022857D01*
X122666380Y-122927619D01*
X122618761Y-122880000D01*
X122523523Y-122832380D01*
X122333047Y-122832380D01*
X122237809Y-122880000D01*
X122190190Y-122927619D01*
X122142571Y-123022857D01*
X122142571Y-123260952D01*
X122190190Y-123356190D01*
X122237809Y-123403809D01*
X122333047Y-123451428D01*
X122523523Y-123451428D01*
X122618761Y-123403809D01*
X122666380Y-123356190D01*
X122714000Y-123260952D01*
X123094952Y-123784761D02*
X123237809Y-123832380D01*
X123475904Y-123832380D01*
X123571142Y-123784761D01*
X123618761Y-123737142D01*
X123666380Y-123641904D01*
X123666380Y-123546666D01*
X123618761Y-123451428D01*
X123571142Y-123403809D01*
X123475904Y-123356190D01*
X123285428Y-123308571D01*
X123190190Y-123260952D01*
X123142571Y-123213333D01*
X123094952Y-123118095D01*
X123094952Y-123022857D01*
X123142571Y-122927619D01*
X123190190Y-122880000D01*
X123285428Y-122832380D01*
X123523523Y-122832380D01*
X123666380Y-122880000D01*
X124428285Y-123308571D02*
X124094952Y-123308571D01*
X124094952Y-123832380D02*
X124094952Y-122832380D01*
X124571142Y-122832380D01*
X125666380Y-123546666D02*
X126142571Y-123546666D01*
X125571142Y-123832380D02*
X125904476Y-122832380D01*
X126237809Y-123832380D01*
X126999714Y-123832380D02*
X126999714Y-122832380D01*
X126999714Y-123784761D02*
X126904476Y-123832380D01*
X126714000Y-123832380D01*
X126618761Y-123784761D01*
X126571142Y-123737142D01*
X126523523Y-123641904D01*
X126523523Y-123356190D01*
X126571142Y-123260952D01*
X126618761Y-123213333D01*
X126714000Y-123165714D01*
X126904476Y-123165714D01*
X126999714Y-123213333D01*
X127904476Y-123832380D02*
X127904476Y-123308571D01*
X127856857Y-123213333D01*
X127761619Y-123165714D01*
X127571142Y-123165714D01*
X127475904Y-123213333D01*
X127904476Y-123784761D02*
X127809238Y-123832380D01*
X127571142Y-123832380D01*
X127475904Y-123784761D01*
X127428285Y-123689523D01*
X127428285Y-123594285D01*
X127475904Y-123499047D01*
X127571142Y-123451428D01*
X127809238Y-123451428D01*
X127904476Y-123403809D01*
X128380666Y-123165714D02*
X128380666Y-124165714D01*
X128380666Y-123213333D02*
X128475904Y-123165714D01*
X128666380Y-123165714D01*
X128761619Y-123213333D01*
X128809238Y-123260952D01*
X128856857Y-123356190D01*
X128856857Y-123641904D01*
X128809238Y-123737142D01*
X128761619Y-123784761D01*
X128666380Y-123832380D01*
X128475904Y-123832380D01*
X128380666Y-123784761D01*
X129142571Y-123165714D02*
X129523523Y-123165714D01*
X129285428Y-122832380D02*
X129285428Y-123689523D01*
X129333047Y-123784761D01*
X129428285Y-123832380D01*
X129523523Y-123832380D01*
X130237809Y-123784761D02*
X130142571Y-123832380D01*
X129952095Y-123832380D01*
X129856857Y-123784761D01*
X129809238Y-123689523D01*
X129809238Y-123308571D01*
X129856857Y-123213333D01*
X129952095Y-123165714D01*
X130142571Y-123165714D01*
X130237809Y-123213333D01*
X130285428Y-123308571D01*
X130285428Y-123403809D01*
X129809238Y-123499047D01*
X130714000Y-123832380D02*
X130714000Y-123165714D01*
X130714000Y-123356190D02*
X130761619Y-123260952D01*
X130809238Y-123213333D01*
X130904476Y-123165714D01*
X130999714Y-123165714D01*
X164257619Y-109545428D02*
X164590952Y-109545428D01*
X164590952Y-109021619D02*
X164590952Y-110021619D01*
X164114761Y-110021619D01*
X163162380Y-109021619D02*
X163495714Y-109497809D01*
X163733809Y-109021619D02*
X163733809Y-110021619D01*
X163352857Y-110021619D01*
X163257619Y-109974000D01*
X163210000Y-109926380D01*
X163162380Y-109831142D01*
X163162380Y-109688285D01*
X163210000Y-109593047D01*
X163257619Y-109545428D01*
X163352857Y-109497809D01*
X163733809Y-109497809D01*
X162543333Y-110021619D02*
X162352857Y-110021619D01*
X162257619Y-109974000D01*
X162162380Y-109878761D01*
X162114761Y-109688285D01*
X162114761Y-109354952D01*
X162162380Y-109164476D01*
X162257619Y-109069238D01*
X162352857Y-109021619D01*
X162543333Y-109021619D01*
X162638571Y-109069238D01*
X162733809Y-109164476D01*
X162781428Y-109354952D01*
X162781428Y-109688285D01*
X162733809Y-109878761D01*
X162638571Y-109974000D01*
X162543333Y-110021619D01*
X161686190Y-109021619D02*
X161686190Y-110021619D01*
X161114761Y-109021619D01*
X161114761Y-110021619D01*
X160781428Y-110021619D02*
X160210000Y-110021619D01*
X160495714Y-109021619D02*
X160495714Y-110021619D01*
X158543333Y-109116857D02*
X158590952Y-109069238D01*
X158733809Y-109021619D01*
X158829047Y-109021619D01*
X158971904Y-109069238D01*
X159067142Y-109164476D01*
X159114761Y-109259714D01*
X159162380Y-109450190D01*
X159162380Y-109593047D01*
X159114761Y-109783523D01*
X159067142Y-109878761D01*
X158971904Y-109974000D01*
X158829047Y-110021619D01*
X158733809Y-110021619D01*
X158590952Y-109974000D01*
X158543333Y-109926380D01*
X158162380Y-109307333D02*
X157686190Y-109307333D01*
X158257619Y-109021619D02*
X157924285Y-110021619D01*
X157590952Y-109021619D01*
X156686190Y-109021619D02*
X157019523Y-109497809D01*
X157257619Y-109021619D02*
X157257619Y-110021619D01*
X156876666Y-110021619D01*
X156781428Y-109974000D01*
X156733809Y-109926380D01*
X156686190Y-109831142D01*
X156686190Y-109688285D01*
X156733809Y-109593047D01*
X156781428Y-109545428D01*
X156876666Y-109497809D01*
X157257619Y-109497809D01*
X156400476Y-110021619D02*
X155829047Y-110021619D01*
X156114761Y-109021619D02*
X156114761Y-110021619D01*
X154924285Y-109021619D02*
X155257619Y-109497809D01*
X155495714Y-109021619D02*
X155495714Y-110021619D01*
X155114761Y-110021619D01*
X155019523Y-109974000D01*
X154971904Y-109926380D01*
X154924285Y-109831142D01*
X154924285Y-109688285D01*
X154971904Y-109593047D01*
X155019523Y-109545428D01*
X155114761Y-109497809D01*
X155495714Y-109497809D01*
X154495714Y-109021619D02*
X154495714Y-110021619D01*
X154019523Y-109021619D02*
X154019523Y-110021619D01*
X153781428Y-110021619D01*
X153638571Y-109974000D01*
X153543333Y-109878761D01*
X153495714Y-109783523D01*
X153448095Y-109593047D01*
X153448095Y-109450190D01*
X153495714Y-109259714D01*
X153543333Y-109164476D01*
X153638571Y-109069238D01*
X153781428Y-109021619D01*
X154019523Y-109021619D01*
X152495714Y-109974000D02*
X152590952Y-110021619D01*
X152733809Y-110021619D01*
X152876666Y-109974000D01*
X152971904Y-109878761D01*
X153019523Y-109783523D01*
X153067142Y-109593047D01*
X153067142Y-109450190D01*
X153019523Y-109259714D01*
X152971904Y-109164476D01*
X152876666Y-109069238D01*
X152733809Y-109021619D01*
X152638571Y-109021619D01*
X152495714Y-109069238D01*
X152448095Y-109116857D01*
X152448095Y-109450190D01*
X152638571Y-109450190D01*
X152019523Y-109545428D02*
X151686190Y-109545428D01*
X151543333Y-109021619D02*
X152019523Y-109021619D01*
X152019523Y-110021619D01*
X151543333Y-110021619D01*
X150352857Y-109021619D02*
X150352857Y-110021619D01*
X149971904Y-110021619D01*
X149876666Y-109974000D01*
X149829047Y-109926380D01*
X149781428Y-109831142D01*
X149781428Y-109688285D01*
X149829047Y-109593047D01*
X149876666Y-109545428D01*
X149971904Y-109497809D01*
X150352857Y-109497809D01*
X148781428Y-109116857D02*
X148829047Y-109069238D01*
X148971904Y-109021619D01*
X149067142Y-109021619D01*
X149210000Y-109069238D01*
X149305238Y-109164476D01*
X149352857Y-109259714D01*
X149400476Y-109450190D01*
X149400476Y-109593047D01*
X149352857Y-109783523D01*
X149305238Y-109878761D01*
X149210000Y-109974000D01*
X149067142Y-110021619D01*
X148971904Y-110021619D01*
X148829047Y-109974000D01*
X148781428Y-109926380D01*
X148019523Y-109545428D02*
X147876666Y-109497809D01*
X147829047Y-109450190D01*
X147781428Y-109354952D01*
X147781428Y-109212095D01*
X147829047Y-109116857D01*
X147876666Y-109069238D01*
X147971904Y-109021619D01*
X148352857Y-109021619D01*
X148352857Y-110021619D01*
X148019523Y-110021619D01*
X147924285Y-109974000D01*
X147876666Y-109926380D01*
X147829047Y-109831142D01*
X147829047Y-109735904D01*
X147876666Y-109640666D01*
X147924285Y-109593047D01*
X148019523Y-109545428D01*
X148352857Y-109545428D01*
D11*
X178495714Y-110950261D02*
X178400476Y-111045500D01*
X178210000Y-111140738D01*
X177733809Y-111140738D01*
X177543333Y-111045500D01*
X177448095Y-110950261D01*
X177352857Y-110759785D01*
X177352857Y-110569309D01*
X177448095Y-110283595D01*
X178590952Y-109140738D01*
X177352857Y-109140738D01*
X137067142Y-111140738D02*
X135829047Y-111140738D01*
X136495714Y-110378833D01*
X136210000Y-110378833D01*
X136019523Y-110283595D01*
X135924285Y-110188357D01*
X135829047Y-109997880D01*
X135829047Y-109521690D01*
X135924285Y-109331214D01*
X136019523Y-109235976D01*
X136210000Y-109140738D01*
X136781428Y-109140738D01*
X136971904Y-109235976D01*
X137067142Y-109331214D01*
X134590952Y-111140738D02*
X134400476Y-111140738D01*
X134210000Y-111045500D01*
X134114761Y-110950261D01*
X134019523Y-110759785D01*
X133924285Y-110378833D01*
X133924285Y-109902642D01*
X134019523Y-109521690D01*
X134114761Y-109331214D01*
X134210000Y-109235976D01*
X134400476Y-109140738D01*
X134590952Y-109140738D01*
X134781428Y-109235976D01*
X134876666Y-109331214D01*
X134971904Y-109521690D01*
X135067142Y-109902642D01*
X135067142Y-110378833D01*
X134971904Y-110759785D01*
X134876666Y-110950261D01*
X134781428Y-111045500D01*
X134590952Y-111140738D01*
D12*
X176403000Y-111887000D02*
X176403000Y-127508000D01*
X136017000Y-111887000D02*
X176403000Y-111887000D01*
X136017000Y-118999000D02*
X136017000Y-111887000D01*
X136017000Y-127508000D02*
X176403000Y-127508000D01*
X136017000Y-120523000D02*
X136017000Y-127508000D01*
X136017000Y-118999000D02*
G75*
G02*
X136017000Y-120523000I0J-762000D01*
G01*
%TO.C,X1*%
X133667500Y-123952000D02*
X133667500Y-115570000D01*
X178752500Y-123952000D02*
X133667500Y-123952000D01*
X178752500Y-115570000D02*
X133667500Y-115570000D01*
X178752500Y-123952000D02*
X178752500Y-115570000D01*
%TO.C,J2*%
X176590000Y-127695000D02*
X176590000Y-125035000D01*
X138430000Y-127695000D02*
X176590000Y-127695000D01*
X138430000Y-125035000D02*
X176590000Y-125035000D01*
X138430000Y-127695000D02*
X138430000Y-125035000D01*
X137160000Y-127695000D02*
X135830000Y-127695000D01*
X135830000Y-127695000D02*
X135830000Y-126365000D01*
%TO.C,J3*%
X176590000Y-111700000D02*
X176590000Y-113030000D01*
X175260000Y-111700000D02*
X176590000Y-111700000D01*
X173990000Y-111700000D02*
X173990000Y-114360000D01*
X173990000Y-114360000D02*
X135830000Y-114360000D01*
X173990000Y-111700000D02*
X135830000Y-111700000D01*
X135830000Y-111700000D02*
X135830000Y-114360000D01*
%TO.C,J1*%
X132140000Y-126365000D02*
X132140000Y-127695000D01*
X132140000Y-127695000D02*
X130810000Y-127695000D01*
X129540000Y-127695000D02*
X116780000Y-127695000D01*
X116780000Y-125035000D02*
X116780000Y-127695000D01*
X129540000Y-125035000D02*
X116780000Y-125035000D01*
X129540000Y-125035000D02*
X129540000Y-127695000D01*
%TO.C,J4*%
X119574000Y-109160000D02*
X120904000Y-109160000D01*
X119574000Y-110490000D02*
X119574000Y-109160000D01*
X119574000Y-111760000D02*
X122234000Y-111760000D01*
X122234000Y-111760000D02*
X122234000Y-114360000D01*
X119574000Y-111760000D02*
X119574000Y-114360000D01*
X119574000Y-114360000D02*
X122234000Y-114360000D01*
%TO.C,J5*%
X122114000Y-114360000D02*
X124774000Y-114360000D01*
X122114000Y-111760000D02*
X122114000Y-114360000D01*
X124774000Y-111760000D02*
X124774000Y-114360000D01*
X122114000Y-111760000D02*
X124774000Y-111760000D01*
X122114000Y-110490000D02*
X122114000Y-109160000D01*
X122114000Y-109160000D02*
X123444000Y-109160000D01*
%TO.C,J6*%
X124654000Y-109160000D02*
X125984000Y-109160000D01*
X124654000Y-110490000D02*
X124654000Y-109160000D01*
X124654000Y-111760000D02*
X127314000Y-111760000D01*
X127314000Y-111760000D02*
X127314000Y-114360000D01*
X124654000Y-111760000D02*
X124654000Y-114360000D01*
X124654000Y-114360000D02*
X127314000Y-114360000D01*
%TO.C,J7*%
X127194000Y-114360000D02*
X129854000Y-114360000D01*
X127194000Y-111760000D02*
X127194000Y-114360000D01*
X129854000Y-111760000D02*
X129854000Y-114360000D01*
X127194000Y-111760000D02*
X129854000Y-111760000D01*
X127194000Y-110490000D02*
X127194000Y-109160000D01*
X127194000Y-109160000D02*
X128524000Y-109160000D01*
%TO.C,J1*%
D10*
X133032380Y-126698333D02*
X133746666Y-126698333D01*
X133889523Y-126745952D01*
X133984761Y-126841190D01*
X134032380Y-126984047D01*
X134032380Y-127079285D01*
X134032380Y-125698333D02*
X134032380Y-126269761D01*
X134032380Y-125984047D02*
X133032380Y-125984047D01*
X133175238Y-126079285D01*
X133270476Y-126174523D01*
X133318095Y-126269761D01*
%TD*%
M02*
