M48
; DRILL file {KiCad (5.1.10)-1} date 11/16/22 00:45:27
; FORMAT={-:-/ absolute / inch / decimal}
; #@! TF.CreationDate,2022-11-16T00:45:27-05:00
; #@! TF.GenerationSoftware,Kicad,Pcbnew,(5.1.10)-1
; #@! TF.FileFunction,Plated,1,2,PTH
FMAT,2
INCH
T1C0.0138
T2C0.0157
T3C0.0315
T4C0.0394
%
G90
G05
T1
X3.22Y-5.4375
X3.23Y-5.3725
X3.2525Y-5.6675
X3.34Y-5.3725
X3.3725Y-5.26
X3.375Y-5.7
X3.3875Y-5.55
X3.4Y-3.5
X3.4Y-3.5775
X3.4425Y-5.7075
X3.4875Y-3.5525
X3.5Y-3.975
X3.54Y-5.725
X3.5725Y-3.7025
X3.625Y-5.07
X3.6375Y-5.725
X3.6425Y-3.3525
X3.65Y-5.0425
X3.66Y-3.48
X3.67Y-3.595
X3.675Y-4.55
X3.675Y-5.2475
X3.7Y-5.01
X3.725Y-4.355
X3.725Y-4.5325
X3.725Y-5.2425
X3.745Y-5.6675
X3.75Y-4.32
X3.75Y-5.01
X3.775Y-4.295
X3.775Y-4.515
X3.775Y-5.265
X3.785Y-2.96
X3.7875Y-4.175
X3.8Y-4.2725
X3.8Y-5.0125
X3.82Y-3.4575
X3.825Y-4.2425
X3.825Y-4.4975
X3.825Y-5.2875
X3.8275Y-5.5625
X3.85Y-2.96
X3.85Y-4.225
X3.85Y-5.03
X3.875Y-4.48
X3.875Y-5.305
X3.875Y-5.5811
X3.9Y-4.225
X3.9Y-5.0125
X3.925Y-4.555
X3.925Y-5.375
X3.9375Y-5.6925
X3.94Y-5.735
X3.95Y-2.96
X3.96Y-5.56
X3.9742Y-4.4833
X3.975Y-4.545
X3.975Y-5.59
X3.98Y-5.3125
X3.9825Y-4.445
X3.985Y-4.2275
X3.995Y-5.38
X4.0Y-4.63
X4.05Y-2.96
X4.055Y-4.64
X4.055Y-5.25
X4.06Y-5.6675
X4.065Y-4.495
X4.065Y-5.32
X4.07Y-4.295
X4.0725Y-5.12
X4.075Y-4.395
X4.0775Y-5.2175
X4.0875Y-5.4475
X4.1Y-3.5225
X4.11Y-4.93
X4.1325Y-5.6225
X4.135Y-5.5525
X4.1375Y-5.7125
X4.145Y-4.46
X4.145Y-5.025
X4.15Y-2.96
X4.17Y-5.025
X4.1725Y-4.56
X4.195Y-5.025
X4.1975Y-4.5375
X4.2175Y-5.5525
X4.22Y-5.025
X4.2225Y-4.515
X4.2325Y-3.4825
X4.245Y-5.025
X4.245Y-5.44
X4.2475Y-4.4625
X4.25Y-2.96
X4.27Y-5.025
X4.2725Y-4.41
X4.2975Y-4.3725
X4.32Y-5.0875
X4.3225Y-3.855
X4.3225Y-4.2775
X4.3225Y-4.6025
X4.3225Y-5.4325
X4.37Y-5.725
X4.38Y-4.26
X4.395Y-5.0825
X4.3975Y-4.285
X4.3975Y-4.4925
X4.3975Y-5.3225
X4.42Y-5.1025
X4.4225Y-4.2925
X4.455Y-5.715
X4.4725Y-5.02
X4.4725Y-5.555
X4.5225Y-4.5275
X4.5225Y-5.335
X4.5225Y-5.555
X4.525Y-5.1125
X4.5275Y-4.305
X4.5325Y-5.7025
X4.5475Y-4.5025
X4.5475Y-5.315
X4.5475Y-5.555
X4.56Y-4.445
X4.5925Y-5.3425
X4.605Y-5.605
X4.67Y-4.9675
T2
X3.13Y-2.83
X3.13Y-5.73
X3.2475Y-3.6975
X3.3075Y-5.0325
X3.4525Y-5.3275
X3.4531Y-5.2144
X3.555Y-5.0125
X3.785Y-3.135
X4.5Y-3.0125
X4.6725Y-2.83
T3
X3.85Y-2.9
X3.85Y-3.2
X3.9Y-3.4
X3.95Y-2.9
X3.95Y-3.2
X4.0Y-3.4
X4.05Y-2.9
X4.05Y-3.2
X4.1Y-3.4
X4.15Y-2.9
X4.15Y-3.2
X4.2Y-3.4
X4.25Y-2.9
X4.25Y-3.2
X4.3Y-3.4
X4.4Y-3.4
X4.5Y-3.4
T4
X3.575Y-3.0
X3.575Y-3.1
X3.575Y-3.2
X3.575Y-3.4
X3.575Y-3.5
X3.575Y-3.6
X3.575Y-3.8
X3.575Y-3.9
X3.575Y-4.0
X3.575Y-4.1
X3.575Y-4.2
X3.575Y-4.3
T0
M30
