%TF.GenerationSoftware,KiCad,Pcbnew,(5.1.10)-1*%
%TF.CreationDate,2022-11-16T00:45:25-05:00*%
%TF.ProjectId,Coleco-Card3,436f6c65-636f-42d4-9361-7264332e6b69,1*%
%TF.SameCoordinates,Original*%
%TF.FileFunction,Copper,L2,Bot*%
%TF.FilePolarity,Positive*%
%FSLAX46Y46*%
G04 Gerber Fmt 4.6, Leading zero omitted, Abs format (unit mm)*
G04 Created by KiCad (PCBNEW (5.1.10)-1) date 2022-11-16 00:45:25*
%MOMM*%
%LPD*%
G01*
G04 APERTURE LIST*
%TA.AperFunction,EtchedComponent*%
%ADD10C,0.100000*%
%TD*%
%TA.AperFunction,EtchedComponent*%
%ADD11C,0.500000*%
%TD*%
%TA.AperFunction,ConnectorPad*%
%ADD12R,1.750000X7.000000*%
%TD*%
%TA.AperFunction,ComponentPad*%
%ADD13R,1.700000X1.700000*%
%TD*%
%TA.AperFunction,ComponentPad*%
%ADD14O,1.700000X1.700000*%
%TD*%
%TA.AperFunction,SMDPad,CuDef*%
%ADD15R,1.000000X1.500000*%
%TD*%
%TA.AperFunction,ComponentPad*%
%ADD16R,1.600000X1.600000*%
%TD*%
%TA.AperFunction,ComponentPad*%
%ADD17O,1.600000X1.600000*%
%TD*%
%TA.AperFunction,SMDPad,CuDef*%
%ADD18C,0.100000*%
%TD*%
%TA.AperFunction,ViaPad*%
%ADD19C,0.400000*%
%TD*%
%TA.AperFunction,ViaPad*%
%ADD20C,0.800000*%
%TD*%
%TA.AperFunction,Conductor*%
%ADD21C,0.400000*%
%TD*%
%TA.AperFunction,Conductor*%
%ADD22C,1.500000*%
%TD*%
%TA.AperFunction,Conductor*%
%ADD23C,0.600000*%
%TD*%
%TA.AperFunction,Conductor*%
%ADD24C,0.254000*%
%TD*%
%TA.AperFunction,Conductor*%
%ADD25C,0.100000*%
%TD*%
G04 APERTURE END LIST*
D10*
%TO.C,X1*%
G36*
X117678201Y-153469201D02*
G01*
X118376701Y-153469201D01*
X118821201Y-153215201D01*
X119075201Y-152770701D01*
X119075201Y-152516701D01*
X119075201Y-136387701D01*
X117678201Y-136387701D01*
X117678201Y-153469201D01*
G37*
X117678201Y-153469201D02*
X118376701Y-153469201D01*
X118821201Y-153215201D01*
X119075201Y-152770701D01*
X119075201Y-152516701D01*
X119075201Y-136387701D01*
X117678201Y-136387701D01*
X117678201Y-153469201D01*
D11*
X117068601Y-146801701D02*
G75*
G03*
X117894101Y-145976201I0J825500D01*
G01*
%TD*%
D12*
%TO.P,X1,15*%
%TO.N,/A3*%
X99072701Y-150040201D03*
%TO.P,X1,19*%
%TO.N,/A13*%
X104152701Y-150040201D03*
%TO.P,X1,13*%
%TO.N,N/C*%
X96532701Y-150040201D03*
%TO.P,X1,17*%
%TO.N,/A4*%
X101612701Y-150040201D03*
%TO.P,X1,11*%
%TO.N,/A2*%
X93992701Y-150040201D03*
%TO.P,X1,1*%
%TO.N,/D2*%
X81292701Y-150040201D03*
%TO.P,X1,29*%
%TO.N,GND*%
X116852701Y-150040201D03*
%TO.P,X1,25*%
%TO.N,/A7*%
X111772701Y-150040201D03*
%TO.P,X1,27*%
%TO.N,/~FCE3*%
X114312701Y-150040201D03*
%TO.P,X1,23*%
%TO.N,/A6*%
X109232701Y-150040201D03*
%TO.P,X1,21*%
%TO.N,/A5*%
X106692701Y-150040201D03*
%TO.P,X1,5*%
%TO.N,/D0*%
X86372701Y-150040201D03*
%TO.P,X1,3*%
%TO.N,/D1*%
X83832701Y-150040201D03*
%TO.P,X1,7*%
%TO.N,/A0*%
X88912701Y-150040201D03*
%TO.P,X1,9*%
%TO.N,/A1*%
X91452701Y-150040201D03*
%TD*%
D13*
%TO.P,J1,1*%
%TO.N,/A14*%
X90805000Y-81280000D03*
D14*
%TO.P,J1,2*%
%TO.N,/XA14*%
X90805000Y-78740000D03*
%TO.P,J1,3*%
%TO.N,/SA14*%
X90805000Y-76200000D03*
%TD*%
D13*
%TO.P,J2,1*%
%TO.N,/~POE*%
X90805000Y-91440000D03*
D14*
%TO.P,J2,2*%
%TO.N,/~FOE*%
X90805000Y-88900000D03*
%TO.P,J2,3*%
%TO.N,GND*%
X90805000Y-86360000D03*
%TD*%
D15*
%TO.P,JP6,1*%
%TO.N,/~FCE01*%
X103505000Y-132080000D03*
%TO.P,JP6,2*%
%TO.N,/~CE0*%
X102205000Y-132080000D03*
%TD*%
%TO.P,JP7,1*%
%TO.N,/~FCE23*%
X103505000Y-134620000D03*
%TO.P,JP7,2*%
%TO.N,/~CE0*%
X102205000Y-134620000D03*
%TD*%
%TO.P,JP8,2*%
%TO.N,/~CE0*%
X102205000Y-129540000D03*
%TO.P,JP8,1*%
%TO.N,/~FCEX*%
X103505000Y-129540000D03*
%TD*%
%TO.P,JP14,1*%
%TO.N,/~FCE01*%
X103505000Y-111125000D03*
%TO.P,JP14,2*%
%TO.N,/~CE1*%
X102205000Y-111125000D03*
%TD*%
%TO.P,JP15,2*%
%TO.N,/~CE1*%
X102205000Y-113665000D03*
%TO.P,JP15,1*%
%TO.N,/~FCE23*%
X103505000Y-113665000D03*
%TD*%
%TO.P,JP16,1*%
%TO.N,/~FCEX*%
X103505000Y-108585000D03*
%TO.P,JP16,2*%
%TO.N,/~CE1*%
X102205000Y-108585000D03*
%TD*%
D16*
%TO.P,RN1,1*%
%TO.N,+5V*%
X114300000Y-86360000D03*
D17*
%TO.P,RN1,2*%
%TO.N,/SA14*%
X111760000Y-86360000D03*
%TO.P,RN1,3*%
%TO.N,/SA15*%
X109220000Y-86360000D03*
%TO.P,RN1,4*%
%TO.N,/SA16*%
X106680000Y-86360000D03*
%TO.P,RN1,5*%
%TO.N,/SA17*%
X104140000Y-86360000D03*
%TO.P,RN1,6*%
%TO.N,/SA18*%
X101600000Y-86360000D03*
%TO.P,RN1,7*%
%TO.N,/~RWE*%
X99060000Y-86360000D03*
%TD*%
D16*
%TO.P,SW2,1*%
%TO.N,/SA14*%
X107950000Y-73660000D03*
D17*
%TO.P,SW2,6*%
%TO.N,GND*%
X97790000Y-81280000D03*
%TO.P,SW2,2*%
%TO.N,/SA15*%
X105410000Y-73660000D03*
%TO.P,SW2,7*%
%TO.N,GND*%
X100330000Y-81280000D03*
%TO.P,SW2,3*%
%TO.N,/SA16*%
X102870000Y-73660000D03*
%TO.P,SW2,8*%
%TO.N,GND*%
X102870000Y-81280000D03*
%TO.P,SW2,4*%
%TO.N,/SA17*%
X100330000Y-73660000D03*
%TO.P,SW2,9*%
%TO.N,GND*%
X105410000Y-81280000D03*
%TO.P,SW2,5*%
%TO.N,/SA18*%
X97790000Y-73660000D03*
%TO.P,SW2,10*%
%TO.N,GND*%
X107950000Y-81280000D03*
%TD*%
D13*
%TO.P,J5,1*%
%TO.N,/SA15*%
X90805000Y-109220000D03*
D14*
%TO.P,J5,2*%
%TO.N,/SA16*%
X90805000Y-106680000D03*
%TO.P,J5,3*%
%TO.N,/SA17*%
X90805000Y-104140000D03*
%TO.P,J5,4*%
%TO.N,/SA18*%
X90805000Y-101600000D03*
%TO.P,J5,5*%
%TO.N,/~POE*%
X90805000Y-99060000D03*
%TO.P,J5,6*%
%TO.N,/~RWE*%
X90805000Y-96520000D03*
%TD*%
%TA.AperFunction,SMDPad,CuDef*%
D18*
%TO.P,JP1,3*%
%TO.N,/SA14*%
G36*
X86360000Y-77740000D02*
G01*
X85610000Y-77240000D01*
X85610000Y-76240000D01*
X87110000Y-76240000D01*
X87110000Y-77240000D01*
X86360000Y-77740000D01*
G37*
%TD.AperFunction*%
%TA.AperFunction,SMDPad,CuDef*%
%TO.P,JP1,2*%
%TO.N,/XA14*%
G36*
X86360000Y-78040000D02*
G01*
X87110000Y-77540000D01*
X87110000Y-79940000D01*
X86360000Y-79440000D01*
X85610000Y-79940000D01*
X85610000Y-77540000D01*
X86360000Y-78040000D01*
G37*
%TD.AperFunction*%
%TA.AperFunction,SMDPad,CuDef*%
%TO.P,JP1,1*%
%TO.N,/A14*%
G36*
X86360000Y-79740000D02*
G01*
X87110000Y-80240000D01*
X87110000Y-81240000D01*
X85610000Y-81240000D01*
X85610000Y-80240000D01*
X86360000Y-79740000D01*
G37*
%TD.AperFunction*%
%TD*%
%TA.AperFunction,SMDPad,CuDef*%
%TO.P,JP2,1*%
%TO.N,/~POE*%
G36*
X86360000Y-89900000D02*
G01*
X87110000Y-90400000D01*
X87110000Y-91400000D01*
X85610000Y-91400000D01*
X85610000Y-90400000D01*
X86360000Y-89900000D01*
G37*
%TD.AperFunction*%
%TA.AperFunction,SMDPad,CuDef*%
%TO.P,JP2,2*%
%TO.N,/~FOE*%
G36*
X86360000Y-88200000D02*
G01*
X87110000Y-87700000D01*
X87110000Y-90100000D01*
X86360000Y-89600000D01*
X85610000Y-90100000D01*
X85610000Y-87700000D01*
X86360000Y-88200000D01*
G37*
%TD.AperFunction*%
%TA.AperFunction,SMDPad,CuDef*%
%TO.P,JP2,3*%
%TO.N,GND*%
G36*
X86360000Y-87900000D02*
G01*
X85610000Y-87400000D01*
X85610000Y-86400000D01*
X87110000Y-86400000D01*
X87110000Y-87400000D01*
X86360000Y-87900000D01*
G37*
%TD.AperFunction*%
%TD*%
D19*
%TO.N,/~CE0*%
X101092000Y-134937500D03*
%TO.N,/~FCEX*%
X103441500Y-130048000D03*
X103378000Y-109093000D03*
%TO.N,/~FCE23*%
X103251000Y-135128000D03*
X103251000Y-114173000D03*
%TO.N,/~FCE01*%
X103568500Y-132524500D03*
X103505000Y-111633000D03*
%TO.N,/~FCE3*%
X115506500Y-141097000D03*
X84836000Y-136461500D03*
X82042000Y-136461500D03*
%TO.N,/~CE1*%
X100945500Y-113875000D03*
%TO.N,/SA15*%
X109156500Y-111061500D03*
X108458000Y-127635000D03*
%TO.N,/SA16*%
X108521500Y-112014000D03*
X107823000Y-127635000D03*
%TO.N,/SA17*%
X105918000Y-127635000D03*
X104140000Y-89471500D03*
X106616500Y-115252500D03*
%TO.N,/SA18*%
X107886500Y-113347500D03*
X107188000Y-127635000D03*
%TO.N,/~POE*%
X86360000Y-90868500D03*
%TO.N,/~RWE*%
X107251500Y-114681000D03*
X106553000Y-127635000D03*
%TO.N,/A14*%
X105092500Y-145097500D03*
X92519500Y-85153500D03*
%TO.N,/XA14*%
X105283000Y-127635000D03*
X97028000Y-87820500D03*
X105981500Y-115824000D03*
%TO.N,/~FOE*%
X86360000Y-88900000D03*
X93218000Y-91313000D03*
X100965000Y-115443000D03*
D20*
%TO.N,GND*%
X84010500Y-127825500D03*
D19*
X116649500Y-135699500D03*
D20*
X87708500Y-132446000D03*
X87693500Y-135318500D03*
X90297000Y-127317500D03*
D19*
X81788000Y-138112500D03*
X86042500Y-140970000D03*
X82613500Y-143954500D03*
X107124500Y-141033500D03*
X105029000Y-141033500D03*
X104965500Y-142811500D03*
X103124000Y-143954500D03*
X100076000Y-145669000D03*
X101473000Y-136652000D03*
X90741500Y-94043500D03*
X97790000Y-75184000D03*
X107950000Y-75184000D03*
X105410000Y-75184000D03*
X102870000Y-75184000D03*
X100330000Y-75184000D03*
X96139000Y-75184000D03*
D20*
X96139000Y-79629000D03*
D19*
X100584000Y-141224000D03*
X107823000Y-138176000D03*
X102997000Y-117856000D03*
X101600000Y-117602000D03*
X118618000Y-126174500D03*
X115824000Y-112903000D03*
X104394000Y-125222000D03*
X105283000Y-113284000D03*
X101219000Y-107378500D03*
X101155500Y-112903000D03*
X85661500Y-133604000D03*
X96202500Y-106045000D03*
X95123000Y-143954500D03*
X107505500Y-88455500D03*
X109791500Y-97917000D03*
X88900000Y-100965000D03*
X92964000Y-88392000D03*
X88582500Y-90233500D03*
X110998000Y-145415000D03*
X115125500Y-144843500D03*
X116967000Y-142367000D03*
X113157000Y-145161000D03*
X103822500Y-138366500D03*
X97218500Y-141287500D03*
D20*
X79502000Y-71882000D03*
X118681500Y-71882000D03*
X79502000Y-145542000D03*
D19*
X102997000Y-133350000D03*
D20*
%TO.N,+5V*%
X114300000Y-76517500D03*
X82486500Y-93916500D03*
D19*
%TO.N,/A10*%
X100012500Y-144589500D03*
X99695000Y-136525000D03*
X99695000Y-115697000D03*
%TO.N,/D7*%
X98425000Y-134747000D03*
X98425000Y-113792000D03*
X98425000Y-141760510D03*
%TO.N,/D6*%
X97155000Y-134302500D03*
X92392500Y-145415000D03*
X97155000Y-114236500D03*
%TO.N,/D5*%
X95885000Y-133731000D03*
X89916000Y-145415000D03*
X95885000Y-114681000D03*
%TO.N,/D4*%
X94615000Y-133159500D03*
X87439500Y-144970500D03*
X94615000Y-115125500D03*
%TO.N,/D3*%
X93345000Y-133286500D03*
X85725000Y-144780000D03*
X93345000Y-115570000D03*
%TO.N,/D2*%
X92075000Y-128778000D03*
X94615000Y-110617000D03*
%TO.N,/D1*%
X92710000Y-128079500D03*
X95250000Y-109728000D03*
%TO.N,/D0*%
X93980000Y-127254000D03*
X95885000Y-109093000D03*
%TO.N,/A0*%
X95250000Y-127254000D03*
X96520000Y-108521500D03*
%TO.N,/A1*%
X96520000Y-127317500D03*
X97155000Y-107759500D03*
%TO.N,/A2*%
X97790000Y-127762000D03*
X97790000Y-107315000D03*
%TO.N,/A3*%
X99060000Y-127317500D03*
X99060000Y-107315000D03*
%TO.N,/A4*%
X109728000Y-129222500D03*
X109791500Y-108648500D03*
%TO.N,/A5*%
X111633000Y-129095500D03*
X111252000Y-108204000D03*
%TO.N,/A6*%
X112268000Y-129603500D03*
X111696500Y-108839000D03*
%TO.N,/A7*%
X114935000Y-129857500D03*
X114998500Y-109347000D03*
%TO.N,/A12*%
X113601500Y-141097000D03*
X113601500Y-127508000D03*
X112331500Y-109029500D03*
%TO.N,/A13*%
X111696500Y-135191500D03*
X111696500Y-114109500D03*
%TO.N,/A8*%
X115506500Y-135001000D03*
X115506500Y-114363500D03*
%TO.N,/A9*%
X114871500Y-141097000D03*
X114871500Y-135509000D03*
X114871500Y-114998500D03*
%TO.N,/A11*%
X109791500Y-137985500D03*
X100965000Y-141986000D03*
X109791500Y-116903500D03*
%TD*%
D21*
%TO.N,/~CE0*%
X102205000Y-129540000D02*
X102205000Y-134620000D01*
X102205000Y-134620000D02*
X102171500Y-134620000D01*
X102171500Y-134620000D02*
X101854000Y-134937500D01*
X101854000Y-134937500D02*
X101092000Y-134937500D01*
X101092000Y-134937500D02*
X101092000Y-134937500D01*
%TO.N,/~FCE3*%
X114312701Y-150040201D02*
X114312701Y-143687799D01*
X114312701Y-143687799D02*
X115506500Y-142494000D01*
X115506500Y-142494000D02*
X115506500Y-141097000D01*
X115506500Y-141097000D02*
X115506500Y-141097000D01*
X84836000Y-136461500D02*
X82042000Y-136461500D01*
X82042000Y-136461500D02*
X82042000Y-136461500D01*
%TO.N,/~CE1*%
X101995000Y-113875000D02*
X102205000Y-113665000D01*
X100945500Y-113875000D02*
X101995000Y-113875000D01*
X102205000Y-113665000D02*
X102205000Y-108585000D01*
%TO.N,/SA15*%
X108458000Y-126111000D02*
X109156500Y-125412500D01*
X109156500Y-125412500D02*
X109156500Y-117729000D01*
X109156500Y-117729000D02*
X109156500Y-117729000D01*
X109156500Y-117729000D02*
X109156500Y-109220000D01*
X109156500Y-109220000D02*
X109156500Y-109220000D01*
X109220000Y-89344500D02*
X109220000Y-86360000D01*
X109156500Y-89408000D02*
X109220000Y-89344500D01*
X109156500Y-109220000D02*
X109156500Y-89408000D01*
X108458000Y-127635000D02*
X108458000Y-126111000D01*
%TO.N,/SA16*%
X108521500Y-88201500D02*
X106680000Y-86360000D01*
X108521500Y-125095000D02*
X108521500Y-88201500D01*
X107823000Y-125793500D02*
X108521500Y-125095000D01*
X107823000Y-127635000D02*
X107823000Y-125793500D01*
%TO.N,/SA17*%
X90805000Y-104140000D02*
X87884000Y-101219000D01*
X87884000Y-101219000D02*
X87884000Y-89471500D01*
X87884000Y-89471500D02*
X89725500Y-87630000D01*
X89725500Y-87630000D02*
X93916500Y-87630000D01*
X93916500Y-87630000D02*
X97028000Y-84518500D01*
X102298500Y-84518500D02*
X104140000Y-86360000D01*
X97028000Y-84518500D02*
X102298500Y-84518500D01*
X105918000Y-125031500D02*
X106616500Y-124333000D01*
X106616500Y-124333000D02*
X106616500Y-117856000D01*
X106616500Y-117856000D02*
X106616500Y-117729000D01*
X106616500Y-117729000D02*
X106616500Y-104457500D01*
X106616500Y-104457500D02*
X106616500Y-104140000D01*
X106616500Y-104140000D02*
X106616500Y-104140000D01*
X105918000Y-127635000D02*
X105918000Y-125031500D01*
X106616500Y-104140000D02*
X106616500Y-104076500D01*
X106616500Y-104076500D02*
X106616500Y-90678000D01*
X106616500Y-90678000D02*
X105410000Y-89471500D01*
X105410000Y-89471500D02*
X104140000Y-89471500D01*
X104140000Y-89471500D02*
X104140000Y-89471500D01*
%TO.N,/SA18*%
X90805000Y-101600000D02*
X88519000Y-99314000D01*
X89674997Y-90150001D02*
X92285499Y-90150001D01*
X88519000Y-91305998D02*
X89674997Y-90150001D01*
X88519000Y-99314000D02*
X88519000Y-91305998D01*
X100399999Y-85159999D02*
X101600000Y-86360000D01*
X97275501Y-85159999D02*
X100399999Y-85159999D01*
X92285499Y-90150001D02*
X97275501Y-85159999D01*
X107886500Y-101600000D02*
X107886500Y-101600000D01*
X103441500Y-88201500D02*
X101600000Y-86360000D01*
X105981500Y-88201500D02*
X103441500Y-88201500D01*
X107886500Y-90106500D02*
X105981500Y-88201500D01*
X107886500Y-124841000D02*
X107886500Y-90106500D01*
X107188000Y-125539500D02*
X107886500Y-124841000D01*
X107188000Y-127635000D02*
X107188000Y-125539500D01*
%TO.N,/~POE*%
X90805000Y-99060000D02*
X89217500Y-97472500D01*
X89217500Y-93027500D02*
X90805000Y-91440000D01*
X89217500Y-97472500D02*
X89217500Y-93027500D01*
%TO.N,/~RWE*%
X97155000Y-86360000D02*
X99060000Y-86360000D01*
X92075000Y-91440000D02*
X97155000Y-86360000D01*
X92075000Y-95250000D02*
X92075000Y-91440000D01*
X90805000Y-96520000D02*
X92075000Y-95250000D01*
X101536500Y-88836500D02*
X99060000Y-86360000D01*
X105727500Y-88836500D02*
X101536500Y-88836500D01*
X107251500Y-90360500D02*
X105727500Y-88836500D01*
X107251500Y-124587000D02*
X107251500Y-90360500D01*
X106553000Y-125285500D02*
X107251500Y-124587000D01*
X106553000Y-127635000D02*
X106553000Y-125285500D01*
%TO.N,/A14*%
X88805000Y-81280000D02*
X88265000Y-80740000D01*
X90805000Y-81280000D02*
X88805000Y-81280000D01*
X88265000Y-80740000D02*
X86360000Y-80740000D01*
X92519500Y-85153500D02*
X92519500Y-85153500D01*
X93789500Y-83883500D02*
X92519500Y-85153500D01*
X108519502Y-83883500D02*
X93789500Y-83883500D01*
X105092500Y-145097500D02*
X106553000Y-143637000D01*
X106553000Y-143637000D02*
X107823000Y-143637000D01*
X111061500Y-126238000D02*
X111061500Y-115062000D01*
X107823000Y-143637000D02*
X111061500Y-140398500D01*
X111061500Y-140398500D02*
X111061500Y-131087043D01*
X110490000Y-88138000D02*
X110490000Y-85853998D01*
X111061500Y-131087043D02*
X110363000Y-130388543D01*
X110363000Y-130388543D02*
X110363000Y-126936500D01*
X110363000Y-126936500D02*
X111061500Y-126238000D01*
X111061500Y-115062000D02*
X110426500Y-114427000D01*
X110426500Y-114427000D02*
X110426500Y-88201500D01*
X110426500Y-88201500D02*
X110490000Y-88138000D01*
X110490000Y-85853998D02*
X108519502Y-83883500D01*
%TO.N,/XA14*%
X105283000Y-124777500D02*
X105981500Y-124079000D01*
X105981500Y-124079000D02*
X105981500Y-118237000D01*
X105981500Y-118237000D02*
X105981500Y-118173500D01*
X105981500Y-118237000D02*
X105981500Y-100203000D01*
X105283000Y-127635000D02*
X105283000Y-124777500D01*
X90805000Y-78740000D02*
X88265000Y-78740000D01*
X88265000Y-78740000D02*
X86360000Y-78740000D01*
X105981500Y-100203000D02*
X105981500Y-91313000D01*
X105981500Y-91313000D02*
X104902000Y-90233500D01*
X104902000Y-90233500D02*
X101981000Y-90233500D01*
X101981000Y-90233500D02*
X99568000Y-87820500D01*
X99568000Y-87820500D02*
X97028000Y-87820500D01*
X97028000Y-87820500D02*
X97028000Y-87820500D01*
%TO.N,/SA14*%
X88805000Y-76200000D02*
X88265000Y-76740000D01*
X90805000Y-76200000D02*
X88805000Y-76200000D01*
X88265000Y-76740000D02*
X86360000Y-76740000D01*
%TO.N,/~FOE*%
X93218000Y-93662500D02*
X93218000Y-95313500D01*
X93218000Y-106426000D02*
X93218000Y-93662500D01*
X93218000Y-93662500D02*
X93218000Y-91313000D01*
X93218000Y-95313500D02*
X100330000Y-102425500D01*
X100330000Y-102425500D02*
X100330000Y-114808000D01*
X100330000Y-114808000D02*
X100965000Y-115443000D01*
X100965000Y-115443000D02*
X100965000Y-115443000D01*
%TO.N,GND*%
X116852701Y-150040201D02*
X116852701Y-148323299D01*
X118552925Y-146623075D02*
X118552925Y-137098075D01*
X116852701Y-148323299D02*
X118552925Y-146623075D01*
X97790000Y-81280000D02*
X107950000Y-81280000D01*
D22*
X117411500Y-134747000D02*
X118364000Y-135699500D01*
X118364000Y-135699500D02*
X118364000Y-137096500D01*
D21*
X118364000Y-136909150D02*
X118552925Y-137098075D01*
X118364000Y-135699500D02*
X118364000Y-136909150D01*
X117411500Y-134937500D02*
X117411500Y-134747000D01*
X116649500Y-135699500D02*
X117411500Y-134937500D01*
D22*
X87693500Y-132461000D02*
X87708500Y-132446000D01*
X87693500Y-135318500D02*
X87693500Y-132461000D01*
X87708500Y-129809000D02*
X85883750Y-127984250D01*
X84264500Y-126365000D02*
X84264500Y-124460000D01*
X90805000Y-86360000D02*
X90805000Y-84899500D01*
D21*
X102870000Y-79057500D02*
X103060500Y-78867000D01*
X102870000Y-81280000D02*
X102870000Y-79057500D01*
D22*
X96837500Y-78867000D02*
X103060500Y-78867000D01*
X84264500Y-94043500D02*
X84264500Y-89916000D01*
X84264500Y-116268500D02*
X84264500Y-94043500D01*
X84264500Y-124460000D02*
X84264500Y-116268500D01*
X84264500Y-87425010D02*
X84264500Y-89916000D01*
X85329510Y-86360000D02*
X84264500Y-87425010D01*
D21*
X84137500Y-87249000D02*
X86122000Y-87249000D01*
D22*
X90805000Y-84899500D02*
X95218250Y-80486250D01*
X95218250Y-80486250D02*
X96837500Y-78867000D01*
D21*
X87280750Y-86836250D02*
X86741000Y-87376000D01*
D22*
X85883750Y-127984250D02*
X85217000Y-127317500D01*
X85217000Y-127317500D02*
X84264500Y-126365000D01*
X87708500Y-127777000D02*
X87249000Y-127317500D01*
X87249000Y-127317500D02*
X90297000Y-127317500D01*
X87708500Y-132446000D02*
X87708500Y-130761500D01*
X87708500Y-130761500D02*
X87708500Y-127777000D01*
X87708500Y-130761500D02*
X87708500Y-129809000D01*
X90297000Y-127317500D02*
X90297000Y-127317500D01*
D21*
X89344500Y-86360000D02*
X90805000Y-84899500D01*
X88900000Y-86360000D02*
X89344500Y-86360000D01*
D22*
X90805000Y-86360000D02*
X88900000Y-86360000D01*
X88900000Y-86360000D02*
X85329510Y-86360000D01*
X117411500Y-131042500D02*
X117411500Y-134747000D01*
X118364000Y-109601000D02*
X117411500Y-110553500D01*
X117411500Y-110553500D02*
X117411500Y-131042500D01*
X118364000Y-83439000D02*
X118364000Y-109601000D01*
X113792000Y-78867000D02*
X118364000Y-83439000D01*
X103060500Y-78867000D02*
X113792000Y-78867000D01*
D23*
X84010500Y-126619000D02*
X84264500Y-126365000D01*
X84010500Y-127825500D02*
X84010500Y-126619000D01*
X84709000Y-127825500D02*
X85217000Y-127317500D01*
X84010500Y-127825500D02*
X84709000Y-127825500D01*
X86296500Y-127825500D02*
X86804500Y-127317500D01*
X84010500Y-127825500D02*
X86296500Y-127825500D01*
D22*
X86804500Y-127317500D02*
X87249000Y-127317500D01*
X85217000Y-127317500D02*
X86804500Y-127317500D01*
D21*
X97790000Y-75184000D02*
X107950000Y-75184000D01*
X107950000Y-75184000D02*
X107950000Y-75184000D01*
X97790000Y-75184000D02*
X97507158Y-75184000D01*
X97507158Y-75184000D02*
X96139000Y-75184000D01*
X96139000Y-75184000D02*
X96139000Y-75184000D01*
D22*
%TO.N,+5V*%
X82486500Y-76263500D02*
X82486500Y-93916500D01*
X84963000Y-73787000D02*
X82486500Y-76263500D01*
X92519500Y-73787000D02*
X84963000Y-73787000D01*
X95250000Y-76517500D02*
X92519500Y-73787000D01*
X114300000Y-76517500D02*
X95250000Y-76517500D01*
D21*
%TO.N,/A10*%
X100012500Y-144589500D02*
X99695000Y-144272000D01*
X99695000Y-144272000D02*
X99695000Y-139192000D01*
X99695000Y-139192000D02*
X99695000Y-139001500D01*
X99695000Y-139001500D02*
X99695000Y-123825000D01*
X99695000Y-123825000D02*
X99695000Y-115697000D01*
X99695000Y-115697000D02*
X99695000Y-115697000D01*
%TO.N,/D7*%
X98425000Y-122047000D02*
X98425000Y-141760510D01*
X98425000Y-122047000D02*
X98425000Y-113792000D01*
%TO.N,/D6*%
X92392500Y-143764000D02*
X96774000Y-139382500D01*
X96774000Y-139382500D02*
X97155000Y-139001500D01*
X92392500Y-145415000D02*
X92392500Y-143764000D01*
X97155000Y-134302500D02*
X97155000Y-139001500D01*
X97155000Y-134302500D02*
X97155000Y-114236500D01*
%TO.N,/D5*%
X95885000Y-134239000D02*
X95885000Y-133731000D01*
X95885000Y-138430000D02*
X95885000Y-134239000D01*
X89916000Y-144399000D02*
X95885000Y-138430000D01*
X89916000Y-145415000D02*
X89916000Y-144399000D01*
X95885000Y-133731000D02*
X95885000Y-114681000D01*
%TO.N,/D4*%
X87439500Y-144970500D02*
X87439500Y-144970500D01*
X94615000Y-137795000D02*
X87439500Y-144970500D01*
X94615000Y-133159500D02*
X94615000Y-137795000D01*
X94615000Y-133159500D02*
X94615000Y-115125500D01*
%TO.N,/D3*%
X93345000Y-134366000D02*
X93345000Y-137160000D01*
X93345000Y-133286500D02*
X93345000Y-134366000D01*
X93345000Y-137160000D02*
X88455500Y-142049500D01*
X88455500Y-142049500D02*
X85725000Y-144780000D01*
X85725000Y-144780000D02*
X85725000Y-144780000D01*
X93345000Y-133286500D02*
X93345000Y-115570000D01*
%TO.N,/D2*%
X92075000Y-126746000D02*
X92075000Y-118554500D01*
X92075000Y-136588500D02*
X92075000Y-126746000D01*
X81737824Y-146925676D02*
X92075000Y-136588500D01*
X81737824Y-149595078D02*
X81737824Y-146925676D01*
X81292701Y-150040201D02*
X81737824Y-149595078D01*
X92075000Y-118554500D02*
X92075000Y-116078000D01*
X92075000Y-116078000D02*
X92075000Y-114935000D01*
X92075000Y-114935000D02*
X92773500Y-114236500D01*
X92773500Y-114236500D02*
X94615000Y-112395000D01*
X94615000Y-112395000D02*
X94615000Y-110617000D01*
X94615000Y-110617000D02*
X94615000Y-110617000D01*
%TO.N,/D1*%
X83832701Y-145679341D02*
X83832701Y-150040201D01*
X92710000Y-136802042D02*
X83832701Y-145679341D01*
X92710000Y-128079500D02*
X92710000Y-136802042D01*
X92710000Y-116332000D02*
X92710000Y-115189000D01*
X92710000Y-128079500D02*
X92710000Y-116332000D01*
X92710000Y-115189000D02*
X95250000Y-112649000D01*
X95250000Y-112649000D02*
X95250000Y-112331500D01*
X95250000Y-112331500D02*
X95250000Y-109728000D01*
X95250000Y-109728000D02*
X95250000Y-109728000D01*
%TO.N,/D0*%
X86372701Y-145084799D02*
X86372701Y-150040201D01*
X90678000Y-140779500D02*
X90392250Y-141065250D01*
X90392250Y-141065250D02*
X86372701Y-145084799D01*
X93980000Y-137477500D02*
X93980000Y-137287000D01*
X90392250Y-141065250D02*
X93980000Y-137477500D01*
X93980000Y-127254000D02*
X93980000Y-137287000D01*
X93980000Y-116268500D02*
X93980000Y-114808000D01*
X93980000Y-127254000D02*
X93980000Y-116268500D01*
X93980000Y-114808000D02*
X95059500Y-113728500D01*
X95059500Y-113728500D02*
X95377000Y-113411000D01*
X95377000Y-113411000D02*
X95885000Y-112903000D01*
X95885000Y-112903000D02*
X95885000Y-109093000D01*
%TO.N,/A0*%
X88912701Y-144513299D02*
X88912701Y-150040201D01*
X95250000Y-138176000D02*
X88912701Y-144513299D01*
X95250000Y-127254000D02*
X95250000Y-138176000D01*
X95250000Y-127254000D02*
X95250000Y-114681000D01*
X95250000Y-114681000D02*
X95250000Y-114427000D01*
X95250000Y-114427000D02*
X96520000Y-113157000D01*
X96520000Y-113157000D02*
X96520000Y-108521500D01*
X96520000Y-108521500D02*
X96520000Y-108521500D01*
%TO.N,/A1*%
X91452701Y-143751299D02*
X91452701Y-150040201D01*
X96520000Y-138684000D02*
X91452701Y-143751299D01*
X96520000Y-127317500D02*
X96520000Y-138684000D01*
X96520000Y-127317500D02*
X96520000Y-114617500D01*
X96520000Y-114022958D02*
X97155000Y-113387958D01*
X96520000Y-114617500D02*
X96520000Y-114022958D01*
X97155000Y-113387958D02*
X97155000Y-112966500D01*
X97155000Y-112966500D02*
X97155000Y-107759500D01*
X97155000Y-107759500D02*
X97155000Y-107759500D01*
%TO.N,/A2*%
X93992701Y-143052799D02*
X93992701Y-150040201D01*
X97790000Y-139255500D02*
X93992701Y-143052799D01*
X97790000Y-127762000D02*
X97790000Y-139255500D01*
X97790000Y-127762000D02*
X97790000Y-114173000D01*
X97790000Y-114173000D02*
X97790000Y-107315000D01*
X97790000Y-107315000D02*
X97790000Y-107315000D01*
%TO.N,/A3*%
X99072701Y-150040201D02*
X99072701Y-114617500D01*
X99072701Y-114617500D02*
X99060000Y-107315000D01*
X99060000Y-107315000D02*
X99072701Y-107327701D01*
%TO.N,/A4*%
X105918000Y-143002000D02*
X107569000Y-143002000D01*
X101612701Y-147307299D02*
X105918000Y-143002000D01*
X101612701Y-150040201D02*
X101612701Y-147307299D01*
X110077250Y-140493750D02*
X110299500Y-140271500D01*
X107569000Y-143002000D02*
X109728000Y-140843000D01*
X109728000Y-140843000D02*
X110077250Y-140493750D01*
X109791500Y-114681000D02*
X109791500Y-108648500D01*
X110426500Y-125984000D02*
X110426500Y-115316000D01*
X109728000Y-126682500D02*
X110426500Y-125984000D01*
X109728000Y-130683000D02*
X109728000Y-126682500D01*
X110426500Y-131381500D02*
X109728000Y-130683000D01*
X110426500Y-140144500D02*
X110426500Y-131381500D01*
X110426500Y-115316000D02*
X109791500Y-114681000D01*
X109728000Y-140843000D02*
X110426500Y-140144500D01*
%TO.N,/A5*%
X112331500Y-126746000D02*
X112331500Y-111188500D01*
X111061500Y-108394500D02*
X111252000Y-108204000D01*
X111633000Y-127444500D02*
X112331500Y-126746000D01*
X111633000Y-129897958D02*
X111633000Y-127444500D01*
X112331500Y-111188500D02*
X111061500Y-109918500D01*
X112331500Y-140906500D02*
X112331500Y-130596458D01*
X107124500Y-146113500D02*
X112331500Y-140906500D01*
X112331500Y-130596458D02*
X111633000Y-129897958D01*
X107124500Y-149608402D02*
X107124500Y-146113500D01*
X111061500Y-109918500D02*
X111061500Y-108394500D01*
X106692701Y-150040201D02*
X107124500Y-149608402D01*
%TO.N,/A6*%
X109232701Y-150040201D02*
X109232701Y-144853841D01*
X109232701Y-144853841D02*
X112966500Y-141120042D01*
X112966500Y-130302000D02*
X112268000Y-129603500D01*
X112966500Y-130683000D02*
X112966500Y-130302000D01*
X112966500Y-141120042D02*
X112966500Y-130683000D01*
X111696500Y-108839000D02*
X111696500Y-108839000D01*
X112966500Y-110934500D02*
X111696500Y-109664500D01*
X112966500Y-127000000D02*
X112966500Y-110934500D01*
X111696500Y-109664500D02*
X111696500Y-108839000D01*
X112268000Y-127698500D02*
X112966500Y-127000000D01*
X112268000Y-129603500D02*
X112268000Y-127698500D01*
%TO.N,/A7*%
X111772701Y-150040201D02*
X111772701Y-144449799D01*
X111772701Y-144449799D02*
X114236500Y-141986000D01*
X114236500Y-141986000D02*
X114236500Y-141097000D01*
X114236500Y-141097000D02*
X114236500Y-134747000D01*
X114236500Y-134747000D02*
X114236500Y-134175500D01*
X114935000Y-129908300D02*
X114935000Y-129857500D01*
X114935000Y-129921000D02*
X114935000Y-129908300D01*
X114236500Y-130619500D02*
X114935000Y-129921000D01*
X114236500Y-134747000D02*
X114236500Y-130619500D01*
X114998500Y-109347000D02*
X114998500Y-109347000D01*
X114554000Y-109791500D02*
X114998500Y-109347000D01*
X114236500Y-110109000D02*
X114554000Y-109791500D01*
X114236500Y-128206500D02*
X114236500Y-110109000D01*
X114935000Y-128905000D02*
X114236500Y-128206500D01*
X114935000Y-129857500D02*
X114935000Y-128905000D01*
%TO.N,/A12*%
X113601500Y-135255000D02*
X113601500Y-127508000D01*
X113601500Y-141097000D02*
X113601500Y-135255000D01*
X113601500Y-135255000D02*
X113601500Y-134429500D01*
X112331500Y-109410500D02*
X112331500Y-109029500D01*
X113601500Y-110680500D02*
X112331500Y-109410500D01*
X113601500Y-127508000D02*
X113601500Y-110680500D01*
%TO.N,/A13*%
X111696500Y-140652500D02*
X111696500Y-135191500D01*
X107251500Y-144272000D02*
X108077000Y-144272000D01*
X104152701Y-147370799D02*
X107251500Y-144272000D01*
X108077000Y-144272000D02*
X111696500Y-140652500D01*
X104152701Y-150040201D02*
X104152701Y-147370799D01*
X111696500Y-122364500D02*
X111696500Y-122364500D01*
X111696500Y-115443000D02*
X111696500Y-114109500D01*
X111696500Y-126492000D02*
X111696500Y-115443000D01*
X110998000Y-127190500D02*
X111696500Y-126492000D01*
X110998000Y-130175000D02*
X110998000Y-127190500D01*
X111696500Y-130873500D02*
X110998000Y-130175000D01*
X111696500Y-135191500D02*
X111696500Y-130873500D01*
%TO.N,/A8*%
X115506500Y-135001000D02*
X115506500Y-131127500D01*
X115506500Y-131127500D02*
X116205000Y-130429000D01*
X116205000Y-130429000D02*
X116205000Y-128397000D01*
X116205000Y-128397000D02*
X115506500Y-127698500D01*
X115506500Y-127698500D02*
X115506500Y-125031500D01*
X115506500Y-125031500D02*
X115506500Y-114363500D01*
X115506500Y-114363500D02*
X115506500Y-114363500D01*
%TO.N,/A9*%
X114871500Y-127952500D02*
X114871500Y-125412500D01*
X115570000Y-128651000D02*
X114871500Y-127952500D01*
X115570000Y-130175000D02*
X115570000Y-128651000D01*
X114871500Y-130873500D02*
X115570000Y-130175000D01*
X114871500Y-141097000D02*
X114871500Y-130873500D01*
X114871500Y-125412500D02*
X114871500Y-123952000D01*
X114871500Y-123952000D02*
X114871500Y-123952000D01*
X114871500Y-123952000D02*
X114871500Y-114998500D01*
%TO.N,/A11*%
X109791500Y-125730000D02*
X109791500Y-125349000D01*
X109093000Y-126428500D02*
X109791500Y-125730000D01*
X109093000Y-130937000D02*
X109093000Y-126428500D01*
X109791500Y-131635500D02*
X109093000Y-130937000D01*
X109791500Y-139890500D02*
X109791500Y-131635500D01*
X107696000Y-141986000D02*
X109791500Y-139890500D01*
X100965000Y-141986000D02*
X107696000Y-141986000D01*
X109791500Y-125349000D02*
X109791500Y-125095000D01*
X109791500Y-125095000D02*
X109791500Y-123825000D01*
X109791500Y-123825000D02*
X109791500Y-123825000D01*
X109791500Y-123825000D02*
X109791500Y-116903500D01*
%TD*%
D24*
%TO.N,GND*%
X96452596Y-87905855D02*
X96455407Y-87934396D01*
X96463733Y-87961843D01*
X96469328Y-87989971D01*
X96480302Y-88016466D01*
X96488629Y-88043915D01*
X96502150Y-88069211D01*
X96513125Y-88095707D01*
X96529059Y-88119554D01*
X96542579Y-88144848D01*
X96560773Y-88167018D01*
X96576708Y-88190866D01*
X96596987Y-88211145D01*
X96615183Y-88233317D01*
X96637355Y-88251513D01*
X96657634Y-88271792D01*
X96681482Y-88287727D01*
X96703652Y-88305921D01*
X96728946Y-88319441D01*
X96752793Y-88335375D01*
X96779289Y-88346350D01*
X96804585Y-88359871D01*
X96832034Y-88368198D01*
X96858529Y-88379172D01*
X96886657Y-88384767D01*
X96914104Y-88393093D01*
X96942645Y-88395904D01*
X96970777Y-88401500D01*
X99327343Y-88401500D01*
X101549987Y-90624145D01*
X101568183Y-90646317D01*
X101656652Y-90718921D01*
X101757585Y-90772871D01*
X101867104Y-90806093D01*
X101952460Y-90814500D01*
X101952462Y-90814500D01*
X101980999Y-90817311D01*
X102009536Y-90814500D01*
X104661343Y-90814500D01*
X105400501Y-91553659D01*
X105400500Y-100231539D01*
X105400501Y-100231549D01*
X105400500Y-118144960D01*
X105400500Y-118265539D01*
X105400501Y-118265549D01*
X105400500Y-123838342D01*
X104892355Y-124346488D01*
X104870184Y-124364683D01*
X104833001Y-124409991D01*
X104797579Y-124453153D01*
X104743629Y-124554086D01*
X104710407Y-124663605D01*
X104699189Y-124777500D01*
X104702001Y-124806050D01*
X104702000Y-127577777D01*
X104702000Y-127692223D01*
X104707596Y-127720356D01*
X104710407Y-127748895D01*
X104718732Y-127776340D01*
X104724328Y-127804471D01*
X104735304Y-127830969D01*
X104743629Y-127858414D01*
X104757148Y-127883707D01*
X104768125Y-127910207D01*
X104784062Y-127934058D01*
X104797579Y-127959347D01*
X104815771Y-127981514D01*
X104831708Y-128005366D01*
X104851989Y-128025647D01*
X104870183Y-128047817D01*
X104892355Y-128066013D01*
X104912634Y-128086292D01*
X104936482Y-128102227D01*
X104958652Y-128120421D01*
X104983946Y-128133941D01*
X105007793Y-128149875D01*
X105034289Y-128160850D01*
X105059585Y-128174371D01*
X105087034Y-128182698D01*
X105113529Y-128193672D01*
X105141657Y-128199267D01*
X105169104Y-128207593D01*
X105197645Y-128210404D01*
X105225777Y-128216000D01*
X105254460Y-128216000D01*
X105283000Y-128218811D01*
X105311540Y-128216000D01*
X105340223Y-128216000D01*
X105368356Y-128210404D01*
X105396895Y-128207593D01*
X105424340Y-128199268D01*
X105452471Y-128193672D01*
X105478969Y-128182696D01*
X105506414Y-128174371D01*
X105531707Y-128160852D01*
X105558207Y-128149875D01*
X105582058Y-128133938D01*
X105600499Y-128124081D01*
X105618946Y-128133941D01*
X105642793Y-128149875D01*
X105669289Y-128160850D01*
X105694585Y-128174371D01*
X105722034Y-128182698D01*
X105748529Y-128193672D01*
X105776657Y-128199267D01*
X105804104Y-128207593D01*
X105832645Y-128210404D01*
X105860777Y-128216000D01*
X105889460Y-128216000D01*
X105918000Y-128218811D01*
X105946540Y-128216000D01*
X105975223Y-128216000D01*
X106003356Y-128210404D01*
X106031895Y-128207593D01*
X106059340Y-128199268D01*
X106087471Y-128193672D01*
X106113969Y-128182696D01*
X106141414Y-128174371D01*
X106166707Y-128160852D01*
X106193207Y-128149875D01*
X106217058Y-128133938D01*
X106235499Y-128124081D01*
X106253946Y-128133941D01*
X106277793Y-128149875D01*
X106304289Y-128160850D01*
X106329585Y-128174371D01*
X106357034Y-128182698D01*
X106383529Y-128193672D01*
X106411657Y-128199267D01*
X106439104Y-128207593D01*
X106467645Y-128210404D01*
X106495777Y-128216000D01*
X106524460Y-128216000D01*
X106553000Y-128218811D01*
X106581540Y-128216000D01*
X106610223Y-128216000D01*
X106638356Y-128210404D01*
X106666895Y-128207593D01*
X106694340Y-128199268D01*
X106722471Y-128193672D01*
X106748969Y-128182696D01*
X106776414Y-128174371D01*
X106801707Y-128160852D01*
X106828207Y-128149875D01*
X106852058Y-128133938D01*
X106870499Y-128124081D01*
X106888946Y-128133941D01*
X106912793Y-128149875D01*
X106939289Y-128160850D01*
X106964585Y-128174371D01*
X106992034Y-128182698D01*
X107018529Y-128193672D01*
X107046657Y-128199267D01*
X107074104Y-128207593D01*
X107102645Y-128210404D01*
X107130777Y-128216000D01*
X107159460Y-128216000D01*
X107188000Y-128218811D01*
X107216540Y-128216000D01*
X107245223Y-128216000D01*
X107273356Y-128210404D01*
X107301895Y-128207593D01*
X107329340Y-128199268D01*
X107357471Y-128193672D01*
X107383969Y-128182696D01*
X107411414Y-128174371D01*
X107436707Y-128160852D01*
X107463207Y-128149875D01*
X107487058Y-128133938D01*
X107505499Y-128124081D01*
X107523946Y-128133941D01*
X107547793Y-128149875D01*
X107574289Y-128160850D01*
X107599585Y-128174371D01*
X107627034Y-128182698D01*
X107653529Y-128193672D01*
X107681657Y-128199267D01*
X107709104Y-128207593D01*
X107737645Y-128210404D01*
X107765777Y-128216000D01*
X107794460Y-128216000D01*
X107823000Y-128218811D01*
X107851540Y-128216000D01*
X107880223Y-128216000D01*
X107908356Y-128210404D01*
X107936895Y-128207593D01*
X107964340Y-128199268D01*
X107992471Y-128193672D01*
X108018969Y-128182696D01*
X108046414Y-128174371D01*
X108071707Y-128160852D01*
X108098207Y-128149875D01*
X108122058Y-128133938D01*
X108140499Y-128124081D01*
X108158946Y-128133941D01*
X108182793Y-128149875D01*
X108209289Y-128160850D01*
X108234585Y-128174371D01*
X108262034Y-128182698D01*
X108288529Y-128193672D01*
X108316657Y-128199267D01*
X108344104Y-128207593D01*
X108372645Y-128210404D01*
X108400777Y-128216000D01*
X108429460Y-128216000D01*
X108458000Y-128218811D01*
X108486540Y-128216000D01*
X108512001Y-128216000D01*
X108512000Y-130908460D01*
X108509189Y-130937000D01*
X108512000Y-130965539D01*
X108520407Y-131050895D01*
X108553629Y-131160414D01*
X108607579Y-131261347D01*
X108680183Y-131349817D01*
X108702360Y-131368017D01*
X109210501Y-131876159D01*
X109210500Y-139649842D01*
X107455343Y-141405000D01*
X100907777Y-141405000D01*
X100879645Y-141410596D01*
X100851104Y-141413407D01*
X100823657Y-141421733D01*
X100795529Y-141427328D01*
X100769034Y-141438302D01*
X100741585Y-141446629D01*
X100716289Y-141460150D01*
X100689793Y-141471125D01*
X100665946Y-141487059D01*
X100640652Y-141500579D01*
X100618482Y-141518773D01*
X100594634Y-141534708D01*
X100574355Y-141554987D01*
X100552183Y-141573183D01*
X100533990Y-141595352D01*
X100513708Y-141615634D01*
X100497773Y-141639482D01*
X100479579Y-141661652D01*
X100466059Y-141686946D01*
X100450125Y-141710793D01*
X100439150Y-141737289D01*
X100425629Y-141762585D01*
X100417302Y-141790034D01*
X100406328Y-141816529D01*
X100400733Y-141844657D01*
X100392407Y-141872104D01*
X100389596Y-141900645D01*
X100384000Y-141928777D01*
X100384000Y-141957460D01*
X100381189Y-141986000D01*
X100384000Y-142014539D01*
X100384000Y-142043223D01*
X100389596Y-142071355D01*
X100392407Y-142099896D01*
X100400733Y-142127343D01*
X100406328Y-142155471D01*
X100417302Y-142181966D01*
X100425629Y-142209415D01*
X100439150Y-142234711D01*
X100450125Y-142261207D01*
X100466059Y-142285054D01*
X100479579Y-142310348D01*
X100497773Y-142332518D01*
X100513708Y-142356366D01*
X100533987Y-142376645D01*
X100552183Y-142398817D01*
X100574355Y-142417013D01*
X100594634Y-142437292D01*
X100618482Y-142453227D01*
X100640652Y-142471421D01*
X100665946Y-142484941D01*
X100689793Y-142500875D01*
X100716289Y-142511850D01*
X100741585Y-142525371D01*
X100769034Y-142533698D01*
X100795529Y-142544672D01*
X100823657Y-142550267D01*
X100851104Y-142558593D01*
X100879645Y-142561404D01*
X100907777Y-142567000D01*
X105532213Y-142567000D01*
X105505183Y-142589183D01*
X105486990Y-142611352D01*
X101984843Y-146113500D01*
X99653701Y-146113500D01*
X99653701Y-145048521D01*
X99665986Y-145056730D01*
X99688153Y-145074921D01*
X99713443Y-145088439D01*
X99737293Y-145104375D01*
X99763790Y-145115350D01*
X99789085Y-145128871D01*
X99816534Y-145137198D01*
X99843029Y-145148172D01*
X99871157Y-145153767D01*
X99898604Y-145162093D01*
X99927145Y-145164904D01*
X99955277Y-145170500D01*
X99983960Y-145170500D01*
X100012500Y-145173311D01*
X100041040Y-145170500D01*
X100069723Y-145170500D01*
X100097856Y-145164904D01*
X100126395Y-145162093D01*
X100153840Y-145153768D01*
X100181971Y-145148172D01*
X100208469Y-145137196D01*
X100235914Y-145128871D01*
X100261207Y-145115352D01*
X100287707Y-145104375D01*
X100311558Y-145088438D01*
X100336847Y-145074921D01*
X100359011Y-145056731D01*
X100382866Y-145040792D01*
X100403154Y-145020504D01*
X100425316Y-145002316D01*
X100443504Y-144980154D01*
X100463792Y-144959866D01*
X100479731Y-144936011D01*
X100497921Y-144913847D01*
X100511438Y-144888558D01*
X100527375Y-144864707D01*
X100538352Y-144838207D01*
X100551871Y-144812914D01*
X100560196Y-144785469D01*
X100571172Y-144758971D01*
X100576768Y-144730840D01*
X100585093Y-144703395D01*
X100587904Y-144674856D01*
X100593500Y-144646723D01*
X100593500Y-144618040D01*
X100596311Y-144589500D01*
X100593500Y-144560960D01*
X100593500Y-144532277D01*
X100587904Y-144504145D01*
X100585093Y-144475604D01*
X100576767Y-144448157D01*
X100571172Y-144420029D01*
X100560198Y-144393534D01*
X100551871Y-144366085D01*
X100538350Y-144340790D01*
X100527375Y-144314293D01*
X100511439Y-144290443D01*
X100497921Y-144265153D01*
X100479730Y-144242986D01*
X100463792Y-144219134D01*
X100382866Y-144138208D01*
X100382865Y-144138208D01*
X100276000Y-144031342D01*
X100276000Y-134937500D01*
X100508189Y-134937500D01*
X100511000Y-134966040D01*
X100511000Y-134994723D01*
X100516596Y-135022855D01*
X100519407Y-135051396D01*
X100527733Y-135078843D01*
X100533328Y-135106971D01*
X100544302Y-135133466D01*
X100552629Y-135160915D01*
X100566150Y-135186211D01*
X100577125Y-135212707D01*
X100593059Y-135236554D01*
X100606579Y-135261848D01*
X100624773Y-135284018D01*
X100640708Y-135307866D01*
X100660987Y-135328145D01*
X100679183Y-135350317D01*
X100701355Y-135368513D01*
X100721634Y-135388792D01*
X100745482Y-135404727D01*
X100767652Y-135422921D01*
X100792946Y-135436441D01*
X100816793Y-135452375D01*
X100843289Y-135463350D01*
X100868585Y-135476871D01*
X100896034Y-135485198D01*
X100922529Y-135496172D01*
X100950657Y-135501767D01*
X100978104Y-135510093D01*
X101006645Y-135512904D01*
X101034777Y-135518500D01*
X101352364Y-135518500D01*
X101386678Y-135582696D01*
X101434289Y-135640711D01*
X101492304Y-135688322D01*
X101558492Y-135723701D01*
X101630311Y-135745487D01*
X101705000Y-135752843D01*
X102705000Y-135752843D01*
X102779689Y-135745487D01*
X102851508Y-135723701D01*
X102855000Y-135721834D01*
X102858492Y-135723701D01*
X102930311Y-135745487D01*
X103005000Y-135752843D01*
X104005000Y-135752843D01*
X104079689Y-135745487D01*
X104151508Y-135723701D01*
X104217696Y-135688322D01*
X104275711Y-135640711D01*
X104323322Y-135582696D01*
X104358701Y-135516508D01*
X104380487Y-135444689D01*
X104387843Y-135370000D01*
X104387843Y-133870000D01*
X104380487Y-133795311D01*
X104358701Y-133723492D01*
X104323322Y-133657304D01*
X104275711Y-133599289D01*
X104217696Y-133551678D01*
X104151508Y-133516299D01*
X104079689Y-133494513D01*
X104005000Y-133487157D01*
X103005000Y-133487157D01*
X102930311Y-133494513D01*
X102858492Y-133516299D01*
X102855000Y-133518166D01*
X102851508Y-133516299D01*
X102786000Y-133496427D01*
X102786000Y-133203573D01*
X102851508Y-133183701D01*
X102855000Y-133181834D01*
X102858492Y-133183701D01*
X102930311Y-133205487D01*
X103005000Y-133212843D01*
X104005000Y-133212843D01*
X104079689Y-133205487D01*
X104151508Y-133183701D01*
X104217696Y-133148322D01*
X104275711Y-133100711D01*
X104323322Y-133042696D01*
X104358701Y-132976508D01*
X104380487Y-132904689D01*
X104387843Y-132830000D01*
X104387843Y-131330000D01*
X104380487Y-131255311D01*
X104358701Y-131183492D01*
X104323322Y-131117304D01*
X104275711Y-131059289D01*
X104217696Y-131011678D01*
X104151508Y-130976299D01*
X104079689Y-130954513D01*
X104005000Y-130947157D01*
X103005000Y-130947157D01*
X102930311Y-130954513D01*
X102858492Y-130976299D01*
X102855000Y-130978166D01*
X102851508Y-130976299D01*
X102786000Y-130956427D01*
X102786000Y-130663573D01*
X102851508Y-130643701D01*
X102855000Y-130641834D01*
X102858492Y-130643701D01*
X102930311Y-130665487D01*
X103005000Y-130672843D01*
X104005000Y-130672843D01*
X104079689Y-130665487D01*
X104151508Y-130643701D01*
X104217696Y-130608322D01*
X104275711Y-130560711D01*
X104323322Y-130502696D01*
X104358701Y-130436508D01*
X104380487Y-130364689D01*
X104387843Y-130290000D01*
X104387843Y-128790000D01*
X104380487Y-128715311D01*
X104358701Y-128643492D01*
X104323322Y-128577304D01*
X104275711Y-128519289D01*
X104217696Y-128471678D01*
X104151508Y-128436299D01*
X104079689Y-128414513D01*
X104005000Y-128407157D01*
X103005000Y-128407157D01*
X102930311Y-128414513D01*
X102858492Y-128436299D01*
X102855000Y-128438166D01*
X102851508Y-128436299D01*
X102779689Y-128414513D01*
X102705000Y-128407157D01*
X101705000Y-128407157D01*
X101630311Y-128414513D01*
X101558492Y-128436299D01*
X101492304Y-128471678D01*
X101434289Y-128519289D01*
X101386678Y-128577304D01*
X101351299Y-128643492D01*
X101329513Y-128715311D01*
X101322157Y-128790000D01*
X101322157Y-130290000D01*
X101329513Y-130364689D01*
X101351299Y-130436508D01*
X101386678Y-130502696D01*
X101434289Y-130560711D01*
X101492304Y-130608322D01*
X101558492Y-130643701D01*
X101624000Y-130663573D01*
X101624000Y-130956427D01*
X101558492Y-130976299D01*
X101492304Y-131011678D01*
X101434289Y-131059289D01*
X101386678Y-131117304D01*
X101351299Y-131183492D01*
X101329513Y-131255311D01*
X101322157Y-131330000D01*
X101322157Y-132830000D01*
X101329513Y-132904689D01*
X101351299Y-132976508D01*
X101386678Y-133042696D01*
X101434289Y-133100711D01*
X101492304Y-133148322D01*
X101558492Y-133183701D01*
X101624001Y-133203573D01*
X101624001Y-133496427D01*
X101558492Y-133516299D01*
X101492304Y-133551678D01*
X101434289Y-133599289D01*
X101386678Y-133657304D01*
X101351299Y-133723492D01*
X101329513Y-133795311D01*
X101322157Y-133870000D01*
X101322157Y-134356500D01*
X101034777Y-134356500D01*
X101006645Y-134362096D01*
X100978104Y-134364907D01*
X100950657Y-134373233D01*
X100922529Y-134378828D01*
X100896034Y-134389802D01*
X100868585Y-134398129D01*
X100843289Y-134411650D01*
X100816793Y-134422625D01*
X100792946Y-134438559D01*
X100767652Y-134452079D01*
X100745482Y-134470273D01*
X100721634Y-134486208D01*
X100701355Y-134506487D01*
X100679183Y-134524683D01*
X100660990Y-134546852D01*
X100640708Y-134567134D01*
X100624773Y-134590982D01*
X100606579Y-134613152D01*
X100593059Y-134638446D01*
X100577125Y-134662293D01*
X100566150Y-134688789D01*
X100552629Y-134714085D01*
X100544302Y-134741534D01*
X100533328Y-134768029D01*
X100527733Y-134796157D01*
X100519407Y-134823604D01*
X100516596Y-134852145D01*
X100511000Y-134880277D01*
X100511000Y-134908960D01*
X100508189Y-134937500D01*
X100276000Y-134937500D01*
X100276000Y-115725540D01*
X100278811Y-115697000D01*
X100276000Y-115668460D01*
X100276000Y-115639777D01*
X100270404Y-115611645D01*
X100267593Y-115583104D01*
X100260690Y-115560347D01*
X100513708Y-115813366D01*
X100533987Y-115833645D01*
X100552183Y-115855817D01*
X100574355Y-115874013D01*
X100594634Y-115894292D01*
X100618482Y-115910227D01*
X100629395Y-115919183D01*
X100640652Y-115928421D01*
X100665946Y-115941941D01*
X100689793Y-115957875D01*
X100716289Y-115968850D01*
X100741585Y-115982371D01*
X100769034Y-115990698D01*
X100795529Y-116001672D01*
X100823657Y-116007267D01*
X100851104Y-116015593D01*
X100879645Y-116018404D01*
X100907777Y-116024000D01*
X100936460Y-116024000D01*
X100965000Y-116026811D01*
X100993540Y-116024000D01*
X101022223Y-116024000D01*
X101050355Y-116018404D01*
X101078896Y-116015593D01*
X101105074Y-116007652D01*
X101106343Y-116007267D01*
X101134471Y-116001672D01*
X101160966Y-115990698D01*
X101188415Y-115982371D01*
X101213711Y-115968850D01*
X101240207Y-115957875D01*
X101264054Y-115941941D01*
X101289348Y-115928421D01*
X101311518Y-115910227D01*
X101335366Y-115894292D01*
X101355645Y-115874013D01*
X101377817Y-115855817D01*
X101396013Y-115833645D01*
X101416292Y-115813366D01*
X101432227Y-115789518D01*
X101450421Y-115767348D01*
X101463941Y-115742054D01*
X101479875Y-115718207D01*
X101490850Y-115691711D01*
X101504371Y-115666415D01*
X101512698Y-115638966D01*
X101523672Y-115612471D01*
X101529267Y-115584343D01*
X101537593Y-115556896D01*
X101540404Y-115528355D01*
X101546000Y-115500223D01*
X101546000Y-115471539D01*
X101548811Y-115443000D01*
X101546000Y-115414460D01*
X101546000Y-115385777D01*
X101540404Y-115357645D01*
X101537593Y-115329104D01*
X101529267Y-115301657D01*
X101523672Y-115273529D01*
X101512698Y-115247034D01*
X101504371Y-115219585D01*
X101490850Y-115194289D01*
X101479875Y-115167793D01*
X101463941Y-115143946D01*
X101450421Y-115118652D01*
X101432227Y-115096482D01*
X101416292Y-115072634D01*
X101396010Y-115052352D01*
X101377817Y-115030183D01*
X101355645Y-115011987D01*
X101335366Y-114991708D01*
X100911000Y-114567343D01*
X100911000Y-114456000D01*
X101326195Y-114456000D01*
X101329513Y-114489689D01*
X101351299Y-114561508D01*
X101386678Y-114627696D01*
X101434289Y-114685711D01*
X101492304Y-114733322D01*
X101558492Y-114768701D01*
X101630311Y-114790487D01*
X101705000Y-114797843D01*
X102705000Y-114797843D01*
X102779689Y-114790487D01*
X102851508Y-114768701D01*
X102855000Y-114766834D01*
X102858492Y-114768701D01*
X102930311Y-114790487D01*
X103005000Y-114797843D01*
X104005000Y-114797843D01*
X104079689Y-114790487D01*
X104151508Y-114768701D01*
X104217696Y-114733322D01*
X104275711Y-114685711D01*
X104323322Y-114627696D01*
X104358701Y-114561508D01*
X104380487Y-114489689D01*
X104387843Y-114415000D01*
X104387843Y-112915000D01*
X104380487Y-112840311D01*
X104358701Y-112768492D01*
X104323322Y-112702304D01*
X104275711Y-112644289D01*
X104217696Y-112596678D01*
X104151508Y-112561299D01*
X104079689Y-112539513D01*
X104005000Y-112532157D01*
X103005000Y-112532157D01*
X102930311Y-112539513D01*
X102858492Y-112561299D01*
X102855000Y-112563166D01*
X102851508Y-112561299D01*
X102786000Y-112541427D01*
X102786000Y-112248573D01*
X102851508Y-112228701D01*
X102855000Y-112226834D01*
X102858492Y-112228701D01*
X102930311Y-112250487D01*
X103005000Y-112257843D01*
X104005000Y-112257843D01*
X104079689Y-112250487D01*
X104151508Y-112228701D01*
X104217696Y-112193322D01*
X104275711Y-112145711D01*
X104323322Y-112087696D01*
X104358701Y-112021508D01*
X104380487Y-111949689D01*
X104387843Y-111875000D01*
X104387843Y-110375000D01*
X104380487Y-110300311D01*
X104358701Y-110228492D01*
X104323322Y-110162304D01*
X104275711Y-110104289D01*
X104217696Y-110056678D01*
X104151508Y-110021299D01*
X104079689Y-109999513D01*
X104005000Y-109992157D01*
X103005000Y-109992157D01*
X102930311Y-109999513D01*
X102858492Y-110021299D01*
X102855000Y-110023166D01*
X102851508Y-110021299D01*
X102786000Y-110001427D01*
X102786000Y-109708573D01*
X102851508Y-109688701D01*
X102855000Y-109686834D01*
X102858492Y-109688701D01*
X102930311Y-109710487D01*
X103005000Y-109717843D01*
X104005000Y-109717843D01*
X104079689Y-109710487D01*
X104151508Y-109688701D01*
X104217696Y-109653322D01*
X104275711Y-109605711D01*
X104323322Y-109547696D01*
X104358701Y-109481508D01*
X104380487Y-109409689D01*
X104387843Y-109335000D01*
X104387843Y-107835000D01*
X104380487Y-107760311D01*
X104358701Y-107688492D01*
X104323322Y-107622304D01*
X104275711Y-107564289D01*
X104217696Y-107516678D01*
X104151508Y-107481299D01*
X104079689Y-107459513D01*
X104005000Y-107452157D01*
X103005000Y-107452157D01*
X102930311Y-107459513D01*
X102858492Y-107481299D01*
X102855000Y-107483166D01*
X102851508Y-107481299D01*
X102779689Y-107459513D01*
X102705000Y-107452157D01*
X101705000Y-107452157D01*
X101630311Y-107459513D01*
X101558492Y-107481299D01*
X101492304Y-107516678D01*
X101434289Y-107564289D01*
X101386678Y-107622304D01*
X101351299Y-107688492D01*
X101329513Y-107760311D01*
X101322157Y-107835000D01*
X101322157Y-109335000D01*
X101329513Y-109409689D01*
X101351299Y-109481508D01*
X101386678Y-109547696D01*
X101434289Y-109605711D01*
X101492304Y-109653322D01*
X101558492Y-109688701D01*
X101624001Y-109708573D01*
X101624001Y-110001427D01*
X101558492Y-110021299D01*
X101492304Y-110056678D01*
X101434289Y-110104289D01*
X101386678Y-110162304D01*
X101351299Y-110228492D01*
X101329513Y-110300311D01*
X101322157Y-110375000D01*
X101322157Y-111875000D01*
X101329513Y-111949689D01*
X101351299Y-112021508D01*
X101386678Y-112087696D01*
X101434289Y-112145711D01*
X101492304Y-112193322D01*
X101558492Y-112228701D01*
X101624000Y-112248573D01*
X101624000Y-112541427D01*
X101558492Y-112561299D01*
X101492304Y-112596678D01*
X101434289Y-112644289D01*
X101386678Y-112702304D01*
X101351299Y-112768492D01*
X101329513Y-112840311D01*
X101322157Y-112915000D01*
X101322157Y-113294000D01*
X100911000Y-113294000D01*
X100911000Y-102454040D01*
X100913811Y-102425500D01*
X100902593Y-102311604D01*
X100869371Y-102202085D01*
X100815421Y-102101152D01*
X100802510Y-102085420D01*
X100742817Y-102012683D01*
X100720646Y-101994489D01*
X93799000Y-95072843D01*
X93799000Y-91255777D01*
X93793404Y-91227645D01*
X93790593Y-91199104D01*
X93782267Y-91171657D01*
X93776672Y-91143529D01*
X93765698Y-91117034D01*
X93757371Y-91089585D01*
X93743850Y-91064289D01*
X93732875Y-91037793D01*
X93716941Y-91013946D01*
X93703421Y-90988652D01*
X93685227Y-90966482D01*
X93669292Y-90942634D01*
X93649010Y-90922352D01*
X93630817Y-90900183D01*
X93608645Y-90881987D01*
X93588366Y-90861708D01*
X93564518Y-90845773D01*
X93542348Y-90827579D01*
X93520667Y-90815990D01*
X96448980Y-87887678D01*
X96452596Y-87905855D01*
%TA.AperFunction,Conductor*%
D25*
G36*
X96452596Y-87905855D02*
G01*
X96455407Y-87934396D01*
X96463733Y-87961843D01*
X96469328Y-87989971D01*
X96480302Y-88016466D01*
X96488629Y-88043915D01*
X96502150Y-88069211D01*
X96513125Y-88095707D01*
X96529059Y-88119554D01*
X96542579Y-88144848D01*
X96560773Y-88167018D01*
X96576708Y-88190866D01*
X96596987Y-88211145D01*
X96615183Y-88233317D01*
X96637355Y-88251513D01*
X96657634Y-88271792D01*
X96681482Y-88287727D01*
X96703652Y-88305921D01*
X96728946Y-88319441D01*
X96752793Y-88335375D01*
X96779289Y-88346350D01*
X96804585Y-88359871D01*
X96832034Y-88368198D01*
X96858529Y-88379172D01*
X96886657Y-88384767D01*
X96914104Y-88393093D01*
X96942645Y-88395904D01*
X96970777Y-88401500D01*
X99327343Y-88401500D01*
X101549987Y-90624145D01*
X101568183Y-90646317D01*
X101656652Y-90718921D01*
X101757585Y-90772871D01*
X101867104Y-90806093D01*
X101952460Y-90814500D01*
X101952462Y-90814500D01*
X101980999Y-90817311D01*
X102009536Y-90814500D01*
X104661343Y-90814500D01*
X105400501Y-91553659D01*
X105400500Y-100231539D01*
X105400501Y-100231549D01*
X105400500Y-118144960D01*
X105400500Y-118265539D01*
X105400501Y-118265549D01*
X105400500Y-123838342D01*
X104892355Y-124346488D01*
X104870184Y-124364683D01*
X104833001Y-124409991D01*
X104797579Y-124453153D01*
X104743629Y-124554086D01*
X104710407Y-124663605D01*
X104699189Y-124777500D01*
X104702001Y-124806050D01*
X104702000Y-127577777D01*
X104702000Y-127692223D01*
X104707596Y-127720356D01*
X104710407Y-127748895D01*
X104718732Y-127776340D01*
X104724328Y-127804471D01*
X104735304Y-127830969D01*
X104743629Y-127858414D01*
X104757148Y-127883707D01*
X104768125Y-127910207D01*
X104784062Y-127934058D01*
X104797579Y-127959347D01*
X104815771Y-127981514D01*
X104831708Y-128005366D01*
X104851989Y-128025647D01*
X104870183Y-128047817D01*
X104892355Y-128066013D01*
X104912634Y-128086292D01*
X104936482Y-128102227D01*
X104958652Y-128120421D01*
X104983946Y-128133941D01*
X105007793Y-128149875D01*
X105034289Y-128160850D01*
X105059585Y-128174371D01*
X105087034Y-128182698D01*
X105113529Y-128193672D01*
X105141657Y-128199267D01*
X105169104Y-128207593D01*
X105197645Y-128210404D01*
X105225777Y-128216000D01*
X105254460Y-128216000D01*
X105283000Y-128218811D01*
X105311540Y-128216000D01*
X105340223Y-128216000D01*
X105368356Y-128210404D01*
X105396895Y-128207593D01*
X105424340Y-128199268D01*
X105452471Y-128193672D01*
X105478969Y-128182696D01*
X105506414Y-128174371D01*
X105531707Y-128160852D01*
X105558207Y-128149875D01*
X105582058Y-128133938D01*
X105600499Y-128124081D01*
X105618946Y-128133941D01*
X105642793Y-128149875D01*
X105669289Y-128160850D01*
X105694585Y-128174371D01*
X105722034Y-128182698D01*
X105748529Y-128193672D01*
X105776657Y-128199267D01*
X105804104Y-128207593D01*
X105832645Y-128210404D01*
X105860777Y-128216000D01*
X105889460Y-128216000D01*
X105918000Y-128218811D01*
X105946540Y-128216000D01*
X105975223Y-128216000D01*
X106003356Y-128210404D01*
X106031895Y-128207593D01*
X106059340Y-128199268D01*
X106087471Y-128193672D01*
X106113969Y-128182696D01*
X106141414Y-128174371D01*
X106166707Y-128160852D01*
X106193207Y-128149875D01*
X106217058Y-128133938D01*
X106235499Y-128124081D01*
X106253946Y-128133941D01*
X106277793Y-128149875D01*
X106304289Y-128160850D01*
X106329585Y-128174371D01*
X106357034Y-128182698D01*
X106383529Y-128193672D01*
X106411657Y-128199267D01*
X106439104Y-128207593D01*
X106467645Y-128210404D01*
X106495777Y-128216000D01*
X106524460Y-128216000D01*
X106553000Y-128218811D01*
X106581540Y-128216000D01*
X106610223Y-128216000D01*
X106638356Y-128210404D01*
X106666895Y-128207593D01*
X106694340Y-128199268D01*
X106722471Y-128193672D01*
X106748969Y-128182696D01*
X106776414Y-128174371D01*
X106801707Y-128160852D01*
X106828207Y-128149875D01*
X106852058Y-128133938D01*
X106870499Y-128124081D01*
X106888946Y-128133941D01*
X106912793Y-128149875D01*
X106939289Y-128160850D01*
X106964585Y-128174371D01*
X106992034Y-128182698D01*
X107018529Y-128193672D01*
X107046657Y-128199267D01*
X107074104Y-128207593D01*
X107102645Y-128210404D01*
X107130777Y-128216000D01*
X107159460Y-128216000D01*
X107188000Y-128218811D01*
X107216540Y-128216000D01*
X107245223Y-128216000D01*
X107273356Y-128210404D01*
X107301895Y-128207593D01*
X107329340Y-128199268D01*
X107357471Y-128193672D01*
X107383969Y-128182696D01*
X107411414Y-128174371D01*
X107436707Y-128160852D01*
X107463207Y-128149875D01*
X107487058Y-128133938D01*
X107505499Y-128124081D01*
X107523946Y-128133941D01*
X107547793Y-128149875D01*
X107574289Y-128160850D01*
X107599585Y-128174371D01*
X107627034Y-128182698D01*
X107653529Y-128193672D01*
X107681657Y-128199267D01*
X107709104Y-128207593D01*
X107737645Y-128210404D01*
X107765777Y-128216000D01*
X107794460Y-128216000D01*
X107823000Y-128218811D01*
X107851540Y-128216000D01*
X107880223Y-128216000D01*
X107908356Y-128210404D01*
X107936895Y-128207593D01*
X107964340Y-128199268D01*
X107992471Y-128193672D01*
X108018969Y-128182696D01*
X108046414Y-128174371D01*
X108071707Y-128160852D01*
X108098207Y-128149875D01*
X108122058Y-128133938D01*
X108140499Y-128124081D01*
X108158946Y-128133941D01*
X108182793Y-128149875D01*
X108209289Y-128160850D01*
X108234585Y-128174371D01*
X108262034Y-128182698D01*
X108288529Y-128193672D01*
X108316657Y-128199267D01*
X108344104Y-128207593D01*
X108372645Y-128210404D01*
X108400777Y-128216000D01*
X108429460Y-128216000D01*
X108458000Y-128218811D01*
X108486540Y-128216000D01*
X108512001Y-128216000D01*
X108512000Y-130908460D01*
X108509189Y-130937000D01*
X108512000Y-130965539D01*
X108520407Y-131050895D01*
X108553629Y-131160414D01*
X108607579Y-131261347D01*
X108680183Y-131349817D01*
X108702360Y-131368017D01*
X109210501Y-131876159D01*
X109210500Y-139649842D01*
X107455343Y-141405000D01*
X100907777Y-141405000D01*
X100879645Y-141410596D01*
X100851104Y-141413407D01*
X100823657Y-141421733D01*
X100795529Y-141427328D01*
X100769034Y-141438302D01*
X100741585Y-141446629D01*
X100716289Y-141460150D01*
X100689793Y-141471125D01*
X100665946Y-141487059D01*
X100640652Y-141500579D01*
X100618482Y-141518773D01*
X100594634Y-141534708D01*
X100574355Y-141554987D01*
X100552183Y-141573183D01*
X100533990Y-141595352D01*
X100513708Y-141615634D01*
X100497773Y-141639482D01*
X100479579Y-141661652D01*
X100466059Y-141686946D01*
X100450125Y-141710793D01*
X100439150Y-141737289D01*
X100425629Y-141762585D01*
X100417302Y-141790034D01*
X100406328Y-141816529D01*
X100400733Y-141844657D01*
X100392407Y-141872104D01*
X100389596Y-141900645D01*
X100384000Y-141928777D01*
X100384000Y-141957460D01*
X100381189Y-141986000D01*
X100384000Y-142014539D01*
X100384000Y-142043223D01*
X100389596Y-142071355D01*
X100392407Y-142099896D01*
X100400733Y-142127343D01*
X100406328Y-142155471D01*
X100417302Y-142181966D01*
X100425629Y-142209415D01*
X100439150Y-142234711D01*
X100450125Y-142261207D01*
X100466059Y-142285054D01*
X100479579Y-142310348D01*
X100497773Y-142332518D01*
X100513708Y-142356366D01*
X100533987Y-142376645D01*
X100552183Y-142398817D01*
X100574355Y-142417013D01*
X100594634Y-142437292D01*
X100618482Y-142453227D01*
X100640652Y-142471421D01*
X100665946Y-142484941D01*
X100689793Y-142500875D01*
X100716289Y-142511850D01*
X100741585Y-142525371D01*
X100769034Y-142533698D01*
X100795529Y-142544672D01*
X100823657Y-142550267D01*
X100851104Y-142558593D01*
X100879645Y-142561404D01*
X100907777Y-142567000D01*
X105532213Y-142567000D01*
X105505183Y-142589183D01*
X105486990Y-142611352D01*
X101984843Y-146113500D01*
X99653701Y-146113500D01*
X99653701Y-145048521D01*
X99665986Y-145056730D01*
X99688153Y-145074921D01*
X99713443Y-145088439D01*
X99737293Y-145104375D01*
X99763790Y-145115350D01*
X99789085Y-145128871D01*
X99816534Y-145137198D01*
X99843029Y-145148172D01*
X99871157Y-145153767D01*
X99898604Y-145162093D01*
X99927145Y-145164904D01*
X99955277Y-145170500D01*
X99983960Y-145170500D01*
X100012500Y-145173311D01*
X100041040Y-145170500D01*
X100069723Y-145170500D01*
X100097856Y-145164904D01*
X100126395Y-145162093D01*
X100153840Y-145153768D01*
X100181971Y-145148172D01*
X100208469Y-145137196D01*
X100235914Y-145128871D01*
X100261207Y-145115352D01*
X100287707Y-145104375D01*
X100311558Y-145088438D01*
X100336847Y-145074921D01*
X100359011Y-145056731D01*
X100382866Y-145040792D01*
X100403154Y-145020504D01*
X100425316Y-145002316D01*
X100443504Y-144980154D01*
X100463792Y-144959866D01*
X100479731Y-144936011D01*
X100497921Y-144913847D01*
X100511438Y-144888558D01*
X100527375Y-144864707D01*
X100538352Y-144838207D01*
X100551871Y-144812914D01*
X100560196Y-144785469D01*
X100571172Y-144758971D01*
X100576768Y-144730840D01*
X100585093Y-144703395D01*
X100587904Y-144674856D01*
X100593500Y-144646723D01*
X100593500Y-144618040D01*
X100596311Y-144589500D01*
X100593500Y-144560960D01*
X100593500Y-144532277D01*
X100587904Y-144504145D01*
X100585093Y-144475604D01*
X100576767Y-144448157D01*
X100571172Y-144420029D01*
X100560198Y-144393534D01*
X100551871Y-144366085D01*
X100538350Y-144340790D01*
X100527375Y-144314293D01*
X100511439Y-144290443D01*
X100497921Y-144265153D01*
X100479730Y-144242986D01*
X100463792Y-144219134D01*
X100382866Y-144138208D01*
X100382865Y-144138208D01*
X100276000Y-144031342D01*
X100276000Y-134937500D01*
X100508189Y-134937500D01*
X100511000Y-134966040D01*
X100511000Y-134994723D01*
X100516596Y-135022855D01*
X100519407Y-135051396D01*
X100527733Y-135078843D01*
X100533328Y-135106971D01*
X100544302Y-135133466D01*
X100552629Y-135160915D01*
X100566150Y-135186211D01*
X100577125Y-135212707D01*
X100593059Y-135236554D01*
X100606579Y-135261848D01*
X100624773Y-135284018D01*
X100640708Y-135307866D01*
X100660987Y-135328145D01*
X100679183Y-135350317D01*
X100701355Y-135368513D01*
X100721634Y-135388792D01*
X100745482Y-135404727D01*
X100767652Y-135422921D01*
X100792946Y-135436441D01*
X100816793Y-135452375D01*
X100843289Y-135463350D01*
X100868585Y-135476871D01*
X100896034Y-135485198D01*
X100922529Y-135496172D01*
X100950657Y-135501767D01*
X100978104Y-135510093D01*
X101006645Y-135512904D01*
X101034777Y-135518500D01*
X101352364Y-135518500D01*
X101386678Y-135582696D01*
X101434289Y-135640711D01*
X101492304Y-135688322D01*
X101558492Y-135723701D01*
X101630311Y-135745487D01*
X101705000Y-135752843D01*
X102705000Y-135752843D01*
X102779689Y-135745487D01*
X102851508Y-135723701D01*
X102855000Y-135721834D01*
X102858492Y-135723701D01*
X102930311Y-135745487D01*
X103005000Y-135752843D01*
X104005000Y-135752843D01*
X104079689Y-135745487D01*
X104151508Y-135723701D01*
X104217696Y-135688322D01*
X104275711Y-135640711D01*
X104323322Y-135582696D01*
X104358701Y-135516508D01*
X104380487Y-135444689D01*
X104387843Y-135370000D01*
X104387843Y-133870000D01*
X104380487Y-133795311D01*
X104358701Y-133723492D01*
X104323322Y-133657304D01*
X104275711Y-133599289D01*
X104217696Y-133551678D01*
X104151508Y-133516299D01*
X104079689Y-133494513D01*
X104005000Y-133487157D01*
X103005000Y-133487157D01*
X102930311Y-133494513D01*
X102858492Y-133516299D01*
X102855000Y-133518166D01*
X102851508Y-133516299D01*
X102786000Y-133496427D01*
X102786000Y-133203573D01*
X102851508Y-133183701D01*
X102855000Y-133181834D01*
X102858492Y-133183701D01*
X102930311Y-133205487D01*
X103005000Y-133212843D01*
X104005000Y-133212843D01*
X104079689Y-133205487D01*
X104151508Y-133183701D01*
X104217696Y-133148322D01*
X104275711Y-133100711D01*
X104323322Y-133042696D01*
X104358701Y-132976508D01*
X104380487Y-132904689D01*
X104387843Y-132830000D01*
X104387843Y-131330000D01*
X104380487Y-131255311D01*
X104358701Y-131183492D01*
X104323322Y-131117304D01*
X104275711Y-131059289D01*
X104217696Y-131011678D01*
X104151508Y-130976299D01*
X104079689Y-130954513D01*
X104005000Y-130947157D01*
X103005000Y-130947157D01*
X102930311Y-130954513D01*
X102858492Y-130976299D01*
X102855000Y-130978166D01*
X102851508Y-130976299D01*
X102786000Y-130956427D01*
X102786000Y-130663573D01*
X102851508Y-130643701D01*
X102855000Y-130641834D01*
X102858492Y-130643701D01*
X102930311Y-130665487D01*
X103005000Y-130672843D01*
X104005000Y-130672843D01*
X104079689Y-130665487D01*
X104151508Y-130643701D01*
X104217696Y-130608322D01*
X104275711Y-130560711D01*
X104323322Y-130502696D01*
X104358701Y-130436508D01*
X104380487Y-130364689D01*
X104387843Y-130290000D01*
X104387843Y-128790000D01*
X104380487Y-128715311D01*
X104358701Y-128643492D01*
X104323322Y-128577304D01*
X104275711Y-128519289D01*
X104217696Y-128471678D01*
X104151508Y-128436299D01*
X104079689Y-128414513D01*
X104005000Y-128407157D01*
X103005000Y-128407157D01*
X102930311Y-128414513D01*
X102858492Y-128436299D01*
X102855000Y-128438166D01*
X102851508Y-128436299D01*
X102779689Y-128414513D01*
X102705000Y-128407157D01*
X101705000Y-128407157D01*
X101630311Y-128414513D01*
X101558492Y-128436299D01*
X101492304Y-128471678D01*
X101434289Y-128519289D01*
X101386678Y-128577304D01*
X101351299Y-128643492D01*
X101329513Y-128715311D01*
X101322157Y-128790000D01*
X101322157Y-130290000D01*
X101329513Y-130364689D01*
X101351299Y-130436508D01*
X101386678Y-130502696D01*
X101434289Y-130560711D01*
X101492304Y-130608322D01*
X101558492Y-130643701D01*
X101624000Y-130663573D01*
X101624000Y-130956427D01*
X101558492Y-130976299D01*
X101492304Y-131011678D01*
X101434289Y-131059289D01*
X101386678Y-131117304D01*
X101351299Y-131183492D01*
X101329513Y-131255311D01*
X101322157Y-131330000D01*
X101322157Y-132830000D01*
X101329513Y-132904689D01*
X101351299Y-132976508D01*
X101386678Y-133042696D01*
X101434289Y-133100711D01*
X101492304Y-133148322D01*
X101558492Y-133183701D01*
X101624001Y-133203573D01*
X101624001Y-133496427D01*
X101558492Y-133516299D01*
X101492304Y-133551678D01*
X101434289Y-133599289D01*
X101386678Y-133657304D01*
X101351299Y-133723492D01*
X101329513Y-133795311D01*
X101322157Y-133870000D01*
X101322157Y-134356500D01*
X101034777Y-134356500D01*
X101006645Y-134362096D01*
X100978104Y-134364907D01*
X100950657Y-134373233D01*
X100922529Y-134378828D01*
X100896034Y-134389802D01*
X100868585Y-134398129D01*
X100843289Y-134411650D01*
X100816793Y-134422625D01*
X100792946Y-134438559D01*
X100767652Y-134452079D01*
X100745482Y-134470273D01*
X100721634Y-134486208D01*
X100701355Y-134506487D01*
X100679183Y-134524683D01*
X100660990Y-134546852D01*
X100640708Y-134567134D01*
X100624773Y-134590982D01*
X100606579Y-134613152D01*
X100593059Y-134638446D01*
X100577125Y-134662293D01*
X100566150Y-134688789D01*
X100552629Y-134714085D01*
X100544302Y-134741534D01*
X100533328Y-134768029D01*
X100527733Y-134796157D01*
X100519407Y-134823604D01*
X100516596Y-134852145D01*
X100511000Y-134880277D01*
X100511000Y-134908960D01*
X100508189Y-134937500D01*
X100276000Y-134937500D01*
X100276000Y-115725540D01*
X100278811Y-115697000D01*
X100276000Y-115668460D01*
X100276000Y-115639777D01*
X100270404Y-115611645D01*
X100267593Y-115583104D01*
X100260690Y-115560347D01*
X100513708Y-115813366D01*
X100533987Y-115833645D01*
X100552183Y-115855817D01*
X100574355Y-115874013D01*
X100594634Y-115894292D01*
X100618482Y-115910227D01*
X100629395Y-115919183D01*
X100640652Y-115928421D01*
X100665946Y-115941941D01*
X100689793Y-115957875D01*
X100716289Y-115968850D01*
X100741585Y-115982371D01*
X100769034Y-115990698D01*
X100795529Y-116001672D01*
X100823657Y-116007267D01*
X100851104Y-116015593D01*
X100879645Y-116018404D01*
X100907777Y-116024000D01*
X100936460Y-116024000D01*
X100965000Y-116026811D01*
X100993540Y-116024000D01*
X101022223Y-116024000D01*
X101050355Y-116018404D01*
X101078896Y-116015593D01*
X101105074Y-116007652D01*
X101106343Y-116007267D01*
X101134471Y-116001672D01*
X101160966Y-115990698D01*
X101188415Y-115982371D01*
X101213711Y-115968850D01*
X101240207Y-115957875D01*
X101264054Y-115941941D01*
X101289348Y-115928421D01*
X101311518Y-115910227D01*
X101335366Y-115894292D01*
X101355645Y-115874013D01*
X101377817Y-115855817D01*
X101396013Y-115833645D01*
X101416292Y-115813366D01*
X101432227Y-115789518D01*
X101450421Y-115767348D01*
X101463941Y-115742054D01*
X101479875Y-115718207D01*
X101490850Y-115691711D01*
X101504371Y-115666415D01*
X101512698Y-115638966D01*
X101523672Y-115612471D01*
X101529267Y-115584343D01*
X101537593Y-115556896D01*
X101540404Y-115528355D01*
X101546000Y-115500223D01*
X101546000Y-115471539D01*
X101548811Y-115443000D01*
X101546000Y-115414460D01*
X101546000Y-115385777D01*
X101540404Y-115357645D01*
X101537593Y-115329104D01*
X101529267Y-115301657D01*
X101523672Y-115273529D01*
X101512698Y-115247034D01*
X101504371Y-115219585D01*
X101490850Y-115194289D01*
X101479875Y-115167793D01*
X101463941Y-115143946D01*
X101450421Y-115118652D01*
X101432227Y-115096482D01*
X101416292Y-115072634D01*
X101396010Y-115052352D01*
X101377817Y-115030183D01*
X101355645Y-115011987D01*
X101335366Y-114991708D01*
X100911000Y-114567343D01*
X100911000Y-114456000D01*
X101326195Y-114456000D01*
X101329513Y-114489689D01*
X101351299Y-114561508D01*
X101386678Y-114627696D01*
X101434289Y-114685711D01*
X101492304Y-114733322D01*
X101558492Y-114768701D01*
X101630311Y-114790487D01*
X101705000Y-114797843D01*
X102705000Y-114797843D01*
X102779689Y-114790487D01*
X102851508Y-114768701D01*
X102855000Y-114766834D01*
X102858492Y-114768701D01*
X102930311Y-114790487D01*
X103005000Y-114797843D01*
X104005000Y-114797843D01*
X104079689Y-114790487D01*
X104151508Y-114768701D01*
X104217696Y-114733322D01*
X104275711Y-114685711D01*
X104323322Y-114627696D01*
X104358701Y-114561508D01*
X104380487Y-114489689D01*
X104387843Y-114415000D01*
X104387843Y-112915000D01*
X104380487Y-112840311D01*
X104358701Y-112768492D01*
X104323322Y-112702304D01*
X104275711Y-112644289D01*
X104217696Y-112596678D01*
X104151508Y-112561299D01*
X104079689Y-112539513D01*
X104005000Y-112532157D01*
X103005000Y-112532157D01*
X102930311Y-112539513D01*
X102858492Y-112561299D01*
X102855000Y-112563166D01*
X102851508Y-112561299D01*
X102786000Y-112541427D01*
X102786000Y-112248573D01*
X102851508Y-112228701D01*
X102855000Y-112226834D01*
X102858492Y-112228701D01*
X102930311Y-112250487D01*
X103005000Y-112257843D01*
X104005000Y-112257843D01*
X104079689Y-112250487D01*
X104151508Y-112228701D01*
X104217696Y-112193322D01*
X104275711Y-112145711D01*
X104323322Y-112087696D01*
X104358701Y-112021508D01*
X104380487Y-111949689D01*
X104387843Y-111875000D01*
X104387843Y-110375000D01*
X104380487Y-110300311D01*
X104358701Y-110228492D01*
X104323322Y-110162304D01*
X104275711Y-110104289D01*
X104217696Y-110056678D01*
X104151508Y-110021299D01*
X104079689Y-109999513D01*
X104005000Y-109992157D01*
X103005000Y-109992157D01*
X102930311Y-109999513D01*
X102858492Y-110021299D01*
X102855000Y-110023166D01*
X102851508Y-110021299D01*
X102786000Y-110001427D01*
X102786000Y-109708573D01*
X102851508Y-109688701D01*
X102855000Y-109686834D01*
X102858492Y-109688701D01*
X102930311Y-109710487D01*
X103005000Y-109717843D01*
X104005000Y-109717843D01*
X104079689Y-109710487D01*
X104151508Y-109688701D01*
X104217696Y-109653322D01*
X104275711Y-109605711D01*
X104323322Y-109547696D01*
X104358701Y-109481508D01*
X104380487Y-109409689D01*
X104387843Y-109335000D01*
X104387843Y-107835000D01*
X104380487Y-107760311D01*
X104358701Y-107688492D01*
X104323322Y-107622304D01*
X104275711Y-107564289D01*
X104217696Y-107516678D01*
X104151508Y-107481299D01*
X104079689Y-107459513D01*
X104005000Y-107452157D01*
X103005000Y-107452157D01*
X102930311Y-107459513D01*
X102858492Y-107481299D01*
X102855000Y-107483166D01*
X102851508Y-107481299D01*
X102779689Y-107459513D01*
X102705000Y-107452157D01*
X101705000Y-107452157D01*
X101630311Y-107459513D01*
X101558492Y-107481299D01*
X101492304Y-107516678D01*
X101434289Y-107564289D01*
X101386678Y-107622304D01*
X101351299Y-107688492D01*
X101329513Y-107760311D01*
X101322157Y-107835000D01*
X101322157Y-109335000D01*
X101329513Y-109409689D01*
X101351299Y-109481508D01*
X101386678Y-109547696D01*
X101434289Y-109605711D01*
X101492304Y-109653322D01*
X101558492Y-109688701D01*
X101624001Y-109708573D01*
X101624001Y-110001427D01*
X101558492Y-110021299D01*
X101492304Y-110056678D01*
X101434289Y-110104289D01*
X101386678Y-110162304D01*
X101351299Y-110228492D01*
X101329513Y-110300311D01*
X101322157Y-110375000D01*
X101322157Y-111875000D01*
X101329513Y-111949689D01*
X101351299Y-112021508D01*
X101386678Y-112087696D01*
X101434289Y-112145711D01*
X101492304Y-112193322D01*
X101558492Y-112228701D01*
X101624000Y-112248573D01*
X101624000Y-112541427D01*
X101558492Y-112561299D01*
X101492304Y-112596678D01*
X101434289Y-112644289D01*
X101386678Y-112702304D01*
X101351299Y-112768492D01*
X101329513Y-112840311D01*
X101322157Y-112915000D01*
X101322157Y-113294000D01*
X100911000Y-113294000D01*
X100911000Y-102454040D01*
X100913811Y-102425500D01*
X100902593Y-102311604D01*
X100869371Y-102202085D01*
X100815421Y-102101152D01*
X100802510Y-102085420D01*
X100742817Y-102012683D01*
X100720646Y-101994489D01*
X93799000Y-95072843D01*
X93799000Y-91255777D01*
X93793404Y-91227645D01*
X93790593Y-91199104D01*
X93782267Y-91171657D01*
X93776672Y-91143529D01*
X93765698Y-91117034D01*
X93757371Y-91089585D01*
X93743850Y-91064289D01*
X93732875Y-91037793D01*
X93716941Y-91013946D01*
X93703421Y-90988652D01*
X93685227Y-90966482D01*
X93669292Y-90942634D01*
X93649010Y-90922352D01*
X93630817Y-90900183D01*
X93608645Y-90881987D01*
X93588366Y-90861708D01*
X93564518Y-90845773D01*
X93542348Y-90827579D01*
X93520667Y-90815990D01*
X96448980Y-87887678D01*
X96452596Y-87905855D01*
G37*
%TD.AperFunction*%
D24*
X114871500Y-141680811D02*
X114900040Y-141678000D01*
X114925501Y-141678000D01*
X114925500Y-142253341D01*
X113922056Y-143256787D01*
X113899885Y-143274982D01*
X113847772Y-143338482D01*
X113827280Y-143363452D01*
X113773330Y-143464385D01*
X113740108Y-143573904D01*
X113728890Y-143687799D01*
X113731702Y-143716349D01*
X113731702Y-146113500D01*
X112353701Y-146113500D01*
X112353701Y-144690456D01*
X114627146Y-142417012D01*
X114649317Y-142398817D01*
X114721921Y-142310348D01*
X114775871Y-142209415D01*
X114809093Y-142099896D01*
X114817500Y-142014540D01*
X114817500Y-142014539D01*
X114820311Y-141986000D01*
X114817500Y-141957460D01*
X114817500Y-141678000D01*
X114842960Y-141678000D01*
X114871500Y-141680811D01*
%TA.AperFunction,Conductor*%
D25*
G36*
X114871500Y-141680811D02*
G01*
X114900040Y-141678000D01*
X114925501Y-141678000D01*
X114925500Y-142253341D01*
X113922056Y-143256787D01*
X113899885Y-143274982D01*
X113847772Y-143338482D01*
X113827280Y-143363452D01*
X113773330Y-143464385D01*
X113740108Y-143573904D01*
X113728890Y-143687799D01*
X113731702Y-143716349D01*
X113731702Y-146113500D01*
X112353701Y-146113500D01*
X112353701Y-144690456D01*
X114627146Y-142417012D01*
X114649317Y-142398817D01*
X114721921Y-142310348D01*
X114775871Y-142209415D01*
X114809093Y-142099896D01*
X114817500Y-142014540D01*
X114817500Y-142014539D01*
X114820311Y-141986000D01*
X114817500Y-141957460D01*
X114817500Y-141678000D01*
X114842960Y-141678000D01*
X114871500Y-141680811D01*
G37*
%TD.AperFunction*%
D24*
X118999002Y-110541501D02*
X118442034Y-110541501D01*
X118422701Y-110539597D01*
X118403368Y-110541501D01*
X118345522Y-110547198D01*
X118271310Y-110569711D01*
X118202915Y-110606268D01*
X118142967Y-110655467D01*
X118093768Y-110715415D01*
X118057211Y-110783810D01*
X118034698Y-110858022D01*
X118027097Y-110935201D01*
X118029001Y-110954534D01*
X118029002Y-116513358D01*
X118027097Y-116532701D01*
X118029002Y-116552044D01*
X118029002Y-116554534D01*
X118034699Y-116612380D01*
X118057212Y-116686592D01*
X118093769Y-116754987D01*
X118142968Y-116814935D01*
X118202916Y-116864134D01*
X118271311Y-116900691D01*
X118345523Y-116923204D01*
X118422701Y-116930805D01*
X118467418Y-116926401D01*
X118999001Y-116926401D01*
X118999002Y-127389001D01*
X118442034Y-127389001D01*
X118422701Y-127387097D01*
X118403368Y-127389001D01*
X118345522Y-127394698D01*
X118271310Y-127417211D01*
X118202915Y-127453768D01*
X118142967Y-127502967D01*
X118093768Y-127562915D01*
X118057211Y-127631310D01*
X118034698Y-127705522D01*
X118027097Y-127782701D01*
X118029001Y-127802034D01*
X118029002Y-133513358D01*
X118027097Y-133532701D01*
X118034698Y-133609880D01*
X118057211Y-133684092D01*
X118093768Y-133752487D01*
X118142967Y-133812435D01*
X118202915Y-133861634D01*
X118271310Y-133898191D01*
X118345522Y-133920704D01*
X118403368Y-133926401D01*
X118422701Y-133928305D01*
X118442034Y-133926401D01*
X118999001Y-133926401D01*
X118999001Y-135956701D01*
X117678201Y-135956701D01*
X117637789Y-135960663D01*
X117597440Y-135964335D01*
X117595991Y-135964761D01*
X117594486Y-135964909D01*
X117555643Y-135976637D01*
X117516746Y-135988085D01*
X117515407Y-135988785D01*
X117513960Y-135989222D01*
X117478130Y-136008273D01*
X117442201Y-136027056D01*
X117441025Y-136028002D01*
X117439689Y-136028712D01*
X117408268Y-136054338D01*
X117376646Y-136079763D01*
X117375673Y-136080923D01*
X117374504Y-136081876D01*
X117348693Y-136113076D01*
X117322577Y-136144200D01*
X117321848Y-136145526D01*
X117320886Y-136146689D01*
X117301603Y-136182352D01*
X117282054Y-136217912D01*
X117281597Y-136219352D01*
X117280878Y-136220682D01*
X117268884Y-136259428D01*
X117256619Y-136298091D01*
X117256450Y-136299594D01*
X117256004Y-136301036D01*
X117251770Y-136341320D01*
X117247243Y-136381683D01*
X117247223Y-136384590D01*
X117247212Y-136384692D01*
X117247221Y-136384794D01*
X117247201Y-136387701D01*
X117247201Y-145904634D01*
X117138451Y-145905201D01*
X116979701Y-146063951D01*
X116979701Y-146113500D01*
X116725701Y-146113500D01*
X116725701Y-146063951D01*
X116566951Y-145905201D01*
X115977701Y-145902129D01*
X115853219Y-145914389D01*
X115733521Y-145950699D01*
X115623207Y-146009664D01*
X115526516Y-146089016D01*
X115506423Y-146113500D01*
X114893701Y-146113500D01*
X114893701Y-143928456D01*
X115897152Y-142925007D01*
X115919317Y-142906817D01*
X115991921Y-142818348D01*
X116045871Y-142717415D01*
X116079093Y-142607896D01*
X116087500Y-142522540D01*
X116087500Y-142522539D01*
X116090311Y-142494000D01*
X116087500Y-142465460D01*
X116087500Y-141125539D01*
X116090311Y-141097000D01*
X116087500Y-141068460D01*
X116087500Y-141039777D01*
X116081904Y-141011645D01*
X116079093Y-140983104D01*
X116070767Y-140955657D01*
X116065172Y-140927529D01*
X116054198Y-140901034D01*
X116045871Y-140873585D01*
X116032350Y-140848289D01*
X116021375Y-140821793D01*
X116005441Y-140797946D01*
X115991921Y-140772652D01*
X115973727Y-140750482D01*
X115957792Y-140726634D01*
X115937513Y-140706355D01*
X115919317Y-140684183D01*
X115897145Y-140665987D01*
X115876866Y-140645708D01*
X115853018Y-140629773D01*
X115830848Y-140611579D01*
X115805554Y-140598059D01*
X115781707Y-140582125D01*
X115755211Y-140571150D01*
X115729915Y-140557629D01*
X115702466Y-140549302D01*
X115675971Y-140538328D01*
X115647843Y-140532733D01*
X115620396Y-140524407D01*
X115591855Y-140521596D01*
X115563723Y-140516000D01*
X115535040Y-140516000D01*
X115506500Y-140513189D01*
X115477960Y-140516000D01*
X115452500Y-140516000D01*
X115452500Y-135582000D01*
X115477960Y-135582000D01*
X115506500Y-135584811D01*
X115535040Y-135582000D01*
X115563723Y-135582000D01*
X115591856Y-135576404D01*
X115620395Y-135573593D01*
X115647840Y-135565268D01*
X115675971Y-135559672D01*
X115702469Y-135548696D01*
X115729914Y-135540371D01*
X115755207Y-135526852D01*
X115781707Y-135515875D01*
X115805558Y-135499938D01*
X115830847Y-135486421D01*
X115853014Y-135468229D01*
X115876866Y-135452292D01*
X115897147Y-135432011D01*
X115919317Y-135413817D01*
X115937513Y-135391645D01*
X115957792Y-135371366D01*
X115973727Y-135347518D01*
X115991921Y-135325348D01*
X116005441Y-135300054D01*
X116021375Y-135276207D01*
X116032350Y-135249711D01*
X116045871Y-135224415D01*
X116054198Y-135196966D01*
X116065172Y-135170471D01*
X116070767Y-135142343D01*
X116079093Y-135114896D01*
X116081904Y-135086355D01*
X116087500Y-135058223D01*
X116087500Y-131368157D01*
X116595646Y-130860012D01*
X116617817Y-130841817D01*
X116690421Y-130753348D01*
X116744371Y-130652415D01*
X116777593Y-130542896D01*
X116783507Y-130482851D01*
X116788811Y-130429001D01*
X116786000Y-130400461D01*
X116786000Y-128425539D01*
X116788811Y-128396999D01*
X116777593Y-128283104D01*
X116744371Y-128173585D01*
X116740092Y-128165579D01*
X116690421Y-128072652D01*
X116617817Y-127984183D01*
X116595645Y-127965987D01*
X116087500Y-127457843D01*
X116087500Y-114392040D01*
X116090311Y-114363500D01*
X116087500Y-114334960D01*
X116087500Y-114306277D01*
X116081904Y-114278145D01*
X116079093Y-114249604D01*
X116070767Y-114222157D01*
X116065172Y-114194029D01*
X116054198Y-114167534D01*
X116045871Y-114140085D01*
X116032350Y-114114789D01*
X116021375Y-114088293D01*
X116005441Y-114064446D01*
X115991921Y-114039152D01*
X115973727Y-114016982D01*
X115957792Y-113993134D01*
X115937513Y-113972855D01*
X115919317Y-113950683D01*
X115897145Y-113932487D01*
X115876866Y-113912208D01*
X115853018Y-113896273D01*
X115830848Y-113878079D01*
X115805554Y-113864559D01*
X115781707Y-113848625D01*
X115755211Y-113837650D01*
X115729915Y-113824129D01*
X115702466Y-113815802D01*
X115675971Y-113804828D01*
X115647843Y-113799233D01*
X115620396Y-113790907D01*
X115591855Y-113788096D01*
X115563723Y-113782500D01*
X115535040Y-113782500D01*
X115506500Y-113779689D01*
X115477960Y-113782500D01*
X115449277Y-113782500D01*
X115421145Y-113788096D01*
X115392604Y-113790907D01*
X115365157Y-113799233D01*
X115337029Y-113804828D01*
X115310534Y-113815802D01*
X115283085Y-113824129D01*
X115257789Y-113837650D01*
X115231293Y-113848625D01*
X115207446Y-113864559D01*
X115182152Y-113878079D01*
X115159982Y-113896273D01*
X115136134Y-113912208D01*
X115115855Y-113932487D01*
X115093683Y-113950683D01*
X115075487Y-113972855D01*
X115055208Y-113993134D01*
X115039273Y-114016982D01*
X115021079Y-114039152D01*
X115007559Y-114064446D01*
X114991625Y-114088293D01*
X114980650Y-114114789D01*
X114967129Y-114140085D01*
X114958802Y-114167534D01*
X114947828Y-114194029D01*
X114942233Y-114222157D01*
X114933907Y-114249604D01*
X114931096Y-114278145D01*
X114925500Y-114306277D01*
X114925500Y-114334960D01*
X114922689Y-114363500D01*
X114925500Y-114392040D01*
X114925500Y-114417500D01*
X114900040Y-114417500D01*
X114871500Y-114414689D01*
X114842960Y-114417500D01*
X114817500Y-114417500D01*
X114817500Y-110349658D01*
X114985010Y-110182148D01*
X114985014Y-110182143D01*
X115389145Y-109778013D01*
X115411317Y-109759817D01*
X115429513Y-109737645D01*
X115449792Y-109717366D01*
X115465727Y-109693518D01*
X115483921Y-109671348D01*
X115497441Y-109646054D01*
X115513375Y-109622207D01*
X115524350Y-109595711D01*
X115537871Y-109570415D01*
X115546198Y-109542966D01*
X115557172Y-109516471D01*
X115562767Y-109488343D01*
X115571093Y-109460896D01*
X115573904Y-109432355D01*
X115579500Y-109404223D01*
X115579500Y-109375540D01*
X115582311Y-109347000D01*
X115579500Y-109318460D01*
X115579500Y-109289777D01*
X115573904Y-109261645D01*
X115571093Y-109233104D01*
X115562767Y-109205657D01*
X115557172Y-109177529D01*
X115546198Y-109151034D01*
X115537871Y-109123585D01*
X115524350Y-109098289D01*
X115513375Y-109071793D01*
X115497441Y-109047946D01*
X115483921Y-109022652D01*
X115465727Y-109000482D01*
X115449792Y-108976634D01*
X115429513Y-108956355D01*
X115411317Y-108934183D01*
X115389145Y-108915987D01*
X115368866Y-108895708D01*
X115345018Y-108879773D01*
X115322848Y-108861579D01*
X115297554Y-108848059D01*
X115273707Y-108832125D01*
X115247211Y-108821150D01*
X115221915Y-108807629D01*
X115194466Y-108799302D01*
X115167971Y-108788328D01*
X115139843Y-108782733D01*
X115112396Y-108774407D01*
X115083855Y-108771596D01*
X115055723Y-108766000D01*
X115027040Y-108766000D01*
X114998500Y-108763189D01*
X114969960Y-108766000D01*
X114941277Y-108766000D01*
X114913145Y-108771596D01*
X114884604Y-108774407D01*
X114857157Y-108782733D01*
X114829029Y-108788328D01*
X114802534Y-108799302D01*
X114775085Y-108807629D01*
X114749789Y-108821150D01*
X114723293Y-108832125D01*
X114699446Y-108848059D01*
X114674152Y-108861579D01*
X114651982Y-108879773D01*
X114628134Y-108895708D01*
X114607855Y-108915987D01*
X114585683Y-108934183D01*
X114567487Y-108956355D01*
X114163357Y-109360486D01*
X114163352Y-109360490D01*
X113845855Y-109677988D01*
X113823684Y-109696183D01*
X113805491Y-109718352D01*
X113751079Y-109784653D01*
X113697129Y-109885586D01*
X113681096Y-109938439D01*
X112912500Y-109169843D01*
X112912500Y-108972277D01*
X112906904Y-108944144D01*
X112904093Y-108915605D01*
X112895768Y-108888159D01*
X112890172Y-108860029D01*
X112879197Y-108833534D01*
X112870871Y-108806085D01*
X112857350Y-108780789D01*
X112846375Y-108754293D01*
X112830441Y-108730446D01*
X112816921Y-108705152D01*
X112798727Y-108682982D01*
X112782792Y-108659134D01*
X112762513Y-108638855D01*
X112744317Y-108616683D01*
X112722145Y-108598487D01*
X112701866Y-108578208D01*
X112678018Y-108562273D01*
X112655848Y-108544079D01*
X112630554Y-108530559D01*
X112606707Y-108514625D01*
X112580211Y-108503650D01*
X112554915Y-108490129D01*
X112527466Y-108481802D01*
X112500971Y-108470828D01*
X112472843Y-108465233D01*
X112445396Y-108456907D01*
X112416855Y-108454096D01*
X112388723Y-108448500D01*
X112360040Y-108448500D01*
X112331500Y-108445689D01*
X112302960Y-108448500D01*
X112274277Y-108448500D01*
X112246144Y-108454096D01*
X112217605Y-108456907D01*
X112190160Y-108465232D01*
X112162029Y-108470828D01*
X112152026Y-108474971D01*
X112147792Y-108468634D01*
X112127513Y-108448355D01*
X112109317Y-108426183D01*
X112087145Y-108407987D01*
X112066866Y-108387708D01*
X112043018Y-108371773D01*
X112020848Y-108353579D01*
X111995554Y-108340059D01*
X111971707Y-108324125D01*
X111945211Y-108313150D01*
X111919915Y-108299629D01*
X111892466Y-108291302D01*
X111865971Y-108280328D01*
X111837843Y-108274733D01*
X111830741Y-108272579D01*
X111833000Y-108261223D01*
X111833000Y-108232540D01*
X111835811Y-108204000D01*
X111833000Y-108175460D01*
X111833000Y-108146777D01*
X111827404Y-108118645D01*
X111824593Y-108090104D01*
X111816267Y-108062658D01*
X111810672Y-108034529D01*
X111799697Y-108008032D01*
X111791371Y-107980586D01*
X111777852Y-107955293D01*
X111766875Y-107928793D01*
X111750938Y-107904942D01*
X111737421Y-107879653D01*
X111719231Y-107857489D01*
X111703292Y-107833634D01*
X111683004Y-107813346D01*
X111664816Y-107791184D01*
X111642654Y-107772996D01*
X111622366Y-107752708D01*
X111598511Y-107736769D01*
X111576347Y-107718579D01*
X111551058Y-107705062D01*
X111527207Y-107689125D01*
X111500707Y-107678148D01*
X111475414Y-107664629D01*
X111447968Y-107656303D01*
X111421471Y-107645328D01*
X111393342Y-107639733D01*
X111365896Y-107631407D01*
X111337355Y-107628596D01*
X111309223Y-107623000D01*
X111280540Y-107623000D01*
X111252000Y-107620189D01*
X111223460Y-107623000D01*
X111194777Y-107623000D01*
X111166645Y-107628596D01*
X111138104Y-107631407D01*
X111110658Y-107639733D01*
X111082529Y-107645328D01*
X111056032Y-107656303D01*
X111028586Y-107664629D01*
X111007500Y-107675900D01*
X111007500Y-88402333D01*
X111029371Y-88361415D01*
X111062593Y-88251896D01*
X111071000Y-88166540D01*
X111071000Y-88166539D01*
X111073811Y-88138000D01*
X111071000Y-88109460D01*
X111071000Y-87320001D01*
X111200587Y-87406588D01*
X111415515Y-87495614D01*
X111643682Y-87541000D01*
X111876318Y-87541000D01*
X112104485Y-87495614D01*
X112319413Y-87406588D01*
X112512843Y-87277342D01*
X112677342Y-87112843D01*
X112806588Y-86919413D01*
X112895614Y-86704485D01*
X112941000Y-86476318D01*
X112941000Y-86243682D01*
X112895614Y-86015515D01*
X112806588Y-85800587D01*
X112677342Y-85607157D01*
X112630185Y-85560000D01*
X113117157Y-85560000D01*
X113117157Y-87160000D01*
X113124513Y-87234689D01*
X113146299Y-87306508D01*
X113181678Y-87372696D01*
X113229289Y-87430711D01*
X113287304Y-87478322D01*
X113353492Y-87513701D01*
X113425311Y-87535487D01*
X113500000Y-87542843D01*
X115100000Y-87542843D01*
X115174689Y-87535487D01*
X115246508Y-87513701D01*
X115312696Y-87478322D01*
X115370711Y-87430711D01*
X115418322Y-87372696D01*
X115453701Y-87306508D01*
X115475487Y-87234689D01*
X115482843Y-87160000D01*
X115482843Y-85560000D01*
X115475487Y-85485311D01*
X115453701Y-85413492D01*
X115418322Y-85347304D01*
X115370711Y-85289289D01*
X115312696Y-85241678D01*
X115246508Y-85206299D01*
X115174689Y-85184513D01*
X115100000Y-85177157D01*
X113500000Y-85177157D01*
X113425311Y-85184513D01*
X113353492Y-85206299D01*
X113287304Y-85241678D01*
X113229289Y-85289289D01*
X113181678Y-85347304D01*
X113146299Y-85413492D01*
X113124513Y-85485311D01*
X113117157Y-85560000D01*
X112630185Y-85560000D01*
X112512843Y-85442658D01*
X112319413Y-85313412D01*
X112104485Y-85224386D01*
X111876318Y-85179000D01*
X111643682Y-85179000D01*
X111415515Y-85224386D01*
X111200587Y-85313412D01*
X111007157Y-85442658D01*
X110950514Y-85499301D01*
X110938241Y-85484346D01*
X110902817Y-85441181D01*
X110880645Y-85422985D01*
X108950519Y-83492860D01*
X108932319Y-83470683D01*
X108843850Y-83398079D01*
X108742917Y-83344129D01*
X108633398Y-83310907D01*
X108548042Y-83302500D01*
X108519502Y-83299689D01*
X108490962Y-83302500D01*
X93818036Y-83302500D01*
X93789499Y-83299689D01*
X93760962Y-83302500D01*
X93760960Y-83302500D01*
X93675604Y-83310907D01*
X93566085Y-83344129D01*
X93465152Y-83398079D01*
X93376683Y-83470683D01*
X93358487Y-83492855D01*
X92149137Y-84702206D01*
X92149134Y-84702208D01*
X92128855Y-84722487D01*
X92106683Y-84740683D01*
X92088490Y-84762852D01*
X92068208Y-84783134D01*
X92052273Y-84806982D01*
X92034079Y-84829152D01*
X92020559Y-84854446D01*
X92004625Y-84878293D01*
X91993650Y-84904789D01*
X91980129Y-84930085D01*
X91971802Y-84957534D01*
X91960828Y-84984029D01*
X91955233Y-85012157D01*
X91946907Y-85039604D01*
X91944096Y-85068145D01*
X91938500Y-85096277D01*
X91938500Y-85124960D01*
X91935689Y-85153500D01*
X91938500Y-85182040D01*
X91938500Y-85210723D01*
X91944096Y-85238855D01*
X91946907Y-85267396D01*
X91955233Y-85294843D01*
X91960828Y-85322971D01*
X91971802Y-85349466D01*
X91980129Y-85376915D01*
X91993650Y-85402211D01*
X92004625Y-85428707D01*
X92020559Y-85452554D01*
X92034079Y-85477848D01*
X92052273Y-85500018D01*
X92068208Y-85523866D01*
X92088487Y-85544145D01*
X92106683Y-85566317D01*
X92128855Y-85584513D01*
X92149134Y-85604792D01*
X92172982Y-85620727D01*
X92195152Y-85638921D01*
X92220446Y-85652441D01*
X92244293Y-85668375D01*
X92270789Y-85679350D01*
X92296085Y-85692871D01*
X92323534Y-85701198D01*
X92350029Y-85712172D01*
X92378157Y-85717767D01*
X92405604Y-85726093D01*
X92434145Y-85728904D01*
X92462277Y-85734500D01*
X92490960Y-85734500D01*
X92519500Y-85737311D01*
X92548040Y-85734500D01*
X92576723Y-85734500D01*
X92604855Y-85728904D01*
X92633396Y-85726093D01*
X92660843Y-85717767D01*
X92688971Y-85712172D01*
X92715466Y-85701198D01*
X92742915Y-85692871D01*
X92768211Y-85679350D01*
X92794707Y-85668375D01*
X92818554Y-85652441D01*
X92843848Y-85638921D01*
X92866018Y-85620727D01*
X92889866Y-85604792D01*
X92910145Y-85584513D01*
X92932317Y-85566317D01*
X92950513Y-85544145D01*
X92970792Y-85523866D01*
X92970794Y-85523863D01*
X94030158Y-84464500D01*
X96260342Y-84464500D01*
X93675843Y-87049000D01*
X92113755Y-87049000D01*
X92201825Y-86864099D01*
X92246476Y-86716890D01*
X92125155Y-86487000D01*
X90932000Y-86487000D01*
X90932000Y-86507000D01*
X90678000Y-86507000D01*
X90678000Y-86487000D01*
X89484845Y-86487000D01*
X89363524Y-86716890D01*
X89408175Y-86864099D01*
X89514307Y-87086921D01*
X89502085Y-87090629D01*
X89401152Y-87144579D01*
X89312683Y-87217183D01*
X89294490Y-87239352D01*
X87493355Y-89040487D01*
X87492843Y-89040908D01*
X87492843Y-87700000D01*
X87485565Y-87625704D01*
X87463854Y-87553862D01*
X87428545Y-87487637D01*
X87380994Y-87429572D01*
X87323029Y-87381900D01*
X87256878Y-87346453D01*
X87185082Y-87324592D01*
X87110400Y-87317157D01*
X87035704Y-87324435D01*
X86963862Y-87346146D01*
X86897637Y-87381455D01*
X86360000Y-87739880D01*
X85822363Y-87381455D01*
X85756508Y-87346299D01*
X85684689Y-87324513D01*
X85610000Y-87317157D01*
X85535311Y-87324513D01*
X85463492Y-87346299D01*
X85397304Y-87381678D01*
X85339289Y-87429289D01*
X85291678Y-87487304D01*
X85256299Y-87553492D01*
X85234513Y-87625311D01*
X85227157Y-87700000D01*
X85227157Y-90100000D01*
X85234435Y-90174296D01*
X85256146Y-90246138D01*
X85258185Y-90249963D01*
X85256299Y-90253492D01*
X85234513Y-90325311D01*
X85227157Y-90400000D01*
X85227157Y-91400000D01*
X85234513Y-91474689D01*
X85256299Y-91546508D01*
X85291678Y-91612696D01*
X85339289Y-91670711D01*
X85397304Y-91718322D01*
X85463492Y-91753701D01*
X85535311Y-91775487D01*
X85610000Y-91782843D01*
X87110000Y-91782843D01*
X87184689Y-91775487D01*
X87256508Y-91753701D01*
X87303001Y-91728850D01*
X87303000Y-101190460D01*
X87300189Y-101219000D01*
X87303000Y-101247539D01*
X87311407Y-101332895D01*
X87344629Y-101442414D01*
X87398579Y-101543347D01*
X87471183Y-101631817D01*
X87493360Y-101650017D01*
X89622176Y-103778834D01*
X89621307Y-103780931D01*
X89574000Y-104018757D01*
X89574000Y-104261243D01*
X89621307Y-104499069D01*
X89714102Y-104723097D01*
X89848820Y-104924717D01*
X90020283Y-105096180D01*
X90221903Y-105230898D01*
X90445931Y-105323693D01*
X90683757Y-105371000D01*
X90926243Y-105371000D01*
X91164069Y-105323693D01*
X91388097Y-105230898D01*
X91589717Y-105096180D01*
X91761180Y-104924717D01*
X91895898Y-104723097D01*
X91988693Y-104499069D01*
X92036000Y-104261243D01*
X92036000Y-104018757D01*
X91988693Y-103780931D01*
X91895898Y-103556903D01*
X91761180Y-103355283D01*
X91589717Y-103183820D01*
X91388097Y-103049102D01*
X91164069Y-102956307D01*
X90926243Y-102909000D01*
X90683757Y-102909000D01*
X90445931Y-102956307D01*
X90443834Y-102957176D01*
X90088255Y-102601597D01*
X90221903Y-102690898D01*
X90445931Y-102783693D01*
X90683757Y-102831000D01*
X90926243Y-102831000D01*
X91164069Y-102783693D01*
X91388097Y-102690898D01*
X91589717Y-102556180D01*
X91761180Y-102384717D01*
X91895898Y-102183097D01*
X91988693Y-101959069D01*
X92036000Y-101721243D01*
X92036000Y-101478757D01*
X91988693Y-101240931D01*
X91895898Y-101016903D01*
X91761180Y-100815283D01*
X91589717Y-100643820D01*
X91388097Y-100509102D01*
X91164069Y-100416307D01*
X90926243Y-100369000D01*
X90683757Y-100369000D01*
X90445931Y-100416307D01*
X90443833Y-100417176D01*
X90088255Y-100061597D01*
X90221903Y-100150898D01*
X90445931Y-100243693D01*
X90683757Y-100291000D01*
X90926243Y-100291000D01*
X91164069Y-100243693D01*
X91388097Y-100150898D01*
X91589717Y-100016180D01*
X91761180Y-99844717D01*
X91895898Y-99643097D01*
X91988693Y-99419069D01*
X92036000Y-99181243D01*
X92036000Y-98938757D01*
X91988693Y-98700931D01*
X91895898Y-98476903D01*
X91761180Y-98275283D01*
X91589717Y-98103820D01*
X91388097Y-97969102D01*
X91164069Y-97876307D01*
X90926243Y-97829000D01*
X90683757Y-97829000D01*
X90445931Y-97876307D01*
X90443833Y-97877176D01*
X90088254Y-97521597D01*
X90221903Y-97610898D01*
X90445931Y-97703693D01*
X90683757Y-97751000D01*
X90926243Y-97751000D01*
X91164069Y-97703693D01*
X91388097Y-97610898D01*
X91589717Y-97476180D01*
X91761180Y-97304717D01*
X91895898Y-97103097D01*
X91988693Y-96879069D01*
X92036000Y-96641243D01*
X92036000Y-96398757D01*
X91988693Y-96160931D01*
X91987824Y-96158833D01*
X92465646Y-95681012D01*
X92487817Y-95662817D01*
X92560421Y-95574348D01*
X92614371Y-95473415D01*
X92637001Y-95398814D01*
X92637000Y-106454539D01*
X92645407Y-106539895D01*
X92678629Y-106649414D01*
X92732579Y-106750347D01*
X92805183Y-106838817D01*
X92893652Y-106911421D01*
X92994585Y-106965371D01*
X93104104Y-106998593D01*
X93218000Y-107009811D01*
X93331895Y-106998593D01*
X93441414Y-106965371D01*
X93542347Y-106911421D01*
X93630817Y-106838817D01*
X93703421Y-106750348D01*
X93757371Y-106649415D01*
X93790593Y-106539896D01*
X93799000Y-106454540D01*
X93799000Y-96716157D01*
X99749000Y-102666158D01*
X99749001Y-114779450D01*
X99746189Y-114808000D01*
X99757407Y-114921895D01*
X99790629Y-115031414D01*
X99844579Y-115132347D01*
X99846564Y-115134766D01*
X99836343Y-115132733D01*
X99808896Y-115124407D01*
X99780355Y-115121596D01*
X99752223Y-115116000D01*
X99723540Y-115116000D01*
X99695000Y-115113189D01*
X99666460Y-115116000D01*
X99653701Y-115116000D01*
X99653701Y-114645525D01*
X99653749Y-114645029D01*
X99653701Y-114617431D01*
X99653701Y-114588960D01*
X99653651Y-114588448D01*
X99641244Y-107454948D01*
X99645294Y-107441596D01*
X99656512Y-107327701D01*
X99645294Y-107213806D01*
X99612072Y-107104287D01*
X99558122Y-107003354D01*
X99517252Y-106953554D01*
X99511292Y-106944634D01*
X99490650Y-106923992D01*
X99472098Y-106901466D01*
X99450291Y-106883633D01*
X99430366Y-106863708D01*
X99406511Y-106847769D01*
X99384347Y-106829579D01*
X99383898Y-106829339D01*
X99383503Y-106829016D01*
X99358638Y-106815781D01*
X99335207Y-106800125D01*
X99308707Y-106789148D01*
X99283414Y-106775629D01*
X99282924Y-106775480D01*
X99282476Y-106775242D01*
X99255505Y-106767112D01*
X99229471Y-106756328D01*
X99201340Y-106750732D01*
X99173895Y-106742407D01*
X99173386Y-106742357D01*
X99172899Y-106742210D01*
X99144861Y-106739498D01*
X99117223Y-106734000D01*
X99088540Y-106734000D01*
X99060000Y-106731189D01*
X99059492Y-106731239D01*
X99058985Y-106731190D01*
X99030955Y-106734000D01*
X99002777Y-106734000D01*
X98974644Y-106739596D01*
X98946105Y-106742407D01*
X98945617Y-106742555D01*
X98945109Y-106742606D01*
X98918164Y-106750831D01*
X98890529Y-106756328D01*
X98864031Y-106767304D01*
X98836586Y-106775629D01*
X98836134Y-106775871D01*
X98835648Y-106776019D01*
X98810828Y-106789341D01*
X98784793Y-106800125D01*
X98760942Y-106816062D01*
X98735653Y-106829579D01*
X98735259Y-106829903D01*
X98734809Y-106830144D01*
X98713066Y-106848052D01*
X98689634Y-106863708D01*
X98669346Y-106883996D01*
X98647184Y-106902184D01*
X98646863Y-106902575D01*
X98646466Y-106902902D01*
X98628633Y-106924709D01*
X98608708Y-106944634D01*
X98592769Y-106968489D01*
X98574579Y-106990653D01*
X98574339Y-106991102D01*
X98574016Y-106991497D01*
X98560781Y-107016362D01*
X98545125Y-107039793D01*
X98534148Y-107066293D01*
X98520629Y-107091586D01*
X98520480Y-107092076D01*
X98520242Y-107092524D01*
X98512112Y-107119495D01*
X98501328Y-107145529D01*
X98495732Y-107173660D01*
X98487407Y-107201105D01*
X98487357Y-107201614D01*
X98487210Y-107202101D01*
X98484498Y-107230137D01*
X98479000Y-107257777D01*
X98479000Y-107286460D01*
X98476189Y-107315000D01*
X98479000Y-107343540D01*
X98479000Y-107372223D01*
X98479100Y-107372727D01*
X98489257Y-113212399D01*
X98482223Y-113211000D01*
X98453540Y-113211000D01*
X98425000Y-113208189D01*
X98396460Y-113211000D01*
X98371000Y-113211000D01*
X98371000Y-107343540D01*
X98373811Y-107315000D01*
X98371000Y-107286460D01*
X98371000Y-107257777D01*
X98365404Y-107229645D01*
X98362593Y-107201104D01*
X98354267Y-107173657D01*
X98348672Y-107145529D01*
X98337698Y-107119034D01*
X98329371Y-107091585D01*
X98315850Y-107066289D01*
X98304875Y-107039793D01*
X98288941Y-107015946D01*
X98275421Y-106990652D01*
X98257227Y-106968482D01*
X98241292Y-106944634D01*
X98221013Y-106924355D01*
X98202817Y-106902183D01*
X98180645Y-106883987D01*
X98160366Y-106863708D01*
X98136518Y-106847773D01*
X98114348Y-106829579D01*
X98089054Y-106816059D01*
X98065207Y-106800125D01*
X98038711Y-106789150D01*
X98013415Y-106775629D01*
X97985966Y-106767302D01*
X97959471Y-106756328D01*
X97931343Y-106750733D01*
X97903896Y-106742407D01*
X97875355Y-106739596D01*
X97847223Y-106734000D01*
X97818540Y-106734000D01*
X97790000Y-106731189D01*
X97761460Y-106734000D01*
X97732777Y-106734000D01*
X97704645Y-106739596D01*
X97676104Y-106742407D01*
X97648657Y-106750733D01*
X97620529Y-106756328D01*
X97594034Y-106767302D01*
X97566585Y-106775629D01*
X97541289Y-106789150D01*
X97514793Y-106800125D01*
X97490946Y-106816059D01*
X97465652Y-106829579D01*
X97443482Y-106847773D01*
X97419634Y-106863708D01*
X97399355Y-106883987D01*
X97377183Y-106902183D01*
X97358987Y-106924355D01*
X97338708Y-106944634D01*
X97322773Y-106968482D01*
X97304579Y-106990652D01*
X97291059Y-107015946D01*
X97275125Y-107039793D01*
X97264150Y-107066289D01*
X97250629Y-107091585D01*
X97242302Y-107119034D01*
X97231328Y-107145529D01*
X97225733Y-107173657D01*
X97223579Y-107180759D01*
X97212223Y-107178500D01*
X97183540Y-107178500D01*
X97155000Y-107175689D01*
X97126460Y-107178500D01*
X97097777Y-107178500D01*
X97069645Y-107184096D01*
X97041104Y-107186907D01*
X97013657Y-107195233D01*
X96985529Y-107200828D01*
X96959034Y-107211802D01*
X96931585Y-107220129D01*
X96906289Y-107233650D01*
X96879793Y-107244625D01*
X96855946Y-107260559D01*
X96830652Y-107274079D01*
X96808482Y-107292273D01*
X96784634Y-107308208D01*
X96764355Y-107328487D01*
X96742183Y-107346683D01*
X96723987Y-107368855D01*
X96703708Y-107389134D01*
X96687773Y-107412982D01*
X96669579Y-107435152D01*
X96656059Y-107460446D01*
X96640125Y-107484293D01*
X96629150Y-107510789D01*
X96615629Y-107536085D01*
X96607302Y-107563534D01*
X96596328Y-107590029D01*
X96590733Y-107618157D01*
X96582407Y-107645604D01*
X96579596Y-107674145D01*
X96574000Y-107702277D01*
X96574000Y-107730960D01*
X96571189Y-107759500D01*
X96574000Y-107788040D01*
X96574000Y-107816723D01*
X96574001Y-107816728D01*
X96574001Y-107940500D01*
X96548540Y-107940500D01*
X96520000Y-107937689D01*
X96491460Y-107940500D01*
X96462777Y-107940500D01*
X96434645Y-107946096D01*
X96406104Y-107948907D01*
X96378657Y-107957233D01*
X96350529Y-107962828D01*
X96324034Y-107973802D01*
X96296585Y-107982129D01*
X96271289Y-107995650D01*
X96244793Y-108006625D01*
X96220946Y-108022559D01*
X96195652Y-108036079D01*
X96173482Y-108054273D01*
X96149634Y-108070208D01*
X96129355Y-108090487D01*
X96107183Y-108108683D01*
X96088987Y-108130855D01*
X96068708Y-108151134D01*
X96052773Y-108174982D01*
X96034579Y-108197152D01*
X96021059Y-108222446D01*
X96005125Y-108246293D01*
X95994150Y-108272789D01*
X95980629Y-108298085D01*
X95972302Y-108325534D01*
X95961328Y-108352029D01*
X95955733Y-108380157D01*
X95947407Y-108407604D01*
X95944596Y-108436145D01*
X95939000Y-108464277D01*
X95939000Y-108492960D01*
X95937125Y-108512000D01*
X95913540Y-108512000D01*
X95885000Y-108509189D01*
X95856460Y-108512000D01*
X95827777Y-108512000D01*
X95799644Y-108517596D01*
X95771105Y-108520407D01*
X95743660Y-108528732D01*
X95715529Y-108534328D01*
X95689031Y-108545304D01*
X95661586Y-108553629D01*
X95636293Y-108567148D01*
X95609793Y-108578125D01*
X95585942Y-108594062D01*
X95560653Y-108607579D01*
X95538487Y-108625770D01*
X95514634Y-108641708D01*
X95494350Y-108661992D01*
X95472184Y-108680183D01*
X95453993Y-108702349D01*
X95433708Y-108722634D01*
X95417769Y-108746488D01*
X95399580Y-108768652D01*
X95386064Y-108793938D01*
X95370125Y-108817793D01*
X95359147Y-108844297D01*
X95345630Y-108869585D01*
X95337306Y-108897025D01*
X95326328Y-108923529D01*
X95320731Y-108951667D01*
X95312408Y-108979104D01*
X95309598Y-109007635D01*
X95304000Y-109035777D01*
X95304000Y-109147000D01*
X95278540Y-109147000D01*
X95250000Y-109144189D01*
X95221460Y-109147000D01*
X95192777Y-109147000D01*
X95164645Y-109152596D01*
X95136104Y-109155407D01*
X95108657Y-109163733D01*
X95080529Y-109169328D01*
X95054034Y-109180302D01*
X95026585Y-109188629D01*
X95001289Y-109202150D01*
X94974793Y-109213125D01*
X94950946Y-109229059D01*
X94925652Y-109242579D01*
X94903482Y-109260773D01*
X94879634Y-109276708D01*
X94859355Y-109296987D01*
X94837183Y-109315183D01*
X94818987Y-109337355D01*
X94798708Y-109357634D01*
X94782773Y-109381482D01*
X94764579Y-109403652D01*
X94751059Y-109428946D01*
X94735125Y-109452793D01*
X94724150Y-109479289D01*
X94710629Y-109504585D01*
X94702302Y-109532034D01*
X94691328Y-109558529D01*
X94685733Y-109586657D01*
X94677407Y-109614104D01*
X94674596Y-109642645D01*
X94669000Y-109670777D01*
X94669000Y-109699460D01*
X94666189Y-109728000D01*
X94669000Y-109756540D01*
X94669000Y-109785223D01*
X94669001Y-109785228D01*
X94669001Y-110036000D01*
X94643540Y-110036000D01*
X94615000Y-110033189D01*
X94586460Y-110036000D01*
X94557777Y-110036000D01*
X94529645Y-110041596D01*
X94501104Y-110044407D01*
X94473657Y-110052733D01*
X94445529Y-110058328D01*
X94419034Y-110069302D01*
X94391585Y-110077629D01*
X94366289Y-110091150D01*
X94339793Y-110102125D01*
X94315946Y-110118059D01*
X94290652Y-110131579D01*
X94268482Y-110149773D01*
X94244634Y-110165708D01*
X94224355Y-110185987D01*
X94202183Y-110204183D01*
X94183987Y-110226355D01*
X94163708Y-110246634D01*
X94147773Y-110270482D01*
X94129579Y-110292652D01*
X94116059Y-110317946D01*
X94100125Y-110341793D01*
X94089150Y-110368289D01*
X94075629Y-110393585D01*
X94067302Y-110421034D01*
X94056328Y-110447529D01*
X94050733Y-110475657D01*
X94042407Y-110503104D01*
X94039596Y-110531645D01*
X94034000Y-110559777D01*
X94034000Y-110588460D01*
X94031189Y-110617000D01*
X94034000Y-110645540D01*
X94034000Y-110674223D01*
X94034001Y-110674228D01*
X94034000Y-112154342D01*
X92382856Y-113805487D01*
X92382851Y-113805491D01*
X91684355Y-114503988D01*
X91662184Y-114522183D01*
X91610972Y-114584586D01*
X91589579Y-114610653D01*
X91535629Y-114711586D01*
X91502407Y-114821105D01*
X91491189Y-114935000D01*
X91494001Y-114963549D01*
X91494000Y-116106539D01*
X91494001Y-116106549D01*
X91494000Y-118583039D01*
X91494001Y-118583049D01*
X91494000Y-126774539D01*
X91494001Y-126774549D01*
X91494001Y-128720773D01*
X91494000Y-128720777D01*
X91494000Y-128835223D01*
X91494001Y-128835227D01*
X91494000Y-136347842D01*
X81728343Y-146113500D01*
X79746234Y-146113500D01*
X79569811Y-146096124D01*
X79406150Y-146046478D01*
X79255328Y-145965862D01*
X79146401Y-145876468D01*
X79146401Y-136461500D01*
X81458189Y-136461500D01*
X81461000Y-136490040D01*
X81461000Y-136518723D01*
X81466596Y-136546855D01*
X81469407Y-136575396D01*
X81477733Y-136602843D01*
X81483328Y-136630971D01*
X81494302Y-136657466D01*
X81502629Y-136684915D01*
X81516150Y-136710211D01*
X81527125Y-136736707D01*
X81543059Y-136760554D01*
X81556579Y-136785848D01*
X81574773Y-136808018D01*
X81590708Y-136831866D01*
X81610987Y-136852145D01*
X81629183Y-136874317D01*
X81651355Y-136892513D01*
X81671634Y-136912792D01*
X81695482Y-136928727D01*
X81717652Y-136946921D01*
X81742946Y-136960441D01*
X81766793Y-136976375D01*
X81793289Y-136987350D01*
X81818585Y-137000871D01*
X81846034Y-137009198D01*
X81872529Y-137020172D01*
X81900657Y-137025767D01*
X81928104Y-137034093D01*
X81956645Y-137036904D01*
X81984777Y-137042500D01*
X84893223Y-137042500D01*
X84921355Y-137036904D01*
X84949896Y-137034093D01*
X84977343Y-137025767D01*
X85005471Y-137020172D01*
X85031966Y-137009198D01*
X85059415Y-137000871D01*
X85084711Y-136987350D01*
X85111207Y-136976375D01*
X85135054Y-136960441D01*
X85160348Y-136946921D01*
X85182518Y-136928727D01*
X85206366Y-136912792D01*
X85226645Y-136892513D01*
X85248817Y-136874317D01*
X85267013Y-136852145D01*
X85287292Y-136831866D01*
X85303227Y-136808018D01*
X85321421Y-136785848D01*
X85334941Y-136760554D01*
X85350875Y-136736707D01*
X85361850Y-136710211D01*
X85375371Y-136684915D01*
X85383698Y-136657466D01*
X85394672Y-136630971D01*
X85400267Y-136602843D01*
X85408593Y-136575396D01*
X85411404Y-136546855D01*
X85417000Y-136518723D01*
X85417000Y-136490040D01*
X85419811Y-136461500D01*
X85417000Y-136432960D01*
X85417000Y-136404277D01*
X85411404Y-136376145D01*
X85408593Y-136347604D01*
X85400267Y-136320157D01*
X85394672Y-136292029D01*
X85383698Y-136265534D01*
X85375371Y-136238085D01*
X85361850Y-136212789D01*
X85350875Y-136186293D01*
X85334941Y-136162446D01*
X85321421Y-136137152D01*
X85303227Y-136114982D01*
X85287292Y-136091134D01*
X85267013Y-136070855D01*
X85248817Y-136048683D01*
X85226645Y-136030487D01*
X85206366Y-136010208D01*
X85182518Y-135994273D01*
X85160348Y-135976079D01*
X85135054Y-135962559D01*
X85111207Y-135946625D01*
X85084711Y-135935650D01*
X85059415Y-135922129D01*
X85031966Y-135913802D01*
X85005471Y-135902828D01*
X84977343Y-135897233D01*
X84949896Y-135888907D01*
X84921355Y-135886096D01*
X84893223Y-135880500D01*
X81984777Y-135880500D01*
X81956645Y-135886096D01*
X81928104Y-135888907D01*
X81900657Y-135897233D01*
X81872529Y-135902828D01*
X81846034Y-135913802D01*
X81818585Y-135922129D01*
X81793289Y-135935650D01*
X81766793Y-135946625D01*
X81742946Y-135962559D01*
X81717652Y-135976079D01*
X81695482Y-135994273D01*
X81671634Y-136010208D01*
X81651355Y-136030487D01*
X81629183Y-136048683D01*
X81610987Y-136070855D01*
X81590708Y-136091134D01*
X81574773Y-136114982D01*
X81556579Y-136137152D01*
X81543059Y-136162446D01*
X81527125Y-136186293D01*
X81516150Y-136212789D01*
X81502629Y-136238085D01*
X81494302Y-136265534D01*
X81483328Y-136292029D01*
X81477733Y-136320157D01*
X81469407Y-136347604D01*
X81466596Y-136376145D01*
X81461000Y-136404277D01*
X81461000Y-136432960D01*
X81458189Y-136461500D01*
X79146401Y-136461500D01*
X79146401Y-133926401D01*
X79703368Y-133926401D01*
X79722701Y-133928305D01*
X79799880Y-133920704D01*
X79874092Y-133898191D01*
X79942487Y-133861634D01*
X80002435Y-133812435D01*
X80051634Y-133752487D01*
X80088191Y-133684092D01*
X80110704Y-133609880D01*
X80116401Y-133552034D01*
X80118305Y-133532701D01*
X80116401Y-133513368D01*
X80116401Y-127802034D01*
X80118305Y-127782701D01*
X80110704Y-127705522D01*
X80088191Y-127631310D01*
X80051634Y-127562915D01*
X80002435Y-127502967D01*
X79942487Y-127453768D01*
X79874092Y-127417211D01*
X79799880Y-127394698D01*
X79742034Y-127389001D01*
X79722701Y-127387097D01*
X79703368Y-127389001D01*
X79146401Y-127389001D01*
X79146401Y-119426401D01*
X79703368Y-119426401D01*
X79722701Y-119428305D01*
X79799880Y-119420704D01*
X79874092Y-119398191D01*
X79942487Y-119361634D01*
X80002435Y-119312435D01*
X80051634Y-119252487D01*
X80088191Y-119184092D01*
X80110704Y-119109880D01*
X80116401Y-119052034D01*
X80118305Y-119032701D01*
X80116401Y-119013368D01*
X80116401Y-113452034D01*
X80118305Y-113432701D01*
X80113156Y-113380414D01*
X80110704Y-113355522D01*
X80088191Y-113281310D01*
X80051634Y-113212915D01*
X80002435Y-113152967D01*
X79979837Y-113134421D01*
X79942487Y-113103768D01*
X79874092Y-113067211D01*
X79799880Y-113044698D01*
X79742034Y-113039001D01*
X79722701Y-113037097D01*
X79703368Y-113039001D01*
X79146401Y-113039001D01*
X79146401Y-108370000D01*
X89572157Y-108370000D01*
X89572157Y-110070000D01*
X89579513Y-110144689D01*
X89601299Y-110216508D01*
X89636678Y-110282696D01*
X89684289Y-110340711D01*
X89742304Y-110388322D01*
X89808492Y-110423701D01*
X89880311Y-110445487D01*
X89955000Y-110452843D01*
X91655000Y-110452843D01*
X91729689Y-110445487D01*
X91801508Y-110423701D01*
X91867696Y-110388322D01*
X91925711Y-110340711D01*
X91973322Y-110282696D01*
X92008701Y-110216508D01*
X92030487Y-110144689D01*
X92037843Y-110070000D01*
X92037843Y-108370000D01*
X92030487Y-108295311D01*
X92008701Y-108223492D01*
X91973322Y-108157304D01*
X91925711Y-108099289D01*
X91867696Y-108051678D01*
X91801508Y-108016299D01*
X91729689Y-107994513D01*
X91655000Y-107987157D01*
X89955000Y-107987157D01*
X89880311Y-107994513D01*
X89808492Y-108016299D01*
X89742304Y-108051678D01*
X89684289Y-108099289D01*
X89636678Y-108157304D01*
X89601299Y-108223492D01*
X89579513Y-108295311D01*
X89572157Y-108370000D01*
X79146401Y-108370000D01*
X79146401Y-106558757D01*
X89574000Y-106558757D01*
X89574000Y-106801243D01*
X89621307Y-107039069D01*
X89714102Y-107263097D01*
X89848820Y-107464717D01*
X90020283Y-107636180D01*
X90221903Y-107770898D01*
X90445931Y-107863693D01*
X90683757Y-107911000D01*
X90926243Y-107911000D01*
X91164069Y-107863693D01*
X91388097Y-107770898D01*
X91589717Y-107636180D01*
X91761180Y-107464717D01*
X91895898Y-107263097D01*
X91988693Y-107039069D01*
X92036000Y-106801243D01*
X92036000Y-106558757D01*
X91988693Y-106320931D01*
X91895898Y-106096903D01*
X91761180Y-105895283D01*
X91589717Y-105723820D01*
X91388097Y-105589102D01*
X91164069Y-105496307D01*
X90926243Y-105449000D01*
X90683757Y-105449000D01*
X90445931Y-105496307D01*
X90221903Y-105589102D01*
X90020283Y-105723820D01*
X89848820Y-105895283D01*
X89714102Y-106096903D01*
X89621307Y-106320931D01*
X89574000Y-106558757D01*
X79146401Y-106558757D01*
X79146401Y-76263500D01*
X81350029Y-76263500D01*
X81355500Y-76319050D01*
X81355501Y-93972058D01*
X81371866Y-94138215D01*
X81436538Y-94351409D01*
X81541559Y-94547890D01*
X81682894Y-94720107D01*
X81855111Y-94861442D01*
X82051592Y-94966463D01*
X82264786Y-95031135D01*
X82486500Y-95052972D01*
X82708215Y-95031135D01*
X82921409Y-94966463D01*
X83117890Y-94861442D01*
X83290107Y-94720107D01*
X83431442Y-94547890D01*
X83536463Y-94351409D01*
X83601135Y-94138215D01*
X83617500Y-93972058D01*
X83617500Y-86003110D01*
X89363524Y-86003110D01*
X89484845Y-86233000D01*
X90678000Y-86233000D01*
X90678000Y-85039186D01*
X90932000Y-85039186D01*
X90932000Y-86233000D01*
X92125155Y-86233000D01*
X92246476Y-86003110D01*
X92201825Y-85855901D01*
X92076641Y-85593080D01*
X91902588Y-85359731D01*
X91686355Y-85164822D01*
X91436252Y-85015843D01*
X91161891Y-84918519D01*
X90932000Y-85039186D01*
X90678000Y-85039186D01*
X90448109Y-84918519D01*
X90173748Y-85015843D01*
X89923645Y-85164822D01*
X89707412Y-85359731D01*
X89533359Y-85593080D01*
X89408175Y-85855901D01*
X89363524Y-86003110D01*
X83617500Y-86003110D01*
X83617500Y-76731975D01*
X84109475Y-76240000D01*
X85227157Y-76240000D01*
X85227157Y-77240000D01*
X85234592Y-77315082D01*
X85256453Y-77386878D01*
X85258146Y-77390037D01*
X85256299Y-77393492D01*
X85234513Y-77465311D01*
X85227157Y-77540000D01*
X85227157Y-79940000D01*
X85234435Y-80014296D01*
X85256146Y-80086138D01*
X85258185Y-80089963D01*
X85256299Y-80093492D01*
X85234513Y-80165311D01*
X85227157Y-80240000D01*
X85227157Y-81240000D01*
X85234513Y-81314689D01*
X85256299Y-81386508D01*
X85291678Y-81452696D01*
X85339289Y-81510711D01*
X85397304Y-81558322D01*
X85463492Y-81593701D01*
X85535311Y-81615487D01*
X85610000Y-81622843D01*
X87110000Y-81622843D01*
X87184689Y-81615487D01*
X87256508Y-81593701D01*
X87322696Y-81558322D01*
X87380711Y-81510711D01*
X87428322Y-81452696D01*
X87463701Y-81386508D01*
X87483573Y-81321000D01*
X88024343Y-81321000D01*
X88373987Y-81670645D01*
X88392183Y-81692817D01*
X88480652Y-81765421D01*
X88581585Y-81819371D01*
X88691104Y-81852593D01*
X88776460Y-81861000D01*
X88776462Y-81861000D01*
X88804999Y-81863811D01*
X88833536Y-81861000D01*
X89572157Y-81861000D01*
X89572157Y-82130000D01*
X89579513Y-82204689D01*
X89601299Y-82276508D01*
X89636678Y-82342696D01*
X89684289Y-82400711D01*
X89742304Y-82448322D01*
X89808492Y-82483701D01*
X89880311Y-82505487D01*
X89955000Y-82512843D01*
X91655000Y-82512843D01*
X91729689Y-82505487D01*
X91801508Y-82483701D01*
X91867696Y-82448322D01*
X91925711Y-82400711D01*
X91973322Y-82342696D01*
X92008701Y-82276508D01*
X92030487Y-82204689D01*
X92037843Y-82130000D01*
X92037843Y-81629040D01*
X96398091Y-81629040D01*
X96492930Y-81893881D01*
X96637615Y-82135131D01*
X96826586Y-82343519D01*
X97052580Y-82511037D01*
X97306913Y-82631246D01*
X97440961Y-82671904D01*
X97663000Y-82549915D01*
X97663000Y-81407000D01*
X97917000Y-81407000D01*
X97917000Y-82549915D01*
X98139039Y-82671904D01*
X98273087Y-82631246D01*
X98527420Y-82511037D01*
X98753414Y-82343519D01*
X98942385Y-82135131D01*
X99060000Y-81939018D01*
X99177615Y-82135131D01*
X99366586Y-82343519D01*
X99592580Y-82511037D01*
X99846913Y-82631246D01*
X99980961Y-82671904D01*
X100203000Y-82549915D01*
X100203000Y-81407000D01*
X100457000Y-81407000D01*
X100457000Y-82549915D01*
X100679039Y-82671904D01*
X100813087Y-82631246D01*
X101067420Y-82511037D01*
X101293414Y-82343519D01*
X101482385Y-82135131D01*
X101600000Y-81939018D01*
X101717615Y-82135131D01*
X101906586Y-82343519D01*
X102132580Y-82511037D01*
X102386913Y-82631246D01*
X102520961Y-82671904D01*
X102743000Y-82549915D01*
X102743000Y-81407000D01*
X102997000Y-81407000D01*
X102997000Y-82549915D01*
X103219039Y-82671904D01*
X103353087Y-82631246D01*
X103607420Y-82511037D01*
X103833414Y-82343519D01*
X104022385Y-82135131D01*
X104140000Y-81939018D01*
X104257615Y-82135131D01*
X104446586Y-82343519D01*
X104672580Y-82511037D01*
X104926913Y-82631246D01*
X105060961Y-82671904D01*
X105283000Y-82549915D01*
X105283000Y-81407000D01*
X105537000Y-81407000D01*
X105537000Y-82549915D01*
X105759039Y-82671904D01*
X105893087Y-82631246D01*
X106147420Y-82511037D01*
X106373414Y-82343519D01*
X106562385Y-82135131D01*
X106680000Y-81939018D01*
X106797615Y-82135131D01*
X106986586Y-82343519D01*
X107212580Y-82511037D01*
X107466913Y-82631246D01*
X107600961Y-82671904D01*
X107823000Y-82549915D01*
X107823000Y-81407000D01*
X108077000Y-81407000D01*
X108077000Y-82549915D01*
X108299039Y-82671904D01*
X108433087Y-82631246D01*
X108687420Y-82511037D01*
X108913414Y-82343519D01*
X109102385Y-82135131D01*
X109247070Y-81893881D01*
X109341909Y-81629040D01*
X109220624Y-81407000D01*
X108077000Y-81407000D01*
X107823000Y-81407000D01*
X105537000Y-81407000D01*
X105283000Y-81407000D01*
X102997000Y-81407000D01*
X102743000Y-81407000D01*
X100457000Y-81407000D01*
X100203000Y-81407000D01*
X97917000Y-81407000D01*
X97663000Y-81407000D01*
X96519376Y-81407000D01*
X96398091Y-81629040D01*
X92037843Y-81629040D01*
X92037843Y-80930960D01*
X96398091Y-80930960D01*
X96519376Y-81153000D01*
X97663000Y-81153000D01*
X97663000Y-80010085D01*
X97917000Y-80010085D01*
X97917000Y-81153000D01*
X100203000Y-81153000D01*
X100203000Y-80010085D01*
X100457000Y-80010085D01*
X100457000Y-81153000D01*
X102743000Y-81153000D01*
X102743000Y-80010085D01*
X102997000Y-80010085D01*
X102997000Y-81153000D01*
X105283000Y-81153000D01*
X105283000Y-80010085D01*
X105537000Y-80010085D01*
X105537000Y-81153000D01*
X107823000Y-81153000D01*
X107823000Y-80010085D01*
X108077000Y-80010085D01*
X108077000Y-81153000D01*
X109220624Y-81153000D01*
X109341909Y-80930960D01*
X109247070Y-80666119D01*
X109102385Y-80424869D01*
X108913414Y-80216481D01*
X108687420Y-80048963D01*
X108433087Y-79928754D01*
X108299039Y-79888096D01*
X108077000Y-80010085D01*
X107823000Y-80010085D01*
X107600961Y-79888096D01*
X107466913Y-79928754D01*
X107212580Y-80048963D01*
X106986586Y-80216481D01*
X106797615Y-80424869D01*
X106680000Y-80620982D01*
X106562385Y-80424869D01*
X106373414Y-80216481D01*
X106147420Y-80048963D01*
X105893087Y-79928754D01*
X105759039Y-79888096D01*
X105537000Y-80010085D01*
X105283000Y-80010085D01*
X105060961Y-79888096D01*
X104926913Y-79928754D01*
X104672580Y-80048963D01*
X104446586Y-80216481D01*
X104257615Y-80424869D01*
X104140000Y-80620982D01*
X104022385Y-80424869D01*
X103833414Y-80216481D01*
X103607420Y-80048963D01*
X103353087Y-79928754D01*
X103219039Y-79888096D01*
X102997000Y-80010085D01*
X102743000Y-80010085D01*
X102520961Y-79888096D01*
X102386913Y-79928754D01*
X102132580Y-80048963D01*
X101906586Y-80216481D01*
X101717615Y-80424869D01*
X101600000Y-80620982D01*
X101482385Y-80424869D01*
X101293414Y-80216481D01*
X101067420Y-80048963D01*
X100813087Y-79928754D01*
X100679039Y-79888096D01*
X100457000Y-80010085D01*
X100203000Y-80010085D01*
X99980961Y-79888096D01*
X99846913Y-79928754D01*
X99592580Y-80048963D01*
X99366586Y-80216481D01*
X99177615Y-80424869D01*
X99060000Y-80620982D01*
X98942385Y-80424869D01*
X98753414Y-80216481D01*
X98527420Y-80048963D01*
X98273087Y-79928754D01*
X98139039Y-79888096D01*
X97917000Y-80010085D01*
X97663000Y-80010085D01*
X97440961Y-79888096D01*
X97306913Y-79928754D01*
X97052580Y-80048963D01*
X96826586Y-80216481D01*
X96637615Y-80424869D01*
X96492930Y-80666119D01*
X96398091Y-80930960D01*
X92037843Y-80930960D01*
X92037843Y-80430000D01*
X92030487Y-80355311D01*
X92008701Y-80283492D01*
X91973322Y-80217304D01*
X91925711Y-80159289D01*
X91867696Y-80111678D01*
X91801508Y-80076299D01*
X91729689Y-80054513D01*
X91655000Y-80047157D01*
X89955000Y-80047157D01*
X89880311Y-80054513D01*
X89808492Y-80076299D01*
X89742304Y-80111678D01*
X89684289Y-80159289D01*
X89636678Y-80217304D01*
X89601299Y-80283492D01*
X89579513Y-80355311D01*
X89572157Y-80430000D01*
X89572157Y-80699000D01*
X89045658Y-80699000D01*
X88696017Y-80349360D01*
X88677817Y-80327183D01*
X88589348Y-80254579D01*
X88488415Y-80200629D01*
X88378896Y-80167407D01*
X88293540Y-80159000D01*
X88265000Y-80156189D01*
X88236460Y-80159000D01*
X87483606Y-80159000D01*
X87463547Y-80093122D01*
X87461854Y-80089963D01*
X87463701Y-80086508D01*
X87485487Y-80014689D01*
X87492843Y-79940000D01*
X87492843Y-79321000D01*
X89713233Y-79321000D01*
X89714102Y-79323097D01*
X89848820Y-79524717D01*
X90020283Y-79696180D01*
X90221903Y-79830898D01*
X90445931Y-79923693D01*
X90683757Y-79971000D01*
X90926243Y-79971000D01*
X91164069Y-79923693D01*
X91388097Y-79830898D01*
X91589717Y-79696180D01*
X91761180Y-79524717D01*
X91895898Y-79323097D01*
X91988693Y-79099069D01*
X92036000Y-78861243D01*
X92036000Y-78618757D01*
X91988693Y-78380931D01*
X91895898Y-78156903D01*
X91761180Y-77955283D01*
X91589717Y-77783820D01*
X91388097Y-77649102D01*
X91164069Y-77556307D01*
X90926243Y-77509000D01*
X90683757Y-77509000D01*
X90445931Y-77556307D01*
X90221903Y-77649102D01*
X90020283Y-77783820D01*
X89848820Y-77955283D01*
X89714102Y-78156903D01*
X89713233Y-78159000D01*
X87492843Y-78159000D01*
X87492843Y-77540000D01*
X87485565Y-77465704D01*
X87463854Y-77393862D01*
X87461815Y-77390037D01*
X87463701Y-77386508D01*
X87483573Y-77321000D01*
X88236460Y-77321000D01*
X88265000Y-77323811D01*
X88293540Y-77321000D01*
X88378896Y-77312593D01*
X88488415Y-77279371D01*
X88589348Y-77225421D01*
X88677817Y-77152817D01*
X88696017Y-77130640D01*
X89045658Y-76781000D01*
X89713233Y-76781000D01*
X89714102Y-76783097D01*
X89848820Y-76984717D01*
X90020283Y-77156180D01*
X90221903Y-77290898D01*
X90445931Y-77383693D01*
X90683757Y-77431000D01*
X90926243Y-77431000D01*
X91164069Y-77383693D01*
X91388097Y-77290898D01*
X91589717Y-77156180D01*
X91761180Y-76984717D01*
X91895898Y-76783097D01*
X91988693Y-76559069D01*
X92036000Y-76321243D01*
X92036000Y-76078757D01*
X91988693Y-75840931D01*
X91895898Y-75616903D01*
X91761180Y-75415283D01*
X91589717Y-75243820D01*
X91388097Y-75109102D01*
X91164069Y-75016307D01*
X90926243Y-74969000D01*
X90683757Y-74969000D01*
X90445931Y-75016307D01*
X90221903Y-75109102D01*
X90020283Y-75243820D01*
X89848820Y-75415283D01*
X89714102Y-75616903D01*
X89713233Y-75619000D01*
X88833536Y-75619000D01*
X88804999Y-75616189D01*
X88776462Y-75619000D01*
X88776460Y-75619000D01*
X88691104Y-75627407D01*
X88581585Y-75660629D01*
X88480652Y-75714579D01*
X88392183Y-75787183D01*
X88373987Y-75809355D01*
X88024343Y-76159000D01*
X87483573Y-76159000D01*
X87463701Y-76093492D01*
X87428322Y-76027304D01*
X87380711Y-75969289D01*
X87322696Y-75921678D01*
X87256508Y-75886299D01*
X87184689Y-75864513D01*
X87110000Y-75857157D01*
X85610000Y-75857157D01*
X85535311Y-75864513D01*
X85463492Y-75886299D01*
X85397304Y-75921678D01*
X85339289Y-75969289D01*
X85291678Y-76027304D01*
X85256299Y-76093492D01*
X85234513Y-76165311D01*
X85227157Y-76240000D01*
X84109475Y-76240000D01*
X85431476Y-74918000D01*
X92051025Y-74918000D01*
X94410979Y-77277955D01*
X94446393Y-77321107D01*
X94489545Y-77356521D01*
X94489547Y-77356523D01*
X94522654Y-77383693D01*
X94618610Y-77462442D01*
X94815091Y-77567463D01*
X95028285Y-77632135D01*
X95194442Y-77648500D01*
X95194451Y-77648500D01*
X95249999Y-77653971D01*
X95305547Y-77648500D01*
X114355558Y-77648500D01*
X114521715Y-77632135D01*
X114734909Y-77567463D01*
X114931390Y-77462442D01*
X115103607Y-77321107D01*
X115244942Y-77148890D01*
X115349963Y-76952409D01*
X115414635Y-76739215D01*
X115436472Y-76517500D01*
X115414635Y-76295785D01*
X115349963Y-76082591D01*
X115244942Y-75886110D01*
X115103607Y-75713893D01*
X114931390Y-75572558D01*
X114734909Y-75467537D01*
X114521715Y-75402865D01*
X114355558Y-75386500D01*
X95718476Y-75386500D01*
X93875658Y-73543682D01*
X96609000Y-73543682D01*
X96609000Y-73776318D01*
X96654386Y-74004485D01*
X96743412Y-74219413D01*
X96872658Y-74412843D01*
X97037157Y-74577342D01*
X97230587Y-74706588D01*
X97445515Y-74795614D01*
X97673682Y-74841000D01*
X97906318Y-74841000D01*
X98134485Y-74795614D01*
X98349413Y-74706588D01*
X98542843Y-74577342D01*
X98707342Y-74412843D01*
X98836588Y-74219413D01*
X98925614Y-74004485D01*
X98971000Y-73776318D01*
X98971000Y-73543682D01*
X99149000Y-73543682D01*
X99149000Y-73776318D01*
X99194386Y-74004485D01*
X99283412Y-74219413D01*
X99412658Y-74412843D01*
X99577157Y-74577342D01*
X99770587Y-74706588D01*
X99985515Y-74795614D01*
X100213682Y-74841000D01*
X100446318Y-74841000D01*
X100674485Y-74795614D01*
X100889413Y-74706588D01*
X101082843Y-74577342D01*
X101247342Y-74412843D01*
X101376588Y-74219413D01*
X101465614Y-74004485D01*
X101511000Y-73776318D01*
X101511000Y-73543682D01*
X101689000Y-73543682D01*
X101689000Y-73776318D01*
X101734386Y-74004485D01*
X101823412Y-74219413D01*
X101952658Y-74412843D01*
X102117157Y-74577342D01*
X102310587Y-74706588D01*
X102525515Y-74795614D01*
X102753682Y-74841000D01*
X102986318Y-74841000D01*
X103214485Y-74795614D01*
X103429413Y-74706588D01*
X103622843Y-74577342D01*
X103787342Y-74412843D01*
X103916588Y-74219413D01*
X104005614Y-74004485D01*
X104051000Y-73776318D01*
X104051000Y-73543682D01*
X104229000Y-73543682D01*
X104229000Y-73776318D01*
X104274386Y-74004485D01*
X104363412Y-74219413D01*
X104492658Y-74412843D01*
X104657157Y-74577342D01*
X104850587Y-74706588D01*
X105065515Y-74795614D01*
X105293682Y-74841000D01*
X105526318Y-74841000D01*
X105754485Y-74795614D01*
X105969413Y-74706588D01*
X106162843Y-74577342D01*
X106327342Y-74412843D01*
X106456588Y-74219413D01*
X106545614Y-74004485D01*
X106591000Y-73776318D01*
X106591000Y-73543682D01*
X106545614Y-73315515D01*
X106456588Y-73100587D01*
X106327342Y-72907157D01*
X106280185Y-72860000D01*
X106767157Y-72860000D01*
X106767157Y-74460000D01*
X106774513Y-74534689D01*
X106796299Y-74606508D01*
X106831678Y-74672696D01*
X106879289Y-74730711D01*
X106937304Y-74778322D01*
X107003492Y-74813701D01*
X107075311Y-74835487D01*
X107150000Y-74842843D01*
X108750000Y-74842843D01*
X108824689Y-74835487D01*
X108896508Y-74813701D01*
X108962696Y-74778322D01*
X109020711Y-74730711D01*
X109068322Y-74672696D01*
X109103701Y-74606508D01*
X109125487Y-74534689D01*
X109132843Y-74460000D01*
X109132843Y-72860000D01*
X109125487Y-72785311D01*
X109103701Y-72713492D01*
X109068322Y-72647304D01*
X109020711Y-72589289D01*
X108962696Y-72541678D01*
X108896508Y-72506299D01*
X108824689Y-72484513D01*
X108750000Y-72477157D01*
X107150000Y-72477157D01*
X107075311Y-72484513D01*
X107003492Y-72506299D01*
X106937304Y-72541678D01*
X106879289Y-72589289D01*
X106831678Y-72647304D01*
X106796299Y-72713492D01*
X106774513Y-72785311D01*
X106767157Y-72860000D01*
X106280185Y-72860000D01*
X106162843Y-72742658D01*
X105969413Y-72613412D01*
X105754485Y-72524386D01*
X105526318Y-72479000D01*
X105293682Y-72479000D01*
X105065515Y-72524386D01*
X104850587Y-72613412D01*
X104657157Y-72742658D01*
X104492658Y-72907157D01*
X104363412Y-73100587D01*
X104274386Y-73315515D01*
X104229000Y-73543682D01*
X104051000Y-73543682D01*
X104005614Y-73315515D01*
X103916588Y-73100587D01*
X103787342Y-72907157D01*
X103622843Y-72742658D01*
X103429413Y-72613412D01*
X103214485Y-72524386D01*
X102986318Y-72479000D01*
X102753682Y-72479000D01*
X102525515Y-72524386D01*
X102310587Y-72613412D01*
X102117157Y-72742658D01*
X101952658Y-72907157D01*
X101823412Y-73100587D01*
X101734386Y-73315515D01*
X101689000Y-73543682D01*
X101511000Y-73543682D01*
X101465614Y-73315515D01*
X101376588Y-73100587D01*
X101247342Y-72907157D01*
X101082843Y-72742658D01*
X100889413Y-72613412D01*
X100674485Y-72524386D01*
X100446318Y-72479000D01*
X100213682Y-72479000D01*
X99985515Y-72524386D01*
X99770587Y-72613412D01*
X99577157Y-72742658D01*
X99412658Y-72907157D01*
X99283412Y-73100587D01*
X99194386Y-73315515D01*
X99149000Y-73543682D01*
X98971000Y-73543682D01*
X98925614Y-73315515D01*
X98836588Y-73100587D01*
X98707342Y-72907157D01*
X98542843Y-72742658D01*
X98349413Y-72613412D01*
X98134485Y-72524386D01*
X97906318Y-72479000D01*
X97673682Y-72479000D01*
X97445515Y-72524386D01*
X97230587Y-72613412D01*
X97037157Y-72742658D01*
X96872658Y-72907157D01*
X96743412Y-73100587D01*
X96654386Y-73315515D01*
X96609000Y-73543682D01*
X93875658Y-73543682D01*
X93358525Y-73026550D01*
X93323107Y-72983393D01*
X93150890Y-72842058D01*
X92954409Y-72737037D01*
X92741215Y-72672365D01*
X92575058Y-72656000D01*
X92575050Y-72656000D01*
X92519500Y-72650529D01*
X92463950Y-72656000D01*
X85018550Y-72656000D01*
X84963000Y-72650529D01*
X84907449Y-72656000D01*
X84907442Y-72656000D01*
X84741285Y-72672365D01*
X84528091Y-72737037D01*
X84331610Y-72842058D01*
X84252287Y-72907157D01*
X84159393Y-72983393D01*
X84123979Y-73026545D01*
X81726050Y-75424475D01*
X81682893Y-75459893D01*
X81541558Y-75632110D01*
X81436537Y-75828592D01*
X81371865Y-76041786D01*
X81355500Y-76207943D01*
X81355500Y-76207950D01*
X81350029Y-76263500D01*
X79146401Y-76263500D01*
X79146401Y-71526401D01*
X118999001Y-71526401D01*
X118999002Y-110541501D01*
%TA.AperFunction,Conductor*%
D25*
G36*
X118999002Y-110541501D02*
G01*
X118442034Y-110541501D01*
X118422701Y-110539597D01*
X118403368Y-110541501D01*
X118345522Y-110547198D01*
X118271310Y-110569711D01*
X118202915Y-110606268D01*
X118142967Y-110655467D01*
X118093768Y-110715415D01*
X118057211Y-110783810D01*
X118034698Y-110858022D01*
X118027097Y-110935201D01*
X118029001Y-110954534D01*
X118029002Y-116513358D01*
X118027097Y-116532701D01*
X118029002Y-116552044D01*
X118029002Y-116554534D01*
X118034699Y-116612380D01*
X118057212Y-116686592D01*
X118093769Y-116754987D01*
X118142968Y-116814935D01*
X118202916Y-116864134D01*
X118271311Y-116900691D01*
X118345523Y-116923204D01*
X118422701Y-116930805D01*
X118467418Y-116926401D01*
X118999001Y-116926401D01*
X118999002Y-127389001D01*
X118442034Y-127389001D01*
X118422701Y-127387097D01*
X118403368Y-127389001D01*
X118345522Y-127394698D01*
X118271310Y-127417211D01*
X118202915Y-127453768D01*
X118142967Y-127502967D01*
X118093768Y-127562915D01*
X118057211Y-127631310D01*
X118034698Y-127705522D01*
X118027097Y-127782701D01*
X118029001Y-127802034D01*
X118029002Y-133513358D01*
X118027097Y-133532701D01*
X118034698Y-133609880D01*
X118057211Y-133684092D01*
X118093768Y-133752487D01*
X118142967Y-133812435D01*
X118202915Y-133861634D01*
X118271310Y-133898191D01*
X118345522Y-133920704D01*
X118403368Y-133926401D01*
X118422701Y-133928305D01*
X118442034Y-133926401D01*
X118999001Y-133926401D01*
X118999001Y-135956701D01*
X117678201Y-135956701D01*
X117637789Y-135960663D01*
X117597440Y-135964335D01*
X117595991Y-135964761D01*
X117594486Y-135964909D01*
X117555643Y-135976637D01*
X117516746Y-135988085D01*
X117515407Y-135988785D01*
X117513960Y-135989222D01*
X117478130Y-136008273D01*
X117442201Y-136027056D01*
X117441025Y-136028002D01*
X117439689Y-136028712D01*
X117408268Y-136054338D01*
X117376646Y-136079763D01*
X117375673Y-136080923D01*
X117374504Y-136081876D01*
X117348693Y-136113076D01*
X117322577Y-136144200D01*
X117321848Y-136145526D01*
X117320886Y-136146689D01*
X117301603Y-136182352D01*
X117282054Y-136217912D01*
X117281597Y-136219352D01*
X117280878Y-136220682D01*
X117268884Y-136259428D01*
X117256619Y-136298091D01*
X117256450Y-136299594D01*
X117256004Y-136301036D01*
X117251770Y-136341320D01*
X117247243Y-136381683D01*
X117247223Y-136384590D01*
X117247212Y-136384692D01*
X117247221Y-136384794D01*
X117247201Y-136387701D01*
X117247201Y-145904634D01*
X117138451Y-145905201D01*
X116979701Y-146063951D01*
X116979701Y-146113500D01*
X116725701Y-146113500D01*
X116725701Y-146063951D01*
X116566951Y-145905201D01*
X115977701Y-145902129D01*
X115853219Y-145914389D01*
X115733521Y-145950699D01*
X115623207Y-146009664D01*
X115526516Y-146089016D01*
X115506423Y-146113500D01*
X114893701Y-146113500D01*
X114893701Y-143928456D01*
X115897152Y-142925007D01*
X115919317Y-142906817D01*
X115991921Y-142818348D01*
X116045871Y-142717415D01*
X116079093Y-142607896D01*
X116087500Y-142522540D01*
X116087500Y-142522539D01*
X116090311Y-142494000D01*
X116087500Y-142465460D01*
X116087500Y-141125539D01*
X116090311Y-141097000D01*
X116087500Y-141068460D01*
X116087500Y-141039777D01*
X116081904Y-141011645D01*
X116079093Y-140983104D01*
X116070767Y-140955657D01*
X116065172Y-140927529D01*
X116054198Y-140901034D01*
X116045871Y-140873585D01*
X116032350Y-140848289D01*
X116021375Y-140821793D01*
X116005441Y-140797946D01*
X115991921Y-140772652D01*
X115973727Y-140750482D01*
X115957792Y-140726634D01*
X115937513Y-140706355D01*
X115919317Y-140684183D01*
X115897145Y-140665987D01*
X115876866Y-140645708D01*
X115853018Y-140629773D01*
X115830848Y-140611579D01*
X115805554Y-140598059D01*
X115781707Y-140582125D01*
X115755211Y-140571150D01*
X115729915Y-140557629D01*
X115702466Y-140549302D01*
X115675971Y-140538328D01*
X115647843Y-140532733D01*
X115620396Y-140524407D01*
X115591855Y-140521596D01*
X115563723Y-140516000D01*
X115535040Y-140516000D01*
X115506500Y-140513189D01*
X115477960Y-140516000D01*
X115452500Y-140516000D01*
X115452500Y-135582000D01*
X115477960Y-135582000D01*
X115506500Y-135584811D01*
X115535040Y-135582000D01*
X115563723Y-135582000D01*
X115591856Y-135576404D01*
X115620395Y-135573593D01*
X115647840Y-135565268D01*
X115675971Y-135559672D01*
X115702469Y-135548696D01*
X115729914Y-135540371D01*
X115755207Y-135526852D01*
X115781707Y-135515875D01*
X115805558Y-135499938D01*
X115830847Y-135486421D01*
X115853014Y-135468229D01*
X115876866Y-135452292D01*
X115897147Y-135432011D01*
X115919317Y-135413817D01*
X115937513Y-135391645D01*
X115957792Y-135371366D01*
X115973727Y-135347518D01*
X115991921Y-135325348D01*
X116005441Y-135300054D01*
X116021375Y-135276207D01*
X116032350Y-135249711D01*
X116045871Y-135224415D01*
X116054198Y-135196966D01*
X116065172Y-135170471D01*
X116070767Y-135142343D01*
X116079093Y-135114896D01*
X116081904Y-135086355D01*
X116087500Y-135058223D01*
X116087500Y-131368157D01*
X116595646Y-130860012D01*
X116617817Y-130841817D01*
X116690421Y-130753348D01*
X116744371Y-130652415D01*
X116777593Y-130542896D01*
X116783507Y-130482851D01*
X116788811Y-130429001D01*
X116786000Y-130400461D01*
X116786000Y-128425539D01*
X116788811Y-128396999D01*
X116777593Y-128283104D01*
X116744371Y-128173585D01*
X116740092Y-128165579D01*
X116690421Y-128072652D01*
X116617817Y-127984183D01*
X116595645Y-127965987D01*
X116087500Y-127457843D01*
X116087500Y-114392040D01*
X116090311Y-114363500D01*
X116087500Y-114334960D01*
X116087500Y-114306277D01*
X116081904Y-114278145D01*
X116079093Y-114249604D01*
X116070767Y-114222157D01*
X116065172Y-114194029D01*
X116054198Y-114167534D01*
X116045871Y-114140085D01*
X116032350Y-114114789D01*
X116021375Y-114088293D01*
X116005441Y-114064446D01*
X115991921Y-114039152D01*
X115973727Y-114016982D01*
X115957792Y-113993134D01*
X115937513Y-113972855D01*
X115919317Y-113950683D01*
X115897145Y-113932487D01*
X115876866Y-113912208D01*
X115853018Y-113896273D01*
X115830848Y-113878079D01*
X115805554Y-113864559D01*
X115781707Y-113848625D01*
X115755211Y-113837650D01*
X115729915Y-113824129D01*
X115702466Y-113815802D01*
X115675971Y-113804828D01*
X115647843Y-113799233D01*
X115620396Y-113790907D01*
X115591855Y-113788096D01*
X115563723Y-113782500D01*
X115535040Y-113782500D01*
X115506500Y-113779689D01*
X115477960Y-113782500D01*
X115449277Y-113782500D01*
X115421145Y-113788096D01*
X115392604Y-113790907D01*
X115365157Y-113799233D01*
X115337029Y-113804828D01*
X115310534Y-113815802D01*
X115283085Y-113824129D01*
X115257789Y-113837650D01*
X115231293Y-113848625D01*
X115207446Y-113864559D01*
X115182152Y-113878079D01*
X115159982Y-113896273D01*
X115136134Y-113912208D01*
X115115855Y-113932487D01*
X115093683Y-113950683D01*
X115075487Y-113972855D01*
X115055208Y-113993134D01*
X115039273Y-114016982D01*
X115021079Y-114039152D01*
X115007559Y-114064446D01*
X114991625Y-114088293D01*
X114980650Y-114114789D01*
X114967129Y-114140085D01*
X114958802Y-114167534D01*
X114947828Y-114194029D01*
X114942233Y-114222157D01*
X114933907Y-114249604D01*
X114931096Y-114278145D01*
X114925500Y-114306277D01*
X114925500Y-114334960D01*
X114922689Y-114363500D01*
X114925500Y-114392040D01*
X114925500Y-114417500D01*
X114900040Y-114417500D01*
X114871500Y-114414689D01*
X114842960Y-114417500D01*
X114817500Y-114417500D01*
X114817500Y-110349658D01*
X114985010Y-110182148D01*
X114985014Y-110182143D01*
X115389145Y-109778013D01*
X115411317Y-109759817D01*
X115429513Y-109737645D01*
X115449792Y-109717366D01*
X115465727Y-109693518D01*
X115483921Y-109671348D01*
X115497441Y-109646054D01*
X115513375Y-109622207D01*
X115524350Y-109595711D01*
X115537871Y-109570415D01*
X115546198Y-109542966D01*
X115557172Y-109516471D01*
X115562767Y-109488343D01*
X115571093Y-109460896D01*
X115573904Y-109432355D01*
X115579500Y-109404223D01*
X115579500Y-109375540D01*
X115582311Y-109347000D01*
X115579500Y-109318460D01*
X115579500Y-109289777D01*
X115573904Y-109261645D01*
X115571093Y-109233104D01*
X115562767Y-109205657D01*
X115557172Y-109177529D01*
X115546198Y-109151034D01*
X115537871Y-109123585D01*
X115524350Y-109098289D01*
X115513375Y-109071793D01*
X115497441Y-109047946D01*
X115483921Y-109022652D01*
X115465727Y-109000482D01*
X115449792Y-108976634D01*
X115429513Y-108956355D01*
X115411317Y-108934183D01*
X115389145Y-108915987D01*
X115368866Y-108895708D01*
X115345018Y-108879773D01*
X115322848Y-108861579D01*
X115297554Y-108848059D01*
X115273707Y-108832125D01*
X115247211Y-108821150D01*
X115221915Y-108807629D01*
X115194466Y-108799302D01*
X115167971Y-108788328D01*
X115139843Y-108782733D01*
X115112396Y-108774407D01*
X115083855Y-108771596D01*
X115055723Y-108766000D01*
X115027040Y-108766000D01*
X114998500Y-108763189D01*
X114969960Y-108766000D01*
X114941277Y-108766000D01*
X114913145Y-108771596D01*
X114884604Y-108774407D01*
X114857157Y-108782733D01*
X114829029Y-108788328D01*
X114802534Y-108799302D01*
X114775085Y-108807629D01*
X114749789Y-108821150D01*
X114723293Y-108832125D01*
X114699446Y-108848059D01*
X114674152Y-108861579D01*
X114651982Y-108879773D01*
X114628134Y-108895708D01*
X114607855Y-108915987D01*
X114585683Y-108934183D01*
X114567487Y-108956355D01*
X114163357Y-109360486D01*
X114163352Y-109360490D01*
X113845855Y-109677988D01*
X113823684Y-109696183D01*
X113805491Y-109718352D01*
X113751079Y-109784653D01*
X113697129Y-109885586D01*
X113681096Y-109938439D01*
X112912500Y-109169843D01*
X112912500Y-108972277D01*
X112906904Y-108944144D01*
X112904093Y-108915605D01*
X112895768Y-108888159D01*
X112890172Y-108860029D01*
X112879197Y-108833534D01*
X112870871Y-108806085D01*
X112857350Y-108780789D01*
X112846375Y-108754293D01*
X112830441Y-108730446D01*
X112816921Y-108705152D01*
X112798727Y-108682982D01*
X112782792Y-108659134D01*
X112762513Y-108638855D01*
X112744317Y-108616683D01*
X112722145Y-108598487D01*
X112701866Y-108578208D01*
X112678018Y-108562273D01*
X112655848Y-108544079D01*
X112630554Y-108530559D01*
X112606707Y-108514625D01*
X112580211Y-108503650D01*
X112554915Y-108490129D01*
X112527466Y-108481802D01*
X112500971Y-108470828D01*
X112472843Y-108465233D01*
X112445396Y-108456907D01*
X112416855Y-108454096D01*
X112388723Y-108448500D01*
X112360040Y-108448500D01*
X112331500Y-108445689D01*
X112302960Y-108448500D01*
X112274277Y-108448500D01*
X112246144Y-108454096D01*
X112217605Y-108456907D01*
X112190160Y-108465232D01*
X112162029Y-108470828D01*
X112152026Y-108474971D01*
X112147792Y-108468634D01*
X112127513Y-108448355D01*
X112109317Y-108426183D01*
X112087145Y-108407987D01*
X112066866Y-108387708D01*
X112043018Y-108371773D01*
X112020848Y-108353579D01*
X111995554Y-108340059D01*
X111971707Y-108324125D01*
X111945211Y-108313150D01*
X111919915Y-108299629D01*
X111892466Y-108291302D01*
X111865971Y-108280328D01*
X111837843Y-108274733D01*
X111830741Y-108272579D01*
X111833000Y-108261223D01*
X111833000Y-108232540D01*
X111835811Y-108204000D01*
X111833000Y-108175460D01*
X111833000Y-108146777D01*
X111827404Y-108118645D01*
X111824593Y-108090104D01*
X111816267Y-108062658D01*
X111810672Y-108034529D01*
X111799697Y-108008032D01*
X111791371Y-107980586D01*
X111777852Y-107955293D01*
X111766875Y-107928793D01*
X111750938Y-107904942D01*
X111737421Y-107879653D01*
X111719231Y-107857489D01*
X111703292Y-107833634D01*
X111683004Y-107813346D01*
X111664816Y-107791184D01*
X111642654Y-107772996D01*
X111622366Y-107752708D01*
X111598511Y-107736769D01*
X111576347Y-107718579D01*
X111551058Y-107705062D01*
X111527207Y-107689125D01*
X111500707Y-107678148D01*
X111475414Y-107664629D01*
X111447968Y-107656303D01*
X111421471Y-107645328D01*
X111393342Y-107639733D01*
X111365896Y-107631407D01*
X111337355Y-107628596D01*
X111309223Y-107623000D01*
X111280540Y-107623000D01*
X111252000Y-107620189D01*
X111223460Y-107623000D01*
X111194777Y-107623000D01*
X111166645Y-107628596D01*
X111138104Y-107631407D01*
X111110658Y-107639733D01*
X111082529Y-107645328D01*
X111056032Y-107656303D01*
X111028586Y-107664629D01*
X111007500Y-107675900D01*
X111007500Y-88402333D01*
X111029371Y-88361415D01*
X111062593Y-88251896D01*
X111071000Y-88166540D01*
X111071000Y-88166539D01*
X111073811Y-88138000D01*
X111071000Y-88109460D01*
X111071000Y-87320001D01*
X111200587Y-87406588D01*
X111415515Y-87495614D01*
X111643682Y-87541000D01*
X111876318Y-87541000D01*
X112104485Y-87495614D01*
X112319413Y-87406588D01*
X112512843Y-87277342D01*
X112677342Y-87112843D01*
X112806588Y-86919413D01*
X112895614Y-86704485D01*
X112941000Y-86476318D01*
X112941000Y-86243682D01*
X112895614Y-86015515D01*
X112806588Y-85800587D01*
X112677342Y-85607157D01*
X112630185Y-85560000D01*
X113117157Y-85560000D01*
X113117157Y-87160000D01*
X113124513Y-87234689D01*
X113146299Y-87306508D01*
X113181678Y-87372696D01*
X113229289Y-87430711D01*
X113287304Y-87478322D01*
X113353492Y-87513701D01*
X113425311Y-87535487D01*
X113500000Y-87542843D01*
X115100000Y-87542843D01*
X115174689Y-87535487D01*
X115246508Y-87513701D01*
X115312696Y-87478322D01*
X115370711Y-87430711D01*
X115418322Y-87372696D01*
X115453701Y-87306508D01*
X115475487Y-87234689D01*
X115482843Y-87160000D01*
X115482843Y-85560000D01*
X115475487Y-85485311D01*
X115453701Y-85413492D01*
X115418322Y-85347304D01*
X115370711Y-85289289D01*
X115312696Y-85241678D01*
X115246508Y-85206299D01*
X115174689Y-85184513D01*
X115100000Y-85177157D01*
X113500000Y-85177157D01*
X113425311Y-85184513D01*
X113353492Y-85206299D01*
X113287304Y-85241678D01*
X113229289Y-85289289D01*
X113181678Y-85347304D01*
X113146299Y-85413492D01*
X113124513Y-85485311D01*
X113117157Y-85560000D01*
X112630185Y-85560000D01*
X112512843Y-85442658D01*
X112319413Y-85313412D01*
X112104485Y-85224386D01*
X111876318Y-85179000D01*
X111643682Y-85179000D01*
X111415515Y-85224386D01*
X111200587Y-85313412D01*
X111007157Y-85442658D01*
X110950514Y-85499301D01*
X110938241Y-85484346D01*
X110902817Y-85441181D01*
X110880645Y-85422985D01*
X108950519Y-83492860D01*
X108932319Y-83470683D01*
X108843850Y-83398079D01*
X108742917Y-83344129D01*
X108633398Y-83310907D01*
X108548042Y-83302500D01*
X108519502Y-83299689D01*
X108490962Y-83302500D01*
X93818036Y-83302500D01*
X93789499Y-83299689D01*
X93760962Y-83302500D01*
X93760960Y-83302500D01*
X93675604Y-83310907D01*
X93566085Y-83344129D01*
X93465152Y-83398079D01*
X93376683Y-83470683D01*
X93358487Y-83492855D01*
X92149137Y-84702206D01*
X92149134Y-84702208D01*
X92128855Y-84722487D01*
X92106683Y-84740683D01*
X92088490Y-84762852D01*
X92068208Y-84783134D01*
X92052273Y-84806982D01*
X92034079Y-84829152D01*
X92020559Y-84854446D01*
X92004625Y-84878293D01*
X91993650Y-84904789D01*
X91980129Y-84930085D01*
X91971802Y-84957534D01*
X91960828Y-84984029D01*
X91955233Y-85012157D01*
X91946907Y-85039604D01*
X91944096Y-85068145D01*
X91938500Y-85096277D01*
X91938500Y-85124960D01*
X91935689Y-85153500D01*
X91938500Y-85182040D01*
X91938500Y-85210723D01*
X91944096Y-85238855D01*
X91946907Y-85267396D01*
X91955233Y-85294843D01*
X91960828Y-85322971D01*
X91971802Y-85349466D01*
X91980129Y-85376915D01*
X91993650Y-85402211D01*
X92004625Y-85428707D01*
X92020559Y-85452554D01*
X92034079Y-85477848D01*
X92052273Y-85500018D01*
X92068208Y-85523866D01*
X92088487Y-85544145D01*
X92106683Y-85566317D01*
X92128855Y-85584513D01*
X92149134Y-85604792D01*
X92172982Y-85620727D01*
X92195152Y-85638921D01*
X92220446Y-85652441D01*
X92244293Y-85668375D01*
X92270789Y-85679350D01*
X92296085Y-85692871D01*
X92323534Y-85701198D01*
X92350029Y-85712172D01*
X92378157Y-85717767D01*
X92405604Y-85726093D01*
X92434145Y-85728904D01*
X92462277Y-85734500D01*
X92490960Y-85734500D01*
X92519500Y-85737311D01*
X92548040Y-85734500D01*
X92576723Y-85734500D01*
X92604855Y-85728904D01*
X92633396Y-85726093D01*
X92660843Y-85717767D01*
X92688971Y-85712172D01*
X92715466Y-85701198D01*
X92742915Y-85692871D01*
X92768211Y-85679350D01*
X92794707Y-85668375D01*
X92818554Y-85652441D01*
X92843848Y-85638921D01*
X92866018Y-85620727D01*
X92889866Y-85604792D01*
X92910145Y-85584513D01*
X92932317Y-85566317D01*
X92950513Y-85544145D01*
X92970792Y-85523866D01*
X92970794Y-85523863D01*
X94030158Y-84464500D01*
X96260342Y-84464500D01*
X93675843Y-87049000D01*
X92113755Y-87049000D01*
X92201825Y-86864099D01*
X92246476Y-86716890D01*
X92125155Y-86487000D01*
X90932000Y-86487000D01*
X90932000Y-86507000D01*
X90678000Y-86507000D01*
X90678000Y-86487000D01*
X89484845Y-86487000D01*
X89363524Y-86716890D01*
X89408175Y-86864099D01*
X89514307Y-87086921D01*
X89502085Y-87090629D01*
X89401152Y-87144579D01*
X89312683Y-87217183D01*
X89294490Y-87239352D01*
X87493355Y-89040487D01*
X87492843Y-89040908D01*
X87492843Y-87700000D01*
X87485565Y-87625704D01*
X87463854Y-87553862D01*
X87428545Y-87487637D01*
X87380994Y-87429572D01*
X87323029Y-87381900D01*
X87256878Y-87346453D01*
X87185082Y-87324592D01*
X87110400Y-87317157D01*
X87035704Y-87324435D01*
X86963862Y-87346146D01*
X86897637Y-87381455D01*
X86360000Y-87739880D01*
X85822363Y-87381455D01*
X85756508Y-87346299D01*
X85684689Y-87324513D01*
X85610000Y-87317157D01*
X85535311Y-87324513D01*
X85463492Y-87346299D01*
X85397304Y-87381678D01*
X85339289Y-87429289D01*
X85291678Y-87487304D01*
X85256299Y-87553492D01*
X85234513Y-87625311D01*
X85227157Y-87700000D01*
X85227157Y-90100000D01*
X85234435Y-90174296D01*
X85256146Y-90246138D01*
X85258185Y-90249963D01*
X85256299Y-90253492D01*
X85234513Y-90325311D01*
X85227157Y-90400000D01*
X85227157Y-91400000D01*
X85234513Y-91474689D01*
X85256299Y-91546508D01*
X85291678Y-91612696D01*
X85339289Y-91670711D01*
X85397304Y-91718322D01*
X85463492Y-91753701D01*
X85535311Y-91775487D01*
X85610000Y-91782843D01*
X87110000Y-91782843D01*
X87184689Y-91775487D01*
X87256508Y-91753701D01*
X87303001Y-91728850D01*
X87303000Y-101190460D01*
X87300189Y-101219000D01*
X87303000Y-101247539D01*
X87311407Y-101332895D01*
X87344629Y-101442414D01*
X87398579Y-101543347D01*
X87471183Y-101631817D01*
X87493360Y-101650017D01*
X89622176Y-103778834D01*
X89621307Y-103780931D01*
X89574000Y-104018757D01*
X89574000Y-104261243D01*
X89621307Y-104499069D01*
X89714102Y-104723097D01*
X89848820Y-104924717D01*
X90020283Y-105096180D01*
X90221903Y-105230898D01*
X90445931Y-105323693D01*
X90683757Y-105371000D01*
X90926243Y-105371000D01*
X91164069Y-105323693D01*
X91388097Y-105230898D01*
X91589717Y-105096180D01*
X91761180Y-104924717D01*
X91895898Y-104723097D01*
X91988693Y-104499069D01*
X92036000Y-104261243D01*
X92036000Y-104018757D01*
X91988693Y-103780931D01*
X91895898Y-103556903D01*
X91761180Y-103355283D01*
X91589717Y-103183820D01*
X91388097Y-103049102D01*
X91164069Y-102956307D01*
X90926243Y-102909000D01*
X90683757Y-102909000D01*
X90445931Y-102956307D01*
X90443834Y-102957176D01*
X90088255Y-102601597D01*
X90221903Y-102690898D01*
X90445931Y-102783693D01*
X90683757Y-102831000D01*
X90926243Y-102831000D01*
X91164069Y-102783693D01*
X91388097Y-102690898D01*
X91589717Y-102556180D01*
X91761180Y-102384717D01*
X91895898Y-102183097D01*
X91988693Y-101959069D01*
X92036000Y-101721243D01*
X92036000Y-101478757D01*
X91988693Y-101240931D01*
X91895898Y-101016903D01*
X91761180Y-100815283D01*
X91589717Y-100643820D01*
X91388097Y-100509102D01*
X91164069Y-100416307D01*
X90926243Y-100369000D01*
X90683757Y-100369000D01*
X90445931Y-100416307D01*
X90443833Y-100417176D01*
X90088255Y-100061597D01*
X90221903Y-100150898D01*
X90445931Y-100243693D01*
X90683757Y-100291000D01*
X90926243Y-100291000D01*
X91164069Y-100243693D01*
X91388097Y-100150898D01*
X91589717Y-100016180D01*
X91761180Y-99844717D01*
X91895898Y-99643097D01*
X91988693Y-99419069D01*
X92036000Y-99181243D01*
X92036000Y-98938757D01*
X91988693Y-98700931D01*
X91895898Y-98476903D01*
X91761180Y-98275283D01*
X91589717Y-98103820D01*
X91388097Y-97969102D01*
X91164069Y-97876307D01*
X90926243Y-97829000D01*
X90683757Y-97829000D01*
X90445931Y-97876307D01*
X90443833Y-97877176D01*
X90088254Y-97521597D01*
X90221903Y-97610898D01*
X90445931Y-97703693D01*
X90683757Y-97751000D01*
X90926243Y-97751000D01*
X91164069Y-97703693D01*
X91388097Y-97610898D01*
X91589717Y-97476180D01*
X91761180Y-97304717D01*
X91895898Y-97103097D01*
X91988693Y-96879069D01*
X92036000Y-96641243D01*
X92036000Y-96398757D01*
X91988693Y-96160931D01*
X91987824Y-96158833D01*
X92465646Y-95681012D01*
X92487817Y-95662817D01*
X92560421Y-95574348D01*
X92614371Y-95473415D01*
X92637001Y-95398814D01*
X92637000Y-106454539D01*
X92645407Y-106539895D01*
X92678629Y-106649414D01*
X92732579Y-106750347D01*
X92805183Y-106838817D01*
X92893652Y-106911421D01*
X92994585Y-106965371D01*
X93104104Y-106998593D01*
X93218000Y-107009811D01*
X93331895Y-106998593D01*
X93441414Y-106965371D01*
X93542347Y-106911421D01*
X93630817Y-106838817D01*
X93703421Y-106750348D01*
X93757371Y-106649415D01*
X93790593Y-106539896D01*
X93799000Y-106454540D01*
X93799000Y-96716157D01*
X99749000Y-102666158D01*
X99749001Y-114779450D01*
X99746189Y-114808000D01*
X99757407Y-114921895D01*
X99790629Y-115031414D01*
X99844579Y-115132347D01*
X99846564Y-115134766D01*
X99836343Y-115132733D01*
X99808896Y-115124407D01*
X99780355Y-115121596D01*
X99752223Y-115116000D01*
X99723540Y-115116000D01*
X99695000Y-115113189D01*
X99666460Y-115116000D01*
X99653701Y-115116000D01*
X99653701Y-114645525D01*
X99653749Y-114645029D01*
X99653701Y-114617431D01*
X99653701Y-114588960D01*
X99653651Y-114588448D01*
X99641244Y-107454948D01*
X99645294Y-107441596D01*
X99656512Y-107327701D01*
X99645294Y-107213806D01*
X99612072Y-107104287D01*
X99558122Y-107003354D01*
X99517252Y-106953554D01*
X99511292Y-106944634D01*
X99490650Y-106923992D01*
X99472098Y-106901466D01*
X99450291Y-106883633D01*
X99430366Y-106863708D01*
X99406511Y-106847769D01*
X99384347Y-106829579D01*
X99383898Y-106829339D01*
X99383503Y-106829016D01*
X99358638Y-106815781D01*
X99335207Y-106800125D01*
X99308707Y-106789148D01*
X99283414Y-106775629D01*
X99282924Y-106775480D01*
X99282476Y-106775242D01*
X99255505Y-106767112D01*
X99229471Y-106756328D01*
X99201340Y-106750732D01*
X99173895Y-106742407D01*
X99173386Y-106742357D01*
X99172899Y-106742210D01*
X99144861Y-106739498D01*
X99117223Y-106734000D01*
X99088540Y-106734000D01*
X99060000Y-106731189D01*
X99059492Y-106731239D01*
X99058985Y-106731190D01*
X99030955Y-106734000D01*
X99002777Y-106734000D01*
X98974644Y-106739596D01*
X98946105Y-106742407D01*
X98945617Y-106742555D01*
X98945109Y-106742606D01*
X98918164Y-106750831D01*
X98890529Y-106756328D01*
X98864031Y-106767304D01*
X98836586Y-106775629D01*
X98836134Y-106775871D01*
X98835648Y-106776019D01*
X98810828Y-106789341D01*
X98784793Y-106800125D01*
X98760942Y-106816062D01*
X98735653Y-106829579D01*
X98735259Y-106829903D01*
X98734809Y-106830144D01*
X98713066Y-106848052D01*
X98689634Y-106863708D01*
X98669346Y-106883996D01*
X98647184Y-106902184D01*
X98646863Y-106902575D01*
X98646466Y-106902902D01*
X98628633Y-106924709D01*
X98608708Y-106944634D01*
X98592769Y-106968489D01*
X98574579Y-106990653D01*
X98574339Y-106991102D01*
X98574016Y-106991497D01*
X98560781Y-107016362D01*
X98545125Y-107039793D01*
X98534148Y-107066293D01*
X98520629Y-107091586D01*
X98520480Y-107092076D01*
X98520242Y-107092524D01*
X98512112Y-107119495D01*
X98501328Y-107145529D01*
X98495732Y-107173660D01*
X98487407Y-107201105D01*
X98487357Y-107201614D01*
X98487210Y-107202101D01*
X98484498Y-107230137D01*
X98479000Y-107257777D01*
X98479000Y-107286460D01*
X98476189Y-107315000D01*
X98479000Y-107343540D01*
X98479000Y-107372223D01*
X98479100Y-107372727D01*
X98489257Y-113212399D01*
X98482223Y-113211000D01*
X98453540Y-113211000D01*
X98425000Y-113208189D01*
X98396460Y-113211000D01*
X98371000Y-113211000D01*
X98371000Y-107343540D01*
X98373811Y-107315000D01*
X98371000Y-107286460D01*
X98371000Y-107257777D01*
X98365404Y-107229645D01*
X98362593Y-107201104D01*
X98354267Y-107173657D01*
X98348672Y-107145529D01*
X98337698Y-107119034D01*
X98329371Y-107091585D01*
X98315850Y-107066289D01*
X98304875Y-107039793D01*
X98288941Y-107015946D01*
X98275421Y-106990652D01*
X98257227Y-106968482D01*
X98241292Y-106944634D01*
X98221013Y-106924355D01*
X98202817Y-106902183D01*
X98180645Y-106883987D01*
X98160366Y-106863708D01*
X98136518Y-106847773D01*
X98114348Y-106829579D01*
X98089054Y-106816059D01*
X98065207Y-106800125D01*
X98038711Y-106789150D01*
X98013415Y-106775629D01*
X97985966Y-106767302D01*
X97959471Y-106756328D01*
X97931343Y-106750733D01*
X97903896Y-106742407D01*
X97875355Y-106739596D01*
X97847223Y-106734000D01*
X97818540Y-106734000D01*
X97790000Y-106731189D01*
X97761460Y-106734000D01*
X97732777Y-106734000D01*
X97704645Y-106739596D01*
X97676104Y-106742407D01*
X97648657Y-106750733D01*
X97620529Y-106756328D01*
X97594034Y-106767302D01*
X97566585Y-106775629D01*
X97541289Y-106789150D01*
X97514793Y-106800125D01*
X97490946Y-106816059D01*
X97465652Y-106829579D01*
X97443482Y-106847773D01*
X97419634Y-106863708D01*
X97399355Y-106883987D01*
X97377183Y-106902183D01*
X97358987Y-106924355D01*
X97338708Y-106944634D01*
X97322773Y-106968482D01*
X97304579Y-106990652D01*
X97291059Y-107015946D01*
X97275125Y-107039793D01*
X97264150Y-107066289D01*
X97250629Y-107091585D01*
X97242302Y-107119034D01*
X97231328Y-107145529D01*
X97225733Y-107173657D01*
X97223579Y-107180759D01*
X97212223Y-107178500D01*
X97183540Y-107178500D01*
X97155000Y-107175689D01*
X97126460Y-107178500D01*
X97097777Y-107178500D01*
X97069645Y-107184096D01*
X97041104Y-107186907D01*
X97013657Y-107195233D01*
X96985529Y-107200828D01*
X96959034Y-107211802D01*
X96931585Y-107220129D01*
X96906289Y-107233650D01*
X96879793Y-107244625D01*
X96855946Y-107260559D01*
X96830652Y-107274079D01*
X96808482Y-107292273D01*
X96784634Y-107308208D01*
X96764355Y-107328487D01*
X96742183Y-107346683D01*
X96723987Y-107368855D01*
X96703708Y-107389134D01*
X96687773Y-107412982D01*
X96669579Y-107435152D01*
X96656059Y-107460446D01*
X96640125Y-107484293D01*
X96629150Y-107510789D01*
X96615629Y-107536085D01*
X96607302Y-107563534D01*
X96596328Y-107590029D01*
X96590733Y-107618157D01*
X96582407Y-107645604D01*
X96579596Y-107674145D01*
X96574000Y-107702277D01*
X96574000Y-107730960D01*
X96571189Y-107759500D01*
X96574000Y-107788040D01*
X96574000Y-107816723D01*
X96574001Y-107816728D01*
X96574001Y-107940500D01*
X96548540Y-107940500D01*
X96520000Y-107937689D01*
X96491460Y-107940500D01*
X96462777Y-107940500D01*
X96434645Y-107946096D01*
X96406104Y-107948907D01*
X96378657Y-107957233D01*
X96350529Y-107962828D01*
X96324034Y-107973802D01*
X96296585Y-107982129D01*
X96271289Y-107995650D01*
X96244793Y-108006625D01*
X96220946Y-108022559D01*
X96195652Y-108036079D01*
X96173482Y-108054273D01*
X96149634Y-108070208D01*
X96129355Y-108090487D01*
X96107183Y-108108683D01*
X96088987Y-108130855D01*
X96068708Y-108151134D01*
X96052773Y-108174982D01*
X96034579Y-108197152D01*
X96021059Y-108222446D01*
X96005125Y-108246293D01*
X95994150Y-108272789D01*
X95980629Y-108298085D01*
X95972302Y-108325534D01*
X95961328Y-108352029D01*
X95955733Y-108380157D01*
X95947407Y-108407604D01*
X95944596Y-108436145D01*
X95939000Y-108464277D01*
X95939000Y-108492960D01*
X95937125Y-108512000D01*
X95913540Y-108512000D01*
X95885000Y-108509189D01*
X95856460Y-108512000D01*
X95827777Y-108512000D01*
X95799644Y-108517596D01*
X95771105Y-108520407D01*
X95743660Y-108528732D01*
X95715529Y-108534328D01*
X95689031Y-108545304D01*
X95661586Y-108553629D01*
X95636293Y-108567148D01*
X95609793Y-108578125D01*
X95585942Y-108594062D01*
X95560653Y-108607579D01*
X95538487Y-108625770D01*
X95514634Y-108641708D01*
X95494350Y-108661992D01*
X95472184Y-108680183D01*
X95453993Y-108702349D01*
X95433708Y-108722634D01*
X95417769Y-108746488D01*
X95399580Y-108768652D01*
X95386064Y-108793938D01*
X95370125Y-108817793D01*
X95359147Y-108844297D01*
X95345630Y-108869585D01*
X95337306Y-108897025D01*
X95326328Y-108923529D01*
X95320731Y-108951667D01*
X95312408Y-108979104D01*
X95309598Y-109007635D01*
X95304000Y-109035777D01*
X95304000Y-109147000D01*
X95278540Y-109147000D01*
X95250000Y-109144189D01*
X95221460Y-109147000D01*
X95192777Y-109147000D01*
X95164645Y-109152596D01*
X95136104Y-109155407D01*
X95108657Y-109163733D01*
X95080529Y-109169328D01*
X95054034Y-109180302D01*
X95026585Y-109188629D01*
X95001289Y-109202150D01*
X94974793Y-109213125D01*
X94950946Y-109229059D01*
X94925652Y-109242579D01*
X94903482Y-109260773D01*
X94879634Y-109276708D01*
X94859355Y-109296987D01*
X94837183Y-109315183D01*
X94818987Y-109337355D01*
X94798708Y-109357634D01*
X94782773Y-109381482D01*
X94764579Y-109403652D01*
X94751059Y-109428946D01*
X94735125Y-109452793D01*
X94724150Y-109479289D01*
X94710629Y-109504585D01*
X94702302Y-109532034D01*
X94691328Y-109558529D01*
X94685733Y-109586657D01*
X94677407Y-109614104D01*
X94674596Y-109642645D01*
X94669000Y-109670777D01*
X94669000Y-109699460D01*
X94666189Y-109728000D01*
X94669000Y-109756540D01*
X94669000Y-109785223D01*
X94669001Y-109785228D01*
X94669001Y-110036000D01*
X94643540Y-110036000D01*
X94615000Y-110033189D01*
X94586460Y-110036000D01*
X94557777Y-110036000D01*
X94529645Y-110041596D01*
X94501104Y-110044407D01*
X94473657Y-110052733D01*
X94445529Y-110058328D01*
X94419034Y-110069302D01*
X94391585Y-110077629D01*
X94366289Y-110091150D01*
X94339793Y-110102125D01*
X94315946Y-110118059D01*
X94290652Y-110131579D01*
X94268482Y-110149773D01*
X94244634Y-110165708D01*
X94224355Y-110185987D01*
X94202183Y-110204183D01*
X94183987Y-110226355D01*
X94163708Y-110246634D01*
X94147773Y-110270482D01*
X94129579Y-110292652D01*
X94116059Y-110317946D01*
X94100125Y-110341793D01*
X94089150Y-110368289D01*
X94075629Y-110393585D01*
X94067302Y-110421034D01*
X94056328Y-110447529D01*
X94050733Y-110475657D01*
X94042407Y-110503104D01*
X94039596Y-110531645D01*
X94034000Y-110559777D01*
X94034000Y-110588460D01*
X94031189Y-110617000D01*
X94034000Y-110645540D01*
X94034000Y-110674223D01*
X94034001Y-110674228D01*
X94034000Y-112154342D01*
X92382856Y-113805487D01*
X92382851Y-113805491D01*
X91684355Y-114503988D01*
X91662184Y-114522183D01*
X91610972Y-114584586D01*
X91589579Y-114610653D01*
X91535629Y-114711586D01*
X91502407Y-114821105D01*
X91491189Y-114935000D01*
X91494001Y-114963549D01*
X91494000Y-116106539D01*
X91494001Y-116106549D01*
X91494000Y-118583039D01*
X91494001Y-118583049D01*
X91494000Y-126774539D01*
X91494001Y-126774549D01*
X91494001Y-128720773D01*
X91494000Y-128720777D01*
X91494000Y-128835223D01*
X91494001Y-128835227D01*
X91494000Y-136347842D01*
X81728343Y-146113500D01*
X79746234Y-146113500D01*
X79569811Y-146096124D01*
X79406150Y-146046478D01*
X79255328Y-145965862D01*
X79146401Y-145876468D01*
X79146401Y-136461500D01*
X81458189Y-136461500D01*
X81461000Y-136490040D01*
X81461000Y-136518723D01*
X81466596Y-136546855D01*
X81469407Y-136575396D01*
X81477733Y-136602843D01*
X81483328Y-136630971D01*
X81494302Y-136657466D01*
X81502629Y-136684915D01*
X81516150Y-136710211D01*
X81527125Y-136736707D01*
X81543059Y-136760554D01*
X81556579Y-136785848D01*
X81574773Y-136808018D01*
X81590708Y-136831866D01*
X81610987Y-136852145D01*
X81629183Y-136874317D01*
X81651355Y-136892513D01*
X81671634Y-136912792D01*
X81695482Y-136928727D01*
X81717652Y-136946921D01*
X81742946Y-136960441D01*
X81766793Y-136976375D01*
X81793289Y-136987350D01*
X81818585Y-137000871D01*
X81846034Y-137009198D01*
X81872529Y-137020172D01*
X81900657Y-137025767D01*
X81928104Y-137034093D01*
X81956645Y-137036904D01*
X81984777Y-137042500D01*
X84893223Y-137042500D01*
X84921355Y-137036904D01*
X84949896Y-137034093D01*
X84977343Y-137025767D01*
X85005471Y-137020172D01*
X85031966Y-137009198D01*
X85059415Y-137000871D01*
X85084711Y-136987350D01*
X85111207Y-136976375D01*
X85135054Y-136960441D01*
X85160348Y-136946921D01*
X85182518Y-136928727D01*
X85206366Y-136912792D01*
X85226645Y-136892513D01*
X85248817Y-136874317D01*
X85267013Y-136852145D01*
X85287292Y-136831866D01*
X85303227Y-136808018D01*
X85321421Y-136785848D01*
X85334941Y-136760554D01*
X85350875Y-136736707D01*
X85361850Y-136710211D01*
X85375371Y-136684915D01*
X85383698Y-136657466D01*
X85394672Y-136630971D01*
X85400267Y-136602843D01*
X85408593Y-136575396D01*
X85411404Y-136546855D01*
X85417000Y-136518723D01*
X85417000Y-136490040D01*
X85419811Y-136461500D01*
X85417000Y-136432960D01*
X85417000Y-136404277D01*
X85411404Y-136376145D01*
X85408593Y-136347604D01*
X85400267Y-136320157D01*
X85394672Y-136292029D01*
X85383698Y-136265534D01*
X85375371Y-136238085D01*
X85361850Y-136212789D01*
X85350875Y-136186293D01*
X85334941Y-136162446D01*
X85321421Y-136137152D01*
X85303227Y-136114982D01*
X85287292Y-136091134D01*
X85267013Y-136070855D01*
X85248817Y-136048683D01*
X85226645Y-136030487D01*
X85206366Y-136010208D01*
X85182518Y-135994273D01*
X85160348Y-135976079D01*
X85135054Y-135962559D01*
X85111207Y-135946625D01*
X85084711Y-135935650D01*
X85059415Y-135922129D01*
X85031966Y-135913802D01*
X85005471Y-135902828D01*
X84977343Y-135897233D01*
X84949896Y-135888907D01*
X84921355Y-135886096D01*
X84893223Y-135880500D01*
X81984777Y-135880500D01*
X81956645Y-135886096D01*
X81928104Y-135888907D01*
X81900657Y-135897233D01*
X81872529Y-135902828D01*
X81846034Y-135913802D01*
X81818585Y-135922129D01*
X81793289Y-135935650D01*
X81766793Y-135946625D01*
X81742946Y-135962559D01*
X81717652Y-135976079D01*
X81695482Y-135994273D01*
X81671634Y-136010208D01*
X81651355Y-136030487D01*
X81629183Y-136048683D01*
X81610987Y-136070855D01*
X81590708Y-136091134D01*
X81574773Y-136114982D01*
X81556579Y-136137152D01*
X81543059Y-136162446D01*
X81527125Y-136186293D01*
X81516150Y-136212789D01*
X81502629Y-136238085D01*
X81494302Y-136265534D01*
X81483328Y-136292029D01*
X81477733Y-136320157D01*
X81469407Y-136347604D01*
X81466596Y-136376145D01*
X81461000Y-136404277D01*
X81461000Y-136432960D01*
X81458189Y-136461500D01*
X79146401Y-136461500D01*
X79146401Y-133926401D01*
X79703368Y-133926401D01*
X79722701Y-133928305D01*
X79799880Y-133920704D01*
X79874092Y-133898191D01*
X79942487Y-133861634D01*
X80002435Y-133812435D01*
X80051634Y-133752487D01*
X80088191Y-133684092D01*
X80110704Y-133609880D01*
X80116401Y-133552034D01*
X80118305Y-133532701D01*
X80116401Y-133513368D01*
X80116401Y-127802034D01*
X80118305Y-127782701D01*
X80110704Y-127705522D01*
X80088191Y-127631310D01*
X80051634Y-127562915D01*
X80002435Y-127502967D01*
X79942487Y-127453768D01*
X79874092Y-127417211D01*
X79799880Y-127394698D01*
X79742034Y-127389001D01*
X79722701Y-127387097D01*
X79703368Y-127389001D01*
X79146401Y-127389001D01*
X79146401Y-119426401D01*
X79703368Y-119426401D01*
X79722701Y-119428305D01*
X79799880Y-119420704D01*
X79874092Y-119398191D01*
X79942487Y-119361634D01*
X80002435Y-119312435D01*
X80051634Y-119252487D01*
X80088191Y-119184092D01*
X80110704Y-119109880D01*
X80116401Y-119052034D01*
X80118305Y-119032701D01*
X80116401Y-119013368D01*
X80116401Y-113452034D01*
X80118305Y-113432701D01*
X80113156Y-113380414D01*
X80110704Y-113355522D01*
X80088191Y-113281310D01*
X80051634Y-113212915D01*
X80002435Y-113152967D01*
X79979837Y-113134421D01*
X79942487Y-113103768D01*
X79874092Y-113067211D01*
X79799880Y-113044698D01*
X79742034Y-113039001D01*
X79722701Y-113037097D01*
X79703368Y-113039001D01*
X79146401Y-113039001D01*
X79146401Y-108370000D01*
X89572157Y-108370000D01*
X89572157Y-110070000D01*
X89579513Y-110144689D01*
X89601299Y-110216508D01*
X89636678Y-110282696D01*
X89684289Y-110340711D01*
X89742304Y-110388322D01*
X89808492Y-110423701D01*
X89880311Y-110445487D01*
X89955000Y-110452843D01*
X91655000Y-110452843D01*
X91729689Y-110445487D01*
X91801508Y-110423701D01*
X91867696Y-110388322D01*
X91925711Y-110340711D01*
X91973322Y-110282696D01*
X92008701Y-110216508D01*
X92030487Y-110144689D01*
X92037843Y-110070000D01*
X92037843Y-108370000D01*
X92030487Y-108295311D01*
X92008701Y-108223492D01*
X91973322Y-108157304D01*
X91925711Y-108099289D01*
X91867696Y-108051678D01*
X91801508Y-108016299D01*
X91729689Y-107994513D01*
X91655000Y-107987157D01*
X89955000Y-107987157D01*
X89880311Y-107994513D01*
X89808492Y-108016299D01*
X89742304Y-108051678D01*
X89684289Y-108099289D01*
X89636678Y-108157304D01*
X89601299Y-108223492D01*
X89579513Y-108295311D01*
X89572157Y-108370000D01*
X79146401Y-108370000D01*
X79146401Y-106558757D01*
X89574000Y-106558757D01*
X89574000Y-106801243D01*
X89621307Y-107039069D01*
X89714102Y-107263097D01*
X89848820Y-107464717D01*
X90020283Y-107636180D01*
X90221903Y-107770898D01*
X90445931Y-107863693D01*
X90683757Y-107911000D01*
X90926243Y-107911000D01*
X91164069Y-107863693D01*
X91388097Y-107770898D01*
X91589717Y-107636180D01*
X91761180Y-107464717D01*
X91895898Y-107263097D01*
X91988693Y-107039069D01*
X92036000Y-106801243D01*
X92036000Y-106558757D01*
X91988693Y-106320931D01*
X91895898Y-106096903D01*
X91761180Y-105895283D01*
X91589717Y-105723820D01*
X91388097Y-105589102D01*
X91164069Y-105496307D01*
X90926243Y-105449000D01*
X90683757Y-105449000D01*
X90445931Y-105496307D01*
X90221903Y-105589102D01*
X90020283Y-105723820D01*
X89848820Y-105895283D01*
X89714102Y-106096903D01*
X89621307Y-106320931D01*
X89574000Y-106558757D01*
X79146401Y-106558757D01*
X79146401Y-76263500D01*
X81350029Y-76263500D01*
X81355500Y-76319050D01*
X81355501Y-93972058D01*
X81371866Y-94138215D01*
X81436538Y-94351409D01*
X81541559Y-94547890D01*
X81682894Y-94720107D01*
X81855111Y-94861442D01*
X82051592Y-94966463D01*
X82264786Y-95031135D01*
X82486500Y-95052972D01*
X82708215Y-95031135D01*
X82921409Y-94966463D01*
X83117890Y-94861442D01*
X83290107Y-94720107D01*
X83431442Y-94547890D01*
X83536463Y-94351409D01*
X83601135Y-94138215D01*
X83617500Y-93972058D01*
X83617500Y-86003110D01*
X89363524Y-86003110D01*
X89484845Y-86233000D01*
X90678000Y-86233000D01*
X90678000Y-85039186D01*
X90932000Y-85039186D01*
X90932000Y-86233000D01*
X92125155Y-86233000D01*
X92246476Y-86003110D01*
X92201825Y-85855901D01*
X92076641Y-85593080D01*
X91902588Y-85359731D01*
X91686355Y-85164822D01*
X91436252Y-85015843D01*
X91161891Y-84918519D01*
X90932000Y-85039186D01*
X90678000Y-85039186D01*
X90448109Y-84918519D01*
X90173748Y-85015843D01*
X89923645Y-85164822D01*
X89707412Y-85359731D01*
X89533359Y-85593080D01*
X89408175Y-85855901D01*
X89363524Y-86003110D01*
X83617500Y-86003110D01*
X83617500Y-76731975D01*
X84109475Y-76240000D01*
X85227157Y-76240000D01*
X85227157Y-77240000D01*
X85234592Y-77315082D01*
X85256453Y-77386878D01*
X85258146Y-77390037D01*
X85256299Y-77393492D01*
X85234513Y-77465311D01*
X85227157Y-77540000D01*
X85227157Y-79940000D01*
X85234435Y-80014296D01*
X85256146Y-80086138D01*
X85258185Y-80089963D01*
X85256299Y-80093492D01*
X85234513Y-80165311D01*
X85227157Y-80240000D01*
X85227157Y-81240000D01*
X85234513Y-81314689D01*
X85256299Y-81386508D01*
X85291678Y-81452696D01*
X85339289Y-81510711D01*
X85397304Y-81558322D01*
X85463492Y-81593701D01*
X85535311Y-81615487D01*
X85610000Y-81622843D01*
X87110000Y-81622843D01*
X87184689Y-81615487D01*
X87256508Y-81593701D01*
X87322696Y-81558322D01*
X87380711Y-81510711D01*
X87428322Y-81452696D01*
X87463701Y-81386508D01*
X87483573Y-81321000D01*
X88024343Y-81321000D01*
X88373987Y-81670645D01*
X88392183Y-81692817D01*
X88480652Y-81765421D01*
X88581585Y-81819371D01*
X88691104Y-81852593D01*
X88776460Y-81861000D01*
X88776462Y-81861000D01*
X88804999Y-81863811D01*
X88833536Y-81861000D01*
X89572157Y-81861000D01*
X89572157Y-82130000D01*
X89579513Y-82204689D01*
X89601299Y-82276508D01*
X89636678Y-82342696D01*
X89684289Y-82400711D01*
X89742304Y-82448322D01*
X89808492Y-82483701D01*
X89880311Y-82505487D01*
X89955000Y-82512843D01*
X91655000Y-82512843D01*
X91729689Y-82505487D01*
X91801508Y-82483701D01*
X91867696Y-82448322D01*
X91925711Y-82400711D01*
X91973322Y-82342696D01*
X92008701Y-82276508D01*
X92030487Y-82204689D01*
X92037843Y-82130000D01*
X92037843Y-81629040D01*
X96398091Y-81629040D01*
X96492930Y-81893881D01*
X96637615Y-82135131D01*
X96826586Y-82343519D01*
X97052580Y-82511037D01*
X97306913Y-82631246D01*
X97440961Y-82671904D01*
X97663000Y-82549915D01*
X97663000Y-81407000D01*
X97917000Y-81407000D01*
X97917000Y-82549915D01*
X98139039Y-82671904D01*
X98273087Y-82631246D01*
X98527420Y-82511037D01*
X98753414Y-82343519D01*
X98942385Y-82135131D01*
X99060000Y-81939018D01*
X99177615Y-82135131D01*
X99366586Y-82343519D01*
X99592580Y-82511037D01*
X99846913Y-82631246D01*
X99980961Y-82671904D01*
X100203000Y-82549915D01*
X100203000Y-81407000D01*
X100457000Y-81407000D01*
X100457000Y-82549915D01*
X100679039Y-82671904D01*
X100813087Y-82631246D01*
X101067420Y-82511037D01*
X101293414Y-82343519D01*
X101482385Y-82135131D01*
X101600000Y-81939018D01*
X101717615Y-82135131D01*
X101906586Y-82343519D01*
X102132580Y-82511037D01*
X102386913Y-82631246D01*
X102520961Y-82671904D01*
X102743000Y-82549915D01*
X102743000Y-81407000D01*
X102997000Y-81407000D01*
X102997000Y-82549915D01*
X103219039Y-82671904D01*
X103353087Y-82631246D01*
X103607420Y-82511037D01*
X103833414Y-82343519D01*
X104022385Y-82135131D01*
X104140000Y-81939018D01*
X104257615Y-82135131D01*
X104446586Y-82343519D01*
X104672580Y-82511037D01*
X104926913Y-82631246D01*
X105060961Y-82671904D01*
X105283000Y-82549915D01*
X105283000Y-81407000D01*
X105537000Y-81407000D01*
X105537000Y-82549915D01*
X105759039Y-82671904D01*
X105893087Y-82631246D01*
X106147420Y-82511037D01*
X106373414Y-82343519D01*
X106562385Y-82135131D01*
X106680000Y-81939018D01*
X106797615Y-82135131D01*
X106986586Y-82343519D01*
X107212580Y-82511037D01*
X107466913Y-82631246D01*
X107600961Y-82671904D01*
X107823000Y-82549915D01*
X107823000Y-81407000D01*
X108077000Y-81407000D01*
X108077000Y-82549915D01*
X108299039Y-82671904D01*
X108433087Y-82631246D01*
X108687420Y-82511037D01*
X108913414Y-82343519D01*
X109102385Y-82135131D01*
X109247070Y-81893881D01*
X109341909Y-81629040D01*
X109220624Y-81407000D01*
X108077000Y-81407000D01*
X107823000Y-81407000D01*
X105537000Y-81407000D01*
X105283000Y-81407000D01*
X102997000Y-81407000D01*
X102743000Y-81407000D01*
X100457000Y-81407000D01*
X100203000Y-81407000D01*
X97917000Y-81407000D01*
X97663000Y-81407000D01*
X96519376Y-81407000D01*
X96398091Y-81629040D01*
X92037843Y-81629040D01*
X92037843Y-80930960D01*
X96398091Y-80930960D01*
X96519376Y-81153000D01*
X97663000Y-81153000D01*
X97663000Y-80010085D01*
X97917000Y-80010085D01*
X97917000Y-81153000D01*
X100203000Y-81153000D01*
X100203000Y-80010085D01*
X100457000Y-80010085D01*
X100457000Y-81153000D01*
X102743000Y-81153000D01*
X102743000Y-80010085D01*
X102997000Y-80010085D01*
X102997000Y-81153000D01*
X105283000Y-81153000D01*
X105283000Y-80010085D01*
X105537000Y-80010085D01*
X105537000Y-81153000D01*
X107823000Y-81153000D01*
X107823000Y-80010085D01*
X108077000Y-80010085D01*
X108077000Y-81153000D01*
X109220624Y-81153000D01*
X109341909Y-80930960D01*
X109247070Y-80666119D01*
X109102385Y-80424869D01*
X108913414Y-80216481D01*
X108687420Y-80048963D01*
X108433087Y-79928754D01*
X108299039Y-79888096D01*
X108077000Y-80010085D01*
X107823000Y-80010085D01*
X107600961Y-79888096D01*
X107466913Y-79928754D01*
X107212580Y-80048963D01*
X106986586Y-80216481D01*
X106797615Y-80424869D01*
X106680000Y-80620982D01*
X106562385Y-80424869D01*
X106373414Y-80216481D01*
X106147420Y-80048963D01*
X105893087Y-79928754D01*
X105759039Y-79888096D01*
X105537000Y-80010085D01*
X105283000Y-80010085D01*
X105060961Y-79888096D01*
X104926913Y-79928754D01*
X104672580Y-80048963D01*
X104446586Y-80216481D01*
X104257615Y-80424869D01*
X104140000Y-80620982D01*
X104022385Y-80424869D01*
X103833414Y-80216481D01*
X103607420Y-80048963D01*
X103353087Y-79928754D01*
X103219039Y-79888096D01*
X102997000Y-80010085D01*
X102743000Y-80010085D01*
X102520961Y-79888096D01*
X102386913Y-79928754D01*
X102132580Y-80048963D01*
X101906586Y-80216481D01*
X101717615Y-80424869D01*
X101600000Y-80620982D01*
X101482385Y-80424869D01*
X101293414Y-80216481D01*
X101067420Y-80048963D01*
X100813087Y-79928754D01*
X100679039Y-79888096D01*
X100457000Y-80010085D01*
X100203000Y-80010085D01*
X99980961Y-79888096D01*
X99846913Y-79928754D01*
X99592580Y-80048963D01*
X99366586Y-80216481D01*
X99177615Y-80424869D01*
X99060000Y-80620982D01*
X98942385Y-80424869D01*
X98753414Y-80216481D01*
X98527420Y-80048963D01*
X98273087Y-79928754D01*
X98139039Y-79888096D01*
X97917000Y-80010085D01*
X97663000Y-80010085D01*
X97440961Y-79888096D01*
X97306913Y-79928754D01*
X97052580Y-80048963D01*
X96826586Y-80216481D01*
X96637615Y-80424869D01*
X96492930Y-80666119D01*
X96398091Y-80930960D01*
X92037843Y-80930960D01*
X92037843Y-80430000D01*
X92030487Y-80355311D01*
X92008701Y-80283492D01*
X91973322Y-80217304D01*
X91925711Y-80159289D01*
X91867696Y-80111678D01*
X91801508Y-80076299D01*
X91729689Y-80054513D01*
X91655000Y-80047157D01*
X89955000Y-80047157D01*
X89880311Y-80054513D01*
X89808492Y-80076299D01*
X89742304Y-80111678D01*
X89684289Y-80159289D01*
X89636678Y-80217304D01*
X89601299Y-80283492D01*
X89579513Y-80355311D01*
X89572157Y-80430000D01*
X89572157Y-80699000D01*
X89045658Y-80699000D01*
X88696017Y-80349360D01*
X88677817Y-80327183D01*
X88589348Y-80254579D01*
X88488415Y-80200629D01*
X88378896Y-80167407D01*
X88293540Y-80159000D01*
X88265000Y-80156189D01*
X88236460Y-80159000D01*
X87483606Y-80159000D01*
X87463547Y-80093122D01*
X87461854Y-80089963D01*
X87463701Y-80086508D01*
X87485487Y-80014689D01*
X87492843Y-79940000D01*
X87492843Y-79321000D01*
X89713233Y-79321000D01*
X89714102Y-79323097D01*
X89848820Y-79524717D01*
X90020283Y-79696180D01*
X90221903Y-79830898D01*
X90445931Y-79923693D01*
X90683757Y-79971000D01*
X90926243Y-79971000D01*
X91164069Y-79923693D01*
X91388097Y-79830898D01*
X91589717Y-79696180D01*
X91761180Y-79524717D01*
X91895898Y-79323097D01*
X91988693Y-79099069D01*
X92036000Y-78861243D01*
X92036000Y-78618757D01*
X91988693Y-78380931D01*
X91895898Y-78156903D01*
X91761180Y-77955283D01*
X91589717Y-77783820D01*
X91388097Y-77649102D01*
X91164069Y-77556307D01*
X90926243Y-77509000D01*
X90683757Y-77509000D01*
X90445931Y-77556307D01*
X90221903Y-77649102D01*
X90020283Y-77783820D01*
X89848820Y-77955283D01*
X89714102Y-78156903D01*
X89713233Y-78159000D01*
X87492843Y-78159000D01*
X87492843Y-77540000D01*
X87485565Y-77465704D01*
X87463854Y-77393862D01*
X87461815Y-77390037D01*
X87463701Y-77386508D01*
X87483573Y-77321000D01*
X88236460Y-77321000D01*
X88265000Y-77323811D01*
X88293540Y-77321000D01*
X88378896Y-77312593D01*
X88488415Y-77279371D01*
X88589348Y-77225421D01*
X88677817Y-77152817D01*
X88696017Y-77130640D01*
X89045658Y-76781000D01*
X89713233Y-76781000D01*
X89714102Y-76783097D01*
X89848820Y-76984717D01*
X90020283Y-77156180D01*
X90221903Y-77290898D01*
X90445931Y-77383693D01*
X90683757Y-77431000D01*
X90926243Y-77431000D01*
X91164069Y-77383693D01*
X91388097Y-77290898D01*
X91589717Y-77156180D01*
X91761180Y-76984717D01*
X91895898Y-76783097D01*
X91988693Y-76559069D01*
X92036000Y-76321243D01*
X92036000Y-76078757D01*
X91988693Y-75840931D01*
X91895898Y-75616903D01*
X91761180Y-75415283D01*
X91589717Y-75243820D01*
X91388097Y-75109102D01*
X91164069Y-75016307D01*
X90926243Y-74969000D01*
X90683757Y-74969000D01*
X90445931Y-75016307D01*
X90221903Y-75109102D01*
X90020283Y-75243820D01*
X89848820Y-75415283D01*
X89714102Y-75616903D01*
X89713233Y-75619000D01*
X88833536Y-75619000D01*
X88804999Y-75616189D01*
X88776462Y-75619000D01*
X88776460Y-75619000D01*
X88691104Y-75627407D01*
X88581585Y-75660629D01*
X88480652Y-75714579D01*
X88392183Y-75787183D01*
X88373987Y-75809355D01*
X88024343Y-76159000D01*
X87483573Y-76159000D01*
X87463701Y-76093492D01*
X87428322Y-76027304D01*
X87380711Y-75969289D01*
X87322696Y-75921678D01*
X87256508Y-75886299D01*
X87184689Y-75864513D01*
X87110000Y-75857157D01*
X85610000Y-75857157D01*
X85535311Y-75864513D01*
X85463492Y-75886299D01*
X85397304Y-75921678D01*
X85339289Y-75969289D01*
X85291678Y-76027304D01*
X85256299Y-76093492D01*
X85234513Y-76165311D01*
X85227157Y-76240000D01*
X84109475Y-76240000D01*
X85431476Y-74918000D01*
X92051025Y-74918000D01*
X94410979Y-77277955D01*
X94446393Y-77321107D01*
X94489545Y-77356521D01*
X94489547Y-77356523D01*
X94522654Y-77383693D01*
X94618610Y-77462442D01*
X94815091Y-77567463D01*
X95028285Y-77632135D01*
X95194442Y-77648500D01*
X95194451Y-77648500D01*
X95249999Y-77653971D01*
X95305547Y-77648500D01*
X114355558Y-77648500D01*
X114521715Y-77632135D01*
X114734909Y-77567463D01*
X114931390Y-77462442D01*
X115103607Y-77321107D01*
X115244942Y-77148890D01*
X115349963Y-76952409D01*
X115414635Y-76739215D01*
X115436472Y-76517500D01*
X115414635Y-76295785D01*
X115349963Y-76082591D01*
X115244942Y-75886110D01*
X115103607Y-75713893D01*
X114931390Y-75572558D01*
X114734909Y-75467537D01*
X114521715Y-75402865D01*
X114355558Y-75386500D01*
X95718476Y-75386500D01*
X93875658Y-73543682D01*
X96609000Y-73543682D01*
X96609000Y-73776318D01*
X96654386Y-74004485D01*
X96743412Y-74219413D01*
X96872658Y-74412843D01*
X97037157Y-74577342D01*
X97230587Y-74706588D01*
X97445515Y-74795614D01*
X97673682Y-74841000D01*
X97906318Y-74841000D01*
X98134485Y-74795614D01*
X98349413Y-74706588D01*
X98542843Y-74577342D01*
X98707342Y-74412843D01*
X98836588Y-74219413D01*
X98925614Y-74004485D01*
X98971000Y-73776318D01*
X98971000Y-73543682D01*
X99149000Y-73543682D01*
X99149000Y-73776318D01*
X99194386Y-74004485D01*
X99283412Y-74219413D01*
X99412658Y-74412843D01*
X99577157Y-74577342D01*
X99770587Y-74706588D01*
X99985515Y-74795614D01*
X100213682Y-74841000D01*
X100446318Y-74841000D01*
X100674485Y-74795614D01*
X100889413Y-74706588D01*
X101082843Y-74577342D01*
X101247342Y-74412843D01*
X101376588Y-74219413D01*
X101465614Y-74004485D01*
X101511000Y-73776318D01*
X101511000Y-73543682D01*
X101689000Y-73543682D01*
X101689000Y-73776318D01*
X101734386Y-74004485D01*
X101823412Y-74219413D01*
X101952658Y-74412843D01*
X102117157Y-74577342D01*
X102310587Y-74706588D01*
X102525515Y-74795614D01*
X102753682Y-74841000D01*
X102986318Y-74841000D01*
X103214485Y-74795614D01*
X103429413Y-74706588D01*
X103622843Y-74577342D01*
X103787342Y-74412843D01*
X103916588Y-74219413D01*
X104005614Y-74004485D01*
X104051000Y-73776318D01*
X104051000Y-73543682D01*
X104229000Y-73543682D01*
X104229000Y-73776318D01*
X104274386Y-74004485D01*
X104363412Y-74219413D01*
X104492658Y-74412843D01*
X104657157Y-74577342D01*
X104850587Y-74706588D01*
X105065515Y-74795614D01*
X105293682Y-74841000D01*
X105526318Y-74841000D01*
X105754485Y-74795614D01*
X105969413Y-74706588D01*
X106162843Y-74577342D01*
X106327342Y-74412843D01*
X106456588Y-74219413D01*
X106545614Y-74004485D01*
X106591000Y-73776318D01*
X106591000Y-73543682D01*
X106545614Y-73315515D01*
X106456588Y-73100587D01*
X106327342Y-72907157D01*
X106280185Y-72860000D01*
X106767157Y-72860000D01*
X106767157Y-74460000D01*
X106774513Y-74534689D01*
X106796299Y-74606508D01*
X106831678Y-74672696D01*
X106879289Y-74730711D01*
X106937304Y-74778322D01*
X107003492Y-74813701D01*
X107075311Y-74835487D01*
X107150000Y-74842843D01*
X108750000Y-74842843D01*
X108824689Y-74835487D01*
X108896508Y-74813701D01*
X108962696Y-74778322D01*
X109020711Y-74730711D01*
X109068322Y-74672696D01*
X109103701Y-74606508D01*
X109125487Y-74534689D01*
X109132843Y-74460000D01*
X109132843Y-72860000D01*
X109125487Y-72785311D01*
X109103701Y-72713492D01*
X109068322Y-72647304D01*
X109020711Y-72589289D01*
X108962696Y-72541678D01*
X108896508Y-72506299D01*
X108824689Y-72484513D01*
X108750000Y-72477157D01*
X107150000Y-72477157D01*
X107075311Y-72484513D01*
X107003492Y-72506299D01*
X106937304Y-72541678D01*
X106879289Y-72589289D01*
X106831678Y-72647304D01*
X106796299Y-72713492D01*
X106774513Y-72785311D01*
X106767157Y-72860000D01*
X106280185Y-72860000D01*
X106162843Y-72742658D01*
X105969413Y-72613412D01*
X105754485Y-72524386D01*
X105526318Y-72479000D01*
X105293682Y-72479000D01*
X105065515Y-72524386D01*
X104850587Y-72613412D01*
X104657157Y-72742658D01*
X104492658Y-72907157D01*
X104363412Y-73100587D01*
X104274386Y-73315515D01*
X104229000Y-73543682D01*
X104051000Y-73543682D01*
X104005614Y-73315515D01*
X103916588Y-73100587D01*
X103787342Y-72907157D01*
X103622843Y-72742658D01*
X103429413Y-72613412D01*
X103214485Y-72524386D01*
X102986318Y-72479000D01*
X102753682Y-72479000D01*
X102525515Y-72524386D01*
X102310587Y-72613412D01*
X102117157Y-72742658D01*
X101952658Y-72907157D01*
X101823412Y-73100587D01*
X101734386Y-73315515D01*
X101689000Y-73543682D01*
X101511000Y-73543682D01*
X101465614Y-73315515D01*
X101376588Y-73100587D01*
X101247342Y-72907157D01*
X101082843Y-72742658D01*
X100889413Y-72613412D01*
X100674485Y-72524386D01*
X100446318Y-72479000D01*
X100213682Y-72479000D01*
X99985515Y-72524386D01*
X99770587Y-72613412D01*
X99577157Y-72742658D01*
X99412658Y-72907157D01*
X99283412Y-73100587D01*
X99194386Y-73315515D01*
X99149000Y-73543682D01*
X98971000Y-73543682D01*
X98925614Y-73315515D01*
X98836588Y-73100587D01*
X98707342Y-72907157D01*
X98542843Y-72742658D01*
X98349413Y-72613412D01*
X98134485Y-72524386D01*
X97906318Y-72479000D01*
X97673682Y-72479000D01*
X97445515Y-72524386D01*
X97230587Y-72613412D01*
X97037157Y-72742658D01*
X96872658Y-72907157D01*
X96743412Y-73100587D01*
X96654386Y-73315515D01*
X96609000Y-73543682D01*
X93875658Y-73543682D01*
X93358525Y-73026550D01*
X93323107Y-72983393D01*
X93150890Y-72842058D01*
X92954409Y-72737037D01*
X92741215Y-72672365D01*
X92575058Y-72656000D01*
X92575050Y-72656000D01*
X92519500Y-72650529D01*
X92463950Y-72656000D01*
X85018550Y-72656000D01*
X84963000Y-72650529D01*
X84907449Y-72656000D01*
X84907442Y-72656000D01*
X84741285Y-72672365D01*
X84528091Y-72737037D01*
X84331610Y-72842058D01*
X84252287Y-72907157D01*
X84159393Y-72983393D01*
X84123979Y-73026545D01*
X81726050Y-75424475D01*
X81682893Y-75459893D01*
X81541558Y-75632110D01*
X81436537Y-75828592D01*
X81371865Y-76041786D01*
X81355500Y-76207943D01*
X81355500Y-76207950D01*
X81350029Y-76263500D01*
X79146401Y-76263500D01*
X79146401Y-71526401D01*
X118999001Y-71526401D01*
X118999002Y-110541501D01*
G37*
%TD.AperFunction*%
D24*
X113326293Y-141611875D02*
X113352789Y-141622850D01*
X113378085Y-141636371D01*
X113405534Y-141644698D01*
X113432029Y-141655672D01*
X113460157Y-141661267D01*
X113487604Y-141669593D01*
X113516145Y-141672404D01*
X113544277Y-141678000D01*
X113572960Y-141678000D01*
X113601500Y-141680811D01*
X113630040Y-141678000D01*
X113655500Y-141678000D01*
X113655500Y-141745342D01*
X111382057Y-144018786D01*
X111359885Y-144036982D01*
X111328155Y-144075646D01*
X111287280Y-144125452D01*
X111233330Y-144226385D01*
X111200108Y-144335904D01*
X111188890Y-144449799D01*
X111191702Y-144478349D01*
X111191702Y-146113500D01*
X109813701Y-146113500D01*
X109813701Y-145094498D01*
X113308328Y-141599872D01*
X113326293Y-141611875D01*
%TA.AperFunction,Conductor*%
D25*
G36*
X113326293Y-141611875D02*
G01*
X113352789Y-141622850D01*
X113378085Y-141636371D01*
X113405534Y-141644698D01*
X113432029Y-141655672D01*
X113460157Y-141661267D01*
X113487604Y-141669593D01*
X113516145Y-141672404D01*
X113544277Y-141678000D01*
X113572960Y-141678000D01*
X113601500Y-141680811D01*
X113630040Y-141678000D01*
X113655500Y-141678000D01*
X113655500Y-141745342D01*
X111382057Y-144018786D01*
X111359885Y-144036982D01*
X111328155Y-144075646D01*
X111287280Y-144125452D01*
X111233330Y-144226385D01*
X111200108Y-144335904D01*
X111188890Y-144449799D01*
X111191702Y-144478349D01*
X111191702Y-146113500D01*
X109813701Y-146113500D01*
X109813701Y-145094498D01*
X113308328Y-141599872D01*
X113326293Y-141611875D01*
G37*
%TD.AperFunction*%
D24*
X97844001Y-141703282D02*
X97844000Y-141703287D01*
X97844000Y-141817733D01*
X97849598Y-141845875D01*
X97852408Y-141874406D01*
X97860731Y-141901843D01*
X97866328Y-141929981D01*
X97877306Y-141956485D01*
X97885630Y-141983925D01*
X97899147Y-142009213D01*
X97910125Y-142035717D01*
X97926064Y-142059572D01*
X97939580Y-142084858D01*
X97957769Y-142107022D01*
X97973708Y-142130876D01*
X97993993Y-142151161D01*
X98012184Y-142173327D01*
X98034350Y-142191518D01*
X98054634Y-142211802D01*
X98078487Y-142227740D01*
X98100653Y-142245931D01*
X98125942Y-142259448D01*
X98149793Y-142275385D01*
X98176293Y-142286362D01*
X98201586Y-142299881D01*
X98229031Y-142308206D01*
X98255529Y-142319182D01*
X98283660Y-142324778D01*
X98311105Y-142333103D01*
X98339644Y-142335914D01*
X98367777Y-142341510D01*
X98396460Y-142341510D01*
X98425000Y-142344321D01*
X98453540Y-142341510D01*
X98482223Y-142341510D01*
X98491701Y-142339625D01*
X98491701Y-146113500D01*
X94573701Y-146113500D01*
X94573701Y-143293456D01*
X97844001Y-140023158D01*
X97844001Y-141703282D01*
%TA.AperFunction,Conductor*%
D25*
G36*
X97844001Y-141703282D02*
G01*
X97844000Y-141703287D01*
X97844000Y-141817733D01*
X97849598Y-141845875D01*
X97852408Y-141874406D01*
X97860731Y-141901843D01*
X97866328Y-141929981D01*
X97877306Y-141956485D01*
X97885630Y-141983925D01*
X97899147Y-142009213D01*
X97910125Y-142035717D01*
X97926064Y-142059572D01*
X97939580Y-142084858D01*
X97957769Y-142107022D01*
X97973708Y-142130876D01*
X97993993Y-142151161D01*
X98012184Y-142173327D01*
X98034350Y-142191518D01*
X98054634Y-142211802D01*
X98078487Y-142227740D01*
X98100653Y-142245931D01*
X98125942Y-142259448D01*
X98149793Y-142275385D01*
X98176293Y-142286362D01*
X98201586Y-142299881D01*
X98229031Y-142308206D01*
X98255529Y-142319182D01*
X98283660Y-142324778D01*
X98311105Y-142333103D01*
X98339644Y-142335914D01*
X98367777Y-142341510D01*
X98396460Y-142341510D01*
X98425000Y-142344321D01*
X98453540Y-142341510D01*
X98482223Y-142341510D01*
X98491701Y-142339625D01*
X98491701Y-146113500D01*
X94573701Y-146113500D01*
X94573701Y-143293456D01*
X97844001Y-140023158D01*
X97844001Y-141703282D01*
G37*
%TD.AperFunction*%
D24*
X109909000Y-87937168D02*
X109887129Y-87978086D01*
X109853907Y-88087605D01*
X109842689Y-88201500D01*
X109845501Y-88230050D01*
X109845500Y-108067500D01*
X109820040Y-108067500D01*
X109791500Y-108064689D01*
X109762960Y-108067500D01*
X109737500Y-108067500D01*
X109737500Y-89608833D01*
X109759371Y-89567915D01*
X109792593Y-89458396D01*
X109801000Y-89373040D01*
X109801000Y-89373039D01*
X109803811Y-89344500D01*
X109801000Y-89315960D01*
X109801000Y-87392164D01*
X109909000Y-87320000D01*
X109909000Y-87937168D01*
%TA.AperFunction,Conductor*%
D25*
G36*
X109909000Y-87937168D02*
G01*
X109887129Y-87978086D01*
X109853907Y-88087605D01*
X109842689Y-88201500D01*
X109845501Y-88230050D01*
X109845500Y-108067500D01*
X109820040Y-108067500D01*
X109791500Y-108064689D01*
X109762960Y-108067500D01*
X109737500Y-108067500D01*
X109737500Y-89608833D01*
X109759371Y-89567915D01*
X109792593Y-89458396D01*
X109801000Y-89373040D01*
X109801000Y-89373039D01*
X109803811Y-89344500D01*
X109801000Y-89315960D01*
X109801000Y-87392164D01*
X109909000Y-87320000D01*
X109909000Y-87937168D01*
G37*
%TD.AperFunction*%
D24*
X89622176Y-101238833D02*
X89621307Y-101240931D01*
X89574000Y-101478757D01*
X89574000Y-101721243D01*
X89621307Y-101959069D01*
X89714102Y-102183097D01*
X89803403Y-102316745D01*
X88465000Y-100978343D01*
X88465000Y-100081657D01*
X89622176Y-101238833D01*
%TA.AperFunction,Conductor*%
D25*
G36*
X89622176Y-101238833D02*
G01*
X89621307Y-101240931D01*
X89574000Y-101478757D01*
X89574000Y-101721243D01*
X89621307Y-101959069D01*
X89714102Y-102183097D01*
X89803403Y-102316745D01*
X88465000Y-100978343D01*
X88465000Y-100081657D01*
X89622176Y-101238833D01*
G37*
%TD.AperFunction*%
D24*
X91494000Y-95009342D02*
X91166167Y-95337176D01*
X91164069Y-95336307D01*
X90926243Y-95289000D01*
X90683757Y-95289000D01*
X90445931Y-95336307D01*
X90221903Y-95429102D01*
X90020283Y-95563820D01*
X89848820Y-95735283D01*
X89798500Y-95810592D01*
X89798500Y-93268157D01*
X90393814Y-92672843D01*
X91494001Y-92672843D01*
X91494000Y-95009342D01*
%TA.AperFunction,Conductor*%
D25*
G36*
X91494000Y-95009342D02*
G01*
X91166167Y-95337176D01*
X91164069Y-95336307D01*
X90926243Y-95289000D01*
X90683757Y-95289000D01*
X90445931Y-95336307D01*
X90221903Y-95429102D01*
X90020283Y-95563820D01*
X89848820Y-95735283D01*
X89798500Y-95810592D01*
X89798500Y-93268157D01*
X90393814Y-92672843D01*
X91494001Y-92672843D01*
X91494000Y-95009342D01*
G37*
%TD.AperFunction*%
D24*
X89574000Y-88778757D02*
X89574000Y-89021243D01*
X89621307Y-89259069D01*
X89714102Y-89483097D01*
X89771501Y-89569001D01*
X89703537Y-89569001D01*
X89674997Y-89566190D01*
X89646457Y-89569001D01*
X89561101Y-89577408D01*
X89451582Y-89610630D01*
X89350649Y-89664580D01*
X89262180Y-89737184D01*
X89243987Y-89759353D01*
X88465000Y-90538341D01*
X88465000Y-89712157D01*
X89617602Y-88559555D01*
X89574000Y-88778757D01*
%TA.AperFunction,Conductor*%
D25*
G36*
X89574000Y-88778757D02*
G01*
X89574000Y-89021243D01*
X89621307Y-89259069D01*
X89714102Y-89483097D01*
X89771501Y-89569001D01*
X89703537Y-89569001D01*
X89674997Y-89566190D01*
X89646457Y-89569001D01*
X89561101Y-89577408D01*
X89451582Y-89610630D01*
X89350649Y-89664580D01*
X89262180Y-89737184D01*
X89243987Y-89759353D01*
X88465000Y-90538341D01*
X88465000Y-89712157D01*
X89617602Y-88559555D01*
X89574000Y-88778757D01*
G37*
%TD.AperFunction*%
D24*
X92044842Y-89569001D02*
X91838499Y-89569001D01*
X91895898Y-89483097D01*
X91988693Y-89259069D01*
X92036000Y-89021243D01*
X92036000Y-88778757D01*
X91988693Y-88540931D01*
X91895898Y-88316903D01*
X91825136Y-88211000D01*
X93402843Y-88211000D01*
X92044842Y-89569001D01*
%TA.AperFunction,Conductor*%
D25*
G36*
X92044842Y-89569001D02*
G01*
X91838499Y-89569001D01*
X91895898Y-89483097D01*
X91988693Y-89259069D01*
X92036000Y-89021243D01*
X92036000Y-88778757D01*
X91988693Y-88540931D01*
X91895898Y-88316903D01*
X91825136Y-88211000D01*
X93402843Y-88211000D01*
X92044842Y-89569001D01*
G37*
%TD.AperFunction*%
D24*
X109011651Y-85197306D02*
X108875515Y-85224386D01*
X108660587Y-85313412D01*
X108467157Y-85442658D01*
X108302658Y-85607157D01*
X108173412Y-85800587D01*
X108084386Y-86015515D01*
X108039000Y-86243682D01*
X108039000Y-86476318D01*
X108084386Y-86704485D01*
X108173412Y-86919413D01*
X108302658Y-87112843D01*
X108467157Y-87277342D01*
X108639001Y-87392164D01*
X108639001Y-87497343D01*
X107820679Y-86679022D01*
X107861000Y-86476318D01*
X107861000Y-86243682D01*
X107815614Y-86015515D01*
X107726588Y-85800587D01*
X107597342Y-85607157D01*
X107432843Y-85442658D01*
X107239413Y-85313412D01*
X107024485Y-85224386D01*
X106796318Y-85179000D01*
X106563682Y-85179000D01*
X106335515Y-85224386D01*
X106120587Y-85313412D01*
X105927157Y-85442658D01*
X105762658Y-85607157D01*
X105633412Y-85800587D01*
X105544386Y-86015515D01*
X105499000Y-86243682D01*
X105499000Y-86476318D01*
X105544386Y-86704485D01*
X105633412Y-86919413D01*
X105762658Y-87112843D01*
X105927157Y-87277342D01*
X106120587Y-87406588D01*
X106335515Y-87495614D01*
X106563682Y-87541000D01*
X106796318Y-87541000D01*
X106999022Y-87500679D01*
X107940501Y-88442159D01*
X107940501Y-89338843D01*
X106412517Y-87810860D01*
X106394317Y-87788683D01*
X106305848Y-87716079D01*
X106204915Y-87662129D01*
X106095396Y-87628907D01*
X106010040Y-87620500D01*
X105981500Y-87617689D01*
X105952960Y-87620500D01*
X103682158Y-87620500D01*
X102740679Y-86679022D01*
X102781000Y-86476318D01*
X102781000Y-86243682D01*
X102735614Y-86015515D01*
X102646588Y-85800587D01*
X102517342Y-85607157D01*
X102352843Y-85442658D01*
X102159413Y-85313412D01*
X101944485Y-85224386D01*
X101716318Y-85179000D01*
X101483682Y-85179000D01*
X101280978Y-85219321D01*
X101161157Y-85099500D01*
X102057843Y-85099500D01*
X102999321Y-86040979D01*
X102959000Y-86243682D01*
X102959000Y-86476318D01*
X103004386Y-86704485D01*
X103093412Y-86919413D01*
X103222658Y-87112843D01*
X103387157Y-87277342D01*
X103580587Y-87406588D01*
X103795515Y-87495614D01*
X104023682Y-87541000D01*
X104256318Y-87541000D01*
X104484485Y-87495614D01*
X104699413Y-87406588D01*
X104892843Y-87277342D01*
X105057342Y-87112843D01*
X105186588Y-86919413D01*
X105275614Y-86704485D01*
X105321000Y-86476318D01*
X105321000Y-86243682D01*
X105275614Y-86015515D01*
X105186588Y-85800587D01*
X105057342Y-85607157D01*
X104892843Y-85442658D01*
X104699413Y-85313412D01*
X104484485Y-85224386D01*
X104256318Y-85179000D01*
X104023682Y-85179000D01*
X103820979Y-85219321D01*
X103066157Y-84464500D01*
X108278845Y-84464500D01*
X109011651Y-85197306D01*
%TA.AperFunction,Conductor*%
D25*
G36*
X109011651Y-85197306D02*
G01*
X108875515Y-85224386D01*
X108660587Y-85313412D01*
X108467157Y-85442658D01*
X108302658Y-85607157D01*
X108173412Y-85800587D01*
X108084386Y-86015515D01*
X108039000Y-86243682D01*
X108039000Y-86476318D01*
X108084386Y-86704485D01*
X108173412Y-86919413D01*
X108302658Y-87112843D01*
X108467157Y-87277342D01*
X108639001Y-87392164D01*
X108639001Y-87497343D01*
X107820679Y-86679022D01*
X107861000Y-86476318D01*
X107861000Y-86243682D01*
X107815614Y-86015515D01*
X107726588Y-85800587D01*
X107597342Y-85607157D01*
X107432843Y-85442658D01*
X107239413Y-85313412D01*
X107024485Y-85224386D01*
X106796318Y-85179000D01*
X106563682Y-85179000D01*
X106335515Y-85224386D01*
X106120587Y-85313412D01*
X105927157Y-85442658D01*
X105762658Y-85607157D01*
X105633412Y-85800587D01*
X105544386Y-86015515D01*
X105499000Y-86243682D01*
X105499000Y-86476318D01*
X105544386Y-86704485D01*
X105633412Y-86919413D01*
X105762658Y-87112843D01*
X105927157Y-87277342D01*
X106120587Y-87406588D01*
X106335515Y-87495614D01*
X106563682Y-87541000D01*
X106796318Y-87541000D01*
X106999022Y-87500679D01*
X107940501Y-88442159D01*
X107940501Y-89338843D01*
X106412517Y-87810860D01*
X106394317Y-87788683D01*
X106305848Y-87716079D01*
X106204915Y-87662129D01*
X106095396Y-87628907D01*
X106010040Y-87620500D01*
X105981500Y-87617689D01*
X105952960Y-87620500D01*
X103682158Y-87620500D01*
X102740679Y-86679022D01*
X102781000Y-86476318D01*
X102781000Y-86243682D01*
X102735614Y-86015515D01*
X102646588Y-85800587D01*
X102517342Y-85607157D01*
X102352843Y-85442658D01*
X102159413Y-85313412D01*
X101944485Y-85224386D01*
X101716318Y-85179000D01*
X101483682Y-85179000D01*
X101280978Y-85219321D01*
X101161157Y-85099500D01*
X102057843Y-85099500D01*
X102999321Y-86040979D01*
X102959000Y-86243682D01*
X102959000Y-86476318D01*
X103004386Y-86704485D01*
X103093412Y-86919413D01*
X103222658Y-87112843D01*
X103387157Y-87277342D01*
X103580587Y-87406588D01*
X103795515Y-87495614D01*
X104023682Y-87541000D01*
X104256318Y-87541000D01*
X104484485Y-87495614D01*
X104699413Y-87406588D01*
X104892843Y-87277342D01*
X105057342Y-87112843D01*
X105186588Y-86919413D01*
X105275614Y-86704485D01*
X105321000Y-86476318D01*
X105321000Y-86243682D01*
X105275614Y-86015515D01*
X105186588Y-85800587D01*
X105057342Y-85607157D01*
X104892843Y-85442658D01*
X104699413Y-85313412D01*
X104484485Y-85224386D01*
X104256318Y-85179000D01*
X104023682Y-85179000D01*
X103820979Y-85219321D01*
X103066157Y-84464500D01*
X108278845Y-84464500D01*
X109011651Y-85197306D01*
G37*
%TD.AperFunction*%
%TD*%
M02*
