%TF.GenerationSoftware,KiCad,Pcbnew,(5.1.10)-1*%
%TF.CreationDate,2022-11-16T00:45:25-05:00*%
%TF.ProjectId,Coleco-Card3,436f6c65-636f-42d4-9361-7264332e6b69,1*%
%TF.SameCoordinates,Original*%
%TF.FileFunction,Soldermask,Bot*%
%TF.FilePolarity,Negative*%
%FSLAX46Y46*%
G04 Gerber Fmt 4.6, Leading zero omitted, Abs format (unit mm)*
G04 Created by KiCad (PCBNEW (5.1.10)-1) date 2022-11-16 00:45:25*
%MOMM*%
%LPD*%
G01*
G04 APERTURE LIST*
%ADD10C,0.100000*%
%ADD11R,1.750000X7.000000*%
%ADD12R,1.700000X1.700000*%
%ADD13O,1.700000X1.700000*%
%ADD14R,1.000000X1.500000*%
%ADD15R,1.600000X1.600000*%
%ADD16O,1.600000X1.600000*%
%ADD17R,1.500000X1.500000*%
G04 APERTURE END LIST*
D10*
%TO.C,X1*%
G36*
X78943201Y-146547701D02*
G01*
X78943201Y-153469201D01*
X119138701Y-153532701D01*
X119138701Y-146547701D01*
X78943201Y-146547701D01*
G37*
X78943201Y-146547701D02*
X78943201Y-153469201D01*
X119138701Y-153532701D01*
X119138701Y-146547701D01*
X78943201Y-146547701D01*
%TD*%
D11*
%TO.C,X1*%
X99072701Y-150040201D03*
X104152701Y-150040201D03*
X96532701Y-150040201D03*
X101612701Y-150040201D03*
X93992701Y-150040201D03*
X81292701Y-150040201D03*
X116852701Y-150040201D03*
X111772701Y-150040201D03*
X114312701Y-150040201D03*
X109232701Y-150040201D03*
X106692701Y-150040201D03*
X86372701Y-150040201D03*
X83832701Y-150040201D03*
X88912701Y-150040201D03*
X91452701Y-150040201D03*
%TD*%
D12*
%TO.C,J1*%
X90805000Y-81280000D03*
D13*
X90805000Y-78740000D03*
X90805000Y-76200000D03*
%TD*%
D12*
%TO.C,J2*%
X90805000Y-91440000D03*
D13*
X90805000Y-88900000D03*
X90805000Y-86360000D03*
%TD*%
D14*
%TO.C,JP6*%
X103505000Y-132080000D03*
X102205000Y-132080000D03*
%TD*%
%TO.C,JP7*%
X103505000Y-134620000D03*
X102205000Y-134620000D03*
%TD*%
%TO.C,JP8*%
X102205000Y-129540000D03*
X103505000Y-129540000D03*
%TD*%
%TO.C,JP14*%
X103505000Y-111125000D03*
X102205000Y-111125000D03*
%TD*%
%TO.C,JP15*%
X102205000Y-113665000D03*
X103505000Y-113665000D03*
%TD*%
%TO.C,JP16*%
X103505000Y-108585000D03*
X102205000Y-108585000D03*
%TD*%
D15*
%TO.C,RN1*%
X114300000Y-86360000D03*
D16*
X111760000Y-86360000D03*
X109220000Y-86360000D03*
X106680000Y-86360000D03*
X104140000Y-86360000D03*
X101600000Y-86360000D03*
X99060000Y-86360000D03*
%TD*%
D15*
%TO.C,SW2*%
X107950000Y-73660000D03*
D16*
X97790000Y-81280000D03*
X105410000Y-73660000D03*
X100330000Y-81280000D03*
X102870000Y-73660000D03*
X102870000Y-81280000D03*
X100330000Y-73660000D03*
X105410000Y-81280000D03*
X97790000Y-73660000D03*
X107950000Y-81280000D03*
%TD*%
D12*
%TO.C,J5*%
X90805000Y-109220000D03*
D13*
X90805000Y-106680000D03*
X90805000Y-104140000D03*
X90805000Y-101600000D03*
X90805000Y-99060000D03*
X90805000Y-96520000D03*
%TD*%
D10*
%TO.C,JP1*%
G36*
X86360000Y-77740000D02*
G01*
X85610000Y-77240000D01*
X85610000Y-76240000D01*
X87110000Y-76240000D01*
X87110000Y-77240000D01*
X86360000Y-77740000D01*
G37*
G36*
X86360000Y-79740000D02*
G01*
X87110000Y-80240000D01*
X87110000Y-81240000D01*
X85610000Y-81240000D01*
X85610000Y-80240000D01*
X86360000Y-79740000D01*
G37*
D17*
X86360000Y-79940000D03*
X86360000Y-77540000D03*
%TD*%
%TO.C,JP2*%
X86360000Y-87700000D03*
X86360000Y-90100000D03*
D10*
G36*
X86360000Y-89900000D02*
G01*
X87110000Y-90400000D01*
X87110000Y-91400000D01*
X85610000Y-91400000D01*
X85610000Y-90400000D01*
X86360000Y-89900000D01*
G37*
G36*
X86360000Y-87900000D02*
G01*
X85610000Y-87400000D01*
X85610000Y-86400000D01*
X87110000Y-86400000D01*
X87110000Y-87400000D01*
X86360000Y-87900000D01*
G37*
%TD*%
M02*
