%FSLAX45Y45*%
G04 Gerber Fmt 4.5, Leading zero omitted, Abs format (unit mm)*
G04 Created by KiCad (PCBNEW (5.1.10)-1) date 2022-11-16 00:45:28*
%MOMM*%
%LPD*%
G01*
G04 APERTURE LIST*
%ADD10C,0.200000*%
%ADD11C,0.300000*%
G04 APERTURE END LIST*
D10*
X8161300Y-13793750D02*
X8196300Y-13828750D01*
X8196300Y-13793750D02*
X8161300Y-13828750D01*
X8186700Y-13628650D02*
X8221700Y-13663650D01*
X8221700Y-13628650D02*
X8186700Y-13663650D01*
X8243850Y-14377950D02*
X8278850Y-14412950D01*
X8278850Y-14377950D02*
X8243850Y-14412950D01*
X8466100Y-13628650D02*
X8501100Y-13663650D01*
X8501100Y-13628650D02*
X8466100Y-13663650D01*
X8548650Y-13342900D02*
X8583650Y-13377900D01*
X8583650Y-13342900D02*
X8548650Y-13377900D01*
X8555000Y-14460500D02*
X8590000Y-14495500D01*
X8590000Y-14460500D02*
X8555000Y-14495500D01*
X8586750Y-14079500D02*
X8621750Y-14114500D01*
X8621750Y-14079500D02*
X8586750Y-14114500D01*
X8618500Y-8872500D02*
X8653500Y-8907500D01*
X8653500Y-8872500D02*
X8618500Y-8907500D01*
X8618500Y-9069350D02*
X8653500Y-9104350D01*
X8653500Y-9069350D02*
X8618500Y-9104350D01*
X8726450Y-14479550D02*
X8761450Y-14514550D01*
X8761450Y-14479550D02*
X8726450Y-14514550D01*
X8840750Y-9005850D02*
X8875750Y-9040850D01*
X8875750Y-9005850D02*
X8840750Y-9040850D01*
X8872500Y-10079000D02*
X8907500Y-10114000D01*
X8907500Y-10079000D02*
X8872500Y-10114000D01*
X8974100Y-14524000D02*
X9009100Y-14559000D01*
X9009100Y-14524000D02*
X8974100Y-14559000D01*
X9056650Y-9386850D02*
X9091650Y-9421850D01*
X9091650Y-9386850D02*
X9056650Y-9421850D01*
X9190000Y-12860300D02*
X9225000Y-12895300D01*
X9225000Y-12860300D02*
X9190000Y-12895300D01*
X9221750Y-14524000D02*
X9256750Y-14559000D01*
X9256750Y-14524000D02*
X9221750Y-14559000D01*
X9234450Y-8497850D02*
X9269450Y-8532850D01*
X9269450Y-8497850D02*
X9234450Y-8532850D01*
X9253500Y-12790450D02*
X9288500Y-12825450D01*
X9288500Y-12790450D02*
X9253500Y-12825450D01*
X9278900Y-8821700D02*
X9313900Y-8856700D01*
X9313900Y-8821700D02*
X9278900Y-8856700D01*
X9304300Y-9113800D02*
X9339300Y-9148800D01*
X9339300Y-9113800D02*
X9304300Y-9148800D01*
X9317000Y-11539500D02*
X9352000Y-11574500D01*
X9352000Y-11539500D02*
X9317000Y-11574500D01*
X9317000Y-13311150D02*
X9352000Y-13346150D01*
X9352000Y-13311150D02*
X9317000Y-13346150D01*
X9380500Y-12707900D02*
X9415500Y-12742900D01*
X9415500Y-12707900D02*
X9380500Y-12742900D01*
X9444000Y-11044200D02*
X9479000Y-11079200D01*
X9479000Y-11044200D02*
X9444000Y-11079200D01*
X9444000Y-11495050D02*
X9479000Y-11530050D01*
X9479000Y-11495050D02*
X9444000Y-11530050D01*
X9444000Y-13298450D02*
X9479000Y-13333450D01*
X9479000Y-13298450D02*
X9444000Y-13333450D01*
X9494800Y-14377950D02*
X9529800Y-14412950D01*
X9529800Y-14377950D02*
X9494800Y-14412950D01*
X9507500Y-10955300D02*
X9542500Y-10990300D01*
X9542500Y-10955300D02*
X9507500Y-10990300D01*
X9507500Y-12707900D02*
X9542500Y-12742900D01*
X9542500Y-12707900D02*
X9507500Y-12742900D01*
X9571000Y-10891800D02*
X9606000Y-10926800D01*
X9606000Y-10891800D02*
X9571000Y-10926800D01*
X9571000Y-11450600D02*
X9606000Y-11485600D01*
X9606000Y-11450600D02*
X9571000Y-11485600D01*
X9571000Y-13355600D02*
X9606000Y-13390600D01*
X9606000Y-13355600D02*
X9571000Y-13390600D01*
X9596400Y-7500900D02*
X9631400Y-7535900D01*
X9631400Y-7500900D02*
X9596400Y-7535900D01*
X9602750Y-10587000D02*
X9637750Y-10622000D01*
X9637750Y-10587000D02*
X9602750Y-10622000D01*
X9634500Y-10834650D02*
X9669500Y-10869650D01*
X9669500Y-10834650D02*
X9634500Y-10869650D01*
X9634500Y-12714250D02*
X9669500Y-12749250D01*
X9669500Y-12714250D02*
X9634500Y-12749250D01*
X9685300Y-8764550D02*
X9720300Y-8799550D01*
X9720300Y-8764550D02*
X9685300Y-8799550D01*
X9698000Y-10758450D02*
X9733000Y-10793450D01*
X9733000Y-10758450D02*
X9698000Y-10793450D01*
X9698000Y-11406150D02*
X9733000Y-11441150D01*
X9733000Y-11406150D02*
X9698000Y-11441150D01*
X9698000Y-13412750D02*
X9733000Y-13447750D01*
X9733000Y-13412750D02*
X9698000Y-13447750D01*
X9704350Y-14111250D02*
X9739350Y-14146250D01*
X9739350Y-14111250D02*
X9704350Y-14146250D01*
X9761500Y-7500900D02*
X9796500Y-7535900D01*
X9796500Y-7500900D02*
X9761500Y-7535900D01*
X9761500Y-10714000D02*
X9796500Y-10749000D01*
X9796500Y-10714000D02*
X9761500Y-10749000D01*
X9761500Y-12758700D02*
X9796500Y-12793700D01*
X9796500Y-12758700D02*
X9761500Y-12793700D01*
X9825000Y-11361700D02*
X9860000Y-11396700D01*
X9860000Y-11361700D02*
X9825000Y-11396700D01*
X9825000Y-13457200D02*
X9860000Y-13492200D01*
X9860000Y-13457200D02*
X9825000Y-13492200D01*
X9825000Y-14158551D02*
X9860000Y-14193551D01*
X9860000Y-14158551D02*
X9825000Y-14193551D01*
X9888500Y-10714000D02*
X9923500Y-10749000D01*
X9923500Y-10714000D02*
X9888500Y-10749000D01*
X9888500Y-12714250D02*
X9923500Y-12749250D01*
X9923500Y-12714250D02*
X9888500Y-12749250D01*
X9952000Y-11552200D02*
X9987000Y-11587200D01*
X9987000Y-11552200D02*
X9952000Y-11587200D01*
X9952000Y-13635000D02*
X9987000Y-13670000D01*
X9987000Y-13635000D02*
X9952000Y-13670000D01*
X9983750Y-14441450D02*
X10018750Y-14476450D01*
X10018750Y-14441450D02*
X9983750Y-14476450D01*
X9990100Y-14549400D02*
X10025100Y-14584400D01*
X10025100Y-14549400D02*
X9990100Y-14584400D01*
X10015500Y-7500900D02*
X10050500Y-7535900D01*
X10050500Y-7500900D02*
X10015500Y-7535900D01*
X10040900Y-14104900D02*
X10075900Y-14139900D01*
X10075900Y-14104900D02*
X10040900Y-14139900D01*
X10077050Y-11370000D02*
X10112050Y-11405000D01*
X10112050Y-11370000D02*
X10077050Y-11405000D01*
X10079000Y-11526800D02*
X10114000Y-11561800D01*
X10114000Y-11526800D02*
X10079000Y-11561800D01*
X10079000Y-14181100D02*
X10114000Y-14216100D01*
X10114000Y-14181100D02*
X10079000Y-14216100D01*
X10091700Y-13476250D02*
X10126700Y-13511250D01*
X10126700Y-13476250D02*
X10091700Y-13511250D01*
X10098050Y-11272800D02*
X10133050Y-11307800D01*
X10133050Y-11272800D02*
X10098050Y-11307800D01*
X10104400Y-10720350D02*
X10139400Y-10755350D01*
X10139400Y-10720350D02*
X10104400Y-10755350D01*
X10129800Y-13647700D02*
X10164800Y-13682700D01*
X10164800Y-13647700D02*
X10129800Y-13682700D01*
X10142500Y-11742700D02*
X10177500Y-11777700D01*
X10177500Y-11742700D02*
X10142500Y-11777700D01*
X10269500Y-7500900D02*
X10304500Y-7535900D01*
X10304500Y-7500900D02*
X10269500Y-7535900D01*
X10282200Y-11768100D02*
X10317200Y-11803100D01*
X10317200Y-11768100D02*
X10282200Y-11803100D01*
X10282200Y-13317500D02*
X10317200Y-13352500D01*
X10317200Y-13317500D02*
X10282200Y-13352500D01*
X10294900Y-14377950D02*
X10329900Y-14412950D01*
X10329900Y-14377950D02*
X10294900Y-14412950D01*
X10307600Y-11399800D02*
X10342600Y-11434800D01*
X10342600Y-11399800D02*
X10307600Y-11434800D01*
X10307600Y-13495300D02*
X10342600Y-13530300D01*
X10342600Y-13495300D02*
X10307600Y-13530300D01*
X10320300Y-10891800D02*
X10355300Y-10926800D01*
X10355300Y-10891800D02*
X10320300Y-10926800D01*
X10326650Y-12987300D02*
X10361650Y-13022300D01*
X10361650Y-12987300D02*
X10326650Y-13022300D01*
X10333000Y-11145800D02*
X10368000Y-11180800D01*
X10368000Y-11145800D02*
X10333000Y-11180800D01*
X10339350Y-13234950D02*
X10374350Y-13269950D01*
X10374350Y-13234950D02*
X10339350Y-13269950D01*
X10364750Y-13819150D02*
X10399750Y-13854150D01*
X10399750Y-13819150D02*
X10364750Y-13854150D01*
X10396500Y-8929650D02*
X10431500Y-8964650D01*
X10431500Y-8929650D02*
X10396500Y-8964650D01*
X10421900Y-12504700D02*
X10456900Y-12539700D01*
X10456900Y-12504700D02*
X10421900Y-12539700D01*
X10479050Y-14263650D02*
X10514050Y-14298650D01*
X10514050Y-14263650D02*
X10479050Y-14298650D01*
X10485400Y-14085850D02*
X10520400Y-14120850D01*
X10520400Y-14085850D02*
X10485400Y-14120850D01*
X10491750Y-14492250D02*
X10526750Y-14527250D01*
X10526750Y-14492250D02*
X10491750Y-14527250D01*
X10510800Y-11310900D02*
X10545800Y-11345900D01*
X10545800Y-11310900D02*
X10510800Y-11345900D01*
X10510800Y-12746000D02*
X10545800Y-12781000D01*
X10545800Y-12746000D02*
X10510800Y-12781000D01*
X10523500Y-7500900D02*
X10558500Y-7535900D01*
X10558500Y-7500900D02*
X10523500Y-7535900D01*
X10574300Y-12746000D02*
X10609300Y-12781000D01*
X10609300Y-12746000D02*
X10574300Y-12781000D01*
X10580650Y-11564900D02*
X10615650Y-11599900D01*
X10615650Y-11564900D02*
X10580650Y-11599900D01*
X10637800Y-12746000D02*
X10672800Y-12781000D01*
X10672800Y-12746000D02*
X10637800Y-12781000D01*
X10644150Y-11507750D02*
X10679150Y-11542750D01*
X10679150Y-11507750D02*
X10644150Y-11542750D01*
X10694950Y-14085850D02*
X10729950Y-14120850D01*
X10729950Y-14085850D02*
X10694950Y-14120850D01*
X10701300Y-12746000D02*
X10736300Y-12781000D01*
X10736300Y-12746000D02*
X10701300Y-12781000D01*
X10707650Y-11450600D02*
X10742650Y-11485600D01*
X10742650Y-11450600D02*
X10707650Y-11485600D01*
X10733050Y-8828050D02*
X10768050Y-8863050D01*
X10768050Y-8828050D02*
X10733050Y-8863050D01*
X10764800Y-12746000D02*
X10799800Y-12781000D01*
X10799800Y-12746000D02*
X10764800Y-12781000D01*
X10764800Y-13800100D02*
X10799800Y-13835100D01*
X10799800Y-13800100D02*
X10764800Y-13835100D01*
X10771150Y-11317250D02*
X10806150Y-11352250D01*
X10806150Y-11317250D02*
X10771150Y-11352250D01*
X10777500Y-7500900D02*
X10812500Y-7535900D01*
X10812500Y-7500900D02*
X10777500Y-7535900D01*
X10828300Y-12746000D02*
X10863300Y-12781000D01*
X10863300Y-12746000D02*
X10828300Y-12781000D01*
X10834650Y-11183900D02*
X10869650Y-11218900D01*
X10869650Y-11183900D02*
X10834650Y-11218900D01*
X10898150Y-11088650D02*
X10933150Y-11123650D01*
X10933150Y-11088650D02*
X10898150Y-11123650D01*
X10955300Y-12904750D02*
X10990300Y-12939750D01*
X10990300Y-12904750D02*
X10955300Y-12939750D01*
X10961650Y-9774200D02*
X10996650Y-9809200D01*
X10996650Y-9774200D02*
X10961650Y-9809200D01*
X10961650Y-10847350D02*
X10996650Y-10882350D01*
X10996650Y-10847350D02*
X10961650Y-10882350D01*
X10961650Y-11672850D02*
X10996650Y-11707850D01*
X10996650Y-11672850D02*
X10961650Y-11707850D01*
X10961650Y-13781050D02*
X10996650Y-13816050D01*
X10996650Y-13781050D02*
X10961650Y-13816050D01*
X11082300Y-14524000D02*
X11117300Y-14559000D01*
X11117300Y-14524000D02*
X11082300Y-14559000D01*
X11107700Y-10802900D02*
X11142700Y-10837900D01*
X11142700Y-10802900D02*
X11107700Y-10837900D01*
X11145800Y-12892050D02*
X11180800Y-12927050D01*
X11180800Y-12892050D02*
X11145800Y-12927050D01*
X11152150Y-10866400D02*
X11187150Y-10901400D01*
X11187150Y-10866400D02*
X11152150Y-10901400D01*
X11152150Y-11393450D02*
X11187150Y-11428450D01*
X11187150Y-11393450D02*
X11152150Y-11428450D01*
X11152150Y-13501650D02*
X11187150Y-13536650D01*
X11187150Y-13501650D02*
X11152150Y-13536650D01*
X11209300Y-12942850D02*
X11244300Y-12977850D01*
X11244300Y-12942850D02*
X11209300Y-12977850D01*
X11215650Y-10885450D02*
X11250650Y-10920450D01*
X11250650Y-10885450D02*
X11215650Y-10920450D01*
X11298200Y-14498600D02*
X11333200Y-14533600D01*
X11333200Y-14498600D02*
X11298200Y-14533600D01*
X11342650Y-12733300D02*
X11377650Y-12768300D01*
X11377650Y-12733300D02*
X11342650Y-12768300D01*
X11342650Y-14092200D02*
X11377650Y-14127200D01*
X11377650Y-14092200D02*
X11342650Y-14127200D01*
X11469650Y-11482350D02*
X11504650Y-11517350D01*
X11504650Y-11482350D02*
X11469650Y-11517350D01*
X11469650Y-13533400D02*
X11504650Y-13568400D01*
X11504650Y-13533400D02*
X11469650Y-13568400D01*
X11469650Y-14092200D02*
X11504650Y-14127200D01*
X11504650Y-14092200D02*
X11469650Y-14127200D01*
X11476000Y-12968250D02*
X11511000Y-13003250D01*
X11511000Y-12968250D02*
X11476000Y-13003250D01*
X11482350Y-10917200D02*
X11517350Y-10952200D01*
X11517350Y-10917200D02*
X11482350Y-10952200D01*
X11495050Y-14466850D02*
X11530050Y-14501850D01*
X11530050Y-14466850D02*
X11495050Y-14501850D01*
X11533150Y-11418850D02*
X11568150Y-11453850D01*
X11568150Y-11418850D02*
X11533150Y-11453850D01*
X11533150Y-13482600D02*
X11568150Y-13517600D01*
X11568150Y-13482600D02*
X11533150Y-13517600D01*
X11533150Y-14092200D02*
X11568150Y-14127200D01*
X11568150Y-14092200D02*
X11533150Y-14127200D01*
X11564900Y-11272800D02*
X11599900Y-11307800D01*
X11599900Y-11272800D02*
X11564900Y-11307800D01*
X11647450Y-13552450D02*
X11682450Y-13587450D01*
X11682450Y-13552450D02*
X11647450Y-13587450D01*
X11679200Y-14219200D02*
X11714200Y-14254200D01*
X11714200Y-14219200D02*
X11679200Y-14254200D01*
X11844300Y-12599950D02*
X11879300Y-12634950D01*
X11879300Y-12599950D02*
X11844300Y-12634950D01*
X7970200Y-7188200D02*
G75*
G03*
X7970200Y-7188200I-20000J0D01*
G01*
X7970200Y-14554200D02*
G75*
G03*
X7970200Y-14554200I-20000J0D01*
G01*
X8268650Y-9391650D02*
G75*
G03*
X8268650Y-9391650I-20000J0D01*
G01*
X8421050Y-12782550D02*
G75*
G03*
X8421050Y-12782550I-20000J0D01*
G01*
X8789350Y-13531850D02*
G75*
G03*
X8789350Y-13531850I-20000J0D01*
G01*
X8790850Y-13244600D02*
G75*
G03*
X8790850Y-13244600I-20000J0D01*
G01*
X9049700Y-12731750D02*
G75*
G03*
X9049700Y-12731750I-20000J0D01*
G01*
X9633900Y-7962900D02*
G75*
G03*
X9633900Y-7962900I-20000J0D01*
G01*
X11450000Y-7651750D02*
G75*
G03*
X11450000Y-7651750I-20000J0D01*
G01*
X11888150Y-7188200D02*
G75*
G03*
X11888150Y-7188200I-20000J0D01*
G01*
X9779000Y-7326000D02*
X9779000Y-7406000D01*
X9739000Y-7366000D02*
X9819000Y-7366000D01*
X9779000Y-8088000D02*
X9779000Y-8168000D01*
X9739000Y-8128000D02*
X9819000Y-8128000D01*
X9906000Y-8596000D02*
X9906000Y-8676000D01*
X9866000Y-8636000D02*
X9946000Y-8636000D01*
X10033000Y-7326000D02*
X10033000Y-7406000D01*
X9993000Y-7366000D02*
X10073000Y-7366000D01*
X10033000Y-8088000D02*
X10033000Y-8168000D01*
X9993000Y-8128000D02*
X10073000Y-8128000D01*
X10160000Y-8596000D02*
X10160000Y-8676000D01*
X10120000Y-8636000D02*
X10200000Y-8636000D01*
X10287000Y-7326000D02*
X10287000Y-7406000D01*
X10247000Y-7366000D02*
X10327000Y-7366000D01*
X10287000Y-8088000D02*
X10287000Y-8168000D01*
X10247000Y-8128000D02*
X10327000Y-8128000D01*
X10414000Y-8596000D02*
X10414000Y-8676000D01*
X10374000Y-8636000D02*
X10454000Y-8636000D01*
X10541000Y-7326000D02*
X10541000Y-7406000D01*
X10501000Y-7366000D02*
X10581000Y-7366000D01*
X10541000Y-8088000D02*
X10541000Y-8168000D01*
X10501000Y-8128000D02*
X10581000Y-8128000D01*
X10668000Y-8596000D02*
X10668000Y-8676000D01*
X10628000Y-8636000D02*
X10708000Y-8636000D01*
X10795000Y-7326000D02*
X10795000Y-7406000D01*
X10755000Y-7366000D02*
X10835000Y-7366000D01*
X10795000Y-8088000D02*
X10795000Y-8168000D01*
X10755000Y-8128000D02*
X10835000Y-8128000D01*
X10922000Y-8596000D02*
X10922000Y-8676000D01*
X10882000Y-8636000D02*
X10962000Y-8636000D01*
X11176000Y-8596000D02*
X11176000Y-8676000D01*
X11136000Y-8636000D02*
X11216000Y-8636000D01*
X11430000Y-8596000D02*
X11430000Y-8676000D01*
X11390000Y-8636000D02*
X11470000Y-8636000D01*
X9115856Y-7655356D02*
X9115856Y-7584644D01*
X9045144Y-7584644D01*
X9045144Y-7655356D01*
X9115856Y-7655356D01*
X9115856Y-7909356D02*
X9115856Y-7838644D01*
X9045144Y-7838644D01*
X9045144Y-7909356D01*
X9115856Y-7909356D01*
X9115856Y-8163356D02*
X9115856Y-8092644D01*
X9045144Y-8092644D01*
X9045144Y-8163356D01*
X9115856Y-8163356D01*
X9115856Y-8671356D02*
X9115856Y-8600644D01*
X9045144Y-8600644D01*
X9045144Y-8671356D01*
X9115856Y-8671356D01*
X9115856Y-8925356D02*
X9115856Y-8854644D01*
X9045144Y-8854644D01*
X9045144Y-8925356D01*
X9115856Y-8925356D01*
X9115856Y-9179356D02*
X9115856Y-9108644D01*
X9045144Y-9108644D01*
X9045144Y-9179356D01*
X9115856Y-9179356D01*
X9115856Y-9687356D02*
X9115856Y-9616644D01*
X9045144Y-9616644D01*
X9045144Y-9687356D01*
X9115856Y-9687356D01*
X9115856Y-9941356D02*
X9115856Y-9870644D01*
X9045144Y-9870644D01*
X9045144Y-9941356D01*
X9115856Y-9941356D01*
X9115856Y-10195356D02*
X9115856Y-10124644D01*
X9045144Y-10124644D01*
X9045144Y-10195356D01*
X9115856Y-10195356D01*
X9115856Y-10449356D02*
X9115856Y-10378644D01*
X9045144Y-10378644D01*
X9045144Y-10449356D01*
X9115856Y-10449356D01*
X9115856Y-10703356D02*
X9115856Y-10632644D01*
X9045144Y-10632644D01*
X9045144Y-10703356D01*
X9115856Y-10703356D01*
X9115856Y-10957356D02*
X9115856Y-10886644D01*
X9045144Y-10886644D01*
X9045144Y-10957356D01*
X9115856Y-10957356D01*
D11*
X286429Y-465714D02*
X286429Y-165714D01*
X357857Y-165714D01*
X400714Y-180000D01*
X429286Y-208571D01*
X443571Y-237143D01*
X457857Y-294286D01*
X457857Y-337143D01*
X443571Y-394286D01*
X429286Y-422857D01*
X400714Y-451428D01*
X357857Y-465714D01*
X286429Y-465714D01*
X586429Y-465714D02*
X586429Y-265714D01*
X586429Y-322857D02*
X600714Y-294286D01*
X615000Y-280000D01*
X643571Y-265714D01*
X672143Y-265714D01*
X772143Y-465714D02*
X772143Y-265714D01*
X772143Y-165714D02*
X757857Y-180000D01*
X772143Y-194286D01*
X786428Y-180000D01*
X772143Y-165714D01*
X772143Y-194286D01*
X957857Y-465714D02*
X929286Y-451428D01*
X915000Y-422857D01*
X915000Y-165714D01*
X1115000Y-465714D02*
X1086429Y-451428D01*
X1072143Y-422857D01*
X1072143Y-165714D01*
X1457857Y-465714D02*
X1457857Y-165714D01*
X1557857Y-380000D01*
X1657857Y-165714D01*
X1657857Y-465714D01*
X1929286Y-465714D02*
X1929286Y-308571D01*
X1915000Y-280000D01*
X1886428Y-265714D01*
X1829286Y-265714D01*
X1800714Y-280000D01*
X1929286Y-451428D02*
X1900714Y-465714D01*
X1829286Y-465714D01*
X1800714Y-451428D01*
X1786428Y-422857D01*
X1786428Y-394286D01*
X1800714Y-365714D01*
X1829286Y-351428D01*
X1900714Y-351428D01*
X1929286Y-337143D01*
X2072143Y-265714D02*
X2072143Y-565714D01*
X2072143Y-280000D02*
X2100714Y-265714D01*
X2157857Y-265714D01*
X2186429Y-280000D01*
X2200714Y-294286D01*
X2215000Y-322857D01*
X2215000Y-408571D01*
X2200714Y-437143D01*
X2186429Y-451428D01*
X2157857Y-465714D01*
X2100714Y-465714D01*
X2072143Y-451428D01*
X2343571Y-437143D02*
X2357857Y-451428D01*
X2343571Y-465714D01*
X2329286Y-451428D01*
X2343571Y-437143D01*
X2343571Y-465714D01*
X2343571Y-280000D02*
X2357857Y-294286D01*
X2343571Y-308571D01*
X2329286Y-294286D01*
X2343571Y-280000D01*
X2343571Y-308571D01*
X-35000Y-942500D02*
X0Y-977500D01*
X0Y-942500D02*
X-35000Y-977500D01*
X343571Y-795714D02*
X372143Y-795714D01*
X400714Y-810000D01*
X415000Y-824286D01*
X429286Y-852857D01*
X443571Y-910000D01*
X443571Y-981428D01*
X429286Y-1038571D01*
X415000Y-1067143D01*
X400714Y-1081429D01*
X372143Y-1095714D01*
X343571Y-1095714D01*
X315000Y-1081429D01*
X300714Y-1067143D01*
X286429Y-1038571D01*
X272143Y-981428D01*
X272143Y-910000D01*
X286429Y-852857D01*
X300714Y-824286D01*
X315000Y-810000D01*
X343571Y-795714D01*
X572143Y-1067143D02*
X586429Y-1081429D01*
X572143Y-1095714D01*
X557857Y-1081429D01*
X572143Y-1067143D01*
X572143Y-1095714D01*
X686429Y-795714D02*
X872143Y-795714D01*
X772143Y-910000D01*
X815000Y-910000D01*
X843571Y-924286D01*
X857857Y-938571D01*
X872143Y-967143D01*
X872143Y-1038571D01*
X857857Y-1067143D01*
X843571Y-1081429D01*
X815000Y-1095714D01*
X729286Y-1095714D01*
X700714Y-1081429D01*
X686429Y-1067143D01*
X1143571Y-795714D02*
X1000714Y-795714D01*
X986428Y-938571D01*
X1000714Y-924286D01*
X1029286Y-910000D01*
X1100714Y-910000D01*
X1129286Y-924286D01*
X1143571Y-938571D01*
X1157857Y-967143D01*
X1157857Y-1038571D01*
X1143571Y-1067143D01*
X1129286Y-1081429D01*
X1100714Y-1095714D01*
X1029286Y-1095714D01*
X1000714Y-1081429D01*
X986428Y-1067143D01*
X1343571Y-795714D02*
X1372143Y-795714D01*
X1400714Y-810000D01*
X1415000Y-824286D01*
X1429286Y-852857D01*
X1443571Y-910000D01*
X1443571Y-981428D01*
X1429286Y-1038571D01*
X1415000Y-1067143D01*
X1400714Y-1081429D01*
X1372143Y-1095714D01*
X1343571Y-1095714D01*
X1315000Y-1081429D01*
X1300714Y-1067143D01*
X1286429Y-1038571D01*
X1272143Y-981428D01*
X1272143Y-910000D01*
X1286429Y-852857D01*
X1300714Y-824286D01*
X1315000Y-810000D01*
X1343571Y-795714D01*
X1572143Y-1095714D02*
X1572143Y-895714D01*
X1572143Y-924286D02*
X1586428Y-910000D01*
X1615000Y-895714D01*
X1657857Y-895714D01*
X1686428Y-910000D01*
X1700714Y-938571D01*
X1700714Y-1095714D01*
X1700714Y-938571D02*
X1715000Y-910000D01*
X1743571Y-895714D01*
X1786428Y-895714D01*
X1815000Y-910000D01*
X1829286Y-938571D01*
X1829286Y-1095714D01*
X1972143Y-1095714D02*
X1972143Y-895714D01*
X1972143Y-924286D02*
X1986428Y-910000D01*
X2015000Y-895714D01*
X2057857Y-895714D01*
X2086428Y-910000D01*
X2100714Y-938571D01*
X2100714Y-1095714D01*
X2100714Y-938571D02*
X2115000Y-910000D01*
X2143571Y-895714D01*
X2186429Y-895714D01*
X2215000Y-910000D01*
X2229286Y-938571D01*
X2229286Y-1095714D01*
X2815000Y-781428D02*
X2557857Y-1167143D01*
X3200714Y-795714D02*
X3229286Y-795714D01*
X3257857Y-810000D01*
X3272143Y-824286D01*
X3286428Y-852857D01*
X3300714Y-910000D01*
X3300714Y-981428D01*
X3286428Y-1038571D01*
X3272143Y-1067143D01*
X3257857Y-1081429D01*
X3229286Y-1095714D01*
X3200714Y-1095714D01*
X3172143Y-1081429D01*
X3157857Y-1067143D01*
X3143571Y-1038571D01*
X3129286Y-981428D01*
X3129286Y-910000D01*
X3143571Y-852857D01*
X3157857Y-824286D01*
X3172143Y-810000D01*
X3200714Y-795714D01*
X3429286Y-1067143D02*
X3443571Y-1081429D01*
X3429286Y-1095714D01*
X3415000Y-1081429D01*
X3429286Y-1067143D01*
X3429286Y-1095714D01*
X3629286Y-795714D02*
X3657857Y-795714D01*
X3686428Y-810000D01*
X3700714Y-824286D01*
X3715000Y-852857D01*
X3729286Y-910000D01*
X3729286Y-981428D01*
X3715000Y-1038571D01*
X3700714Y-1067143D01*
X3686428Y-1081429D01*
X3657857Y-1095714D01*
X3629286Y-1095714D01*
X3600714Y-1081429D01*
X3586428Y-1067143D01*
X3572143Y-1038571D01*
X3557857Y-981428D01*
X3557857Y-910000D01*
X3572143Y-852857D01*
X3586428Y-824286D01*
X3600714Y-810000D01*
X3629286Y-795714D01*
X4015000Y-1095714D02*
X3843571Y-1095714D01*
X3929286Y-1095714D02*
X3929286Y-795714D01*
X3900714Y-838571D01*
X3872143Y-867143D01*
X3843571Y-881428D01*
X4115000Y-795714D02*
X4300714Y-795714D01*
X4200714Y-910000D01*
X4243571Y-910000D01*
X4272143Y-924286D01*
X4286429Y-938571D01*
X4300714Y-967143D01*
X4300714Y-1038571D01*
X4286429Y-1067143D01*
X4272143Y-1081429D01*
X4243571Y-1095714D01*
X4157857Y-1095714D01*
X4129286Y-1081429D01*
X4115000Y-1067143D01*
X4472143Y-924286D02*
X4443571Y-910000D01*
X4429286Y-895714D01*
X4415000Y-867143D01*
X4415000Y-852857D01*
X4429286Y-824286D01*
X4443571Y-810000D01*
X4472143Y-795714D01*
X4529286Y-795714D01*
X4557857Y-810000D01*
X4572143Y-824286D01*
X4586429Y-852857D01*
X4586429Y-867143D01*
X4572143Y-895714D01*
X4557857Y-910000D01*
X4529286Y-924286D01*
X4472143Y-924286D01*
X4443571Y-938571D01*
X4429286Y-952857D01*
X4415000Y-981428D01*
X4415000Y-1038571D01*
X4429286Y-1067143D01*
X4443571Y-1081429D01*
X4472143Y-1095714D01*
X4529286Y-1095714D01*
X4557857Y-1081429D01*
X4572143Y-1067143D01*
X4586429Y-1038571D01*
X4586429Y-981428D01*
X4572143Y-952857D01*
X4557857Y-938571D01*
X4529286Y-924286D01*
X4700714Y-795714D02*
X4700714Y-852857D01*
X4815000Y-795714D02*
X4815000Y-852857D01*
X5257857Y-1210000D02*
X5243571Y-1195714D01*
X5215000Y-1152857D01*
X5200714Y-1124286D01*
X5186429Y-1081429D01*
X5172143Y-1010000D01*
X5172143Y-952857D01*
X5186429Y-881428D01*
X5200714Y-838571D01*
X5215000Y-810000D01*
X5243571Y-767143D01*
X5257857Y-752857D01*
X5529286Y-1095714D02*
X5357857Y-1095714D01*
X5443571Y-1095714D02*
X5443571Y-795714D01*
X5415000Y-838571D01*
X5386429Y-867143D01*
X5357857Y-881428D01*
X5643571Y-824286D02*
X5657857Y-810000D01*
X5686428Y-795714D01*
X5757857Y-795714D01*
X5786428Y-810000D01*
X5800714Y-824286D01*
X5815000Y-852857D01*
X5815000Y-881428D01*
X5800714Y-924286D01*
X5629286Y-1095714D01*
X5815000Y-1095714D01*
X6072143Y-795714D02*
X6015000Y-795714D01*
X5986428Y-810000D01*
X5972143Y-824286D01*
X5943571Y-867143D01*
X5929286Y-924286D01*
X5929286Y-1038571D01*
X5943571Y-1067143D01*
X5957857Y-1081429D01*
X5986428Y-1095714D01*
X6043571Y-1095714D01*
X6072143Y-1081429D01*
X6086428Y-1067143D01*
X6100714Y-1038571D01*
X6100714Y-967143D01*
X6086428Y-938571D01*
X6072143Y-924286D01*
X6043571Y-910000D01*
X5986428Y-910000D01*
X5957857Y-924286D01*
X5943571Y-938571D01*
X5929286Y-967143D01*
X6457857Y-1095714D02*
X6457857Y-795714D01*
X6586428Y-1095714D02*
X6586428Y-938571D01*
X6572143Y-910000D01*
X6543571Y-895714D01*
X6500714Y-895714D01*
X6472143Y-910000D01*
X6457857Y-924286D01*
X6772143Y-1095714D02*
X6743571Y-1081429D01*
X6729286Y-1067143D01*
X6715000Y-1038571D01*
X6715000Y-952857D01*
X6729286Y-924286D01*
X6743571Y-910000D01*
X6772143Y-895714D01*
X6815000Y-895714D01*
X6843571Y-910000D01*
X6857857Y-924286D01*
X6872143Y-952857D01*
X6872143Y-1038571D01*
X6857857Y-1067143D01*
X6843571Y-1081429D01*
X6815000Y-1095714D01*
X6772143Y-1095714D01*
X7043571Y-1095714D02*
X7015000Y-1081429D01*
X7000714Y-1052857D01*
X7000714Y-795714D01*
X7272143Y-1081429D02*
X7243571Y-1095714D01*
X7186428Y-1095714D01*
X7157857Y-1081429D01*
X7143571Y-1052857D01*
X7143571Y-938571D01*
X7157857Y-910000D01*
X7186428Y-895714D01*
X7243571Y-895714D01*
X7272143Y-910000D01*
X7286428Y-938571D01*
X7286428Y-967143D01*
X7143571Y-995714D01*
X7400714Y-1081429D02*
X7429286Y-1095714D01*
X7486428Y-1095714D01*
X7515000Y-1081429D01*
X7529286Y-1052857D01*
X7529286Y-1038571D01*
X7515000Y-1010000D01*
X7486428Y-995714D01*
X7443571Y-995714D01*
X7415000Y-981428D01*
X7400714Y-952857D01*
X7400714Y-938571D01*
X7415000Y-910000D01*
X7443571Y-895714D01*
X7486428Y-895714D01*
X7515000Y-910000D01*
X7629286Y-1210000D02*
X7643571Y-1195714D01*
X7672143Y-1152857D01*
X7686428Y-1124286D01*
X7700714Y-1081429D01*
X7715000Y-1010000D01*
X7715000Y-952857D01*
X7700714Y-881428D01*
X7686428Y-838571D01*
X7672143Y-810000D01*
X7643571Y-767143D01*
X7629286Y-752857D01*
X0Y-1356000D02*
G75*
G03*
X0Y-1356000I-20000J0D01*
G01*
X343571Y-1191714D02*
X372143Y-1191714D01*
X400714Y-1206000D01*
X415000Y-1220286D01*
X429286Y-1248857D01*
X443571Y-1306000D01*
X443571Y-1377429D01*
X429286Y-1434571D01*
X415000Y-1463143D01*
X400714Y-1477428D01*
X372143Y-1491714D01*
X343571Y-1491714D01*
X315000Y-1477428D01*
X300714Y-1463143D01*
X286429Y-1434571D01*
X272143Y-1377429D01*
X272143Y-1306000D01*
X286429Y-1248857D01*
X300714Y-1220286D01*
X315000Y-1206000D01*
X343571Y-1191714D01*
X572143Y-1463143D02*
X586429Y-1477428D01*
X572143Y-1491714D01*
X557857Y-1477428D01*
X572143Y-1463143D01*
X572143Y-1491714D01*
X843571Y-1291714D02*
X843571Y-1491714D01*
X772143Y-1177429D02*
X700714Y-1391714D01*
X886428Y-1391714D01*
X1057857Y-1191714D02*
X1086429Y-1191714D01*
X1115000Y-1206000D01*
X1129286Y-1220286D01*
X1143571Y-1248857D01*
X1157857Y-1306000D01*
X1157857Y-1377429D01*
X1143571Y-1434571D01*
X1129286Y-1463143D01*
X1115000Y-1477428D01*
X1086429Y-1491714D01*
X1057857Y-1491714D01*
X1029286Y-1477428D01*
X1015000Y-1463143D01*
X1000714Y-1434571D01*
X986428Y-1377429D01*
X986428Y-1306000D01*
X1000714Y-1248857D01*
X1015000Y-1220286D01*
X1029286Y-1206000D01*
X1057857Y-1191714D01*
X1343571Y-1191714D02*
X1372143Y-1191714D01*
X1400714Y-1206000D01*
X1415000Y-1220286D01*
X1429286Y-1248857D01*
X1443571Y-1306000D01*
X1443571Y-1377429D01*
X1429286Y-1434571D01*
X1415000Y-1463143D01*
X1400714Y-1477428D01*
X1372143Y-1491714D01*
X1343571Y-1491714D01*
X1315000Y-1477428D01*
X1300714Y-1463143D01*
X1286429Y-1434571D01*
X1272143Y-1377429D01*
X1272143Y-1306000D01*
X1286429Y-1248857D01*
X1300714Y-1220286D01*
X1315000Y-1206000D01*
X1343571Y-1191714D01*
X1572143Y-1491714D02*
X1572143Y-1291714D01*
X1572143Y-1320286D02*
X1586428Y-1306000D01*
X1615000Y-1291714D01*
X1657857Y-1291714D01*
X1686428Y-1306000D01*
X1700714Y-1334571D01*
X1700714Y-1491714D01*
X1700714Y-1334571D02*
X1715000Y-1306000D01*
X1743571Y-1291714D01*
X1786428Y-1291714D01*
X1815000Y-1306000D01*
X1829286Y-1334571D01*
X1829286Y-1491714D01*
X1972143Y-1491714D02*
X1972143Y-1291714D01*
X1972143Y-1320286D02*
X1986428Y-1306000D01*
X2015000Y-1291714D01*
X2057857Y-1291714D01*
X2086428Y-1306000D01*
X2100714Y-1334571D01*
X2100714Y-1491714D01*
X2100714Y-1334571D02*
X2115000Y-1306000D01*
X2143571Y-1291714D01*
X2186429Y-1291714D01*
X2215000Y-1306000D01*
X2229286Y-1334571D01*
X2229286Y-1491714D01*
X2815000Y-1177429D02*
X2557857Y-1563143D01*
X3200714Y-1191714D02*
X3229286Y-1191714D01*
X3257857Y-1206000D01*
X3272143Y-1220286D01*
X3286428Y-1248857D01*
X3300714Y-1306000D01*
X3300714Y-1377429D01*
X3286428Y-1434571D01*
X3272143Y-1463143D01*
X3257857Y-1477428D01*
X3229286Y-1491714D01*
X3200714Y-1491714D01*
X3172143Y-1477428D01*
X3157857Y-1463143D01*
X3143571Y-1434571D01*
X3129286Y-1377429D01*
X3129286Y-1306000D01*
X3143571Y-1248857D01*
X3157857Y-1220286D01*
X3172143Y-1206000D01*
X3200714Y-1191714D01*
X3429286Y-1463143D02*
X3443571Y-1477428D01*
X3429286Y-1491714D01*
X3415000Y-1477428D01*
X3429286Y-1463143D01*
X3429286Y-1491714D01*
X3629286Y-1191714D02*
X3657857Y-1191714D01*
X3686428Y-1206000D01*
X3700714Y-1220286D01*
X3715000Y-1248857D01*
X3729286Y-1306000D01*
X3729286Y-1377429D01*
X3715000Y-1434571D01*
X3700714Y-1463143D01*
X3686428Y-1477428D01*
X3657857Y-1491714D01*
X3629286Y-1491714D01*
X3600714Y-1477428D01*
X3586428Y-1463143D01*
X3572143Y-1434571D01*
X3557857Y-1377429D01*
X3557857Y-1306000D01*
X3572143Y-1248857D01*
X3586428Y-1220286D01*
X3600714Y-1206000D01*
X3629286Y-1191714D01*
X4015000Y-1491714D02*
X3843571Y-1491714D01*
X3929286Y-1491714D02*
X3929286Y-1191714D01*
X3900714Y-1234571D01*
X3872143Y-1263143D01*
X3843571Y-1277429D01*
X4286429Y-1191714D02*
X4143571Y-1191714D01*
X4129286Y-1334571D01*
X4143571Y-1320286D01*
X4172143Y-1306000D01*
X4243571Y-1306000D01*
X4272143Y-1320286D01*
X4286429Y-1334571D01*
X4300714Y-1363143D01*
X4300714Y-1434571D01*
X4286429Y-1463143D01*
X4272143Y-1477428D01*
X4243571Y-1491714D01*
X4172143Y-1491714D01*
X4143571Y-1477428D01*
X4129286Y-1463143D01*
X4400714Y-1191714D02*
X4600714Y-1191714D01*
X4472143Y-1491714D01*
X4700714Y-1191714D02*
X4700714Y-1248857D01*
X4815000Y-1191714D02*
X4815000Y-1248857D01*
X5257857Y-1606000D02*
X5243571Y-1591714D01*
X5215000Y-1548857D01*
X5200714Y-1520286D01*
X5186429Y-1477428D01*
X5172143Y-1406000D01*
X5172143Y-1348857D01*
X5186429Y-1277429D01*
X5200714Y-1234571D01*
X5215000Y-1206000D01*
X5243571Y-1163143D01*
X5257857Y-1148857D01*
X5529286Y-1491714D02*
X5357857Y-1491714D01*
X5443571Y-1491714D02*
X5443571Y-1191714D01*
X5415000Y-1234571D01*
X5386429Y-1263143D01*
X5357857Y-1277429D01*
X5715000Y-1191714D02*
X5743571Y-1191714D01*
X5772143Y-1206000D01*
X5786428Y-1220286D01*
X5800714Y-1248857D01*
X5815000Y-1306000D01*
X5815000Y-1377429D01*
X5800714Y-1434571D01*
X5786428Y-1463143D01*
X5772143Y-1477428D01*
X5743571Y-1491714D01*
X5715000Y-1491714D01*
X5686428Y-1477428D01*
X5672143Y-1463143D01*
X5657857Y-1434571D01*
X5643571Y-1377429D01*
X5643571Y-1306000D01*
X5657857Y-1248857D01*
X5672143Y-1220286D01*
X5686428Y-1206000D01*
X5715000Y-1191714D01*
X6172143Y-1491714D02*
X6172143Y-1191714D01*
X6300714Y-1491714D02*
X6300714Y-1334571D01*
X6286428Y-1306000D01*
X6257857Y-1291714D01*
X6215000Y-1291714D01*
X6186428Y-1306000D01*
X6172143Y-1320286D01*
X6486428Y-1491714D02*
X6457857Y-1477428D01*
X6443571Y-1463143D01*
X6429286Y-1434571D01*
X6429286Y-1348857D01*
X6443571Y-1320286D01*
X6457857Y-1306000D01*
X6486428Y-1291714D01*
X6529286Y-1291714D01*
X6557857Y-1306000D01*
X6572143Y-1320286D01*
X6586428Y-1348857D01*
X6586428Y-1434571D01*
X6572143Y-1463143D01*
X6557857Y-1477428D01*
X6529286Y-1491714D01*
X6486428Y-1491714D01*
X6757857Y-1491714D02*
X6729286Y-1477428D01*
X6715000Y-1448857D01*
X6715000Y-1191714D01*
X6986428Y-1477428D02*
X6957857Y-1491714D01*
X6900714Y-1491714D01*
X6872143Y-1477428D01*
X6857857Y-1448857D01*
X6857857Y-1334571D01*
X6872143Y-1306000D01*
X6900714Y-1291714D01*
X6957857Y-1291714D01*
X6986428Y-1306000D01*
X7000714Y-1334571D01*
X7000714Y-1363143D01*
X6857857Y-1391714D01*
X7115000Y-1477428D02*
X7143571Y-1491714D01*
X7200714Y-1491714D01*
X7229286Y-1477428D01*
X7243571Y-1448857D01*
X7243571Y-1434571D01*
X7229286Y-1406000D01*
X7200714Y-1391714D01*
X7157857Y-1391714D01*
X7129286Y-1377429D01*
X7115000Y-1348857D01*
X7115000Y-1334571D01*
X7129286Y-1306000D01*
X7157857Y-1291714D01*
X7200714Y-1291714D01*
X7229286Y-1306000D01*
X7343571Y-1606000D02*
X7357857Y-1591714D01*
X7386428Y-1548857D01*
X7400714Y-1520286D01*
X7415000Y-1477428D01*
X7429286Y-1406000D01*
X7429286Y-1348857D01*
X7415000Y-1277429D01*
X7400714Y-1234571D01*
X7386428Y-1206000D01*
X7357857Y-1163143D01*
X7343571Y-1148857D01*
X-40000Y-1712000D02*
X-40000Y-1792000D01*
X-80000Y-1752000D02*
X0Y-1752000D01*
X343571Y-1587714D02*
X372143Y-1587714D01*
X400714Y-1602000D01*
X415000Y-1616286D01*
X429286Y-1644857D01*
X443571Y-1702000D01*
X443571Y-1773428D01*
X429286Y-1830571D01*
X415000Y-1859143D01*
X400714Y-1873428D01*
X372143Y-1887714D01*
X343571Y-1887714D01*
X315000Y-1873428D01*
X300714Y-1859143D01*
X286429Y-1830571D01*
X272143Y-1773428D01*
X272143Y-1702000D01*
X286429Y-1644857D01*
X300714Y-1616286D01*
X315000Y-1602000D01*
X343571Y-1587714D01*
X572143Y-1859143D02*
X586429Y-1873428D01*
X572143Y-1887714D01*
X557857Y-1873428D01*
X572143Y-1859143D01*
X572143Y-1887714D01*
X757857Y-1716286D02*
X729286Y-1702000D01*
X715000Y-1687714D01*
X700714Y-1659143D01*
X700714Y-1644857D01*
X715000Y-1616286D01*
X729286Y-1602000D01*
X757857Y-1587714D01*
X815000Y-1587714D01*
X843571Y-1602000D01*
X857857Y-1616286D01*
X872143Y-1644857D01*
X872143Y-1659143D01*
X857857Y-1687714D01*
X843571Y-1702000D01*
X815000Y-1716286D01*
X757857Y-1716286D01*
X729286Y-1730571D01*
X715000Y-1744857D01*
X700714Y-1773428D01*
X700714Y-1830571D01*
X715000Y-1859143D01*
X729286Y-1873428D01*
X757857Y-1887714D01*
X815000Y-1887714D01*
X843571Y-1873428D01*
X857857Y-1859143D01*
X872143Y-1830571D01*
X872143Y-1773428D01*
X857857Y-1744857D01*
X843571Y-1730571D01*
X815000Y-1716286D01*
X1057857Y-1587714D02*
X1086429Y-1587714D01*
X1115000Y-1602000D01*
X1129286Y-1616286D01*
X1143571Y-1644857D01*
X1157857Y-1702000D01*
X1157857Y-1773428D01*
X1143571Y-1830571D01*
X1129286Y-1859143D01*
X1115000Y-1873428D01*
X1086429Y-1887714D01*
X1057857Y-1887714D01*
X1029286Y-1873428D01*
X1015000Y-1859143D01*
X1000714Y-1830571D01*
X986428Y-1773428D01*
X986428Y-1702000D01*
X1000714Y-1644857D01*
X1015000Y-1616286D01*
X1029286Y-1602000D01*
X1057857Y-1587714D01*
X1343571Y-1587714D02*
X1372143Y-1587714D01*
X1400714Y-1602000D01*
X1415000Y-1616286D01*
X1429286Y-1644857D01*
X1443571Y-1702000D01*
X1443571Y-1773428D01*
X1429286Y-1830571D01*
X1415000Y-1859143D01*
X1400714Y-1873428D01*
X1372143Y-1887714D01*
X1343571Y-1887714D01*
X1315000Y-1873428D01*
X1300714Y-1859143D01*
X1286429Y-1830571D01*
X1272143Y-1773428D01*
X1272143Y-1702000D01*
X1286429Y-1644857D01*
X1300714Y-1616286D01*
X1315000Y-1602000D01*
X1343571Y-1587714D01*
X1572143Y-1887714D02*
X1572143Y-1687714D01*
X1572143Y-1716286D02*
X1586428Y-1702000D01*
X1615000Y-1687714D01*
X1657857Y-1687714D01*
X1686428Y-1702000D01*
X1700714Y-1730571D01*
X1700714Y-1887714D01*
X1700714Y-1730571D02*
X1715000Y-1702000D01*
X1743571Y-1687714D01*
X1786428Y-1687714D01*
X1815000Y-1702000D01*
X1829286Y-1730571D01*
X1829286Y-1887714D01*
X1972143Y-1887714D02*
X1972143Y-1687714D01*
X1972143Y-1716286D02*
X1986428Y-1702000D01*
X2015000Y-1687714D01*
X2057857Y-1687714D01*
X2086428Y-1702000D01*
X2100714Y-1730571D01*
X2100714Y-1887714D01*
X2100714Y-1730571D02*
X2115000Y-1702000D01*
X2143571Y-1687714D01*
X2186429Y-1687714D01*
X2215000Y-1702000D01*
X2229286Y-1730571D01*
X2229286Y-1887714D01*
X2815000Y-1573428D02*
X2557857Y-1959143D01*
X3200714Y-1587714D02*
X3229286Y-1587714D01*
X3257857Y-1602000D01*
X3272143Y-1616286D01*
X3286428Y-1644857D01*
X3300714Y-1702000D01*
X3300714Y-1773428D01*
X3286428Y-1830571D01*
X3272143Y-1859143D01*
X3257857Y-1873428D01*
X3229286Y-1887714D01*
X3200714Y-1887714D01*
X3172143Y-1873428D01*
X3157857Y-1859143D01*
X3143571Y-1830571D01*
X3129286Y-1773428D01*
X3129286Y-1702000D01*
X3143571Y-1644857D01*
X3157857Y-1616286D01*
X3172143Y-1602000D01*
X3200714Y-1587714D01*
X3429286Y-1859143D02*
X3443571Y-1873428D01*
X3429286Y-1887714D01*
X3415000Y-1873428D01*
X3429286Y-1859143D01*
X3429286Y-1887714D01*
X3629286Y-1587714D02*
X3657857Y-1587714D01*
X3686428Y-1602000D01*
X3700714Y-1616286D01*
X3715000Y-1644857D01*
X3729286Y-1702000D01*
X3729286Y-1773428D01*
X3715000Y-1830571D01*
X3700714Y-1859143D01*
X3686428Y-1873428D01*
X3657857Y-1887714D01*
X3629286Y-1887714D01*
X3600714Y-1873428D01*
X3586428Y-1859143D01*
X3572143Y-1830571D01*
X3557857Y-1773428D01*
X3557857Y-1702000D01*
X3572143Y-1644857D01*
X3586428Y-1616286D01*
X3600714Y-1602000D01*
X3629286Y-1587714D01*
X3829286Y-1587714D02*
X4015000Y-1587714D01*
X3915000Y-1702000D01*
X3957857Y-1702000D01*
X3986428Y-1716286D01*
X4000714Y-1730571D01*
X4015000Y-1759143D01*
X4015000Y-1830571D01*
X4000714Y-1859143D01*
X3986428Y-1873428D01*
X3957857Y-1887714D01*
X3872143Y-1887714D01*
X3843571Y-1873428D01*
X3829286Y-1859143D01*
X4300714Y-1887714D02*
X4129286Y-1887714D01*
X4215000Y-1887714D02*
X4215000Y-1587714D01*
X4186428Y-1630571D01*
X4157857Y-1659143D01*
X4129286Y-1673428D01*
X4572143Y-1587714D02*
X4429286Y-1587714D01*
X4415000Y-1730571D01*
X4429286Y-1716286D01*
X4457857Y-1702000D01*
X4529286Y-1702000D01*
X4557857Y-1716286D01*
X4572143Y-1730571D01*
X4586429Y-1759143D01*
X4586429Y-1830571D01*
X4572143Y-1859143D01*
X4557857Y-1873428D01*
X4529286Y-1887714D01*
X4457857Y-1887714D01*
X4429286Y-1873428D01*
X4415000Y-1859143D01*
X4700714Y-1587714D02*
X4700714Y-1644857D01*
X4815000Y-1587714D02*
X4815000Y-1644857D01*
X5257857Y-2002000D02*
X5243571Y-1987714D01*
X5215000Y-1944857D01*
X5200714Y-1916286D01*
X5186429Y-1873428D01*
X5172143Y-1802000D01*
X5172143Y-1744857D01*
X5186429Y-1673428D01*
X5200714Y-1630571D01*
X5215000Y-1602000D01*
X5243571Y-1559143D01*
X5257857Y-1544857D01*
X5529286Y-1887714D02*
X5357857Y-1887714D01*
X5443571Y-1887714D02*
X5443571Y-1587714D01*
X5415000Y-1630571D01*
X5386429Y-1659143D01*
X5357857Y-1673428D01*
X5629286Y-1587714D02*
X5829286Y-1587714D01*
X5700714Y-1887714D01*
X6172143Y-1887714D02*
X6172143Y-1587714D01*
X6300714Y-1887714D02*
X6300714Y-1730571D01*
X6286428Y-1702000D01*
X6257857Y-1687714D01*
X6215000Y-1687714D01*
X6186428Y-1702000D01*
X6172143Y-1716286D01*
X6486428Y-1887714D02*
X6457857Y-1873428D01*
X6443571Y-1859143D01*
X6429286Y-1830571D01*
X6429286Y-1744857D01*
X6443571Y-1716286D01*
X6457857Y-1702000D01*
X6486428Y-1687714D01*
X6529286Y-1687714D01*
X6557857Y-1702000D01*
X6572143Y-1716286D01*
X6586428Y-1744857D01*
X6586428Y-1830571D01*
X6572143Y-1859143D01*
X6557857Y-1873428D01*
X6529286Y-1887714D01*
X6486428Y-1887714D01*
X6757857Y-1887714D02*
X6729286Y-1873428D01*
X6715000Y-1844857D01*
X6715000Y-1587714D01*
X6986428Y-1873428D02*
X6957857Y-1887714D01*
X6900714Y-1887714D01*
X6872143Y-1873428D01*
X6857857Y-1844857D01*
X6857857Y-1730571D01*
X6872143Y-1702000D01*
X6900714Y-1687714D01*
X6957857Y-1687714D01*
X6986428Y-1702000D01*
X7000714Y-1730571D01*
X7000714Y-1759143D01*
X6857857Y-1787714D01*
X7115000Y-1873428D02*
X7143571Y-1887714D01*
X7200714Y-1887714D01*
X7229286Y-1873428D01*
X7243571Y-1844857D01*
X7243571Y-1830571D01*
X7229286Y-1802000D01*
X7200714Y-1787714D01*
X7157857Y-1787714D01*
X7129286Y-1773428D01*
X7115000Y-1744857D01*
X7115000Y-1730571D01*
X7129286Y-1702000D01*
X7157857Y-1687714D01*
X7200714Y-1687714D01*
X7229286Y-1702000D01*
X7343571Y-2002000D02*
X7357857Y-1987714D01*
X7386428Y-1944857D01*
X7400714Y-1916286D01*
X7415000Y-1873428D01*
X7429286Y-1802000D01*
X7429286Y-1744857D01*
X7415000Y-1673428D01*
X7400714Y-1630571D01*
X7386428Y-1602000D01*
X7357857Y-1559143D01*
X7343571Y-1544857D01*
X-14644Y-2183356D02*
X-14644Y-2112644D01*
X-85356Y-2112644D01*
X-85356Y-2183356D01*
X-14644Y-2183356D01*
X443571Y-2283714D02*
X272143Y-2283714D01*
X357857Y-2283714D02*
X357857Y-1983714D01*
X329286Y-2026571D01*
X300714Y-2055143D01*
X272143Y-2069428D01*
X572143Y-2255143D02*
X586429Y-2269429D01*
X572143Y-2283714D01*
X557857Y-2269429D01*
X572143Y-2255143D01*
X572143Y-2283714D01*
X772143Y-1983714D02*
X800714Y-1983714D01*
X829286Y-1998000D01*
X843571Y-2012286D01*
X857857Y-2040857D01*
X872143Y-2098000D01*
X872143Y-2169429D01*
X857857Y-2226571D01*
X843571Y-2255143D01*
X829286Y-2269429D01*
X800714Y-2283714D01*
X772143Y-2283714D01*
X743571Y-2269429D01*
X729286Y-2255143D01*
X715000Y-2226571D01*
X700714Y-2169429D01*
X700714Y-2098000D01*
X715000Y-2040857D01*
X729286Y-2012286D01*
X743571Y-1998000D01*
X772143Y-1983714D01*
X1057857Y-1983714D02*
X1086429Y-1983714D01*
X1115000Y-1998000D01*
X1129286Y-2012286D01*
X1143571Y-2040857D01*
X1157857Y-2098000D01*
X1157857Y-2169429D01*
X1143571Y-2226571D01*
X1129286Y-2255143D01*
X1115000Y-2269429D01*
X1086429Y-2283714D01*
X1057857Y-2283714D01*
X1029286Y-2269429D01*
X1015000Y-2255143D01*
X1000714Y-2226571D01*
X986428Y-2169429D01*
X986428Y-2098000D01*
X1000714Y-2040857D01*
X1015000Y-2012286D01*
X1029286Y-1998000D01*
X1057857Y-1983714D01*
X1343571Y-1983714D02*
X1372143Y-1983714D01*
X1400714Y-1998000D01*
X1415000Y-2012286D01*
X1429286Y-2040857D01*
X1443571Y-2098000D01*
X1443571Y-2169429D01*
X1429286Y-2226571D01*
X1415000Y-2255143D01*
X1400714Y-2269429D01*
X1372143Y-2283714D01*
X1343571Y-2283714D01*
X1315000Y-2269429D01*
X1300714Y-2255143D01*
X1286429Y-2226571D01*
X1272143Y-2169429D01*
X1272143Y-2098000D01*
X1286429Y-2040857D01*
X1300714Y-2012286D01*
X1315000Y-1998000D01*
X1343571Y-1983714D01*
X1572143Y-2283714D02*
X1572143Y-2083714D01*
X1572143Y-2112286D02*
X1586428Y-2098000D01*
X1615000Y-2083714D01*
X1657857Y-2083714D01*
X1686428Y-2098000D01*
X1700714Y-2126571D01*
X1700714Y-2283714D01*
X1700714Y-2126571D02*
X1715000Y-2098000D01*
X1743571Y-2083714D01*
X1786428Y-2083714D01*
X1815000Y-2098000D01*
X1829286Y-2126571D01*
X1829286Y-2283714D01*
X1972143Y-2283714D02*
X1972143Y-2083714D01*
X1972143Y-2112286D02*
X1986428Y-2098000D01*
X2015000Y-2083714D01*
X2057857Y-2083714D01*
X2086428Y-2098000D01*
X2100714Y-2126571D01*
X2100714Y-2283714D01*
X2100714Y-2126571D02*
X2115000Y-2098000D01*
X2143571Y-2083714D01*
X2186429Y-2083714D01*
X2215000Y-2098000D01*
X2229286Y-2126571D01*
X2229286Y-2283714D01*
X2815000Y-1969428D02*
X2557857Y-2355143D01*
X3200714Y-1983714D02*
X3229286Y-1983714D01*
X3257857Y-1998000D01*
X3272143Y-2012286D01*
X3286428Y-2040857D01*
X3300714Y-2098000D01*
X3300714Y-2169429D01*
X3286428Y-2226571D01*
X3272143Y-2255143D01*
X3257857Y-2269429D01*
X3229286Y-2283714D01*
X3200714Y-2283714D01*
X3172143Y-2269429D01*
X3157857Y-2255143D01*
X3143571Y-2226571D01*
X3129286Y-2169429D01*
X3129286Y-2098000D01*
X3143571Y-2040857D01*
X3157857Y-2012286D01*
X3172143Y-1998000D01*
X3200714Y-1983714D01*
X3429286Y-2255143D02*
X3443571Y-2269429D01*
X3429286Y-2283714D01*
X3415000Y-2269429D01*
X3429286Y-2255143D01*
X3429286Y-2283714D01*
X3629286Y-1983714D02*
X3657857Y-1983714D01*
X3686428Y-1998000D01*
X3700714Y-2012286D01*
X3715000Y-2040857D01*
X3729286Y-2098000D01*
X3729286Y-2169429D01*
X3715000Y-2226571D01*
X3700714Y-2255143D01*
X3686428Y-2269429D01*
X3657857Y-2283714D01*
X3629286Y-2283714D01*
X3600714Y-2269429D01*
X3586428Y-2255143D01*
X3572143Y-2226571D01*
X3557857Y-2169429D01*
X3557857Y-2098000D01*
X3572143Y-2040857D01*
X3586428Y-2012286D01*
X3600714Y-1998000D01*
X3629286Y-1983714D01*
X3829286Y-1983714D02*
X4015000Y-1983714D01*
X3915000Y-2098000D01*
X3957857Y-2098000D01*
X3986428Y-2112286D01*
X4000714Y-2126571D01*
X4015000Y-2155143D01*
X4015000Y-2226571D01*
X4000714Y-2255143D01*
X3986428Y-2269429D01*
X3957857Y-2283714D01*
X3872143Y-2283714D01*
X3843571Y-2269429D01*
X3829286Y-2255143D01*
X4157857Y-2283714D02*
X4215000Y-2283714D01*
X4243571Y-2269429D01*
X4257857Y-2255143D01*
X4286429Y-2212286D01*
X4300714Y-2155143D01*
X4300714Y-2040857D01*
X4286429Y-2012286D01*
X4272143Y-1998000D01*
X4243571Y-1983714D01*
X4186428Y-1983714D01*
X4157857Y-1998000D01*
X4143571Y-2012286D01*
X4129286Y-2040857D01*
X4129286Y-2112286D01*
X4143571Y-2140857D01*
X4157857Y-2155143D01*
X4186428Y-2169429D01*
X4243571Y-2169429D01*
X4272143Y-2155143D01*
X4286429Y-2140857D01*
X4300714Y-2112286D01*
X4557857Y-2083714D02*
X4557857Y-2283714D01*
X4486429Y-1969428D02*
X4415000Y-2183714D01*
X4600714Y-2183714D01*
X4700714Y-1983714D02*
X4700714Y-2040857D01*
X4815000Y-1983714D02*
X4815000Y-2040857D01*
X5257857Y-2398000D02*
X5243571Y-2383714D01*
X5215000Y-2340857D01*
X5200714Y-2312286D01*
X5186429Y-2269429D01*
X5172143Y-2198000D01*
X5172143Y-2140857D01*
X5186429Y-2069428D01*
X5200714Y-2026571D01*
X5215000Y-1998000D01*
X5243571Y-1955143D01*
X5257857Y-1940857D01*
X5529286Y-2283714D02*
X5357857Y-2283714D01*
X5443571Y-2283714D02*
X5443571Y-1983714D01*
X5415000Y-2026571D01*
X5386429Y-2055143D01*
X5357857Y-2069428D01*
X5643571Y-2012286D02*
X5657857Y-1998000D01*
X5686428Y-1983714D01*
X5757857Y-1983714D01*
X5786428Y-1998000D01*
X5800714Y-2012286D01*
X5815000Y-2040857D01*
X5815000Y-2069428D01*
X5800714Y-2112286D01*
X5629286Y-2283714D01*
X5815000Y-2283714D01*
X6172143Y-2283714D02*
X6172143Y-1983714D01*
X6300714Y-2283714D02*
X6300714Y-2126571D01*
X6286428Y-2098000D01*
X6257857Y-2083714D01*
X6215000Y-2083714D01*
X6186428Y-2098000D01*
X6172143Y-2112286D01*
X6486428Y-2283714D02*
X6457857Y-2269429D01*
X6443571Y-2255143D01*
X6429286Y-2226571D01*
X6429286Y-2140857D01*
X6443571Y-2112286D01*
X6457857Y-2098000D01*
X6486428Y-2083714D01*
X6529286Y-2083714D01*
X6557857Y-2098000D01*
X6572143Y-2112286D01*
X6586428Y-2140857D01*
X6586428Y-2226571D01*
X6572143Y-2255143D01*
X6557857Y-2269429D01*
X6529286Y-2283714D01*
X6486428Y-2283714D01*
X6757857Y-2283714D02*
X6729286Y-2269429D01*
X6715000Y-2240857D01*
X6715000Y-1983714D01*
X6986428Y-2269429D02*
X6957857Y-2283714D01*
X6900714Y-2283714D01*
X6872143Y-2269429D01*
X6857857Y-2240857D01*
X6857857Y-2126571D01*
X6872143Y-2098000D01*
X6900714Y-2083714D01*
X6957857Y-2083714D01*
X6986428Y-2098000D01*
X7000714Y-2126571D01*
X7000714Y-2155143D01*
X6857857Y-2183714D01*
X7115000Y-2269429D02*
X7143571Y-2283714D01*
X7200714Y-2283714D01*
X7229286Y-2269429D01*
X7243571Y-2240857D01*
X7243571Y-2226571D01*
X7229286Y-2198000D01*
X7200714Y-2183714D01*
X7157857Y-2183714D01*
X7129286Y-2169429D01*
X7115000Y-2140857D01*
X7115000Y-2126571D01*
X7129286Y-2098000D01*
X7157857Y-2083714D01*
X7200714Y-2083714D01*
X7229286Y-2098000D01*
X7343571Y-2398000D02*
X7357857Y-2383714D01*
X7386428Y-2340857D01*
X7400714Y-2312286D01*
X7415000Y-2269429D01*
X7429286Y-2198000D01*
X7429286Y-2140857D01*
X7415000Y-2069428D01*
X7400714Y-2026571D01*
X7386428Y-1998000D01*
X7357857Y-1955143D01*
X7343571Y-1940857D01*
M02*
